<?xml version="1.0" encoding="UTF-8"?>
<svg id="Camada_1" data-name="Camada 1" xmlns="http://www.w3.org/2000/svg" viewBox="0 0 1364.31 1348.09">
  <defs>
    <style>
      .cls-1 {
        fill: #a4b8bf;
        stroke-width: 0px;
      }
    </style>
  </defs>
  <path class="cls-1" d="M103.33,1195.85c3.07.89,6.23,1.56,9.19,2.73,6.21,2.47,9.82,7.95,9.27,13.52-.57,5.77-4.81,9.67-12.1,10.66-2.06.28-4.23-.33-6.35-.53,0-8.8,0-17.59,0-26.39Z"/>
  <path class="cls-1" d="M103.33,734.03c3.18.06,6.38-.07,9.54.22,3.16.28,6.43.56,9.39,1.59,4.61,1.6,7.56,6.18,6.97,9.73-.58,3.5-5.21,6.19-10.45,5.34-5.21-.85-10.31-2.42-15.45-3.67,0-4.4,0-8.8,0-13.2Z"/>
  <path class="cls-1" d="M103.33,945.15c2.36,1.3,5,2.25,7.02,3.95,10.91,9.17,9.17,21.41-3.9,28.17-.94.48-2.07.58-3.12.86,0-11,0-21.99,0-32.99Z"/>
  <path class="cls-1" d="M103.33,809.9c4.78-.59,7.32,2.04,8.05,6.29,1.05,6.13-2.43,9.12-8.05,10.21v-16.49Z"/>
  <path class="cls-1" d="M756.87,717.89c-18.87-1.09-33.63-9.4-42.86-26.04-8.48-15.3-1.67-28.28,15.73-31.44,16.37-2.97,37.9,6.67,46.97,21.23,4.87,7.81,7.34,16.08,2.45,24.84-4.83,8.64-12.85,11.38-22.3,11.41Z"/>
  <path class="cls-1" d="M701.06,750.42c-18.2-2.27-31.03-8.95-39.65-22.21-2.6-4-4.23-8.98-5-13.73-1.33-8.23,2.77-15.53,10.37-18.67,4.48-1.85,9.54-3.42,14.29-3.26,16.24.54,29.72,7.21,39.28,20.64,2.18,3.06,3.72,6.77,4.76,10.4,2.52,8.83-1.17,18.43-9.35,22.45-5.24,2.58-11.33,3.43-14.7,4.39Z"/>
  <path class="cls-1" d="M788.17,627.72c15.68.58,28.71,7.6,38.8,20.3,1.35,1.69,2.43,3.65,3.35,5.62,7.19,15.42-.81,29.03-17.82,30.41-16.99,1.38-37.92-10.76-45.89-26.62-7.55-15.01-.73-27.58,15.97-29.41,1.63-.18,3.27-.19,5.6-.31Z"/>
  <path class="cls-1" d="M640.61,780.2c-14.56-.97-27.26-7.37-36.09-20.53-3.71-5.52-6.04-11.66-4.57-18.54,1.34-6.28,5.06-10.8,10.89-13.45,8.93-4.05,17.97-3.78,27.07-.49,11.16,4.03,20.45,10.38,25.73,21.35,7.13,14.82-.73,29.1-17.05,31.28-1.62.22-3.26.21-6,.37Z"/>
  <path class="cls-1" d="M812.47,777.55c-16.48-.1-33.7-12.41-38.94-27.84-5.75-16.92,3.19-29.58,21.16-29.95,15.81-.33,33.02,10.69,38.94,25.35,1.39,3.45,2.13,7.38,2.2,11.11.27,13.29-8.82,21.42-23.36,21.33Z"/>
  <path class="cls-1" d="M738.27,753.5c17.61-.08,34.91,12.96,39.23,29.58,3.57,13.73-4.23,25.59-18.17,27.61-19.88,2.89-41.65-13-44.84-32.73-2.28-14.1,7.73-24.39,23.78-24.46Z"/>
  <path class="cls-1" d="M691.02,842.98c-15.66-.98-30.73-12.92-35.15-27.85-4.25-14.34,3.79-26.46,18.77-28.26,15.52-1.87,32.27,7.11,39.43,21.26,4.21,8.33,4.87,16.8-.21,24.99-4.56,7.36-12.29,10.52-22.84,9.86Z"/>
  <path class="cls-1" d="M889.13,720.82c-.07,13.95-8.43,21.92-21.03,21.97-18.07.08-37.79-16.29-41.09-34.11-1.75-9.44,2.61-17.65,11.59-20.85,3.52-1.25,7.52-2.35,11.14-1.97,16.95,1.8,29.63,10.32,37.12,25.78,1.61,3.32,1.83,7.32,2.27,9.18Z"/>
  <path class="cls-1" d="M567.8,756.42c12.48.41,23.79,6.44,31.92,17.86,5.02,7.05,6.99,15.04,2.75,23.29-4.2,8.17-11.7,11.52-20.38,11.69-13.38.26-24.59-5.04-33.39-15.09-6.56-7.49-9.86-16.26-5.9-25.87,4.19-10.15,13.51-11.89,25-11.87Z"/>
  <path class="cls-1" d="M855.28,648.87c-16.13-1.59-30.48-10.44-39.18-27.17-6.68-12.85-.2-24.53,14.47-25.64,18.89-1.42,33.86,6.69,44.66,22.08,4.63,6.6,6.03,14.25,2.29,21.71-3.97,7.92-11.62,9.11-22.24,9.01Z"/>
  <path class="cls-1" d="M616.67,819.15c15.51-.29,30.63,9.92,35.64,24.07,5.39,15.22-3.84,29.11-19.99,30.09-14.64.89-29.75-8.05-35.93-21.28-8.13-17.39,1.21-32.53,20.27-32.89Z"/>
  <path class="cls-1" d="M938.37,688.3c-.21,10.68-6.31,18.04-16.12,18.44-5.81.24-12.13-.95-17.51-3.19-12.15-5.04-21.03-14.01-25.22-26.66-4.33-13.08,2.56-23.27,15.99-24.67,16.77-1.74,38.5,13.99,42.16,30.58.47,2.13.56,4.34.7,5.49Z"/>
  <path class="cls-1" d="M562.98,902.54c-15.11-.69-28.67-11.47-32.45-25.79-2.93-11.1,2.14-20.9,12.92-24.99,18.16-6.88,42.29,8.02,44.34,27.37,1.49,14.09-9.14,24.12-24.81,23.41Z"/>
  <path class="cls-1" d="M516.64,836.9c-15.34-.17-29.66-9.75-34.83-23.31-4.62-12.1,1.43-23.85,14.2-26.35,15.3-3,28.31,1.86,38.26,13.77,5.91,7.08,8.82,15.34,4.35,24.42-4.47,9.06-12.61,11.55-21.97,11.48Z"/>
  <path class="cls-1" d="M879.9,563.57c15.3,1.74,29.18,8.28,38.53,22.63,1.45,2.23,2.47,4.9,3.08,7.51,2.49,10.74-2.64,18.32-13.63,19.94-3.17.47-6.58.29-9.73-.33-14.65-2.86-26.41-10.38-34.35-23.09-10.02-16.03-.09-25.95,16.11-26.66Z"/>
  <path class="cls-1" d="M519.41,908.68c-.14,13.04-8.92,21.58-21.32,22.19-15.22.75-30.71-11.31-33.7-26.22-1.68-8.39,2-17.06,9.34-21.14,10.15-5.64,20.21-4.21,29.77,1.42,9.53,5.61,15.7,13.62,15.91,23.75Z"/>
  <path class="cls-1" d="M965.73,670.87c-16.16-.14-35.66-16.16-39.19-32.2-2.26-10.25,3.57-18.48,14.03-19.78,17.81-2.22,40.43,15.44,42.68,33.3,1.34,10.68-6.25,18.77-17.52,18.68Z"/>
  <path class="cls-1" d="M824.76,855.66c-.38,11-9.18,19.45-20.2,19.38-15.87-.09-31.65-15.73-31.84-31.57-.13-10.92,6.76-18.72,17.54-19.84,16.8-1.75,35.09,15.23,34.5,32.03Z"/>
  <path class="cls-1" d="M441,815.78c12.46.33,22.32,5.66,29.16,15.85,9.35,13.93,1.94,29.65-14.58,31.58-14.54,1.7-29.33-6.14-35.46-18.8-6.75-13.93.5-26.81,16.01-28.41,1.63-.17,3.28-.16,4.87-.23Z"/>
  <path class="cls-1" d="M742.09,908.34c-15.38.17-30.86-14.5-31.56-29.91-.57-12.51,8.98-21.68,21.8-20.95,14.42.82,28.31,13.87,29.95,28.14,1.41,12.24-7.78,22.58-20.2,22.72Z"/>
  <path class="cls-1" d="M884.29,819.83c.44,10.82-6.96,19.23-17.58,19.99-16.76,1.2-33.78-14.08-34.43-30.91-.44-11.46,6.1-18.93,17.36-19.84,16.64-1.34,33.98,14.05,34.65,30.76Z"/>
  <path class="cls-1" d="M622.23,644.08c13.28.32,23.4,4.26,31.5,12.34,2.99,2.98,5.56,6.94,6.89,10.94,2.92,8.81-1.54,16.56-10.3,19.5-15.76,5.27-39.02-4.85-46.43-20.2-4.44-9.2-.92-17.99,8.76-20.98,3.62-1.12,7.54-1.27,9.58-1.59Z"/>
  <path class="cls-1" d="M425.62,957.33c-11.11-1.38-21-6.41-26.52-17.88-6.33-13.16-.28-26.34,13.37-29.61,15.35-3.67,33.27,7.79,36.34,23.24,2.57,12.97-7.99,24.55-23.19,24.24Z"/>
  <path class="cls-1" d="M697.03,919.11c.33,11.49-7.35,20.08-18.7,20.92-15.84,1.17-31.52-12.74-32.36-28.71-.59-11.21,7.05-19.68,18.8-20.84,15.43-1.53,31.8,13,32.26,28.63Z"/>
  <path class="cls-1" d="M675.26,612.77c13.04,1.27,24.28,5.14,32.96,14.47,2.19,2.35,4.08,5.26,5.21,8.25,3.3,8.69-.49,16.57-9.27,19.76-2.55.93-5.32,1.81-7.98,1.77-15.75-.2-28.99-5.97-38.03-19.22-6.93-10.15-3.47-19.5,8.07-23.16,3.1-.99,6.41-1.35,9.03-1.87Z"/>
  <path class="cls-1" d="M922.84,532.34c13.47,1.08,25.86,8.26,34.6,21.32,1.2,1.79,2.16,3.82,2.8,5.87,3.05,9.79-1.94,17.62-12.13,18.76-3.19.36-6.61.22-9.72-.53-12.62-3.02-23.11-9.61-30.74-20.19-3.85-5.34-7.47-11.22-3.86-18.09,3.57-6.81,10.25-7.85,19.05-7.14Z"/>
  <path class="cls-1" d="M383.09,889.22c-10.58-.42-20.59-5.35-26.92-16.19-7.78-13.31-.94-27.39,14.27-29.41,12.42-1.65,22.67,3.1,30.55,12.57,5.18,6.23,7.62,13.52,4.01,21.42-3.87,8.48-11.18,11.57-21.91,11.61Z"/>
  <path class="cls-1" d="M939.42,786.13c-.07,10.51-6.92,17.44-17.4,17.61-15.55.25-31.9-14.96-33.03-30.75-.79-11.01,6.43-18.95,17.5-19.22,16.37-.4,33.05,15.98,32.94,32.36Z"/>
  <path class="cls-1" d="M723.01,582.07c13.37-.12,23.8,4.25,32.84,11.98,2.45,2.1,4.59,4.79,6.19,7.61,6.07,10.73.76,20.91-11.76,22.96-14.76,2.42-34.81-6.94-42.56-19.88-5.78-9.65-2.27-18.81,8.44-21.67,2.62-.7,5.4-.8,6.85-1Z"/>
  <path class="cls-1" d="M568.18,674.26c12.72.29,22.61,4.57,30.54,12.82,2.56,2.66,4.68,6.19,5.79,9.71,2.77,8.75-1.57,16.61-10.15,19.66-15.04,5.35-38.5-4.67-44.96-19.2-4.38-9.85-.17-19.07,10.2-21.84,3.14-.84,6.49-.88,8.58-1.14Z"/>
  <path class="cls-1" d="M608.81,970.83c-14.55.03-28.72-13.35-29.37-27.75-.46-10.17,6.92-18.84,17.36-20.39,15.59-2.31,32.12,11.58,32.51,27.31.29,11.64-8.73,20.8-20.49,20.82Z"/>
  <path class="cls-1" d="M1023.78,619.11c-.1,9.5-6.08,15.2-14.83,15.29-14.57.16-34.45-15.35-37.96-29.62-2.93-11.92,3-19.52,15.1-19.36,14.93.2,33.06,14.09,36.88,28.36.56,2.09.66,4.31.81,5.32Z"/>
  <path class="cls-1" d="M510.79,703.67c12.46-.12,22.79,4.28,30.81,13.45,4.48,5.12,7.14,11.08,4.56,18.15-2.58,7.09-8.49,9.75-15.21,10.92-12.94,2.25-30.09-5.74-36.94-16.97-7.27-11.92-1.9-23.08,12.12-25.14,1.62-.24,3.27-.29,4.66-.41Z"/>
  <path class="cls-1" d="M990.5,749.97c.33,10.85-6.4,17.69-17.07,17.34-15.13-.49-31.53-17.31-31.67-32.49-.09-9.52,6.93-16.62,16.47-16.63,15.2-.02,31.82,16.33,32.28,31.78Z"/>
  <path class="cls-1" d="M789.99,592.28c-13.36-1.61-24.45-7.05-33.08-17.08-1.75-2.03-3.11-4.54-4.08-7.06-2.42-6.28.02-12.71,6.12-14.98,4.03-1.5,8.57-2.71,12.77-2.42,11.2.76,21.45,4.64,29.88,12.34,2.4,2.19,4.67,4.75,6.26,7.57,5.47,9.72,1,19.05-9.94,21.03-2.68.49-5.46.43-7.94.6Z"/>
  <path class="cls-1" d="M376.86,963.58c-.22,8.33-6.03,15.57-14.27,17.8-13.26,3.58-28.62-4.03-33.63-16.67-5-12.61,1.75-24.71,15.07-27.04,16.43-2.87,33.25,10.39,32.84,25.91Z"/>
  <path class="cls-1" d="M452.5,731.53c11.16.94,20.69,4.62,28.02,12.81,4.64,5.18,7.13,11.3,4.53,18.17-2.87,7.58-9.32,10.43-16.92,10.85-11,.6-20.44-3.22-28.31-10.83-5.91-5.73-9.28-12.61-6.07-20.74,3.34-8.44,11.35-9.36,18.75-10.25Z"/>
  <path class="cls-1" d="M558.9,980.09c0,10.62-7.24,18.49-18,19.57-15.99,1.6-31.14-13.91-29.11-29.83,1-7.87,5.56-12.83,12.97-15.12,16.13-4.98,34.14,8.46,34.14,25.37Z"/>
  <path class="cls-1" d="M316.28,913.27c-11.7-.3-20.72-4.84-26.55-14.49-7.2-11.93-1.59-24.75,11.9-28,11.6-2.79,26.24,3.92,32.17,14.76,6.64,12.14.52,24.87-13.12,27.23-1.61.28-3.26.38-4.4.5Z"/>
  <path class="cls-1" d="M982.15,542.85c-14.75.15-33.86-12.13-39.54-25.42-3.88-9.08.54-16.38,10.55-17.42,15.34-1.59,35.31,10.13,41.53,24.37,4.64,10.64-.58,18.34-12.54,18.47Z"/>
  <path class="cls-1" d="M1005.5,683.22c16.04,0,32.63,17.75,31.54,33.72-.59,8.66-6.53,13.97-15.18,13.55-15-.73-31.39-18.18-31.03-33.06.21-8.61,5.99-14.22,14.66-14.22Z"/>
  <path class="cls-1" d="M1060.45,583.95c.09,8.02-3.85,12.97-10.63,13.45-3.69.26-7.65-.4-11.19-1.55-10.81-3.52-18.97-10.62-24.98-20.18-1.15-1.83-2.09-3.87-2.7-5.94-3.33-11.24,2.31-18.28,14.09-17.73,13.75.65,30.57,13.64,34.48,26.74.62,2.07.78,4.28.94,5.2Z"/>
  <path class="cls-1" d="M392.35,759.49c12.26.66,21.29,5.15,27.54,14.27,7.16,10.43,2.3,22.12-10.15,25.23-12.29,3.06-28.94-4.28-35.14-15.48-5.94-10.73-1.18-21.04,10.89-23.35,2.65-.51,5.4-.53,6.87-.67Z"/>
  <path class="cls-1" d="M813.91,519.52c12.4,1.67,22.63,5.44,30.59,13.62,2.95,3.03,5.28,7.02,6.84,10.98,1.93,4.88-.53,10.16-5.36,12.39-2.91,1.34-6.26,2.42-9.41,2.41-15.18-.03-27.57-6.29-37.28-17.87-1.04-1.24-1.87-2.72-2.51-4.22-2.99-6.9-.17-13.63,6.97-15.75,3.62-1.08,7.52-1.19,10.16-1.57Z"/>
  <path class="cls-1" d="M467.74,1027.45c-13.2.44-25.92-10.76-27.01-23.78-.69-8.26,4.69-16.38,12.62-19.08,15-5.09,32.34,6.66,33.13,22.46.57,11.47-7.28,20.02-18.74,20.4Z"/>
  <path class="cls-1" d="M302.63,987.46c.2,10.7-8.92,19.27-20.36,19.1-10.91-.16-21.42-7.86-24.91-18.25-2.79-8.29.09-17.05,7.66-21.27,8.28-4.62,16.88-4.05,25.02.55,7.63,4.32,12.06,10.92,12.6,19.87Z"/>
  <path class="cls-1" d="M393.95,1053.82c-12.88.43-24.68-10.47-25.1-23.19-.34-10.32,7.86-18.75,18.47-19,12.7-.3,24.96,10.97,25.26,23.23.25,10.17-8.03,18.6-18.63,18.95Z"/>
  <path class="cls-1" d="M244.63,936.17c-8.66-.15-16.28-3.76-21.81-11.37-4.14-5.69-5.49-12.09-2.66-18.58,2.87-6.58,8.66-9.57,15.68-10.17,9.4-.81,17.17,2.66,23.42,9.47,5.17,5.62,7.19,12.26,4.55,19.68-2.44,6.86-9.64,10.96-19.19,10.97Z"/>
  <path class="cls-1" d="M872.99,525.98c-12.77-1.26-24.94-6.76-34.12-18.05-1.34-1.65-2.27-3.76-2.93-5.8-1.62-5.07.91-10.42,6.1-11.73,4.17-1.06,8.69-1.61,12.96-1.25,11.34.95,21.13,5.71,29.04,13.95,4.36,4.55,7.63,9.85,4.57,16.29-2.73,5.74-8.42,6.41-15.62,6.59Z"/>
  <path class="cls-1" d="M990.17,467.4c13.66,1.77,26.53,8.11,34.89,21.83,1.36,2.23,1.89,5.14,2.18,7.8.54,4.85-2.31,8.65-6.99,9.67-2.12.46-4.38.84-6.51.62-15.19-1.56-26.73-9.21-35.31-21.61-.31-.45-.51-.97-.75-1.46-4.38-9.05.34-16.52,12.5-16.84Z"/>
  <path class="cls-1" d="M1079.85,679.49c.17,9.57-6.62,15.51-15.79,13.83-12.8-2.34-26.23-16.29-27.93-29.03-1.52-11.34,5.24-17.85,16.48-15.86,13.63,2.41,27.01,17.66,27.24,31.06Z"/>
  <path class="cls-1" d="M338.65,823.95c-10.47-.28-19.08-4.34-25.05-13.04-7.39-10.77-2.43-22.49,10.3-24.49,9.63-1.51,18.39.63,25.95,6.99,6.92,5.82,9.63,13.3,7.36,20.16-2.2,6.66-9.13,10.54-18.56,10.38Z"/>
  <path class="cls-1" d="M203.68,988.98c9.92.3,19.14,6.99,22.39,16.26,3.29,9.36-1.34,19.06-10.69,22.4-13.27,4.74-28.69-4.14-31.29-18.01-2.04-10.91,7.54-21.02,19.59-20.65Z"/>
  <path class="cls-1" d="M803.22,959.46c.34,14.17-11.94,22.02-24.82,15.78-8.55-4.14-13.58-11.09-14.86-20.42-1.8-13.08,9.23-22.38,21.82-18.69,9.87,2.89,17.61,13,17.86,23.33Z"/>
  <path class="cls-1" d="M1057.79,518.52c14.31.05,32.22,14.38,35.04,28.05,1.88,9.09-3.6,15.59-12.7,14.14-15.19-2.43-25.71-11.47-32.69-24.9-.49-.95-.63-2.1-.86-3.17-1.79-8.49,2.7-14.14,11.21-14.11Z"/>
  <path class="cls-1" d="M851.82,942.38c-14.44.2-26.69-14.89-23.68-29.14,1.86-8.79,9.37-13.86,18.31-12.35,11.12,1.88,20.75,12.91,21.12,24.18.32,9.77-6.42,17.19-15.75,17.31Z"/>
  <path class="cls-1" d="M886.15,457.05c14.12,1.9,26.76,6.42,35.26,18.52,5.39,7.67,1.8,15.21-7.59,16.74-13.03,2.12-34.69-8.63-40.68-20.21-2.82-5.45-.67-11.38,5.08-13.34,2.54-.87,5.28-1.16,7.93-1.71Z"/>
  <path class="cls-1" d="M736.58,993.76c-.39,12.07-11.47,19.66-22.88,15.67-10.73-3.76-17.77-14.4-16.71-25.25.96-9.84,9.88-16.6,19.58-14.85,11.29,2.03,20.37,13.12,20.01,24.43Z"/>
  <path class="cls-1" d="M172.62,958.2c-12.29-.34-22.77-9.66-23.31-20.72-.35-7.14,3.08-12.63,9.64-15.44,12.03-5.15,27.95,1.85,32.23,14.17,4.01,11.54-5.12,22.37-18.56,22Z"/>
  <path class="cls-1" d="M315.65,1039.24c12,1.43,21.86,12.87,20.48,23.75-1.3,10.22-10.96,17.24-21.44,15.58-12.14-1.92-21.16-13.27-19.45-24.46,1.45-9.53,10.41-16.06,20.41-14.86Z"/>
  <path class="cls-1" d="M273.99,847.59c-11.51.26-22.33-6.42-26.29-16.24-2.93-7.28-.22-14.5,6.75-17.94,11.78-5.82,29.46.36,35.3,12.33,5.37,11.01-2.23,21.55-15.75,21.85Z"/>
  <path class="cls-1" d="M928.46,890.86c-.25,11.45-8.87,18.08-19.97,15.37-10.83-2.65-19.88-14.38-19.68-25.49.19-10.41,8.26-17.18,18.66-15.65,11.69,1.72,21.26,13.47,20.99,25.77Z"/>
  <path class="cls-1" d="M947.57,842.88c.32-10.77,8.51-16.79,18.95-13.92,10.72,2.95,19.65,14.54,19.65,25.49,0,10.58-8.01,17.05-18.52,14.97-11.17-2.21-20.43-14.46-20.07-26.54Z"/>
  <path class="cls-1" d="M1106.21,655.53c-13.47-.74-29.08-16.89-29.49-30.48-.24-7.97,5.87-13.31,13.75-12,12.72,2.12,26.09,16.03,27.79,28.93,1.09,8.26-4,13.99-12.05,13.55Z"/>
  <path class="cls-1" d="M649.99,1041.58c-12.34-.23-22.8-11.7-21.87-23.98.8-10.54,10.78-17.72,21.02-15.11,9.03,2.3,16.47,10.53,17.72,19.6,1.5,10.88-6.12,19.68-16.87,19.48Z"/>
  <path class="cls-1" d="M1019.8,435.72c13.58,1.5,26.19,7.99,33.75,22.17,4.03,7.57-.53,15.04-8.96,14.4-15.65-1.19-27.98-8.72-35.95-22.28-4.32-7.35.36-14.06,11.16-14.29Z"/>
  <path class="cls-1" d="M1087.74,484.52c13.79-.03,32.06,15.13,34.44,28.58,1.08,6.07-2.77,10.92-8.88,11.15-1.09.04-2.21.07-3.26-.16-14.92-3.26-25.73-11.7-31.46-25.95-2.88-7.16,1.74-13.6,9.16-13.62Z"/>
  <path class="cls-1" d="M1015.15,791.81c9.51.84,16.32,6.69,20.72,15.47,2.45,4.88,3.94,10.13,2.12,15.8-2.24,6.96-8.13,10.68-15.12,9.25-11.5-2.35-22.15-16.41-21.13-27.87.64-7.2,6.01-12.57,13.4-12.65Z"/>
  <path class="cls-1" d="M127.47,1013.64c8.31-.18,14.85,3.11,19.34,10.12,6.24,9.73,2.14,21.45-8.75,25.33-11.36,4.04-25.48-4.27-27.55-16.22-1.81-10.44,5.71-18.97,16.95-19.22Z"/>
  <path class="cls-1" d="M626.6,603.23c-11.67-.95-20.65-4.52-27.57-12.24-6.43-7.18-4.28-15.48,4.87-17.62,13.77-3.21,26,.36,36.13,10.29,3.24,3.18,5.1,7.22,3.42,11.92-1.68,4.68-5.63,6.43-10.17,7.07-2.69.38-5.42.48-6.68.58Z"/>
  <path class="cls-1" d="M510.04,629.78c10.09,1.26,18.96,3.65,25.67,10.93,3.56,3.87,5.35,8.31,3.15,13.47-1.92,4.51-6.02,6.25-10.46,6.82-11.56,1.48-21.61-2.1-29.94-10.12-3.61-3.48-6.55-7.72-4.5-13.11,1.72-4.52,5.86-6.24,10.31-7.11,2.13-.42,4.3-.66,5.77-.88Z"/>
  <path class="cls-1" d="M236.86,1065.16c10.98-.29,21.27,9.53,21.32,20.35.04,8.92-7.18,16.39-16.41,17-10.72.71-21.58-8.83-22.26-19.53-.58-9.27,7.49-17.55,17.35-17.81Z"/>
  <path class="cls-1" d="M557.29,1050.72c-.21-9.67,6.65-16.84,16.19-16.91,11.25-.09,20.95,9.2,21.5,20.58.47,9.67-6.08,17.41-15.26,18.05-11.12.77-22.17-9.94-22.42-21.72Z"/>
  <path class="cls-1" d="M563.2,601.6c10.75.74,19.89,4.01,26.67,12.03,6.47,7.64,3.25,16.62-6.66,18.4-12.72,2.28-23.9-1.17-33.18-10.24-3.25-3.18-5.55-7.07-4.21-11.79,1.57-5.51,6.19-7.3,11.33-7.98,2.17-.29,4.37-.31,6.05-.41Z"/>
  <path class="cls-1" d="M918.54,426.54c12.83,1.1,23.58,5.73,31.89,15.25,2.97,3.4,5.05,7.42,2.79,11.96-1.89,3.78-5.81,5.17-9.64,5.09-14.97-.33-27.54-6.06-36.67-18.12-4.34-5.73-1.46-12.23,5.52-13.51,2.13-.39,4.32-.47,6.12-.66Z"/>
  <path class="cls-1" d="M205.3,869.73c-8.79-.19-16-3.68-20.92-10.96-6.81-10.09-1.35-21.5,10.76-22.91,7.36-.86,14.14.67,20.08,5.27,6.37,4.93,9.13,12.18,7.15,18.67-1.95,6.39-8.32,10.1-17.07,9.92Z"/>
  <path class="cls-1" d="M1152.29,608.36c-.06,6.79-5.34,10.96-12.19,9.65-11.95-2.3-25.24-16.47-26.71-28.48-.82-6.67,4-11.63,10.87-11.19,13.49.87,28.15,16.58,28.03,30.02Z"/>
  <path class="cls-1" d="M658.65,542.52c10.78.27,19.85,3.46,27.43,10.24,3.82,3.41,6.23,7.72,4.27,13.04-1.72,4.67-5.87,6.12-10.37,6.59-12.67,1.33-23.58-2.69-32.67-11.44-3.21-3.09-5.49-6.95-3.48-11.67,1.63-3.83,5.06-5.52,8.97-6.17,2.13-.36,4.31-.44,5.84-.58Z"/>
  <path class="cls-1" d="M467.14,688.52c-10.54-.72-18.9-4.35-24.91-12.25-5.53-7.28-2.44-15.8,6.49-17.63,12.1-2.49,22.88.5,31.65,9.36,3.14,3.17,5.3,7.24,3.75,11.92-1.73,5.22-5.85,7.73-11.18,8.29-2.17.23-4.37.24-5.8.31Z"/>
  <path class="cls-1" d="M702.09,512.76c11.04.33,20.22,3.46,27.88,10.37,3.32,3,6.12,6.67,4.69,11.5-1.42,4.79-5.59,6.78-10.13,7.17-13.35,1.15-24.93-3.13-34.14-12.86-5.55-5.86-3.26-13.31,4.35-15.2,2.63-.65,5.41-.73,7.34-.97Z"/>
  <path class="cls-1" d="M504.93,1100.71c-10.76.13-19.65-8.48-20.12-19.49-.41-9.61,6.46-17.04,15.78-17.06,10.26-.02,19.84,9.21,20.42,19.67.51,9.23-6.66,16.77-16.07,16.88Z"/>
  <path class="cls-1" d="M399.48,684.4c9.16.1,17.67,3.24,24.03,10.86,6.31,7.56,3.19,16.97-6.31,18.81-10.89,2.11-20.62-.59-28.68-8.39-3.7-3.59-6.12-7.93-4.4-13.24,1.74-5.36,6.31-7.16,11.46-7.8,1.08-.13,2.18-.15,3.89-.25Z"/>
  <path class="cls-1" d="M129.33,858.9c9.61-.21,16.31,2.91,21.1,9.64,5.73,8.04,2.55,17.89-6.71,21.27-10.23,3.74-23.02-1.66-27.63-11.67-3.53-7.66.12-16.01,8.12-18.34,2.08-.6,4.29-.76,5.11-.9Z"/>
  <path class="cls-1" d="M1086.86,781.81c.01,9.25-6.27,14.32-15.06,12.14-11.84-2.94-21.07-16.96-19.1-29.03,1.17-7.17,7.43-10.95,14.69-8.87,10.91,3.11,19.45,14.42,19.47,25.77Z"/>
  <path class="cls-1" d="M410.09,1109.45c-.17-9.2,5.92-15.72,14.91-15.95,10.64-.28,20.07,9.1,19.75,19.66-.25,8.39-7.67,15.54-16.01,15.43-9.87-.13-18.46-8.95-18.65-19.14Z"/>
  <path class="cls-1" d="M1066.19,436.96c-11.25-2.04-22.91-8.24-30.5-20.65-3.82-6.25-.35-12.52,6.93-12.47,15.43.12,26.99,7.44,34.77,20.5,4.17,7,.02,12.93-11.2,12.63Z"/>
  <path class="cls-1" d="M742.57,482.93c11.43.38,22.21,3.64,30.16,13.18,4.68,5.61,2.31,12.36-4.85,13.67-13.91,2.55-26.14-1.29-36.12-11.21-2.02-2-3.39-5.88-3.11-8.69.43-4.25,4.46-5.84,8.46-6.47,1.62-.26,3.27-.29,5.46-.48Z"/>
  <path class="cls-1" d="M351.03,740.1c-8.39-.6-16.39-3.72-22.16-11.09-5.58-7.14-2.64-15.97,6.01-17.83,10.28-2.2,19.61.04,27.38,7.4,3.79,3.59,6.07,7.99,4.3,13.28-1.78,5.32-6.47,7.07-11.5,8.02-1.07.2-2.18.13-4.03.23Z"/>
  <path class="cls-1" d="M943.52,394.98c13.99,1.42,25.16,5.36,33.6,15.05,1.39,1.6,2.3,3.73,3.07,5.75,1.17,3.05-.75,7.13-3.79,8.11-2.07.67-4.28,1.35-6.4,1.28-12.7-.42-23.35-5.56-32.14-14.61-2.82-2.91-5.01-6.92-2.54-10.35,1.97-2.74,6.05-3.95,8.2-5.23Z"/>
  <path class="cls-1" d="M162.88,1123.96c-10.63.33-19.56-7.77-19.69-17.86-.11-8.5,6.78-15.37,15.73-15.67,10.36-.34,19.6,8.06,19.75,17.97.13,8.53-6.72,15.27-15.79,15.55Z"/>
  <path class="cls-1" d="M1182.36,571.92c.15,6.32-4.67,10.2-10.93,8.28-13.07-4-21.37-12.95-24.95-26-1.84-6.71,3.58-12.15,10.25-10.97,12.44,2.19,25.33,16.62,25.63,28.69Z"/>
  <path class="cls-1" d="M1109.59,718.78c1,.32,3.18.73,5.08,1.69,9.97,5.03,15.77,13.23,16.71,24.3.75,8.82-7,14.22-15.16,11.11-9.52-3.63-17.82-15.1-18.18-25.12-.24-6.7,4.63-12.33,11.55-11.98Z"/>
  <path class="cls-1" d="M1136.94,487.19c-11.85-1.09-26.81-13.13-30.24-24.34-2.02-6.61,2.58-12.63,9.26-11.34,13.6,2.62,23.65,10.24,29.66,22.89.23.48.31,1.04.45,1.56,2.03,7.14-1.85,11.9-9.14,11.23Z"/>
  <path class="cls-1" d="M348.68,1121.26c9.13.13,17.76,8.84,17.84,18.02.08,8.52-7.33,15.41-16.01,14.9-9.74-.58-17.12-8.8-16.74-18.63.32-8.13,6.85-14.4,14.9-14.29Z"/>
  <path class="cls-1" d="M291.24,763.8c-10-.54-17.73-3.94-22.8-12.04-3.61-5.76-1.55-12.18,4.56-15.04,9.61-4.49,24.89.1,30.53,9.19,4.17,6.71,1.08,14.81-6.55,16.94-2.08.58-4.29.71-5.74.94Z"/>
  <path class="cls-1" d="M778.87,453.1c11.75.36,21.92,3.49,29.79,11.97,4.99,5.38,3.04,11.92-3.86,13.8-10.82,2.94-30.01-3.66-36.9-12.7-3.73-4.88-1.27-11.06,4.99-12.33,2.12-.43,4.3-.55,5.99-.75Z"/>
  <path class="cls-1" d="M1171.36,708.99c-.16,5.92-5.2,10.07-11.01,9.06-11.15-1.93-22.16-17.03-20.43-28,.8-5.06,5.86-8.65,10.73-7.61,10.58,2.26,21.01,15.62,20.72,26.55Z"/>
  <path class="cls-1" d="M227.78,786.51c-8.07-.68-14.91-3.65-19.6-10.51-4.31-6.29-1.97-13.41,5.13-15.95,8.4-3.02,19.4-.03,25.52,6.94,6.39,7.27,3.28,16.92-6.16,18.98-1.59.35-3.26.37-4.89.54Z"/>
  <path class="cls-1" d="M1088.39,401.74c-11.38-1.78-22.65-7.55-29.73-19.87-2.79-4.85.55-10.4,6.32-10.13,14.05.64,24.91,7.25,32.34,19.13,3.56,5.69.14,11-8.93,10.87Z"/>
  <path class="cls-1" d="M830.27,447.9c-10.81-1-19.97-4.15-27.08-11.55-1.66-1.72-3.04-5.02-2.55-7.13.48-2.05,3.31-4.62,5.48-5.04,13.07-2.51,24.91.66,34.59,9.89,2.01,1.91,3.36,5.86,2.97,8.59-.48,3.37-4.24,4.59-7.67,4.92-2.16.2-4.33.24-5.75.32Z"/>
  <path class="cls-1" d="M973.19,364.73c10.67,1.88,21.36,5.67,28.57,15.84,3.47,4.9.99,10.17-5.01,10.66-12.95,1.04-23.63-4.18-32.58-12.95-2.02-1.98-2.91-5.78-3.06-8.8-.15-2.89,4.37-4.81,9.42-4.75.55,0,1.1,0,2.66,0Z"/>
  <path class="cls-1" d="M1134.38,418.37c3.42,0,4.57-.24,5.57.04,12.11,3.37,21.59,10.15,26.85,21.81.98,2.19,1.08,5.59.05,7.68-1.59,3.21-5.37,3.61-8.63,2.82-12.94-3.14-22.33-10.76-27.6-23.07-1.8-4.21,1.67-9.2,3.76-9.28Z"/>
  <path class="cls-1" d="M270.23,1148.07c8.88.28,16.53,8.44,16.15,17.2-.34,7.87-7.54,14.21-15.38,13.55-8.11-.68-15.14-8.21-15.3-16.38-.15-7.9,6.64-14.62,14.52-14.37Z"/>
  <path class="cls-1" d="M1201.65,542.72c-1.08-.08-2.26.08-3.24-.28-11.48-4.16-19.47-11.84-22.79-23.74-1.8-6.43,2.64-10.95,8.97-9.67,11.4,2.29,23.11,15.18,23.82,26.23.27,4.25-2.76,7.59-6.75,7.46Z"/>
  <path class="cls-1" d="M970.39,964.08c-.25,6.36-2.03,10.22-5.97,12.78-3.75,2.45-9.65,1.78-13.81-1.33-5.13-3.83-7.85-9.14-8.25-15.36-.34-5.19,1.65-9.62,6.56-12.23,4.41-2.34,8.53-1.16,12.35,1.32,5.91,3.85,8.55,9.63,9.14,14.8Z"/>
  <path class="cls-1" d="M829.31,1050.48c-11.55-.37-19.64-15.41-13.63-25.31,2.52-4.16,6.39-5.84,10.98-5.44,10.3.9,17.79,13.47,13.9,23.04-2.01,4.95-6.27,7.87-11.25,7.71Z"/>
  <path class="cls-1" d="M843,393.6c8.43-.05,16.31,2.03,23.25,6.88,2.19,1.53,4.1,3.6,5.76,5.72,2.6,3.29,1.04,7.98-3.01,9.28-2.05.66-4.27,1.3-6.38,1.21-10.12-.47-19.32-3.76-27.3-10.05-2.65-2.09-4.79-4.87-3.63-8.47,1.19-3.69,4.71-4.18,8.02-4.55,1.08-.12,2.19-.02,3.28-.02Z"/>
  <path class="cls-1" d="M1206.83,670.46c-.21,7.75-5.92,11.59-11.51,9.04-10.19-4.64-16.48-12.52-17.5-23.74-.25-2.75,1.54-6.37,3.55-8.49,2.46-2.59,6.14-1.49,9.14.09,9.96,5.22,15.27,13.55,16.31,23.09Z"/>
  <path class="cls-1" d="M165.82,807.67c-8.91-.14-15.77-2.61-20.25-9.84-3.6-5.8-1.62-11.99,4.75-14.72,8.84-3.8,20.37-.03,25.73,8.4,3.52,5.54,1.34,12.55-4.71,14.8-2.01.75-4.2,1.05-5.52,1.36Z"/>
  <path class="cls-1" d="M772.96,1071.76c-.15,7.41-5.22,12.67-12.09,12.57-8.78-.14-15.76-7.98-15.57-17.5.14-7.34,5.32-12.77,12.07-12.64,8.56.16,15.8,8.32,15.6,17.58Z"/>
  <path class="cls-1" d="M190.32,1173.46c7.73.44,14.57,7.55,14.61,15.18.04,7.15-6.78,13.58-14.02,13.22-8.29-.42-15.47-8.77-14.5-16.89.77-6.46,7.33-11.89,13.91-11.51Z"/>
  <path class="cls-1" d="M1013.06,909.24c6.62.56,11.15,4.92,14.17,11.17,2.81,5.81,3.22,11.6-1.15,16.87-2.64,3.18-6.16,4.43-10.26,3.15-8.8-2.75-14.95-12.89-13.34-21.88.97-5.38,5.15-9.34,10.57-9.31Z"/>
  <path class="cls-1" d="M907.5,1002.4c-.27,4.57-1.98,9.07-6.9,11.35-4.82,2.23-10.01,1.72-13.54-2.1-3.17-3.43-5.72-7.82-7.27-12.24-1.82-5.2,1.28-11.9,5.62-13.99,4.75-2.28,9.48-1.74,13.83,1.24,4.71,3.22,8.14,9.62,8.26,15.74Z"/>
  <path class="cls-1" d="M687.13,1087.57c5.69.31,10.26,3.69,13.09,9.5,2.85,5.83,1.98,12.42-2.03,16.67-3.5,3.71-9.97,4.43-15.06,1.67-6.29-3.41-9.9-11.13-8.38-17.92,1.23-5.49,6.12-9.71,12.39-9.92Z"/>
  <path class="cls-1" d="M1230.57,501.91c-1.49.97-3.52,2.49-5.75,3.61-.81.41-2.2.06-3.18-.33-10.2-4.06-17.56-11.13-21.25-21.48-.77-2.17-.3-5.84,1.13-7.42,1.41-1.55,5.17-2.43,7.22-1.7,10.97,3.91,18.33,11.64,21.79,22.86.31.99.04,2.16.04,4.46Z"/>
  <path class="cls-1" d="M1158.01,385.28c1.32.43,4.49,1.15,7.36,2.49,7.52,3.51,13.68,8.69,17.77,16.03,1.6,2.87,3.07,6.38.28,8.86-1.69,1.5-5.15,2.23-7.39,1.66-11.61-2.96-20.25-9.86-25.12-20.99-1.65-3.76,1.28-8.09,7.1-8.04Z"/>
  <path class="cls-1" d="M1016.31,358.51c-12.97-.6-23.25-4.87-31.26-13.71-1.48-1.64-1.94-5-1.49-7.3.27-1.34,3.21-2.89,5.07-3.05,12.75-1.1,23.38,3.56,31.69,13.1,1.47,1.69,2.29,5.3,1.49,7.23-.8,1.91-4.02,2.81-5.5,3.74Z"/>
  <path class="cls-1" d="M1115.06,364.59c-.48.31-1.76,1.43-3.25,1.98-1.49.55-3.27.97-4.78.68-11.73-2.25-21.48-7.81-28.34-17.81-2.97-4.33-.58-9.28,4.45-9.54,11.66-.59,27.54,9.38,31.59,19.92.37.96.17,2.13.34,4.76Z"/>
  <path class="cls-1" d="M1083.35,893.08c-.81,1.43-2.05,5.05-4.45,7.56-2.71,2.81-8.09,2.04-11.98-.75-5.64-4.04-8.49-9.73-9.08-16.46-.35-3.94,1.12-7.47,4.45-9.86,3.2-2.29,8.36-1.91,12.17.8,5.63,4.01,8.66,9.48,8.91,18.71Z"/>
  <path class="cls-1" d="M1237.98,635.36c-.18,4.06-3.84,6.94-7.81,6.11-10.7-2.22-20.71-16.69-18.66-26.97.62-3.11,4.35-5.46,7.41-4.67,10.18,2.62,19.51,15.12,19.05,25.53Z"/>
  <path class="cls-1" d="M627.97,1136.02c-.1,7.04-5.75,12.77-12.19,12.38-7.33-.44-13.81-7.44-14.11-15.25-.27-7.06,4.86-12.88,11.51-13.03,8.15-.19,14.92,7.09,14.79,15.9Z"/>
  <path class="cls-1" d="M870.08,363.73c9.44.44,17.68,2.81,24.62,8.65,2.59,2.18,4.87,5.15,3,8.38-1.1,1.9-4.15,3.48-6.48,3.71-10.8,1.08-20.4-2.47-28.64-9.28-1.76-1.46-3.34-4.91-2.82-6.86.49-1.83,3.75-3.14,6.02-4.18,1.39-.64,3.2-.33,4.3-.41Z"/>
  <path class="cls-1" d="M556.71,557.77c-8.3-1.09-15.75-2.52-21.62-8.18-4.21-4.06-2.94-9.6,2.8-11.36,10.31-3.16,19.42-.05,27.52,6.19,1.75,1.34,3.05,4.95,2.55,7.04-.49,2.05-3.33,3.86-5.52,5.07-1.81.99-4.19.95-5.72,1.25Z"/>
  <path class="cls-1" d="M552.06,1166.48c-.2,6.31-5.53,11.85-11.34,11.8-7.27-.06-14.29-7.77-14.06-15.45.18-6.05,5.7-11.59,11.6-11.66,7.6-.09,14.07,7.08,13.81,15.31Z"/>
  <path class="cls-1" d="M1133.18,854.95c-.73,1.54-1.47,5-3.58,7.05-3.12,3.03-7.26,1.96-10.7-.13-7.14-4.32-10.89-13.32-9.15-21.31,1.12-5.15,6.68-7.82,11.56-5.55,7.3,3.4,11.51,9.93,11.88,19.94Z"/>
  <path class="cls-1" d="M459.5,612.11c-8.02.07-14.7-2.06-19.93-7.26-1.69-1.68-3.13-4.94-2.68-7.05.43-2.03,3.21-4.53,5.38-5.05,8.9-2.13,17.25-.39,24.47,5.51,2.72,2.22,4.41,5.45,3,8.58-.95,2.09-3.81,3.51-6.08,4.73-1.33.71-3.18.44-4.15.54Z"/>
  <path class="cls-1" d="M508.83,585.43c-7.86-.24-15.53-2.44-21.39-8.9-3.21-3.54-1.5-9.15,3.16-10.29,9.49-2.32,18.37-.92,26.15,5.2,2.58,2.03,5.25,5.11,3.39,8.28-1.42,2.43-4.85,3.75-7.53,5.33-.84.5-2.12.25-3.78.39Z"/>
  <path class="cls-1" d="M588.2,509.29c9.74.23,17.59,1.94,23.54,8.6,2.47,2.77,2.06,6.68-.92,8.43-9.01,5.29-26.61,1.1-32.45-7.71-1.73-2.61-.1-7.14,3.1-8.02,2.6-.72,5.32-1.03,6.73-1.29Z"/>
  <path class="cls-1" d="M645.02,499.83c-9.69-.17-17.33-2.43-23.78-7.98-3.38-2.91-2.89-7.57.89-9.31,9.17-4.22,25.15-.54,31.26,7.21,2.02,2.56,1.07,7.2-1.89,8.3-2.48.92-5.13,1.42-6.49,1.78Z"/>
  <path class="cls-1" d="M407.05,638.32c-8.48-.43-16.1-2.78-21.21-10.34-1.72-2.55-.34-7.25,2.43-8.47,8.33-3.66,20.86-1.28,27.38,5.75,1.6,1.73,2.8,5.19,2.18,7.25-.64,2.11-3.58,3.73-5.82,5.05-1.3.77-3.2.52-4.96.75Z"/>
  <path class="cls-1" d="M894.13,334.04c10.17.88,18.41,3.24,24.78,10.07,2.99,3.21,1.61,8.08-2.81,8.72-12.09,1.74-22.58-1.87-31.32-10.36-2.6-2.52-1.11-6.87,2.48-7.54,2.66-.5,5.38-.7,6.87-.89Z"/>
  <path class="cls-1" d="M1028.24,325.15c-8.15-.68-16.98-4.55-24.26-11.68-1.89-1.85-3.85-4.48-1.77-7.15,1.18-1.52,3.59-3.02,5.4-2.97,11.34.29,21.4,3.97,28.79,12.98,1.13,1.37,1.54,4.44.77,5.95-.75,1.47-3.42,2-5.29,2.85-.45.2-1.08.03-3.65.03Z"/>
  <path class="cls-1" d="M1126.45,331.16c-9.48,3.34-16.92-1.48-24.05-6.44-4.81-3.34-9.94-7.03-8.36-14.71,9.75-3.94,17.13,1.24,24.35,6.05,6.34,4.22,7.05,6.14,8.06,15.1Z"/>
  <path class="cls-1" d="M343.41,642.46c7.88,1.17,14.69,2.9,19.26,9.2,2.31,3.18.87,8.15-2.74,9.68-8.84,3.74-20.44.46-26.41-7.46-2.51-3.34-1.32-7.87,2.7-9.43,2.5-.97,5.19-1.45,7.19-1.98Z"/>
  <path class="cls-1" d="M1178.95,817.86c-1.09,1.59-2.32,4.91-4.7,6.36-1.75,1.06-5.43.44-7.48-.76-7.04-4.14-10.71-10.6-10.58-18.88.1-6.14,6.3-9.77,11.59-6.78,7.19,4.06,10.85,10.34,11.17,20.06Z"/>
  <path class="cls-1" d="M1171.48,352.56c.33,0,1.48-.26,2.46.04,10.24,3.17,18.52,8.95,23.29,18.79.78,1.6.59,4.65-.48,5.88-1.11,1.28-4.04,2.01-5.8,1.55-10.45-2.73-18.35-8.94-23.44-18.55-1.65-3.11.26-7.45,3.97-7.71Z"/>
  <path class="cls-1" d="M461.17,1180.87c6.92.14,12.93,6.69,12.87,14.03-.06,6.48-4.94,11.35-11.25,11.21-7.26-.17-12.94-6.27-12.85-13.81.07-6.2,5.32-11.55,11.23-11.43Z"/>
  <path class="cls-1" d="M1243.88,468.2c-.89-.12-2.05-.04-3.02-.43-9.61-3.81-16.51-10.39-19.97-20.25-1.5-4.28,1.56-8.13,5.68-7.4,9.66,1.73,20.1,12.38,21.66,22.1.46,2.85-1.79,6.07-4.36,5.97Z"/>
  <path class="cls-1" d="M659.08,454.89c10.7-4.14,20.92-2.29,30.43,4.25,2.19,1.51,4.26,4.02,2.75,6.87-.88,1.67-3.04,3.36-4.88,3.7-9.52,1.79-18.36-.26-26.27-5.88-3-2.13-4.08-4.96-2.03-8.95Z"/>
  <path class="cls-1" d="M296.51,686.87c-5.88-.57-11.65-2.16-15.68-6.92-1.55-1.83-2.78-5.13-2.19-7.22.56-2.01,3.43-4.24,5.66-4.76,7.16-1.67,13.95-.18,19.69,4.65,2.54,2.14,4.38,4.87,3.27,8.47-1.1,3.53-4.14,4.7-7.36,5.46-1.04.24-2.13.22-3.39.33Z"/>
  <path class="cls-1" d="M1220.15,778.88c-.99,1.61-1.87,4.77-3.87,5.8-1.91.99-5.47.57-7.42-.66-6.39-4.02-10-10.09-9.78-17.8.05-1.91,1.25-4.79,2.71-5.44,2.18-.97,5.51-1.26,7.55-.24,6.96,3.47,9.77,9.93,10.8,18.34Z"/>
  <path class="cls-1" d="M716.33,440.91c-7.97-.38-14.21-2.12-19.72-5.94-2.28-1.58-4.44-3.84-3.07-6.7.79-1.66,3.09-3.3,4.95-3.62,8.94-1.54,17.32.35,24.91,5.35,2.4,1.58,4.19,4.02,2.91,6.81-.74,1.61-2.98,2.9-4.82,3.55-1.98.7-4.29.47-5.15.54Z"/>
  <path class="cls-1" d="M927.38,321.7c-6.03-.39-13.74-2.71-20.06-8.27-1.27-1.11-1.67-3.81-1.52-5.7.08-.96,2.2-2.3,3.55-2.51,9.56-1.53,18.35.77,25.9,6.7,1.7,1.34,2.61,4.47,2.63,6.79,0,.98-3.15,2.15-5,2.92-.92.38-2.13.07-5.51.07Z"/>
  <path class="cls-1" d="M1260.25,601.44c-7.75,1.27-11.31-3.81-14.87-8.42-3.36-4.34-5.69-9.2-4.38-15.04.59-2.63,3.54-4.5,6.17-3.74,8.21,2.38,13.34,8.07,13.77,15.92.2,3.69-.43,7.43-.69,11.28Z"/>
  <path class="cls-1" d="M232.32,690.6c6.25.19,11.85,1.82,15.93,7.01,2.95,3.75,1.44,9.07-3.12,10.67-7.49,2.63-14,.48-19.8-4.36-2.68-2.24-4.43-5.49-2.59-8.65,1.17-2.01,4.08-3.09,6.35-4.34.88-.48,2.14-.25,3.24-.34Z"/>
  <path class="cls-1" d="M722.4,399.99c2.74-1.45,4.07-2.41,5.55-2.9,10.7-3.52,20.19-.77,28.69,6.03,1,.8,1.61,2.99,1.3,4.26-.31,1.26-1.89,2.87-3.15,3.11-11.2,2.14-21.38.21-32.39-10.5Z"/>
  <path class="cls-1" d="M393.79,1222.11c.16,6.05-4.02,10.59-9.84,10.68-6.84.1-12.59-5.47-12.64-12.24-.04-5.48,4.71-10.57,10.14-10.87,6.48-.36,12.15,5.36,12.34,12.44Z"/>
  <path class="cls-1" d="M1049.12,291.17c-12.67,2.87-22.36-2.05-30.77-10.51-.9-.91-1.21-3.15-.77-4.42.43-1.26,2.15-2.94,3.32-2.95,11.94-.1,22.43,3,28.62,14.41.21.38-.1,1.04-.4,3.48Z"/>
  <path class="cls-1" d="M1135.94,294.61c-.94,1.15-1.83,2.37-2.87,3.45-.3.31-1.04.28-1.57.24-10.37-.72-18.31-5.85-24.48-13.88-.79-1.03-1.07-3.63-.37-4.39,1.24-1.36,3.55-2.82,5.17-2.58,8.87,1.28,16.31,5.49,22.01,12.47.97,1.19,1.32,2.89,2.1,4.69Z"/>
  <path class="cls-1" d="M1181.4,320.61c2.21,0,3.35-.24,4.34.04,9.44,2.64,16.54,8.31,21.05,16.99.59,1.14.29,3.44-.53,4.43-.84,1.02-3.03,1.82-4.26,1.46-9.81-2.89-17.85-8.27-22.13-17.92-.57-1.28,1.03-3.52,1.52-5Z"/>
  <path class="cls-1" d="M180.51,730.83c-6.51-.27-11.85-2.22-15.24-7.93-1.69-2.83-.68-6.87,2.19-8.38,7.07-3.72,17.06-1.22,21.59,5.41,2.58,3.77.48,9.27-3.97,10.29-1.57.36-3.2.44-4.56.61Z"/>
  <path class="cls-1" d="M1241.81,721.51c2.17.56,3.32.63,4.22,1.12,6.73,3.69,10.04,9.69,10.63,17.09.15,1.84-1.02,4.51-2.47,5.55-1.39,1-4.39,1.19-5.91.34-7.17-3.98-11.27-10.16-10.3-18.58.24-2.09,2.66-3.92,3.83-5.52Z"/>
  <path class="cls-1" d="M1259.53,430.82c-12.05-2.18-18.54-9.29-22.07-19.65-.92-2.69,1.94-5.97,4.42-5.18,9.3,2.94,16.31,8.42,18.77,18.28.45,1.8-.63,3.98-1.12,6.55Z"/>
  <path class="cls-1" d="M921.06,277.14c14.41-3.35,24.92-1.28,32.92,9.26-3.11,5.66-7.62,5-11.76,4.02-7.64-1.81-15.83-3.01-21.16-13.28Z"/>
  <path class="cls-1" d="M1053.03,259.88c-9.37-.95-16.83-3.72-22.68-9.87-.91-.96-1.47-3.08-1.04-4.25.42-1.16,2.24-2.47,3.53-2.56,8.56-.59,15.79,2.93,22.09,8.32,1.37,1.17,2.5,3.89,2.11,5.5-.34,1.39-3,2.2-4.01,2.86Z"/>
  <path class="cls-1" d="M752.52,370.74c11.49-5.1,20.14-3.26,28.6,1.01,3.15,1.59,5.2,3.97,3.47,8.45-11.34,2.74-21.92,2.14-32.07-9.46Z"/>
  <path class="cls-1" d="M1114,247.87c6.72-3.63,11.86.03,16.87,2.81,8.02,4.44,12.35,10.94,9.25,12.9-5.64,3.57-10.36-.58-14.89-2.98-5.07-2.69-10.55-5.56-11.23-12.73Z"/>
  <path class="cls-1" d="M964.57,258.32c-10.06,2.57-19,.57-26.78-6.44-.6-.54-.73-2.06-.48-2.96.25-.9,1.16-2.16,1.94-2.28,9.63-1.51,18.35.19,25.07,7.88.54.62.16,2.04.25,3.8Z"/>
  <path class="cls-1" d="M779.44,344.34c1.79-2.27,2.27-3.52,3.11-3.84,9.45-3.63,17.89-.87,25.67,4.63.94.66,1.12,2.83,1.07,4.28-.03.74-1.26,1.92-2.09,2.07-9.91,1.81-19.05.54-27.75-7.14Z"/>
  <path class="cls-1" d="M1187.92,288.53c13.61.89,20.22,7.6,26.38,18.91-4.48.08-7.22.89-9.24.03-9.17-3.9-12.29-7.41-17.14-18.93Z"/>
  <path class="cls-1" d="M944.39,1085.32c-1.16,1.5-2.54,4.64-4.95,6.07-3.14,1.87-6.19-.35-8.39-2.89-3.11-3.59-3.67-7.71-1.68-12.03,1.24-2.69,5.51-4.01,8.45-2.81,4.57,1.86,6.33,5.51,6.57,11.66Z"/>
  <path class="cls-1" d="M1058.72,997.14c5.76.19,8.18,3.01,9.63,6.64,1.46,3.65,1.85,7.78-1.85,10.15-1.8,1.15-5.34,1.25-7.26.24-4.64-2.43-6.55-7.42-4.86-12.33.73-2.11,3.26-3.6,4.34-4.7Z"/>
  <path class="cls-1" d="M1037.28,214.77c12.98-1.62,16.59-.13,25.49,10.57-3.53,4.38-7.81,2.57-11.63,1.08-5.77-2.26-12.82-3.36-13.86-11.65Z"/>
  <path class="cls-1" d="M831.24,318.97c-2.76,4.59-6.71,4.41-10.46,3.85-6.33-.96-13.2-1.01-17.42-7.55,2.48-5.57,7.3-4.14,11.28-3.94,6.48.32,12.87,1.39,16.6,7.65Z"/>
  <path class="cls-1" d="M999.72,1035.04c4.08.59,6.54,3.13,8.03,6.89,1.52,3.84,1,7.39-1.6,10.52-.61.74-1.82,1.13-2.83,1.36-4.17.95-8.06-1.69-9.69-6.46-1.64-4.79-.48-9.47,2.97-11.45.88-.51,2.01-.58,3.11-.87Z"/>
  <path class="cls-1" d="M807.31,1155.76c-1.77,2.15-3.23,5.27-5.67,6.55-3.01,1.58-6.35.07-8.27-2.95-1.11-1.75-2-3.82-2.35-5.86-.66-3.75,2.25-7.68,5.83-8.39,3.62-.72,6.34.96,8.14,3.8,1.1,1.73,1.39,3.97,2.32,6.85Z"/>
  <path class="cls-1" d="M1124.84,971.91c-.78.89-1.87,3.17-3.59,3.82-1.65.63-3.95-.38-5.95-.78-.47-.1-.93-.58-1.28-.98-4.05-4.74-4.95-9.79-1.74-13.25,1.18-1.28,4.05-2.14,5.68-1.65,4.63,1.41,7.3,6.5,6.87,12.84Z"/>
  <path class="cls-1" d="M868.58,1109.81c5.44.47,9.34,5.91,8.42,11.75-.62,3.95-4.47,6.96-8.12,6.35-4.75-.8-7.74-5.16-7.55-11.02.14-4.27,3.36-7.41,7.24-7.08Z"/>
  <path class="cls-1" d="M821.43,285.29c11.58-4.42,19.47-2.21,28,4.6-2.54,1.6-4.1,3.39-5.77,3.51-8.71.59-12.63-.87-22.23-8.11Z"/>
  <path class="cls-1" d="M973.19,227.77c-9.98,2.77-17.83.22-24.87-6.11.61-1.41.86-3.07,1.44-3.19,11-2.31,16.41-.26,23.43,9.3Z"/>
  <path class="cls-1" d="M1064.37,195.45c-14.66-.26-15.8-.79-22.61-9.7,10.4-2.7,14.55-1.07,22.61,9.7Z"/>
  <path class="cls-1" d="M420.59,538.11c8.32-6.19,14.76-3.27,21.03-.24,1.06.51,1.97,2.79,1.76,4.05-.21,1.24-1.79,2.92-3.03,3.18-7.26,1.52-13.69.1-19.76-6.99Z"/>
  <path class="cls-1" d="M727.16,1195.94c-5.05-.06-8.58-4.26-8.28-9.84.22-4.01,3.74-7.17,7.49-6.74,4.4.51,7.3,4.04,7.44,9.07.12,4.3-2.77,7.56-6.66,7.51Z"/>
  <path class="cls-1" d="M531.96,489.08c-12.33,5.52-15.44,4.95-23.43-3.25,9.04-5.42,12.32-5.07,23.43,3.25Z"/>
  <path class="cls-1" d="M1195.3,256.39c8.52,2.16,14.9,6.91,18.94,14.57-2.84,3.71-5.44,2.52-7.7,1.28-5.6-3.07-11.44-6.05-13.2-12.99-.16-.62,1.06-1.6,1.96-2.86Z"/>
  <path class="cls-1" d="M651.27,1212.32c4.22.21,7.59,4.11,7.54,8.73-.04,3.86-3.56,7.51-7.03,7.3-4.19-.26-7.36-4.05-7.44-8.89-.07-4.15,3.02-7.32,6.93-7.13Z"/>
  <path class="cls-1" d="M310.52,1247.5c-5.59,3.31-11.38,1.57-18.1,1.22.16-2.73-.42-5.19.55-6.53,1.49-2.06,3.81-4.07,6.19-4.83,5.71-1.81,9.28,1.51,11.37,10.14Z"/>
  <path class="cls-1" d="M1141.6,232.34c-10.4-2.67-18.5-5.1-22.4-14.52,12.3-1.63,19.11,2.4,22.4,14.52Z"/>
  <path class="cls-1" d="M477.78,519.46c-1.64-.74-5.91-2.55-10.05-4.63-.56-.28-.8-1.94-.6-2.83.19-.85.98-1.87,1.78-2.25,4.7-2.21,9.54-1.29,14,.46,2.14.84,4.18,3.06,5.23,5.18,1.02,2.05-2.98,4.27-10.37,4.06Z"/>
  <path class="cls-1" d="M340.2,596.19c-3.78-1.96-7.55-3.75-11.12-5.85-1.58-.93-.58-4.41,1.11-5.39,4.27-2.47,8.32-.94,12.38.43,4.17,1.41,6.68,4.8,4.84,6.71-1.65,1.7-4.24,2.49-7.2,4.1Z"/>
  <path class="cls-1" d="M375.52,563.31c3.71-5.72,9.18-4.3,14.33-2.87,3.04.84,6.33,2.16,6.84,6.07.38,2.85-4.5,5.33-9.12,4.31-4.68-1.03-9.9-1.44-12.06-7.5Z"/>
  <path class="cls-1" d="M1175.83,932.17c-.56.89-1.53,3.96-2.78,4.08-2.29.22-5.35-.68-6.99-2.25-3.33-3.19-4.65-7.47-2.02-11.83.69-1.15,2.69-2.21,4.02-2.13,4.46.28,7.44,4.77,7.77,12.14Z"/>
  <path class="cls-1" d="M570.62,462.62c-3.35,1.3-6.1,3.29-8.79,3.23-5.73-.13-11.63-.91-15.28-6.75,10.64-5.08,13.8-4.66,24.07,3.53Z"/>
  <path class="cls-1" d="M583.06,432.15c9.88-5.07,14.01-4.49,21.8,3.1-9.55,4.91-13.89,4.29-21.8-3.1Z"/>
  <path class="cls-1" d="M863.53,261.76c-12.85,3.77-14.68,3.38-22.9-3.93,10.96-3.85,11.49-3.77,22.9,3.93Z"/>
  <path class="cls-1" d="M244.74,637.7c-1.06.8-2.13,2.13-3.5,2.56-4.5,1.43-8.46-.34-11.9-3.06-1.03-.81-1.9-2.87-1.59-4.02.34-1.24,2-2.65,3.34-2.99,5.07-1.3,9.46.37,12.97,4.14.58.63.42,1.95.67,3.37Z"/>
  <path class="cls-1" d="M277.41,610.44c7.56-4.55,12.96-3.29,17.99.48.98.74,1.32,2.73,1.37,4.17.03.76-1.07,2.03-1.89,2.26-6.82,1.98-12.48.58-17.47-6.91Z"/>
  <path class="cls-1" d="M616.39,405.58c8.84-5.25,11.17-4.98,20.01,2.35-9.81,4.69-11.53,4.49-20.01-2.35Z"/>
  <path class="cls-1" d="M874.79,233.8c-9.19,2.86-15.51,1.86-22.59-3.65,2.67-1.37,4.33-2.91,6.07-3,5.39-.27,10.63.52,16.52,6.65Z"/>
  <path class="cls-1" d="M667.88,381.64q-12.78,2.43-22.38-3.53c2.4-1.14,4.14-2.57,5.98-2.73,5.46-.47,10.69.32,16.41,6.25Z"/>
  <path class="cls-1" d="M956.14,190.31c8.45-2.73,14.84-.42,20.65,3.99-.77,5.04-3.77,4.96-6.23,4.47-5.46-1.09-11.71-1.24-14.42-8.46Z"/>
  <path class="cls-1" d="M1258.92,388.04c-5.92-3.05-8.58-7.73-9.53-13.86,10.65-2.45,12.6.44,9.53,13.86Z"/>
  <path class="cls-1" d="M183.03,661.8c-1.59-.71-4.16-1.5-6.25-2.98-.99-.7-1.69-2.9-1.34-4.07.35-1.18,2.03-2.49,3.34-2.78,3.81-.85,7.56-.22,10.35,2.76.96,1.02,1.83,2.94,1.51,4.1-.31,1.12-2.14,1.98-3.47,2.59-.9.42-2.09.22-4.14.37Z"/>
  <path class="cls-1" d="M1222.55,893.04c-.8.94-1.82,2.92-3.44,3.75-.96.5-3.09-.51-4.27-1.4-1.21-.92-2.17-2.4-2.78-3.84-1.94-4.53-.75-9.15,2.29-9.67,3.23-.55,6.46,2.3,7.68,6.89.27,1.03.27,2.13.51,4.27Z"/>
  <path class="cls-1" d="M1119.16,186.3c10.78.02,16.74,3.25,20.91,11.02q-10.67.32-20.91-11.02Z"/>
  <path class="cls-1" d="M1213.14,239.6c-10.8-1.59-15.87-5.18-19.5-13.31,9.47-.38,13.75,4.59,19.5,13.31Z"/>
  <path class="cls-1" d="M1041.93,153.93c9.08,1.71,15.12,2.85,19.59,8.66-9.2,3.12-12.01,2.02-19.59-8.66Z"/>
  <path class="cls-1" d="M980.41,168.05q-14.17-.02-19.86-6.58c7.15-2.12,12.46,0,19.86,6.58Z"/>
  <path class="cls-1" d="M673.76,350.64q9.56-1.79,17.73,1.66c-.14,3.62-2.82,4.21-5.47,4-4.09-.32-8.58-.04-12.26-5.66Z"/>
  <path class="cls-1" d="M696.05,324.65c11.53-3.24,11.52-3.1,18.7,2.17-6.08,2.86-11.04,2.15-18.7-2.17Z"/>
  <path class="cls-1" d="M135.82,677.69c-1.24,1.73-1.71,3.09-2.43,3.24-2.07.44-4.31.78-6.37.46-4.17-.65-6.85-3.99-5.6-6.42,1.32-2.57,5.03-3.69,8.65-1.96,2.19,1.05,3.89,3.12,5.76,4.68Z"/>
  <path class="cls-1" d="M1133.45,166.17c-7.41-.06-11.6-2.66-15.92-8.23,2.68-.39,4.57-1.24,5.99-.75,3.95,1.36,8.04,2.88,9.93,8.98Z"/>
  <path class="cls-1" d="M882.41,205.47c-8.51,1.16-13.67,1.96-18.99-3.63,6.77-3.05,11.67-2.33,18.99,3.63Z"/>
  <path class="cls-1" d="M735.99,300.48c-7.97,1.35-13.03,2.2-17.45-3.73,6.1-1.75,11.02-2.54,17.45,3.73Z"/>
  <path class="cls-1" d="M1206.35,206.14c-8.66-1.74-12.45-4.51-15.36-10.15q7.72,1.71,15.36,10.15Z"/>
  <path class="cls-1" d="M738.23,271.38c.83-1,1.06-1.56,1.41-1.64,3.58-.87,7.27-2.07,9.97,1.78.21.3.06,1.25-.23,1.46-4.31,3.01-7.67,1.35-11.15-1.6Z"/>
  <path class="cls-1" d="M1121.46,134.83c-2.6-1.24-5.26-2.37-7.76-3.8-.69-.4-.88-1.67-1.3-2.55.94-.3,2.12-1.11,2.79-.8,2.66,1.18,5.17,2.72,7.73,4.12-.49,1.01-.98,2.02-1.47,3.03Z"/>
  <path class="cls-1" d="M885.04,175.79c-5.7,3.94-9.25,2.57-13.58-1.14,4.54-2.69,8.22-1.85,13.58,1.14Z"/>
  <path class="cls-1" d="M1259.44,855.95c-1.79-2.06-3.92-3.41-4.14-5.02-.32-2.27.76-4.74,1.33-7.11.02-.09,1.03-.08,1.5.09,3.28,1.14,2.75,4.05,2.74,6.52,0,1.48-.74,2.97-1.43,5.52Z"/>
  <path class="cls-1" d="M961.19,134.28q9.52-.13,13.85,3.79-6.14.8-13.85-3.79Z"/>
  <path class="cls-1" d="M1054.8,132.93c-5.99,1.63-10,.35-13.68-4.58,5.84-2.36,9.8-.93,13.68,4.58Z"/>
  <path class="cls-1" d="M1192.09,172.55c-2.29-1.66-4.57-3.32-6.89-5,2.59-3.57,4.21-.99,5.64-.23,1.24.66,1.99,2.22,2.96,3.39-.57.62-1.13,1.23-1.7,1.85Z"/>
  <path class="cls-1" d="M762.35,244.86c-2.69,3.09-5.45,2.06-9.29-.6,3.77-1.63,6.48-2.99,9.29.6Z"/>
  <path class="cls-1" d="M507.41,411.86c.71.56,1.42,1.13,2.14,1.69-.81.38-1.58.89-2.43,1.08-.33.08-.82-.55-1.24-.86.51-.64,1.02-1.27,1.54-1.91Z"/>
  <path class="cls-1" d="M438.58,465.43c-.76-.67-1.52-1.34-2.28-2.02,1.13-.59,2.22-1.4,3.42-1.64.34-.07,1.01,1.54,1.52,2.37-.89.43-1.77.86-2.66,1.29Z"/>
  <path class="cls-1" d="M573.83,1243.43c1.16.59,2.7,1.12,3.87,2.1.43.36-.01,2.58-.08,2.58-2.53.04-5.07-.08-7.61-.18.19-.94.1-2.12.65-2.76.63-.75,1.82-1.04,3.17-1.73Z"/>
  <path class="cls-1" d="M972.8,109.97c-5.63,0-7.66.37-9.42-.15-.95-.28-1.44-2.1-2.14-3.22.91-.29,1.97-1.01,2.72-.77,1.9.61,3.66,1.66,8.84,4.14Z"/>
  <path class="cls-1" d="M1045,103.19c-2.54.14-4.19.66-5.47.18-1.3-.48-3.32-2.24-3.14-2.93.86-3.18,3.15-1.46,4.78-.66,1.18.58,2.05,1.78,3.82,3.41Z"/>
  <path class="cls-1" d="M775.6,218.12c-4.21.7-5.69,1.02-7.18,1.15-.44.04-.92-.48-1.38-.74.52-.63,1.05-1.78,1.57-1.78,1.43,0,2.86.5,6.98,1.38Z"/>
  <path class="cls-1" d="M877.49,147.68h7.28c0,.55,0,1.09,0,1.64h-7.28c0-.55,0-1.09,0-1.64Z"/>
  <path class="cls-1" d="M315.38,536.82c-.85-.57-1.69-1.14-2.53-1.71,1.17-.55,2.3-1.35,3.52-1.53.46-.07,1.14,1.27,1.72,1.97-.9.43-1.8.85-2.7,1.28Z"/>
  <path class="cls-1" d="M1110.75,103.86c-4.21-1.32-5.57-1.69-6.84-2.26-.1-.04.41-1.45.64-2.23,1.24.9,2.49,1.8,6.2,4.49Z"/>
  <path class="cls-1" d="M403.49,488.97h-6.88c0-.54,0-1.07,0-1.61h6.88c0,.54,0,1.07,0,1.61Z"/>
  <path class="cls-1" d="M880.5,120.67c.49.6.98,1.2,1.47,1.8-.49.17-1.18.64-1.43.47-.61-.42-1.01-1.13-1.5-1.73.49-.18.97-.35,1.46-.53Z"/>
  <path class="cls-1" d="M360.92,511.8c-.88.48-1.78,1.36-2.63,1.32-.89-.05-1.74-.98-2.61-1.52.9-.46,1.81-1.31,2.7-1.28.86.03,1.69.95,2.54,1.49Z"/>
  <path class="cls-1" d="M270.64,559.15c-.86-.53-1.71-1.07-2.57-1.6.9-.45,1.81-1.29,2.68-1.25.88.04,1.72.95,2.58,1.47-.9.46-1.79.92-2.69,1.38Z"/>
  <path class="cls-1" d="M469.78,439.01c3.28-.89,4.5-1.41,5.74-1.45.51-.02,1.05.99,1.58,1.53-.38.29-.77.83-1.12.81-1.36-.09-2.7-.36-6.19-.89Z"/>
  <path class="cls-1" d="M536.5,388.57c.99,0,1.98,0,2.98.05.03,0,.01.73.02,1.11-1,0-2,.01-2.99.02v-1.18Z"/>
  <path class="cls-1" d="M224.63,578.55c.78.57,1.55,1.13,2.32,1.7-.78.39-1.52.9-2.35,1.11-.4.1-.95-.37-1.43-.58.48-.74.97-1.49,1.45-2.23Z"/>
  <path class="cls-1" d="M779.31,191.3c-.19.34-.32.87-.6.98-.43.16-.97.03-1.47.02.25-.54.5-1.09.75-1.63.44.21.88.42,1.31.63Z"/>
  <path class="cls-1" d="M1177.41,138.77c.14-.29.27-.59.41-.88.23.44.46.88.69,1.32-.37-.15-.73-.29-1.1-.44Z"/>
  <path class="cls-1" d="M566.23,363.17c-.39.16-.8.47-1.17.42-.36-.04-.67-.45-1-.69.72.09,1.45.18,2.17.27Z"/>
  <path class="cls-1" d="M1260.09,342.33c-.33.09-.87.32-.94.23-.24-.34-.31-.79-.45-1.2.53-.11,1.07-.22,1.6-.33-.07.44-.14.87-.21,1.31Z"/>
  <path class="cls-1" d="M127.17,620.94c-.4-.27-.79-.54-1.19-.81.43-.22.87-.62,1.29-.61.39.02.76.49,1.14.76-.41.22-.83.44-1.24.67Z"/>
  <path class="cls-1" d="M907.3,1208.13c-.35-.33-.7-.66-1.06-1,.44-.23.91-.68,1.3-.62.42.06.77.61,1.15.95-.47.22-.93.45-1.4.67Z"/>
  <path class="cls-1" d="M178.14,600.51c-.81.26-1.62.61-2.45.7-.27.03-.61-.64-.92-.98.83-.27,1.65-.64,2.51-.76.23-.03.57.67.86,1.04Z"/>
  <path class="cls-1" d="M1105.14,1093.11c-.39.12-.78.23-1.17.35.04-.79.07-1.57.11-2.36.43.19,1.08.27,1.22.59.17.37-.09.94-.17,1.43Z"/>
  <path class="cls-1" d="M976.14,1168.38c.36.79.78,1.56,1,2.39.05.17-.68.55-1.05.83-.34-.77-.76-1.52-.95-2.32-.05-.21.64-.59.99-.9Z"/>
</svg>