<?xml version="1.0" encoding="UTF-8"?>
<svg id="Camada_1" data-name="Camada 1" xmlns="http://www.w3.org/2000/svg" viewBox="0 0 1364.31 1348.09">
  <defs>
    <style>
      .cls-1 {
        fill: #195989;
        stroke-width: 0px;
      }
    </style>
  </defs>
  <path class="cls-1" d="M1287.34,1191.06c-3.08,3.91-6.04,7.94-9.28,11.72-4.91,5.71-10.52,10.56-18.14,12.22-8.97,1.95-15.96-2.85-17.22-11.99-.46-3.35-.59-6.93.08-10.22,3.09-15.21,10.85-27.48,23.9-36.14,6.78-4.5,13.71-5.44,20.68-.29v34.7Z"/>
  <path class="cls-1" d="M1287.34,1260.46c-3.03,1.53-5.92,3.55-9.12,4.51-9.24,2.76-15.9-1.86-16.26-11.64-.18-5.02.28-10.44,2.05-15.07,4.65-12.23,10.49-23.87,23.33-29.84v52.05Z"/>
  <path class="cls-1" d="M1287.34,1104.32c-7.52,1.43-11.86-2.27-14.42-8.9-2.33-6.05-2.52-12.24-1.22-18.5,2.46-11.88,6.88-22.81,15.64-31.58v58.99Z"/>
  <path class="cls-1" d="M1287.34,871.85c-10.18-8.82-10.9-20.84-10.92-32.98-.01-10.12,2.29-19.44,10.92-26.01v58.99Z"/>
  <path class="cls-1" d="M1287.34,982.88c-6.05-13.88-6.4-27.76,0-41.64v41.64Z"/>
  <path class="cls-1" d="M1287.34,663.67c-1.09-1.94-2.55-3.76-3.19-5.84-1.49-4.83-2.57-9.78-3.98-15.29,3.05.13,5.11.22,7.17.31v20.82Z"/>
  <path class="cls-1" d="M1287.34,1281.28c-3.21-2.31-4.2-4.63,0-6.94v6.94Z"/>
  <path class="cls-1" d="M1234.82,1224.75c.43,18.21-19.23,40.13-37.33,41.6-10.34.84-17.75-6.06-17.34-16.58.13-3.37.84-6.88,2.09-10.01,6.11-15.31,16.99-25.87,32.93-30.31,10.97-3.06,19.38,3.9,19.65,15.3Z"/>
  <path class="cls-1" d="M1238.28,1076.3c-1.48,13.98-7.44,27.22-21.99,34.99-12.81,6.85-24.82.2-25.87-14.38-1.23-17.03,6.13-30.33,20.19-39.43,13.01-8.42,25.36-1.99,27.35,13.55.15,1.14.15,2.3.32,5.26Z"/>
  <path class="cls-1" d="M1183.34,1129.13c.33,16.64-14.18,34.12-30.59,36.85-12.29,2.05-21.52-5.68-21.66-18.12-.18-16.15,15.01-34.27,30.87-36.82,12.77-2.06,21.13,5.02,21.38,18.09Z"/>
  <path class="cls-1" d="M1130,1208.27c12.95-.18,20.43,8.6,18.06,21.22-2.98,15.89-23.46,31.25-39.8,29.84-13.64-1.17-20.17-11.48-15.49-24.43,5.14-14.21,22.22-26.43,37.23-26.64Z"/>
  <path class="cls-1" d="M1210.99,1177.78c.02,17.55-16.88,36.59-33.73,37.99-12.53,1.04-19.56-5.68-19.12-18.28.56-16.31,16.92-34.74,33.12-37.32,11.87-1.89,19.73,5.12,19.74,17.61Z"/>
  <path class="cls-1" d="M1121.07,990.59c1-13.53,6.38-24.52,17.95-31.79,12.62-7.93,25.55-2.43,29.22,12.13,3.64,14.43-4.86,32.81-18.23,39.38-12.49,6.14-24.61.54-28-13.02-.55-2.21-.66-4.53-.95-6.7Z"/>
  <path class="cls-1" d="M1266.59,1126.34c-1.08,12.73-7.68,24.96-20.15,33.86-1.84,1.31-4,2.3-6.15,3-11.82,3.87-21.33-2-21.79-14.37-.68-18.19,7.63-32.29,22.78-41.86,12.82-8.1,24.31-1.69,25.31,13.4.08,1.15,0,2.3,0,5.96Z"/>
  <path class="cls-1" d="M1116.83,1033.26c.17,15.87-14.39,32.03-29.69,32.96-11.66.71-20.02-6.32-21.24-17.86-1.73-16.42,14-34.93,30.55-35.96,11.29-.7,20.25,8.47,20.38,20.86Z"/>
  <path class="cls-1" d="M1205.12,1027.9c-1.09,13.8-6.71,24.14-17.42,31.23-14.04,9.3-28.51,2.42-29.8-14.27-1.2-15.64,5.24-28.11,18.24-36.65,13.53-8.89,26.67-2.35,28.63,13.78.28,2.27.28,4.57.35,5.9Z"/>
  <path class="cls-1" d="M1085.68,1210.78c-15.15-.18-23.42-12.1-17.52-26.02,6.13-14.44,17.46-22.92,32.99-24.7,14.59-1.67,22.92,8.15,20.11,22.63-2.84,14.63-20.12,28.27-35.58,28.08Z"/>
  <path class="cls-1" d="M1151.84,1081.08c.28,16.45-14.38,33.23-30.28,34.65-12.68,1.13-21.12-6.47-21.23-19.15-.14-15.41,13.61-31.91,28.76-34.53,13.28-2.29,22.51,5.42,22.74,19.02Z"/>
  <path class="cls-1" d="M1057.86,1162.15c-15.66.14-24.66-12.56-18.52-27.02,5.87-13.82,16.87-21.92,31.76-23.46,14.56-1.5,24.09,10.59,20.18,24.59-3.91,13.99-19.11,25.76-33.42,25.89Z"/>
  <path class="cls-1" d="M1078.25,986.41c-.34,13.3-11.34,26.88-24.38,30.07-14.26,3.49-26.61-6.75-26-21.55.53-12.76,10.52-25.71,22.8-29.57,15.02-4.72,27.98,5.18,27.58,21.05Z"/>
  <path class="cls-1" d="M1169.99,929.3c.86-12.47,4.28-23.24,13.34-31.41,9.55-8.61,21.15-6.21,27.04,5.31,6.8,13.3,3.56,32.51-7.27,43.12-11.26,11.03-26.12,7.47-31.05-7.55-1.06-3.23-1.47-6.68-2.06-9.47Z"/>
  <path class="cls-1" d="M1058.27,1083.93c-.58,17.97-22,33.74-39.21,28.86-9.35-2.65-14.18-9.42-13.67-19.16.84-16.24,19.95-32.17,35.96-29.97,10.57,1.45,17.27,9.48,16.92,20.28Z"/>
  <path class="cls-1" d="M1283.8,1014.96c-.78,14.66-4.9,25.81-14.63,34.15-11.43,9.8-24.28,5.22-26.71-9.66-2.78-17.05,2.03-32.09,14.81-43.89,9.47-8.74,20.24-5.94,24.36,6.18,1.63,4.79,1.69,10.11,2.16,13.23Z"/>
  <path class="cls-1" d="M1016.67,916.51c12.11.28,21.22,10.61,19.78,23.38-1.47,13.09-8.44,22.52-21.09,27.03-13.48,4.81-25.95-2.85-28.12-16.99-2.53-16.51,12.71-33.81,29.44-33.42Z"/>
  <path class="cls-1" d="M1207.62,978.77c.83-12.51,4.84-23.71,14.48-32.14,9.97-8.72,21.83-5.85,26.14,6.59,5.3,15.31,2.44,29.59-7.93,42.05-5.03,6.04-11.55,10.05-19.74,7.6-8.19-2.45-10.99-9.53-12.42-17.2-.42-2.25-.36-4.58-.52-6.91Z"/>
  <path class="cls-1" d="M1102.79,962.47c-10.31.09-17.55-5.71-19.92-14.96-3.72-14.55,3.66-31.41,16.83-38.46,10.22-5.47,21.53-2.14,26.61,7.82,7.69,15.08-.68,37.86-16.31,43.97-2.64,1.03-5.58,1.28-7.21,1.63Z"/>
  <path class="cls-1" d="M993.51,838.6c1.51-10.78,6.09-20.28,16.8-25.78,9.39-4.82,19.78-2.15,25.79,6.48,10.42,14.96,2.38,38.32-15.11,43.91-14.39,4.6-28.35-7.59-27.48-24.61Z"/>
  <path class="cls-1" d="M1086.42,881.91c-.8,13.16-5.81,23.01-17.15,28.78-11.44,5.82-23.6.94-28.22-11-5.08-13.13.74-29.96,13.07-37.82,12.08-7.7,26.15-2.92,30.68,10.63,1.07,3.22,1.18,6.75,1.61,9.41Z"/>
  <path class="cls-1" d="M1018.57,1247.01c-2.34-.27-4.67-.34-6.91-.82-12.62-2.7-17.82-13.74-11.84-25.01,6.95-13.09,27.07-22.42,41.56-19.26,12.63,2.75,17.96,15.53,10.81,27.06-7.64,12.33-19.52,17.41-33.62,18.03Z"/>
  <path class="cls-1" d="M1173.34,867.49c.13,13.85-3.25,23.36-11.76,30.42-10.74,8.91-24.16,5.37-29.52-7.5-5.25-12.61-1.54-30.35,8.34-39.89,10.35-9.99,23.37-7.95,29.53,5.05,2.15,4.53,2.82,9.77,3.41,11.92Z"/>
  <path class="cls-1" d="M993.07,1200.69c-8.42-.54-16.31-2.1-20.64-10.24-3.62-6.82-1.05-16.3,6.06-23.43,8.56-8.59,19.02-12.97,31.12-11.97,15.78,1.31,22.56,15.48,13.93,28.77-7.13,10.98-18.1,15.37-30.48,16.87Z"/>
  <path class="cls-1" d="M1085.91,829.26c.37-13.08,3.96-21.96,12.07-28.58,8.71-7.1,18.86-5.79,25.87,3.01,9.95,12.51,7.87,33.62-4.34,44.01-10.64,9.05-24.17,6.5-30.22-6.19-2.17-4.54-2.75-9.84-3.38-12.25Z"/>
  <path class="cls-1" d="M1001.2,1016.41c12.45.05,20.45,8.39,19.95,20.82-.66,16.31-18.55,30.8-34.83,28.22-11.75-1.86-18.9-12.35-16.34-23.95,3.08-13.94,17.01-25.14,31.23-25.08Z"/>
  <path class="cls-1" d="M992.14,789.78c-.61,9.15-4.88,18.09-14.99,23.41-11.72,6.18-24.95,1.12-29.59-11.3-3.45-9.23-2.18-18.08,3.11-26.28,6.24-9.68,16.95-13.88,26.66-10.72,8.76,2.85,14.78,12.2,14.8,24.89Z"/>
  <path class="cls-1" d="M991.91,891.99c-.27,12.44-10.05,24.55-22.17,27.45-13.51,3.23-25.39-5.68-26.22-19.68-.84-14.04,9.07-27.22,22.79-30.32,13.64-3.07,25.92,7.74,25.6,22.54Z"/>
  <path class="cls-1" d="M951.15,1017.82c-15.18-.19-24.33-13.13-19.08-27.41,4.36-11.85,13.23-18.89,25.52-20.81,16.17-2.53,27.9,12.06,22.62,27.55-4.17,12.25-16.23,20.83-29.05,20.67Z"/>
  <path class="cls-1" d="M962.79,1153.59c-8.48.03-16.18-1.7-20.54-9.98-3.68-6.99-1.33-16.07,5.97-23.5,6.72-6.84,15-10.78,24.49-11.61,8.59-.76,16.18,1.81,20.62,9.76,4.54,8.13,2.11,15.73-3.37,22.41-6.96,8.5-16.1,12.84-27.17,12.93Z"/>
  <path class="cls-1" d="M1034.37,729.23c.07,7.87-2.61,14.66-8.28,20.11-9.57,9.2-23.85,7.37-31.14-3.88-6.87-10.61-5.96-25.64,2.15-35.42,9.22-11.12,23.75-10.52,32.18,1.32,3.77,5.3,5.24,10.44,5.09,17.87Z"/>
  <path class="cls-1" d="M917.6,872.24c-11.08-.15-19.27-7.62-20.82-18.98-2.12-15.53,12.11-31.17,27.73-30.41,8.96.43,15.16,5.04,18.33,13.25,6.57,17.01-7.07,36.4-25.24,36.14Z"/>
  <path class="cls-1" d="M909.7,971.35c-14.6-.13-24.16-13.36-19.71-27.29,3.96-12.38,15.93-21,28.57-20.56,12.75.44,21.09,10.18,19.64,22.91-1.54,13.54-14.71,25.06-28.5,24.93Z"/>
  <path class="cls-1" d="M1083.43,772.29c.01,11.75-2.36,19.26-8.51,25.28-9.72,9.53-23.84,7.8-30.99-3.76-6.66-10.76-5.19-27.63,3.25-37.26,9.74-11.12,24.33-10.14,31.76,2.69,2.78,4.8,3.7,10.68,4.48,13.05Z"/>
  <path class="cls-1" d="M945.39,1274.74c-1.06-.23-5.75-.6-9.93-2.25-10.8-4.26-13.37-14.79-6.16-23.71,1.08-1.33,2.27-2.62,3.61-3.68,10.95-8.72,23.39-11.89,37.14-9.49,7.3,1.28,13.03,5.04,14.65,12.69,1.47,6.95-2.26,12.25-7.22,16.52-8.16,7.03-17.76,10.35-32.08,9.92Z"/>
  <path class="cls-1" d="M925.59,1107.67c-1.52-.45-5.55-1.09-9.07-2.8-7.97-3.87-11.09-11.82-8.5-20.21,4.59-14.85,23.72-25.37,38.68-21.27,11.5,3.16,16.96,14.89,12.04,25.86-4.96,11.06-17.7,18.73-33.15,18.41Z"/>
  <path class="cls-1" d="M891.83,1062.26c-7.43-.03-15.08-2.5-19.1-10.52-4.03-8.04-1.71-15.75,3.94-22.32,7.14-8.3,16.2-12.67,27.32-11.89,15.94,1.12,23.52,16.44,14.94,30.02-5.37,8.5-15.76,14.37-27.1,14.72Z"/>
  <path class="cls-1" d="M940.77,741.85c-.08,10.96-6.51,21.01-15.77,24.63-8.41,3.29-17.72,1.05-23.56-5.67-7.19-8.27-8.04-20.66-2.1-30.56,5.91-9.83,16.29-14.22,26.45-11.16,9.08,2.73,15.06,11.81,14.98,22.76Z"/>
  <path class="cls-1" d="M894.35,1187.22c-2.65-.76-7.25-1.52-11.37-3.35-9.54-4.25-12.1-14.31-6.26-22.99,7.61-11.3,27.42-17.85,40.16-13.28,13.12,4.7,16.42,17.01,7.12,27.33-7.35,8.16-16.99,11.47-29.65,12.3Z"/>
  <path class="cls-1" d="M1207.57,812.03c.2,8.32-1.79,15.96-7.41,22.26-6.6,7.4-15.66,7.51-22.58.5-11.23-11.36-11.58-35.92-.68-47.44,6.34-6.7,14.5-6.95,21.14-.31,6.85,6.85,9.4,15.5,9.54,24.99Z"/>
  <path class="cls-1" d="M865.34,924.55c-15.7-.12-24.79-13.76-19.02-28.53,4.86-12.42,17.27-19.65,30.07-17.53,8.46,1.4,14.43,7.33,15.88,15.77,2.74,15.96-10.11,30.42-26.93,30.29Z"/>
  <path class="cls-1" d="M938.53,1190.41c2.03.49,6.7.92,10.77,2.72,9.35,4.14,11.87,14.44,6.13,23-8.89,13.25-32.5,18.92-46.35,11.12-8.78-4.94-10.56-15.33-3.6-23.41,7.96-9.23,18.55-12.98,33.05-13.44Z"/>
  <path class="cls-1" d="M1210.38,861.19c-.02-9.95,1.94-18.77,8.33-26.07,6.1-6.97,14.65-6.9,20.87,0,10.58,11.74,11.06,35.88.95,48.02-7.24,8.7-18.18,8.2-24.62-1.22-4.37-6.4-5.68-13.66-5.54-20.74Z"/>
  <path class="cls-1" d="M894.69,799.39c.04,13.53-11.68,25.9-24.92,26.31-11.85.36-21.96-9.78-21.98-22.04-.02-13.54,11.78-25.85,25.02-26.11,12.32-.25,21.84,9.26,21.87,21.84Z"/>
  <path class="cls-1" d="M865.55,672.97c7.64.22,13.58,3.13,17.77,9.4,7.41,11.06,5.1,26.02-5.32,34.22-10.52,8.28-24.44,6.07-31.49-5.29-5.32-8.57-5.14-17.58-.39-26.31,4.17-7.66,10.81-11.78,19.43-12.02Z"/>
  <path class="cls-1" d="M959.85,656.33c14.31,1.23,23.05,12.61,22.78,26.43-.27,13.61-9.86,24.67-21.69,24.8-5.44.06-10.11-2.14-14.03-5.86-11.36-10.78-10.18-32.49,2.64-41.33,3.59-2.48,8.33-3.29,10.3-4.03Z"/>
  <path class="cls-1" d="M1164.45,764.64c-.5,6.87-1.68,13.64-6.24,19.33-6.59,8.21-16.51,8.95-24.21,1.84-11.37-10.5-12.8-32.5-2.91-44.48,6.24-7.56,15.46-8.32,22.81-1.71,7.36,6.62,9.61,15.49,10.55,25.03Z"/>
  <path class="cls-1" d="M1283.82,908.61c.31,7.43-.67,15.91-6.18,23.31-7.71,10.34-18.84,9.75-25.02-1.39-7.31-13.18-4.89-36.54,4.91-47.52,6.26-7.01,15.02-6.54,20.61,1.1,4.18,5.72,5.65,11.7,5.68,24.5Z"/>
  <path class="cls-1" d="M881.56,993.56c-.59,9.36-7.01,16.16-16.38,20.61-8.88,4.22-17.79,4.48-26.12-1.33-7.25-5.05-9.04-16.15-4.38-24.86,5.41-10.11,19.24-16.92,30.58-15.04,10.02,1.66,16.53,9.22,16.31,20.62Z"/>
  <path class="cls-1" d="M905.6,611.4c13.8.51,24.31,13.03,23.43,26.35-.43,6.49-2.85,12.27-7.55,16.9-6.28,6.18-16.39,7.78-23.83,3.46-8.7-5.06-12.7-13.02-12.55-22.95.14-9.26,4.06-16.72,12.22-21.31,2.87-1.61,6.46-1.94,8.28-2.45Z"/>
  <path class="cls-1" d="M818.81,779.72c-11.86.44-20.98-7.92-21.8-19.96-.96-14.2,9.78-26.54,23.45-26.93,12.32-.35,22.03,9.19,22.12,21.72.1,13.11-10.84,24.69-23.77,25.16Z"/>
  <path class="cls-1" d="M818.23,928.48c7.98,1.01,14.6,3.67,18.29,11.27,3.38,6.95,2.14,13.54-1.83,19.57-5.74,8.74-14.03,13.25-24.65,13.12-7.38-.09-13.65-2.68-17.31-9.27-3.94-7.1-3.28-14.46,1.05-21.22,5.7-8.91,14.39-12.69,24.45-13.48Z"/>
  <path class="cls-1" d="M1117.67,717.72c-.21,13.39-6.58,22.59-16.22,24.19-8.93,1.48-18.75-6.35-22.23-17.96-2.75-9.17-2.51-18.23,2.51-26.64,6.24-10.46,17.36-12.02,26.14-3.67,7.06,6.71,10.11,15.16,9.8,24.07Z"/>
  <path class="cls-1" d="M844.72,853.91c.15,16.85-18.28,29.79-34.11,23.95-8.7-3.21-13.76-12.39-12.32-22.35,1.82-12.61,14.11-22.55,27.05-21.88,11.25.58,19.28,8.99,19.38,20.28Z"/>
  <path class="cls-1" d="M832.16,652.26c-.16,12.66-10.47,23.61-22.45,23.84-12.03.24-22.21-10.67-22.09-23.67.12-13.03,9.96-23.44,22.28-23.58,12.33-.14,22.43,10.47,22.26,23.4Z"/>
  <path class="cls-1" d="M851.76,615.09c-13.31-1.36-21.96-11.26-22.55-23-.61-12.19,6.57-22.58,17.22-24.61,2.21-.42,4.67-.5,6.84,0,9.9,2.27,16.13,8.5,18.44,18.39,2.29,9.81.15,18.64-8.19,24.6-3.96,2.83-9.32,3.71-11.77,4.63Z"/>
  <path class="cls-1" d="M832.33,1099.86c-1.71,0-2.29.02-2.86,0-10.27-.46-18.5-5.76-20.04-13.47-1.83-9.19,3.22-15.43,10.05-20.42,7.8-5.69,16.64-7.97,26.18-6.13,14.89,2.87,19.91,17.45,9.99,28.79-6.44,7.36-14.92,10.51-23.32,11.23Z"/>
  <path class="cls-1" d="M862.6,1142.83c-1.62-.4-6.29-.88-10.37-2.69-9.45-4.21-12.02-14.32-6.38-23.06,7.33-11.36,25.34-17.59,38.13-13.18,12.54,4.31,16.13,17.39,7.56,27.57-5.96,7.08-15.5,11.25-28.94,11.36Z"/>
  <path class="cls-1" d="M1068.83,673.63c-.58,1.91-1.27,6.54-3.31,10.47-5.68,10.96-17.99,13.07-27.45,5.12-10.39-8.73-13.4-25.84-6.62-37.58,5.84-10.11,17.23-12.29,26.26-4.78,7.47,6.22,10.92,14.45,11.12,26.77Z"/>
  <path class="cls-1" d="M768.79,834.54c-12.31-.31-20.39-9.04-19.76-21.37.65-12.79,12.8-24.03,25.4-23.48,11.63.51,20.54,10.26,19.96,21.83-.65,13.04-12.12,23.35-25.6,23.02Z"/>
  <path class="cls-1" d="M743.24,713.26c-.21-12.76,11.45-24.61,23.92-24.32,11.24.26,20.22,9.41,20.71,21.09.55,13.3-9.94,24.94-22.75,25.23-11.5.26-21.68-9.98-21.88-22Z"/>
  <path class="cls-1" d="M774.07,608.95c-.21,13.03-10.79,23.49-23.01,22.75-11.5-.7-21.11-11.43-20.91-23.34.2-11.86,10.25-22.5,21.58-22.83,12.24-.36,22.54,10.45,22.34,23.43Z"/>
  <path class="cls-1" d="M1021.42,1280.5c0-3.89-.84-6.96.14-9.27,6.34-14.99,28.77-26.3,44.29-22.7,11.84,2.75,16.84,12.18,12.3,23.49-2.06,5.14-5.58,8.53-11.61,8.5-14.83-.06-29.65-.02-45.12-.02Z"/>
  <path class="cls-1" d="M687.57,669.07c.37-12.41,11.53-22.93,23.73-22.39,11.31.5,20.31,9.98,20.39,21.48.09,12.66-10.25,23.18-22.8,23.19-11.95.01-21.69-10.17-21.32-22.29Z"/>
  <path class="cls-1" d="M793.02,570.02c-12.23-.13-22.44-11.25-22.16-24.12.27-11.93,9.25-21.39,20.44-21.51,12.18-.14,22.95,10.63,23.27,23.26.31,12.19-9.63,22.5-21.56,22.37Z"/>
  <path class="cls-1" d="M1016.9,628.23c-.58,1.61-1.47,6.22-3.74,10-4.86,8.1-14.2,10.24-22.53,5.9-12.52-6.54-18.21-24.92-11.54-37.32,5.1-9.48,15.76-12.22,24.98-6.41,7.94,5,12.96,14.72,12.83,27.82Z"/>
  <path class="cls-1" d="M717.32,791.55c-11.72-.3-20.34-9.56-19.89-21.35.47-12.2,11.34-22.77,23.54-22.88,11.46-.11,20.95,9.21,20.96,20.59.01,12.77-11.67,23.99-24.61,23.65Z"/>
  <path class="cls-1" d="M792.16,904.52c-.22,9.58-5,16.47-13.17,20.81-8.09,4.3-16.66,4.71-24.8.06-7.4-4.22-10.15-14.24-6.84-22.88,4.26-11.13,17.76-18.57,29.44-16.23,9.12,1.82,15.29,9.14,15.38,18.23Z"/>
  <path class="cls-1" d="M714.47,566.65c-.31,12.41-10,21.64-22.33,21.29-11.95-.34-21.67-10.65-21.3-22.61.37-11.95,10.92-22.11,22.48-21.64,11.76.48,21.45,10.99,21.14,22.95Z"/>
  <path class="cls-1" d="M963.41,578.98c-.19,9.78-4.96,17.03-12.45,19.88-7.99,3.03-14.65.3-20.37-5.16-8.26-7.9-10.23-17.73-7.1-28.4,3.41-11.63,15.69-16.01,26.22-9.69,9.15,5.5,12.86,14.15,13.7,23.37Z"/>
  <path class="cls-1" d="M793.43,1056.64c-9.97-.16-17.19-4.29-19.57-11.19-2.69-7.81.67-16.33,8.86-22.37,7.88-5.81,16.75-7.51,26.14-5.38,12.89,2.92,17.7,16.14,9.89,26.78-6.24,8.5-14.88,12.28-25.32,12.16Z"/>
  <path class="cls-1" d="M719.12,885.86c-15.86-.09-24.7-14.86-17.23-28.79,5.17-9.64,17.09-15.11,27.63-12.69,10.69,2.46,16.97,13.07,13.97,23.63-3.08,10.83-12.75,17.92-24.36,17.85Z"/>
  <path class="cls-1" d="M629.85,627.25c.15-11.79,10.57-22.09,22.23-21.96,11.3.13,20.71,9.57,20.92,20.99.24,12.8-10.5,23.5-22.9,22.83-11.18-.61-20.39-10.56-20.25-21.86Z"/>
  <path class="cls-1" d="M1196.95,740.65c.67-2.2,1.69-7.91,4.15-12.92,3.08-6.24,10.5-7.34,16.28-3.29,12.42,8.69,17.76,34.13,9.88,47.07-4.44,7.28-12.59,8.42-19.04,2.35-8.51-8.02-11.42-18.32-11.28-33.21Z"/>
  <path class="cls-1" d="M687.1,726.02c.2,12.41-10.41,23.21-22.88,23.29-10.66.07-19.93-8.68-20.53-19.36-.68-12.15,9.9-23.66,22.16-24.12,11.58-.43,21.06,8.57,21.24,20.19Z"/>
  <path class="cls-1" d="M731.67,482.51c12.85.32,22.47,10.85,21.9,23.97-.51,11.89-9.91,20.61-21.61,20.04-11.77-.58-21.09-10.94-20.93-23.28.16-12.38,8.76-21.02,20.63-20.73Z"/>
  <path class="cls-1" d="M752.69,1014.55c-1.83-.36-5.39-.53-8.53-1.76-9.34-3.65-12.94-13.77-8.45-22.83,6.06-12.24,22.91-18.52,35.57-13.25,10.15,4.23,13.37,16.56,6.81,26.08-5,7.26-14.09,11.75-25.4,11.76Z"/>
  <path class="cls-1" d="M1152.29,695.39c.58-2.35,1.1-6.38,2.55-10.04,4.17-10.51,13.7-12.59,21.78-4.43,10.51,10.62,13.78,23.7,9.94,38.05-3.01,11.26-14.35,14.08-22.81,5.99-7.9-7.55-10.92-17.25-11.46-29.57Z"/>
  <path class="cls-1" d="M1237.87,791.94c.74-4.03,1.04-9.31,2.74-14.09,4.05-11.4,13.39-12.95,20.82-3.75,1.79,2.22,3.3,4.73,4.54,7.3,4.66,9.66,5.63,19.9,3.74,30.32-.6,3.28-2.12,6.6-3.96,9.42-3.94,6.05-10.79,6.58-16.34,1.76-5.47-4.75-8.13-11.11-9.82-17.86-.97-3.87-1.07-7.96-1.7-13.11Z"/>
  <path class="cls-1" d="M1142.38,661.82c-.31,2.58-.33,6.07-1.21,9.33-2.71,10.04-12.9,13.68-21.71,7.99-11.76-7.6-17.36-29.28-10.74-41.61,3.64-6.79,10.82-9.09,17.43-5.17,10.77,6.41,15.16,16.58,16.24,29.45Z"/>
  <path class="cls-1" d="M865.68,528.01c.59-6.5,2.7-12.82,9.33-16.71,6.76-3.97,13.26-2.59,19.46,1.2,9.47,5.8,14.28,17.68,11.67,28.24-2.56,10.36-12.32,15.87-22.47,12.68-10.24-3.22-17.96-13.85-18-25.42Z"/>
  <path class="cls-1" d="M673.45,802.67c11.39-.34,20.23,7.66,20.5,18.54.3,12.23-10.05,22.59-22.96,22.97-11.48.34-20.45-7.6-20.74-18.36-.31-11.7,10.79-22.78,23.2-23.16Z"/>
  <path class="cls-1" d="M590.75,565.8c11.75-.36,21.23,8.23,21.87,19.81.65,11.87-9.41,22.35-21.39,22.29-11.17-.06-20.94-9.74-21.1-20.91-.16-11.28,9.15-20.84,20.62-21.19Z"/>
  <path class="cls-1" d="M691.26,463.26c.27,11.94-8.27,20.59-20.31,20.57-12.16-.02-21.79-9.48-21.96-21.58-.16-11.19,7.79-20.05,18.55-20.66,12.81-.73,23.43,8.98,23.72,21.67Z"/>
  <path class="cls-1" d="M630.15,546.09c-12.1-.68-20.84-10.95-19.92-23.42.86-11.65,10.3-19.75,22.21-19.08,12.16.69,20.94,10.96,19.96,23.35-.91,11.56-10.49,19.8-22.25,19.14Z"/>
  <path class="cls-1" d="M807.74,484.59c.3-14.65,13.74-22.56,26.86-15.81,7.71,3.96,12.27,10.4,14.01,18.71,1.54,7.35-.66,13.82-6.55,18.53-5.92,4.75-12.57,5.4-19.45,1.95-9.61-4.82-14.82-12.47-14.88-23.38Z"/>
  <path class="cls-1" d="M1093.91,617.41c-.22,1.45-.34,4.37-1.12,7.1-2.67,9.36-12.02,13.19-20.5,8.56-12.24-6.68-18.91-24.16-14.27-37.37,3.33-9.48,11.99-12.55,20.81-7.38,8.57,5.02,14.88,16.61,15.09,29.1Z"/>
  <path class="cls-1" d="M546.87,484.17c.18-11.47,10.14-20.76,21.61-20.15,11.38.6,20.97,10.61,20.69,21.58-.29,11.3-10.43,20.71-21.78,20.21-11.47-.5-20.7-10.24-20.52-21.64Z"/>
  <path class="cls-1" d="M719.17,934.01c8.2.08,14.56,3.32,18.04,11.01,2.98,6.58.83,14.17-5.47,20.35-6.19,6.07-13.73,8.2-22.19,7.45-6.78-.6-12.33-3.47-15.05-9.95-2.93-6.98-1.56-13.57,3.28-19.38,5.17-6.21,12.98-9.63,21.39-9.49Z"/>
  <path class="cls-1" d="M609.61,665.93c11.55-.24,21.26,9.17,21.05,20.39-.21,11.56-10.9,21.93-22.42,21.76-10.52-.15-19.63-9.14-20.09-19.82-.5-11.78,9.4-22.09,21.46-22.34Z"/>
  <path class="cls-1" d="M585.16,419.91c.97-10.99,10.21-18.65,21.42-17.74,12.13.98,21.95,11.9,20.79,23.11-1.09,10.49-10.78,18.41-21.78,17.79-12.22-.69-21.48-11.19-20.43-23.16Z"/>
  <path class="cls-1" d="M667.61,932.8c-8.02-.29-15.32-5-17.57-11.66-2.44-7.24-.38-13.55,4.59-19.04,7.39-8.16,19.07-10.85,28.15-6.57,9.91,4.68,13.18,14.97,7.77,24.49-4.47,7.88-13.86,13.11-22.94,12.78Z"/>
  <path class="cls-1" d="M550.46,667.74c-11.07-.19-19.5-8.72-19.6-19.81-.1-11.32,9.31-21.09,20.53-21.31,11.19-.21,21.04,9.81,20.63,20.97-.42,11.43-9.97,20.35-21.56,20.14Z"/>
  <path class="cls-1" d="M508.76,547.53c-.01-11.68,9.28-20.58,21.19-20.27,10.94.28,19.92,8.9,20.38,19.57.48,11.16-9.16,21.27-20.46,21.46-11.41.2-21.1-9.33-21.11-20.76Z"/>
  <path class="cls-1" d="M641.74,781.78c0,11.75-9.86,21.41-22.15,21.72-11.69.29-19.92-7.53-19.84-18.86.09-11.75,10.16-21.89,21.94-22.08,11.04-.18,20.05,8.46,20.05,19.22Z"/>
  <path class="cls-1" d="M1043.36,571.2c-.28,5.61-1.75,11.66-7.86,15.28-5.54,3.28-13.38,2.08-19.15-2.97-8.91-7.8-12.43-17.7-10.38-29.36,1.86-10.57,11.11-15.14,20.73-10.49,8.72,4.22,16.22,16.21,16.65,27.55Z"/>
  <path class="cls-1" d="M770.42,466.24c-12.01-.13-23.32-11.45-23.42-23.45-.08-9.78,7.75-17.98,17.27-18.09,12.88-.16,24.34,11.55,24.01,24.54-.26,10.37-7.35,17.12-17.86,17Z"/>
  <path class="cls-1" d="M951.33,513.99c.5-13.13,11.67-19.76,22.88-13.29,10.29,5.94,15.88,14.94,15.41,27.06-.47,12.2-10.95,18.29-22.04,12.99-9.25-4.43-16.64-16.58-16.25-26.76Z"/>
  <path class="cls-1" d="M587.19,743.76c-.43,12.08-10.91,21.31-23.15,20.4-10.29-.77-18.27-9.65-17.75-19.74.57-10.97,10.75-20.66,21.72-20.68,11.06-.02,19.58,8.88,19.18,20.03Z"/>
  <path class="cls-1" d="M503.62,466.32c-12,.25-21.33-8.44-21.48-20.01-.14-11.08,8.28-19.59,19.63-19.82,11.67-.23,21.61,8.97,21.72,20.11.11,10.78-8.67,19.49-19.87,19.72Z"/>
  <path class="cls-1" d="M623.37,892.93c-8.79-.03-14.76-2.81-18.25-9.62-3.32-6.45-1.86-14.97,3.44-20.71,5.83-6.32,13.06-9.12,21.63-7.83,13.29,2,19.54,16.13,12.14,27.42-4.76,7.26-11.64,10.72-18.95,10.74Z"/>
  <path class="cls-1" d="M485.76,510.31c-.08,11.03-8.86,19.57-20.06,19.49-10.79-.08-20.14-8.93-20.59-19.5-.45-10.62,8.47-19.9,19.44-20.22,11.97-.34,21.29,8.54,21.2,20.23Z"/>
  <path class="cls-1" d="M519.64,381.08c.92-10.93,10.08-17.92,21.93-16.74,11.7,1.17,20.9,11.47,19.66,22.01-1.23,10.48-11,17.9-22.3,16.94-11.63-.99-20.24-10.91-19.29-22.21Z"/>
  <path class="cls-1" d="M726.14,407.29c-.19,9.31-6.72,16.15-16.06,16.81-12.05.85-23.91-9.2-25.01-21.18-.75-8.22,4.69-15.85,12.81-17.95,13.48-3.49,28.53,8.4,28.26,22.33Z"/>
  <path class="cls-1" d="M491.36,589.43c11.06-.03,19.99,8.6,20.21,19.51.23,11.61-9.12,20.73-20.99,20.46-11.12-.25-19.36-8.97-19.13-20.25.22-11.11,8.89-19.7,19.91-19.72Z"/>
  <path class="cls-1" d="M934.3,482.58c-.07,10.75-7.6,16.93-18.09,14.85-11.67-2.32-21.74-16.15-20.48-28.12,1.08-10.26,9.95-16.03,19.77-12.87,10.56,3.4,18.87,14.95,18.8,26.15Z"/>
  <path class="cls-1" d="M531.13,705.59c-.04,11.62-9.42,20.7-21.1,20.43-10.5-.24-18.36-8.38-18.32-18.97.04-11.68,9.53-20.88,21.09-20.47,10.61.38,18.37,8.42,18.33,19Z"/>
  <path class="cls-1" d="M576.92,816.39c8.19-.17,14.91,3.92,17.93,11.02,3.07,7.23.95,13.58-3.75,19.22-6.53,7.85-18.24,10.24-26.6,5.7-6.91-3.75-10.42-11.26-8.86-18.94,1.92-9.42,11.15-16.8,21.27-17.01Z"/>
  <path class="cls-1" d="M473.69,365.08c-11.67.38-21.87-8.73-21.84-19.5.03-9.8,8.61-17.95,19.07-18.13,11.77-.2,21.78,8.79,21.81,19.57.02,9.86-8.25,17.71-19.04,18.06Z"/>
  <path class="cls-1" d="M449.04,572.12c.45,10.91-7.91,20.11-18.69,20.55-10.48.43-20.01-8.4-20.47-18.96-.46-10.7,8.12-20.09,18.76-20.54,10.62-.44,19.95,8.23,20.4,18.95Z"/>
  <path class="cls-1" d="M852.48,413.88c12.67.13,25.53,13.86,24.82,26.47-.53,9.26-9.04,15.76-18.13,13.85-11.09-2.33-20.8-13.49-21.32-24.52-.42-8.94,6.01-15.88,14.63-15.79Z"/>
  <path class="cls-1" d="M642.9,383.06c-8.42-.29-15.36-4.83-19.62-13.18-5.87-11.5,1.66-24.24,14.53-24.88,9.47-.47,19.68,6.07,23.31,14.94,4.78,11.66-3.88,23.37-18.22,23.12Z"/>
  <path class="cls-1" d="M436.73,428.32c-11.57.34-20.34-7.16-21.02-17.97-.68-10.94,7.51-19.85,18.62-20.25,10.93-.39,20.33,7.78,21,18.27.72,11.29-7.03,19.6-18.6,19.94Z"/>
  <path class="cls-1" d="M419.55,474.35c-.2,10.66-9.77,19.41-20.51,18.73-10.68-.68-19.52-10.33-18.94-20.68.58-10.2,8.97-17.71,19.65-17.56,11.1.15,20,8.92,19.8,19.51Z"/>
  <path class="cls-1" d="M454.44,688.96c-10.86.33-20.03-8.53-19.82-19.15.21-10.48,9.58-19.62,19.98-19.48,10.15.13,18.49,8.34,18.78,18.48.31,10.96-8.02,19.82-18.94,20.15Z"/>
  <path class="cls-1" d="M1124.28,590.63c.08-5.35.6-10.79,6.24-13.17,5.51-2.33,10.14.53,14.02,4.27,7.77,7.51,12,16.87,13.21,27.51.31,2.75-.27,5.77-1.11,8.46-2.18,6.98-8.82,9.16-15.25,5.27-9.72-5.88-17.16-19.94-17.1-32.34Z"/>
  <path class="cls-1" d="M1253.05,728.34c.82-8.85.17-15.69,7.05-19.09,4.19-2.07,9.44,1.86,14.33,9.98,4.83,8.03,7.47,16.86,8.18,26.07.34,4.41-.64,9.14-2.01,13.41-1.79,5.59-8.28,6.99-12.53,2.73-3.19-3.2-6.47-6.85-8.1-10.94-3.14-7.92-5.15-16.28-6.93-22.17Z"/>
  <path class="cls-1" d="M1213.36,679.59c.33-2.23.54-5.69,1.4-8.99,1.52-5.9,7.12-8.06,12.05-4.92,11.87,7.56,20.17,30.75,15.95,44.58-2.16,7.09-9.18,9.33-14.86,4.36-10.18-8.9-13.88-20.74-14.55-35.03Z"/>
  <path class="cls-1" d="M576.78,343.74c-6.25-.53-12.19-3.62-16.82-9.09-4.95-5.86-5.92-13.3-2.38-19.05,3.98-6.46,10.02-9.18,17.45-8.43,5.83.58,11.02,2.94,15.22,7.11,5.22,5.18,7.94,11.21,5.22,18.57-2.51,6.81-9.95,11.27-18.69,10.89Z"/>
  <path class="cls-1" d="M1202.51,656.88c-.39,1.93-.7,4.21-1.32,6.4-1.98,7.05-8.68,9.57-14.85,5.66-11.4-7.22-19.39-28.3-15.59-41.16,2.34-7.94,9.42-10.07,16.01-4.53,10.29,8.64,14.53,20.24,15.75,33.63Z"/>
  <path class="cls-1" d="M802.55,411.37c-11.74-.16-23.41-10.97-24.4-22.59-.78-9.19,6.77-16.69,16.02-15.91,11.08.94,21.77,10.91,23.54,21.94,1.46,9.09-5.5,16.69-15.15,16.56Z"/>
  <path class="cls-1" d="M523.07,816.91c-10.38-.22-17.45-7.3-17.43-17.43.02-11.16,10.21-20.85,21.37-20.33,9.85.46,17.62,8.31,17.61,17.79-.01,11.28-9.66,20.23-21.54,19.97Z"/>
  <path class="cls-1" d="M413.4,634.46c.21,10.65-7.39,18.86-17.75,19.19-10.86.35-20.02-8.64-19.73-19.34.27-9.91,9.2-18.68,18.93-18.59,10.06.09,18.34,8.45,18.55,18.73Z"/>
  <path class="cls-1" d="M386.29,374.08c.15,10.28-7.81,18.44-18.36,18.84-11.09.42-20.66-8.48-20.25-18.84.38-9.68,9.41-18.09,19.5-18.17,10.32-.08,18.97,8.15,19.11,18.17Z"/>
  <path class="cls-1" d="M402.63,292.82c11.24-.25,20.85,8.37,20.6,18.48-.23,9.6-9.09,17.5-19.72,17.58-10.48.08-19.39-7.96-19.58-17.67-.19-10,8.1-18.15,18.69-18.38Z"/>
  <path class="cls-1" d="M1110.63,566.23c-.48,2.3-.7,4.61-1.46,6.74-1.77,5.01-7.76,7.7-12.69,5.9-12.6-4.59-22.9-23.31-20.18-36.68,1.56-7.69,8.86-11.21,15.76-7.2,11.9,6.92,17.26,17.87,18.57,31.24Z"/>
  <path class="cls-1" d="M453.83,762.57c.33-10.73,9.57-19.32,20.26-18.85,9.64.43,17.44,8.28,17.52,17.65.1,11.03-10.3,20.6-21.44,19.72-9.65-.76-16.65-8.7-16.35-18.52Z"/>
  <path class="cls-1" d="M366.37,556.71c-10.5.12-18.87-7.65-19.34-17.97-.48-10.41,7.34-19.26,17.48-19.78,10.55-.55,20.24,8.54,20.42,19.14.17,10.31-7.98,18.49-18.55,18.61Z"/>
  <path class="cls-1" d="M351.34,439.47c.06,10.39-8.06,18.71-18.32,18.78-9.99.07-18.9-8.57-19.02-18.43-.12-9.96,8.49-18.56,18.66-18.67,10.48-.11,18.61,7.87,18.67,18.32Z"/>
  <path class="cls-1" d="M1025.54,503.6c.36-1.73.66-4.02,1.34-6.19,1.65-5.27,6.99-7.88,12.41-6.21,11.19,3.43,21.87,18.56,21.65,30.65-.19,10.3-9,15.57-17.92,10.48-10.82-6.19-16.2-15.9-17.48-28.72Z"/>
  <path class="cls-1" d="M995.91,489.93c-.86-.27-3.19-.62-5.15-1.66-10.33-5.47-16.34-14.2-17.71-25.71-1.22-10.24,7.26-16.71,16.38-12.55,11.22,5.11,17.73,14.21,19.45,26.35,1.12,7.88-4.48,14.06-12.98,13.57Z"/>
  <path class="cls-1" d="M418.53,709.3c9.48-.03,17.74,7.88,18.12,17.36.43,10.66-9,20.12-19.66,19.72-9.4-.35-17.41-8.77-17.3-18.18.12-9.95,9.01-18.87,18.83-18.9Z"/>
  <path class="cls-1" d="M731.56,333.52c10.27.03,20.54,7.28,23.84,16.81,3.47,10.01-2.4,18.81-12.93,19.38-10.98.6-21.8-7.11-24.73-17.61-2.92-10.46,3.15-18.62,13.82-18.58Z"/>
  <path class="cls-1" d="M693.4,315.96c.19,7.25-6.37,13.48-14.62,13.87-10.47.5-21.78-7.74-24.62-17.91-1.56-5.61.94-12.02,5.82-14.87,12.42-7.27,33.03,4.39,33.42,18.91Z"/>
  <path class="cls-1" d="M319,505.65c-.29,9.64-8.22,17.74-17.64,18.01-9.76.28-18.75-8.95-18.5-19.01.25-10.42,9.12-18.53,19.41-17.75,9.45.72,17.02,9.2,16.73,18.74Z"/>
  <path class="cls-1" d="M505.3,271.13c8.66-.22,15.67,3.01,20.42,10.33,5.12,7.91,2.29,17.61-6.08,21.73-9.55,4.7-23.14.75-28.69-8.32-6.77-11.09.66-23.38,14.35-23.73Z"/>
  <path class="cls-1" d="M954.62,435.81c-.29,7.03-5.78,11.75-12.63,10.85-13.14-1.73-24.72-16.81-22.97-29.9.83-6.21,6.12-10.2,12.22-9.23,12.26,1.94,23.87,16,23.38,28.28Z"/>
  <path class="cls-1" d="M298.23,360.15c-9.76-.32-17.49-8.41-17.06-17.85.45-9.83,9.67-18.11,19.66-17.66,9.54.42,17.78,8.96,17.29,17.92-.53,9.7-9.82,17.92-19.9,17.59Z"/>
  <path class="cls-1" d="M248.97,408.27c.35-10.18,9.49-18.59,19.32-17.79,8.81.72,15.97,8.42,16.04,17.24.08,10.2-8.54,18.87-18.55,18.67-9.55-.19-17.15-8.38-16.81-18.13Z"/>
  <path class="cls-1" d="M353.95,277.53c.11,9.5-8.69,17.72-19.19,17.94-9.8.2-18.34-7.41-18.41-16.41-.07-9.59,8.74-17.76,19.2-17.8,10.27-.03,18.29,7.06,18.39,16.27Z"/>
  <path class="cls-1" d="M333.42,583.34c10.59-.02,18.34,7.97,18.14,18.71-.18,10.21-7.47,17.56-17.36,17.52-10.38-.05-18.43-8.32-18.28-18.8.15-9.97,7.61-17.41,17.49-17.43Z"/>
  <path class="cls-1" d="M361.96,676.88c9.82-.1,17.53,7.37,17.84,17.29.33,10.57-7.87,18.78-18.41,18.44-9.54-.31-17.28-8.53-17.08-18.14.2-9.79,7.93-17.49,17.65-17.59Z"/>
  <path class="cls-1" d="M612.83,290.52c-8.7-.52-15.84-3.66-20.77-10.78-3.11-4.5-4.09-9.51-1.78-14.66,2.37-5.31,7.01-7.27,12.51-7.53,8.6-.4,15.7,2.83,21.23,9.32,4,4.69,5.57,10.16,2.94,15.97-2.73,6.02-8.48,7.15-14.13,7.69Z"/>
  <path class="cls-1" d="M1117.2,1278.35c8.51-13.37,19.52-19.91,33.18-21.57,15.23-1.85,21.21,5.84,17.72,21.75-13.01,2.76-34.13,2.85-50.9-.18Z"/>
  <path class="cls-1" d="M885.05,403.8c-11.22-1.36-22.36-13.11-23.07-24.33-.47-7.46,5.64-13.38,12.86-12.46,10.55,1.35,21.54,11.65,23.63,22.15,1.88,9.46-3.91,15.79-13.42,14.64Z"/>
  <path class="cls-1" d="M440.86,268.54c-5.87.24-11.55-2.03-16.11-6.88-8.12-8.65-4.71-21.44,6.91-24.09,4.77-1.09,10.36-.76,15.08.62,8.62,2.5,13.24,10.72,11.67,18.51-1.42,7.05-7.94,11.65-17.55,11.85Z"/>
  <path class="cls-1" d="M253.62,474.65c.09,9.7-7.32,17.9-16.58,18.35-8.98.43-17.46-7.88-17.62-17.28-.17-9.52,7.52-17.85,16.77-18.16,9.62-.32,17.35,7.24,17.44,17.09Z"/>
  <path class="cls-1" d="M546.26,252.79c-9.42-.94-17.27-3.86-21.99-12.16-4.19-7.37-1.06-15.31,6.93-17.94,9.71-3.2,21.4.77,27.43,9.32,5.42,7.68,2.74,16.2-6.14,19.27-2.15.74-4.43,1.09-6.24,1.52Z"/>
  <path class="cls-1" d="M288.49,571.46c-.54,10.14-8.28,17.07-18.11,16.25-9.14-.76-16.68-9.73-15.99-19,.73-9.73,8.98-16.96,18.49-16.22,9.56.75,16.15,8.77,15.61,18.97Z"/>
  <path class="cls-1" d="M231.36,330.24c-9.36,0-16.47-7.13-16.24-16.29.25-9.95,9.26-18.13,19.45-17.67,8.65.39,15.19,6.94,15.38,15.4.22,9.98-8.37,18.56-18.59,18.56Z"/>
  <path class="cls-1" d="M217.91,378.73c.33,9.46-7.42,17.8-16.94,18.22-9.48.42-16.71-6.24-16.89-15.58-.19-9.55,7.49-18.03,16.76-18.53,8.7-.47,16.77,7.04,17.08,15.89Z"/>
  <path class="cls-1" d="M287.67,663.35c-.22-9.8,5.96-16.99,15.09-17.54,10.24-.62,18.91,7.81,18.65,18.12-.23,9.13-7.48,16.62-16.27,16.81-9.65.21-17.24-7.34-17.47-17.39Z"/>
  <path class="cls-1" d="M828.56,362.34c-11.97-.33-23.5-10.9-24.47-22.44-.61-7.17,4.02-12.44,10.93-12.46,11.36-.04,23.82,10.68,25.36,21.81,1.11,8.01-3.68,13.31-11.82,13.09Z"/>
  <path class="cls-1" d="M266.72,264.62c-9.27.17-16.26-5.61-16.78-13.88-.63-10.08,7.65-18.18,18.68-18.28,9.6-.08,16.38,5.47,16.81,13.77.52,10.05-7.76,18.19-18.72,18.39Z"/>
  <path class="cls-1" d="M756.65,288.95c9.88.59,20.57,8.51,23.58,17.47,2.93,8.73-3,16.71-12.19,15.73-10.41-1.11-18.18-6.57-22.76-16.1-4.52-9.4,1.07-17.71,11.37-17.1Z"/>
  <path class="cls-1" d="M171.98,465.26c-8.56-.42-15.67-8.6-15.26-17.55.46-9.84,8.59-17.38,17.98-16.66,8.77.67,15.15,8.78,14.24,18.09-.9,9.13-8.68,16.53-16.96,16.12Z"/>
  <path class="cls-1" d="M1163.42,564.28c-1.28,1.93-2.3,5.21-4.35,6.07-2.15.91-5.91.4-7.88-1.01-11.8-8.43-18.11-20.24-19.12-34.64-.44-6.26,5.2-9.79,10.24-6.55,12.82,8.26,19.39,20.33,21.12,36.13Z"/>
  <path class="cls-1" d="M369.33,204.85c7.28-.13,12.6,1.43,16.83,5.88,6.04,6.34,5.08,15.83-2.13,20.81-6.97,4.82-17.06,4.71-24.16-.27-5.09-3.56-7.42-9.15-6.16-14.88,1.23-5.58,5.02-8.82,10.2-10.52,2.14-.7,4.46-.84,5.42-1.01Z"/>
  <path class="cls-1" d="M225.83,542.16c-.22,9.42-7.39,17.02-15.89,16.84-9.14-.19-16.36-8.82-15.77-18.83.57-9.64,7.6-16.19,16.78-15.62,9,.56,15.12,7.8,14.89,17.61Z"/>
  <path class="cls-1" d="M1176.1,577.57c.45-2.48.22-4.68,1.2-5.73,1.38-1.46,3.59-2.57,5.59-2.87,1.44-.21,3.4.81,4.63,1.87,10.91,9.35,17.2,21.31,18.72,35.54.26,2.41-1.22,5.77-3.04,7.47-2.93,2.75-6.64,1.25-9.32-1.06-10.95-9.46-16.42-21.7-17.79-35.22Z"/>
  <path class="cls-1" d="M1086,497.35c-.06-10.06,5.74-13.67,11.66-9.84,11.63,7.54,19.05,18.03,19.76,32.28.35,6.98-5.64,10.43-11.68,6.72-11.97-7.36-18.48-18.27-19.74-29.16Z"/>
  <path class="cls-1" d="M1217.74,620.12c.21-2.42.29-3.56.42-4.7.44-3.86,4.35-5.98,7.56-4.11.49.29,1.12.4,1.52.78,11.44,10.57,18.41,23.38,18.86,39.15.07,2.48-1.2,6-3.07,7.32-3.3,2.33-6.65-.16-9.04-2.66-9.91-10.34-15.03-22.85-16.25-35.79Z"/>
  <path class="cls-1" d="M167.59,271.15c8.28-.24,14.91,5.33,15.5,13.03.74,9.63-8.39,18.79-18.58,18.65-8.07-.11-14.48-6.27-14.59-14.03-.14-9.26,7.98-17.36,17.67-17.65Z"/>
  <path class="cls-1" d="M261.13,634.16c-.08,9.23-6.03,15.87-14.48,16.15-9.59.31-17.31-7.64-17.17-17.68.13-9.22,8-17.06,16.46-16.4,8.72.68,15.27,8.41,15.19,17.93Z"/>
  <path class="cls-1" d="M705.8,282.53c-8.96-.06-16.97-4.99-22.03-14.32-4.52-8.33.66-17.18,9.95-16.9,10.51.32,18.86,5.09,23.95,14.43,4.62,8.48-.39,16.53-11.86,16.79Z"/>
  <path class="cls-1" d="M1069.46,476.82c-.06,6.05-4.99,9.54-10.5,7.43-11.51-4.41-21.48-18.73-21.45-30.83.01-6.16,4.9-9.7,10.37-7.52,11.3,4.5,21.69,19.4,21.58,30.92Z"/>
  <path class="cls-1" d="M994.23,404.84c1.03.25,2.2.36,3.24.81,11.88,5.13,19.49,13.94,22.15,26.63,1.39,6.61-3.77,11.27-10.26,9.77-11.27-2.59-23.24-17.97-22.87-29.38.13-4.1,4.1-8.17,7.74-7.84Z"/>
  <path class="cls-1" d="M470.02,187.61c7.75,0,14.11,2.01,19.11,7.46,6.7,7.3,3.9,17.72-5.73,20.32-8.92,2.4-17.11.65-23.79-6.04-3.39-3.39-5.48-7.53-3.97-12.45,1.46-4.77,5.05-7.52,9.84-8.64,1.67-.39,3.4-.5,4.54-.66Z"/>
  <path class="cls-1" d="M198.93,236.8c-6.41,0-11.64-3.14-13.71-8.48-2.04-5.27-1-10.12,2.44-14.51,5.69-7.27,15.34-9.68,23.07-5.75,5.44,2.76,8.35,8.59,7.13,14.27-1.8,8.39-9.75,14.47-18.92,14.48Z"/>
  <path class="cls-1" d="M303.74,204.56c-8.85-.18-16.89-6.72-17.21-14-.33-7.43,6.79-14.17,16-15.17,9.6-1.04,18.73,4.92,19.7,12.86,1.04,8.49-8.07,16.52-18.49,16.31Z"/>
  <path class="cls-1" d="M1281.05,704.13c-2.73-.62-4.14-.51-4.88-1.17-13.97-12.18-19.21-28.09-19.3-46.07-.01-2.95,3.97-5.26,6.24-3.88,8.41,5.09,12.23,13.66,15.71,22.12,3.66,8.88,7.43,18.11,2.23,29Z"/>
  <path class="cls-1" d="M135.45,371.14c-7.52.38-14.16-5.68-14.83-13.54-.83-9.77,5.96-18.33,15.29-19.26,8.01-.8,15.57,5.93,16.03,14.27.5,9.17-7.42,18.07-16.48,18.53Z"/>
  <path class="cls-1" d="M163.81,515.73c0,9.33-5.8,16.15-14.09,16.53-8.82.41-16.14-7.14-16.1-16.62.03-9.34,7.68-17.25,16.18-16.71,8.09.51,14,7.6,14.01,16.79Z"/>
  <path class="cls-1" d="M642.39,244.33c-8.84-.03-17.03-4.46-22.27-13.71-3.9-6.89,0-14.12,7.97-15.1,9.87-1.21,17.96,2.32,24.44,9.69,3.24,3.68,4.43,8.01,2.88,12.76-1.25,3.83-5.64,6.17-13.02,6.37Z"/>
  <path class="cls-1" d="M110.07,407.35c7.53-.36,14.16,5.81,14.88,13.87.9,9.99-6.72,19.15-15.78,18.97-7.18-.15-13.82-7.07-14.29-14.88-.54-8.99,6.69-17.54,15.19-17.95Z"/>
  <path class="cls-1" d="M941.76,365.54c1.13.14,2.33.08,3.37.47,11.38,4.34,19.13,12.2,22.32,24.04,1.74,6.47-2.94,11.45-9.45,10.56-11.86-1.61-24.39-16.01-23.98-27.56.15-4.17,3.78-7.69,7.74-7.52Z"/>
  <path class="cls-1" d="M1251.22,1279.28c-13.52,2.45-27.07,1.28-40.3.81-2.25-3.88-.08-6.01,1.88-7.99,5.72-5.77,12.45-9.9,20.09-12.86,11.2-4.34,22.18,2.69,20,14.7-.3,1.64-.99,3.21-1.67,5.34Z"/>
  <path class="cls-1" d="M151.87,192.52c-.39,8.58-3.72,13.62-9.66,16.98-5.95,3.37-11.97,4.02-17.81-.2-3.48-2.51-5.36-6.02-5.05-10.36.84-11.79,15.5-20.04,25.74-14.11,3.12,1.81,5.06,5.67,6.78,7.69Z"/>
  <path class="cls-1" d="M409.33,183.33c-7.74-1.16-13.73-2.79-17.86-8.36-4.15-5.6-2.76-12.79,3.28-16.27,7.89-4.55,20.85-2.66,27.15,3.96,5.21,5.48,4.23,14.13-2.42,17.52-3.48,1.77-7.55,2.38-10.15,3.15Z"/>
  <path class="cls-1" d="M201.78,606.82c.13,9.23-5.73,16.08-13.87,16.22-8.66.15-15.74-7.29-15.86-16.67-.11-8.97,6-16,14.1-16.21,8.79-.23,15.49,6.92,15.63,16.66Z"/>
  <path class="cls-1" d="M567.07,180.16c7.85.22,15.67,3.03,21.25,10.44,5.27,7,1.89,15.25-6.87,16.55-9.1,1.35-16.83-1.85-23.26-8.2-3.46-3.42-5.01-7.59-3.41-12.45,1.27-3.85,5.51-6.18,12.28-6.33Z"/>
  <path class="cls-1" d="M887.1,326.92c11.94-.08,26.27,13.74,26.34,25.39.03,4.68-4.54,8.58-9.28,7.93-11.32-1.55-22.68-12.56-24.55-23.79-.81-4.88,2.82-9.49,7.5-9.52Z"/>
  <path class="cls-1" d="M116.91,260.52c.5,9.13-7.73,17.8-17.22,18.13-7.73.27-13.55-4.93-13.8-12.33-.32-9.49,7.53-17.95,17.01-18.34,7.09-.29,13.63,5.56,14.01,12.54Z"/>
  <path class="cls-1" d="M831.12,288.98c10.96-.19,23.99,10.23,26.21,20.94,1.2,5.79-2.57,10.35-8.34,10.08-11.06-.51-23.59-11.21-25.64-21.9-.89-4.61,2.88-9.04,7.77-9.12Z"/>
  <path class="cls-1" d="M774.1,251.61c10.47.35,23.02,9.73,25.99,19.42,1.34,4.36-2.02,9.35-6.76,10.02-10.87,1.55-26.45-10.18-27.74-20.87-.54-4.52,3.64-8.74,8.51-8.57Z"/>
  <path class="cls-1" d="M142.99,582.57c.17,8.9-4.98,15.43-12.45,15.8-8.59.43-15.79-7.44-15.55-17,.21-8.45,6.11-14.94,13.56-14.93,8.15.01,14.26,6.84,14.44,16.12Z"/>
  <path class="cls-1" d="M237.4,149.06c4.04.64,6.39.75,8.57,1.41,4.78,1.45,7.97,4.66,8.77,9.68.69,4.3-.92,8.08-4.14,10.83-6.17,5.28-13.21,6.86-20.93,3.79-9.29-3.7-11.2-14.84-3.24-20.76,3.51-2.61,8.13-3.71,10.97-4.94Z"/>
  <path class="cls-1" d="M340.72,125.9c4.61,1.96,9.08,3.17,12.76,5.58,6.87,4.49,6.06,14.23-1.14,18.31-8.11,4.6-18.48,3.4-25.32-2.93-5.16-4.78-4.9-12.35,1.11-15.98,3.75-2.26,8.23-3.31,12.59-4.98Z"/>
  <path class="cls-1" d="M77.22,491.02c0-1.15-.04-2.3,0-3.45.19-5.21,2.89-8.66,7.71-10.28,4.79-1.61,9.13-.33,12.7,3.12,6.9,6.66,6.85,18.16,0,24.75-3.77,3.64-9.47,4.6-14.39,2.32-4.04-1.87-6.04-5.11-6.05-9.57,0-2.3,0-4.6,0-6.9h.02Z"/>
  <path class="cls-1" d="M714.61,215.56c11.64,1.63,19.94,6.16,25.15,15.44,3.21,5.73-.48,12.34-7.01,12.27-10.61-.11-18.72-5.21-24.63-13.77-1.96-2.83-3.76-6.57-1-9.55,2.1-2.26,5.52-3.3,7.49-4.39Z"/>
  <path class="cls-1" d="M511.21,171.8c-7.82-.05-14.61-2.6-19.76-8.62-5.11-5.97-2.23-14.3,5.47-15.87,9.04-1.84,16.97.65,23.67,6.89,3.15,2.93,4.5,6.67,3.26,10.88-1.32,4.47-5.15,5.75-9.24,6.46-1.12.19-2.27.18-3.41.26Z"/>
  <path class="cls-1" d="M446.25,139.48c-8.7-.1-14.91-2.47-19.83-7.79-3.89-4.21-3.07-10.28,1.68-13.19,8.69-5.33,23.35-2.07,29.05,6.46,2.65,3.97,1.54,9.66-2.74,11.79-2.97,1.48-6.34,2.15-8.16,2.74Z"/>
  <path class="cls-1" d="M169.1,150.83c-1.71-.58-5.14-1.21-8-2.84-4.57-2.62-5.67-9-2.88-13.54,5.11-8.33,17.25-11.39,25.51-6.42,5.07,3.05,6.48,9.75,3.14,14.92-3.24,5.02-9.12,7.89-17.77,7.88Z"/>
  <path class="cls-1" d="M671.13,206.33c-11.1-.77-18.85-4.99-24.34-12.96-3.81-5.54-.6-11.91,5.95-12.3,9.82-.58,17.62,3.54,24.04,10.61,3.2,3.53,4.36,8.59,1.89,10.77-2.34,2.07-5.71,2.98-7.55,3.87Z"/>
  <path class="cls-1" d="M278.17,124.48c-10.42.43-18.2-4.76-18.64-11.13-.45-6.6,6.38-12.1,15.72-11.93,3.84.07,7.98.9,11.42,2.55,6.86,3.31,7.25,12.71.76,16.71-3.29,2.03-7.23,2.99-9.27,3.8Z"/>
  <path class="cls-1" d="M608.87,170.8c-9.87-.49-16.97-3.8-22.87-9.72-2.58-2.59-3.98-5.78-2.71-9.33,1.34-3.73,4.78-4.76,8.36-4.78,8.44-.04,15.59,3.34,21.71,8.95,3.66,3.35,5.23,8.25,2.86,10.56-2.26,2.19-5.56,3.31-7.36,4.32Z"/>
  <path class="cls-1" d="M112.43,104.87c1.23.33,4.11.72,6.66,1.87,4.22,1.9,5.9,7.64,3.82,11.76-3.98,7.87-13.29,12.08-21.73,9.83-7.31-1.95-10.16-10.49-5.36-16.37,3.85-4.71,8.9-7.07,16.61-7.09Z"/>
  <path class="cls-1" d="M1088.14,445.16c1.57.17,3.58-.19,4.86.62,11.09,6.97,18.58,16.87,22.35,29.37.5,1.65-1.04,4.1-2.07,5.93-.32.56-2.34.82-3.12.38-13.12-7.35-22.19-17.69-23.8-33.26-.09-.88,1.07-1.88,1.78-3.04Z"/>
  <path class="cls-1" d="M377.76,109.55c-3.33-1.21-8.22-2.59-12.73-4.77-3.24-1.56-4.85-4.87-4.44-8.6.43-3.82,3.1-6.13,6.51-7.23,7.49-2.41,14.69-1.42,21.4,2.71,3.92,2.41,6.66,7.08,4.93,9.85-1.66,2.67-4.47,4.88-7.22,6.54-1.81,1.09-4.42.85-8.45,1.49Z"/>
  <path class="cls-1" d="M1157.04,522.63c-9.82-.91-14.34-8.5-18.9-15.39-4.53-6.85-9.84-13.86-7.42-24.18,11.5,2.41,16.19,11.19,21.52,18.86,6.35,9.14,6.37,10.53,4.8,20.72Z"/>
  <path class="cls-1" d="M1174.55,521.22c13.46,11.26,22.56,23.83,26.05,39.43-3.19,4.09-6.17,3.48-8.36,1.56-10.71-9.34-17.71-21.03-20.9-34.91-.23-.98.36-2.2.72-3.25.16-.47.69-.81,2.5-2.83Z"/>
  <path class="cls-1" d="M211.93,99.14c-9.08.13-15.24-3.5-16.23-8.72-1.04-5.48,5.28-11.73,13.38-12.64,3.3-.37,6.81-.05,10.07.68,4.08.91,7.09,3.62,8.19,7.81.91,3.49-2.45,8.9-6.9,10.67-3.11,1.24-6.53,1.71-8.51,2.2Z"/>
  <path class="cls-1" d="M542.09,136.39c-7.9-.33-15.18-3.19-20.5-9.75-1.27-1.56-2.26-4.78-1.49-6.23,1.15-2.15,3.8-4.41,6.14-4.85,8.94-1.65,16.86,1.26,23.56,7.27,2.58,2.32,4.92,5.52,2.84,8.89-1.27,2.06-4.33,3.11-6.73,4.35-.93.48-2.24.21-3.81.32Z"/>
  <path class="cls-1" d="M1042.66,407.12c1.76,0,3.09-.4,3.97.06,11.65,6.1,19.8,15.16,22.99,28.17.71,2.9-2.19,6.17-4.7,5.64-10.76-2.31-24.29-18.93-24.35-30.24,0-1.32,1.5-2.66,2.09-3.62Z"/>
  <path class="cls-1" d="M944.99,330.84c1.91.1,2.52,0,3.04.19,11.4,3.96,19.51,11.51,23.82,22.78.65,1.7-.04,4.86-1.32,6.09-1.27,1.23-4.44,1.79-6.13,1.09-11.06-4.57-19.27-12.2-22.34-24.09-.46-1.79,2.05-4.34,2.93-6.05Z"/>
  <path class="cls-1" d="M921.24,320.28c-2.02.82-4.94,3.18-6.68,2.51-5.23-2.03-10.68-4.49-14.74-8.21-4.05-3.72-6.85-8.98-9.56-13.91-1.65-3,2.3-7.46,5.55-6.59,11.8,3.16,20.08,10.53,25.06,21.61.43.95.2,2.2.37,4.6Z"/>
  <path class="cls-1" d="M995.16,368.9c1.11,0,2.38-.34,3.34.05,11.78,4.86,19.33,13.76,23.76,25.47,1.29,3.4-2.2,7.06-5.76,6.33-11.05-2.25-24.05-17.33-24.19-28.09,0-.55.02-1.27.35-1.63.72-.8,1.64-1.42,2.5-2.12Z"/>
  <path class="cls-1" d="M1247.37,601.69c10.08,6.45,15.38,12.85,21.77,26.89,2.51,5.52,6.51,11.05,3.12,18.58-9.19-3.84-12.51-12.11-16.54-19.45-4.28-7.79-8.74-15.76-8.35-26.02Z"/>
  <path class="cls-1" d="M867.33,282.24c-1.13.65-2.96,2.6-4.73,2.55-9.77-.3-22.71-10.73-25.7-20.22-.88-2.81,1.35-6.25,4.1-6.31,10.13-.22,24.91,11.41,26.64,21,.1.53-.1,1.11-.31,2.98Z"/>
  <path class="cls-1" d="M1211.89,560.15c11.5,8.63,17.12,18.45,22.37,28.5,3.23,6.19,3.15,6.86,2.79,16.39-7.04.4-9.58-5.34-12.84-9.64-9.19-12.11-12.32-20.76-12.32-35.26Z"/>
  <path class="cls-1" d="M480.63,104.86c-8.71-.09-15.59-2.25-21.04-7.96-3-3.14-2.15-8.38,1.57-10.11,8.48-3.93,22.22-.09,27.58,7.72,1.85,2.68.51,7.55-2.54,8.72-2.09.8-4.31,1.27-5.56,1.63Z"/>
  <path class="cls-1" d="M812.64,245.96c-7.91,3.48-13.45.37-18.73-3.05-5.3-3.44-10.19-7.4-12.14-13.88-.78-2.6,1.67-5.75,4.54-5.9,6.77-.34,12.15,2.94,17.13,6.83,4.91,3.82,10.22,7.64,9.2,16Z"/>
  <path class="cls-1" d="M751.77,211.86c-9.56.3-22.53-7.79-26.17-16.33-1.32-3.1,1.71-7.26,5.24-6.85,10.8,1.24,19.32,6.32,25.06,15.65,1.89,3.07-.63,7.43-4.14,7.54Z"/>
  <path class="cls-1" d="M698.75,173.15c-.67.91-1.15,2.21-2.05,2.65-1.46.72-3.28,1.44-4.81,1.21-9.39-1.4-17.61-5.26-23.36-13.06-1.09-1.49-1.11-4.33-.56-6.25.32-1.12,2.8-2.42,4.2-2.31,10.79.89,19.88,5.13,25.96,14.51.55.85.43,2.15.62,3.24Z"/>
  <path class="cls-1" d="M613.07,122.82c9.36,1.34,17.85,4.33,24.17,11.65.95,1.11,1.67,3.66,1.05,4.61-1.07,1.64-3.26,3.57-4.99,3.59-9.68.12-17.79-3.87-24-11.21-1.13-1.34-1.09-4.29-.53-6.19.33-1.12,2.74-1.62,4.31-2.45Z"/>
  <path class="cls-1" d="M298.72,68.42c9.1-2.25,17.57-1.75,25.96-.75,1.68.2,3.58,2.51,4.42,4.29.53,1.13-.29,3.49-1.28,4.62-6.5,7.45-22.57,6.56-28.53-1.72-1.04-1.44-.41-4.09-.57-6.45Z"/>
  <path class="cls-1" d="M570.63,110.56c-8.01-1.38-15.79-3.48-21.39-9.99-.94-1.09-1.41-3.35-.95-4.66.46-1.32,2.32-2.98,3.64-3.03,9.65-.43,18.08,2.81,24.89,9.69.97.98,1.53,3.29,1.06,4.52-.5,1.31-2.36,2.25-3.81,2.99-.96.49-2.24.34-3.44.48Z"/>
  <path class="cls-1" d="M942.04,305.74c12.39,2.66,18.65,7.74,26.59,21.3-.92,3.04-3.03,2.95-5.24,1.75-8.23-4.44-14.99-10.58-20.2-18.34-.8-1.2-.75-2.97-1.15-4.71Z"/>
  <path class="cls-1" d="M519.15,76.43c-6.38,5.67-11.87,3.98-17.16,2.15-5.14-1.78-10.95-3.03-12.99-10.62,11.41-1.28,21.96-3.57,30.15,8.47Z"/>
  <path class="cls-1" d="M922.1,294.07c-15.25-3.57-23.22-11.18-29.51-22.38,12.4.7,19.44,5.83,29.51,22.38Z"/>
  <path class="cls-1" d="M988.95,339.16c17.38,9.73,21.65,14.15,26.07,26.42-7.48.26-11.52-5-15.92-9.06-4.44-4.09-9.38-8.17-10.14-17.36Z"/>
  <path class="cls-1" d="M1075.63,409.18c13.39,9.73,22.49,17.87,27.88,30.65-12.29-3.25-19.73-11.12-27.88-30.65Z"/>
  <path class="cls-1" d="M1142.45,479.78c-11.17-7.8-18.57-17.34-24.9-29.27,9.1,2.79,12.06,5.1,20.68,16.63,2.44,3.26,6.55,6.27,4.22,12.64Z"/>
  <path class="cls-1" d="M819.97,223.49c-14.23-1.88-22.11-8.05-29.16-17.86,2.71-1.03,4.4-2.36,5.46-1.97,11.49,4.24,15.5,7.51,23.7,19.83Z"/>
  <path class="cls-1" d="M870.73,256.23c-6.41,2.93-9.98-.62-13.67-2.88-7.06-4.34-8.16-5.87-12.96-14.79,10.58-.58,16.91,3.5,26.63,17.67Z"/>
  <path class="cls-1" d="M1060.74,402.07c-12.45-2.39-20.67-10.49-25.9-25.03,4.88-1.23,7.48,2.29,10.11,4.82,6.02,5.78,12.91,11.04,15.79,20.22Z"/>
  <path class="cls-1" d="M737.03,171.85c17.44,2.45,22.77,5.88,28.96,17.61-12.37-.39-20.46-6.14-28.96-17.61Z"/>
  <path class="cls-1" d="M712.43,155.01c-6.17,3.67-10.58.54-14.88-1.65-5.3-2.7-10.94-5.3-13.69-13.27,12.71.86,21.32,5.71,28.57,14.92Z"/>
  <path class="cls-1" d="M1158.33,486.64c10.23,7.64,18.04,17.11,25.56,29.75-12.57-5.41-18.01-11.74-25.56-29.75Z"/>
  <path class="cls-1" d="M629.5,111.74c9.83-2.28,18.97,2.13,25.13,12.1-12.35.01-16.18-1.83-25.13-12.1Z"/>
  <path class="cls-1" d="M133.3,67.08c9.08,0,15.81-.08,22.54.06,1.49.03,2.96.86,5.44,1.63-3.58,6.95-9.25,8.3-15.59,8.25-5.36-.04-9.77-1.64-12.39-9.95Z"/>
  <path class="cls-1" d="M1217.08,554.03c-10.2-7.15-13.89-11.82-23.56-29.79,10.36,6.08,19,17.01,23.56,29.79Z"/>
  <path class="cls-1" d="M78.15,320.16c6.01-.47,7.65,3.2,8.32,7.24,1.07,6.46-.29,12.08-7.92,16.66-2.07-8.98-2.02-16.38-.4-23.9Z"/>
  <path class="cls-1" d="M399.45,67.91c9.52-1.32,17.98-1.68,26.28.2.78,6.01-2.94,6.73-6.13,7.25-8.19,1.32-12.09-.18-20.15-7.45Z"/>
  <path class="cls-1" d="M572.03,81.46c11.8.14,20.12,3.12,27.64,12.68-11.87.1-20.33-2.57-27.64-12.68Z"/>
  <path class="cls-1" d="M79.06,551.57c8.15,7.34,8.28,10.7.75,20.05q-2.99-8.97-.75-20.05Z"/>
  <path class="cls-1" d="M77.94,183.52c-.28-4.33-.72-8.19-.72-12.04,0-2.05.74-4.11,1.21-6.47,10.49,6.01,10.33,11.56-.49,18.51Z"/>
  <path class="cls-1" d="M1249.94,590.89c-7.69-5.17-12.39-12.56-15.71-20.95,7.83,4.97,11.9,12.84,15.71,20.95Z"/>
  <path class="cls-1" d="M1278.95,624.7c-.36.68-.57,1.07-.77,1.45-1.04-.95-2.11-1.88-3.09-2.9-.09-.1.38-.74.59-1.13,1.11.87,2.21,1.74,3.27,2.57Z"/>
  <polygon class="cls-1" points="1268.18 612.41 1267.86 611.23 1268.78 611.42 1268.18 612.41"/>
</svg>