<?xml version="1.0" encoding="UTF-8"?>
<svg id="Camada_1" data-name="Camada 1" xmlns="http://www.w3.org/2000/svg" viewBox="0 0 1364.31 1348.09">
  <defs>
    <style>
      .cls-1 {
        fill: #fff;
        stroke-width: 0px;
      }
    </style>
  </defs>
  <path class="cls-1" d="M1284.64,947.26c-1.73,1.19-3.45,2.39-5.18,3.59-4.29-.76-11.01-14.44-13.94-29.88,5.49,8.46,9.74,15,14.11,21.74,2.04-.96,3.53-1.66,5.01-2.36v6.91Z"/>
  <path class="cls-1" d="M1284.64,1005.95c-3.25-4.6-6.28-9.21,0-13.81v13.81Z"/>
  <path class="cls-1" d="M86.57,70.28q-3.41,4.09-6.91,0h6.91Z"/>
  <path class="cls-1" d="M974.59,560.1c2.35,7.07,3.72,11.21,5.52,16.63-3.62.33-6.74,1.64-8.65.64-21.46-11.16-38.22-27.11-48.36-49.4-.38-.84.3-2.15.66-4.27,2.45,0,5.54-.91,7.61.17,6.53,3.39,12.67,7.51,19.42,11.63,3.03-5.16-3.7-8.43-1.87-12.82,1.66-2.61,3.94-1.99,5.83-.7,6.98,4.79,13.83,9.77,22.15,15.7-1.84-4.47-3.03-7.36-4.23-10.26.99-.5,2.21-1.54,2.67-1.28,19.81,11.48,38.97,23.76,51.61,43.7-2.38,1.88-4.84,3.84-8.15,6.46-5.52-4.19-11.34-8.62-19-14.44,1.49,5.74,2.5,9.6,3.89,14.94-11.9-1.55-17.68-10.45-29.09-16.72Z"/>
  <path class="cls-1" d="M892.25,475.51c-4.17-4.73-6.15-10.34-7.84-17.35,10.53-.46,15.63,8.19,23.71,10.82.15-2.69.29-5.08.43-7.72,16.2,8.2,31.38,16.9,43.53,30.14,3.23,3.51,5.85,7.08,6.52,11.73.2,1.39-.96,2.97-1.92,5.62-5.27-3.15-10.03-5.99-15.65-9.35v9.79c-5.07,2.25-8.48-1.54-12.25-3.73-6.38-3.71-12.64-7.64-18.95-11.47-5.86-6.16-11.72-12.32-17.58-18.48Z"/>
  <path class="cls-1" d="M876.65,492.63c4.22,6.03,8.65,11.92,12.48,18.19.89,1.45.45,4.81-.71,6.12-1.21,1.36-4.1,1.94-6.12,1.71-2.76-.32-5.55-1.43-8.06-2.73-14.52-7.51-26.36-18.17-35.81-31.45-2.6-3.66-5.24-7.62-3.03-12.56,11.63-2.25,19.58,1.22,36.96,16.03,1.41,1.54,2.84,3.12,4.28,4.7Z"/>
  <path class="cls-1" d="M949.01,578.76c-4.16,4.12-8.27,3.36-11.83,1.6-17.91-8.87-31.58-22.15-40.46-40.17-.49-1-.7-2.15-.95-3.26-.79-3.42,2.48-7.14,5.87-6.52,2.21.41,4.51.9,6.48,1.92,16.59,8.64,29.87,20.8,38.66,37.44,1.47,2.79,1.6,6.29,2.24,8.98Z"/>
  <path class="cls-1" d="M876.65,492.63c-1.44-1.58-2.87-3.16-4.28-4.7-3.86-8.43-11.14-15.4-12.1-24.78,3.87-3.74,7.22-2.55,10.12-.9,7.38,4.2,14.55,8.75,21.83,13.22,5.89,6.21,11.75,12.37,17.61,18.53,3.56,5.53,9.19,10.14,8.23,19.02-2.89-.2-5.87.39-7.99-.7-6.01-3.08-11.66-6.87-17.48-10.34-5.29-3.15-10.62-6.23-15.94-9.35Z"/>
  <path class="cls-1" d="M814.1,483.76c1.44.33,5.01.55,8.04,1.96,13.3,6.19,24.21,15.32,32.01,27.87,1.18,1.9,1.86,4.18,2.43,6.37,1.11,4.27-2.23,8.31-6.46,8.04-.57-.04-1.18.08-1.72-.08-19.23-5.62-33.47-17.2-41.78-35.58-1.89-4.18,1.09-8.39,7.48-8.59Z"/>
  <path class="cls-1" d="M914.25,585.72c-4.07,4.28-8.78,3.72-12.98,1.93-15.8-6.74-27.52-17.92-34.72-33.63-.69-1.5-.96-3.32-.95-4.99,0-3.2,1.74-5.62,4.91-5.91,2.75-.26,5.92-.19,8.34.93,16.05,7.41,28.58,18.57,35.29,35.32.77,1.92.1,4.42.1,6.35Z"/>
  <path class="cls-1" d="M958.29,595.32c2.76.63,4.57.68,6.03,1.43,17.33,8.91,29.92,22.33,37.75,40.17.45,1.03.61,2.19.84,3.3.75,3.63-2.22,7.06-5.76,6.45-2.2-.38-4.57-.78-6.46-1.87-15.75-9.05-27.56-21.79-35.09-38.37-.69-1.52-1.56-3.51-1.11-4.86.79-2.32,2.56-4.31,3.79-6.25Z"/>
  <path class="cls-1" d="M967.36,644.8c.23,5.28-3.72,8.72-7.85,7.53-3.27-.94-6.62-2.03-9.5-3.78-10.99-6.65-19.52-15.74-25.32-27.24-1.25-2.49-1.98-5.34-2.44-8.1-.74-4.44,2.8-7.95,7.1-7.41,1.13.14,2.36.1,3.36.54,15.9,6.93,27.21,18.45,33.94,34.42.64,1.53.59,3.34.7,4.04Z"/>
  <path class="cls-1" d="M877.51,594.94c-2.44,1.82-4.49,4.58-6.71,4.73-3.82.26-8.08-.36-11.57-1.92-10.73-4.78-19.02-12.55-24.68-22.88-1.33-2.42-2.04-5.32-2.45-8.08-.73-4.89,3.44-9.2,8.27-8.44,3.34.52,6.8,1.37,9.78,2.89,10.41,5.3,18.94,12.79,24.26,23.36,1.48,2.94,1.95,6.38,3.1,10.34Z"/>
  <path class="cls-1" d="M826.4,456.37c-4.8.26-8.38,1.47-11.15.45-18.26-6.69-32.74-18.34-43.37-34.68-.59-.91-.72-2.14-1.02-3.23-.71-2.6,2.11-6.16,4.77-5.73,2.79.46,5.67.99,8.22,2.12,14.91,6.59,27.58,16.22,37.44,29.22,2.23,2.94,3.05,6.95,5.11,11.85Z"/>
  <path class="cls-1" d="M751.65,428.48c1,.18,3.95.24,6.54,1.24,14.16,5.48,25.79,14.3,34.27,27.01.92,1.38,1.42,3.08,1.91,4.7,1.28,4.13-2,8.49-6.23,7.93-3.35-.44-6.78-1.12-9.88-2.41-12.35-5.15-22.46-13.3-30.51-23.95-1.35-1.78-2.25-3.95-3.14-6.03-1.83-4.28.7-8.29,7.03-8.49Z"/>
  <path class="cls-1" d="M1024.07,616.71c2.09,4.64,4.33,9.22,6.21,13.94,1.4,3.53,2.33,7.26,3.87,12.17-3.3.29-5.81,1.34-7.31.53-19.64-10.71-33.99-26.33-42.4-47.15-.52-1.29.43-3.17.9-6.01,2.94.62,5.92.5,7.95,1.82,5.21,3.42,10.08,7.37,14.92,11.32,5.28,4.3,10.37,8.84,15.53,13.27,0,0,.34.11.34.11Z"/>
  <path class="cls-1" d="M783.87,501.23c14.34,1.03,34.41,18.15,36.97,31.53.62,3.22-1.98,7.36-5.26,7.56-3.34.2-6.97.39-10.04-.68-13.43-4.68-23.6-13.43-29.87-26.28-3.51-7.19.4-12.69,8.2-12.12Z"/>
  <path class="cls-1" d="M893.89,619.57c.73.08,2.55-.09,4.09.49,14.67,5.54,24.98,15.58,30.06,30.49,2.19,6.42-2.4,11.3-9.19,10.44-10.35-1.32-17.38-7.95-23.9-15.23-4.62-5.16-8.13-11.01-8.96-18.08-.49-4.13,2.9-7.99,7.9-8.11Z"/>
  <path class="cls-1" d="M979.86,672.04c2.66.63,4.43.76,5.94,1.45,14.36,6.5,23.61,17.78,29.42,32.09.82,2.02.74,4.5.71,6.77-.04,3.54-3.79,6.35-7.25,5.36-2.73-.78-5.59-1.62-7.96-3.11-11.54-7.23-19.92-17.19-24.68-30-.77-2.08-1.56-4.74-.89-6.62.83-2.33,3.17-4.12,4.69-5.94Z"/>
  <path class="cls-1" d="M751.18,485.08c-15.67-3.79-27.56-11.98-35.3-25.74-1.71-3.05-2.34-7.03.49-9.58,1.85-1.67,5.33-2.86,7.72-2.39,15.41,3.02,27.26,11.45,35.06,25.15,1.72,3.01,2.38,6.97-.45,9.58-1.87,1.73-5.03,2.06-7.52,2.98Z"/>
  <path class="cls-1" d="M1052.6,710.96c-1.55.77-3.68,2.29-6.03,2.81-1.43.32-3.37-.64-4.8-1.49-15.29-9.08-25.9-22.13-31.78-38.84-.75-2.14.35-5.63,1.81-7.58.83-1.12,4.58-1.25,6.24-.37,16.84,8.93,28.21,22.67,34.51,40.62.35,1.01.05,2.25.05,4.85Z"/>
  <path class="cls-1" d="M975.91,718.96c-.27,3.96-5.37,7.15-10.24,5.75-10.51-3.02-17.9-10.11-23.51-19.05-2.39-3.81-4.05-8.22-5.25-12.57-1.33-4.82,2.82-9.26,7.74-8.93,1.7.11,3.53.21,5.06.88,13.42,5.86,22.13,15.93,26.17,29.99.3,1.05.04,2.27.04,3.93Z"/>
  <path class="cls-1" d="M844.48,432.1c2.71,4.9,5.43,9.8,7.88,14.22-2.35,5.49-6.1,3.94-9,2.76-12.88-5.23-23.72-13.65-33.67-23.12-4.92-4.68-9.15-10.13-13.31-15.53-1.09-1.42-.75-3.95-1.1-6.2q12.6.91,30.99,13.47c.05.1.25.5.61,1.19,4.23,2.61,8.45,5.22,12.68,7.83,1.64,1.79,3.29,3.59,4.93,5.38Z"/>
  <path class="cls-1" d="M835.36,606.09c.31,3.98-2.74,7.94-6.72,8.64-1.12.2-2.27.36-3.39.29-11.91-.84-26.74-13.06-30.21-24.85-2.14-7.26,2.08-12.64,9.57-12.2,13.28.78,29.81,15.89,30.75,28.13Z"/>
  <path class="cls-1" d="M679.72,377.85c3.92-.29,6.26-.98,8.36-.53,16.48,3.58,29.34,12.67,38.77,26.52,1.1,1.61,1.48,4.7.67,6.33-.79,1.59-3.73,3.33-5.43,3.07-18.67-2.81-33.11-12.13-42.28-28.89-.7-1.28-.09-3.27-.09-6.51Z"/>
  <path class="cls-1" d="M771.07,557.88c-12.43-.53-27.14-11.82-31.02-23.79-2.05-6.33,1.77-11.48,8.54-11.52,11.94-.07,27.71,11.38,31.62,22.96,2.48,7.36-1.46,12.68-9.14,12.36Z"/>
  <path class="cls-1" d="M876.09,673.73c-.8-.1-2.57-.05-4.14-.58-12.69-4.21-21.51-12.44-25.19-25.45-1.74-6.16,3.06-11.3,9.48-10.83,12.06.88,26.44,13.98,28.45,25.91.99,5.88-2.5,10.83-8.59,10.94Z"/>
  <path class="cls-1" d="M660.15,396.89c15.44,3.55,27.48,10.42,35.08,23.55,1.16,2,1.2,5.93-.05,7.69-1.33,1.88-4.96,3.41-7.31,3.1-14.9-2-26.62-9.55-34.73-22.19-1.32-2.06-1.96-6.24-.77-7.84,1.7-2.29,5.39-3.09,7.78-4.31Z"/>
  <path class="cls-1" d="M1096.36,784.27c-3.63-1.14-6.58-1.41-8.76-2.85-13.34-8.81-22.21-21.08-26.76-36.37-.81-2.71-.6-6.09,2.53-7.3,1.85-.72,4.79-.59,6.45.43,14.14,8.74,23.57,21.26,28.05,37.25.64,2.29-.82,5.17-1.51,8.83Z"/>
  <path class="cls-1" d="M1060.68,779.58c-.07,3.53-3.42,6.25-6.98,5.56-1.66-.32-3.48-.5-4.88-1.33-12.74-7.65-21.37-18.47-24.61-33.15-1.17-5.31,2.89-9.3,7.77-8.07,13.08,3.28,28.94,23.74,28.69,36.99Z"/>
  <path class="cls-1" d="M710.16,361.09c.28.04,2.06,0,3.63.56,15.48,5.49,28.52,14.59,39.29,26.95,1.11,1.27,2.17,2.8,2.62,4.38.43,1.52.59,3.61-.15,4.83-.72,1.19-2.67,1.83-4.2,2.24-1,.27-2.26-.2-3.35-.54-16.94-5.34-30.61-15.38-41.68-29.12-.69-.86-.97-2.05-1.42-3.1-1.16-2.72,1.03-6.29,5.25-6.2Z"/>
  <path class="cls-1" d="M691.77,470.13c13.79,2.85,23.96,9.3,30.21,21.19,1.64,3.12,2.42,7.08-.43,9.5-2.34,1.98-6.19,3.69-9.06,3.29-12.5-1.73-22.13-8.42-28.67-19.23-2.08-3.44-3.92-7.66-.4-10.94,2.24-2.09,5.83-2.72,8.35-3.81Z"/>
  <path class="cls-1" d="M931.42,727.11c-.17,4.46-4.88,8.4-9.54,7.97-11.59-1.07-24.79-13.84-26.84-25.98-1.09-6.44,3.58-11.16,10.21-10.33,11.63,1.46,24.86,14.91,26.17,26.62.06.57,0,1.15,0,1.72Z"/>
  <path class="cls-1" d="M1040.47,661.8c11.28-.98,16.33,5.98,21.47,11.5,9.96,10.7,20.6,21.31,22.25,38.46-3.05,0-5.46.7-7.12-.12-9.54-4.66-16.25-12.62-22.51-20.83-6.2-8.13-12.57-16.33-14.08-29.01Z"/>
  <path class="cls-1" d="M1024.07,616.71s-.35-.11-.34-.11c-3.82-6.33-7.87-12.56-11.36-19.08-1.1-2.06-.7-4.93-1.09-8.33,8.01,1.53,12.14,6.44,16.89,10.32,4.81,3.94,9.63,7.86,14.43,11.78.81,1.36,1.63,2.73,2.45,4.1,1.64,3.08,3.29,6.16,4.93,9.24,0,0,.07.08.07.08,3.26,5.16,6.52,10.33,9.42,14.92-2.58,4.63-5.38,4.11-7.77,2.33-4.54-3.4-8.96-7.01-13.12-10.85-5-4.62-9.69-9.59-14.51-14.4Z"/>
  <path class="cls-1" d="M763.36,601.35c11.32-.45,23.97,9.06,26.73,20.08,1.35,5.41-2,10.56-7.37,11.37-12.08,1.8-26.87-9.36-28.66-21.64-.75-5.12,3.48-9.58,9.3-9.81Z"/>
  <path class="cls-1" d="M990.97,751.21c1.14.13,2.38,0,3.39.43,13.02,5.55,21.47,15.1,24.54,29,.76,3.43.28,7.42-3.43,8.88-2.36.93-5.82.92-8.12-.14-12.83-5.89-21.07-15.68-23.16-29.93-.65-4.46,2.94-8.43,6.77-8.25Z"/>
  <path class="cls-1" d="M632.71,422.27c10.17,1.24,20.3,6.76,27.01,17.76,1.81,2.97,2.64,6.32.31,9.62-2.29,3.23-5.74,3.81-9.14,3.33-11.93-1.68-21.44-7.59-27.9-17.77-4.12-6.48-.27-12.99,9.72-12.94Z"/>
  <path class="cls-1" d="M1050.06,624.72s-.07-.08-.07-.08c-1.64-3.08-3.29-6.16-4.93-9.24-.82-1.37-1.64-2.74-2.45-4.1-2.67-4.81-5.34-9.63-8.88-16,3.44.64,5.15.48,6.24,1.23,6.77,4.68,11.01,13.38,20.96,13.01.45-.02.94.6,1.4.94,5.42,4.06,18.9,21.15,24.23,30.75-2.61-.71-5.1-1.38-7.63-2.07-.23,2.03-.43,3.69-.62,5.36-1.01.09-2.41.65-2.96.19-4.38-3.65-8.45-7.68-12.89-11.24-3.94-3.16-8.24-5.86-12.39-8.77Z"/>
  <path class="cls-1" d="M838.48,680.91c-.04,3.86-3.29,7.47-7.37,8.17-12.19,2.11-26.8-9.71-27.5-22.26-.23-4.13,2.57-8.09,6.34-8.96,12.07-2.8,28.66,10.6,28.53,23.05Z"/>
  <path class="cls-1" d="M726.35,578.71c-10.54-.85-21.06-8.94-24.26-18.68-1.91-5.8,1.93-11.71,8.04-12.37,11.01-1.19,25.72,9.59,28.08,20.58,1.36,6.31-4.06,11.1-11.86,10.47Z"/>
  <path class="cls-1" d="M1128.13,783.66c-5.13.63-8.28-3.05-11.53-6.1-8.46-7.95-14.98-17.39-19.98-27.82-1.93-4.02-4.31-8.18-1.56-14,1.78.24,4.28-.16,5.75.88,14.47,10.31,24.41,24.01,29.56,41.04.42,1.4-.44,3.23-.86,4.82-.11.42-.79.7-1.38,1.18Z"/>
  <path class="cls-1" d="M770.31,370.82c3,4.11,6.19,8.09,8.9,12.38,1.01,1.6.87,3.93,1.32,6.25-12.49-1.31-15.43-2.33-28.56-11.81-9.62-6.95-19.87-13.47-26.13-26.54,4.25-.08,7.23-1.01,9.25-.01,7.69,3.81,15.09,8.21,22.56,12.47,4.43,2.53,8.79,5.2,13.18,7.81l-.52-.54Z"/>
  <path class="cls-1" d="M657.98,358.24c-4.78,4.11-9.38,3.17-13.68,1.86-11.65-3.53-21.66-9.84-29.67-19.05-1.41-1.62-2.75-3.93-2.78-5.94-.02-1.75,1.46-4.31,3-5.1,1.81-.92,4.53-.82,6.63-.28,13.55,3.5,25.14,10.35,33.97,21.32,1.57,1.95,1.8,4.99,2.54,7.19Z"/>
  <path class="cls-1" d="M620.28,381.29c-14.18-2.6-24.98-8.51-32.63-19.26-1.36-1.91-1.8-5.87-.71-7.74,1.1-1.89,4.78-3.55,7.09-3.27,13.04,1.56,23.78,7.78,31.8,18.16,1.51,1.95,2.64,6.08,1.6,7.67-1.53,2.34-5.16,3.31-7.16,4.45Z"/>
  <path class="cls-1" d="M973.29,790.91c-.3,4.61-4.93,8.09-9.73,7.32-11.31-1.81-23.03-15.03-23.44-26.43-.15-4.17,3.14-7.76,7.3-7.98.57-.03,1.14-.1,1.7-.05,11.79.88,24.92,15.63,24.17,27.14Z"/>
  <path class="cls-1" d="M883.01,738.85c.31,4.34-3.72,8.77-8.3,9.15-11.18.91-23.75-9.81-24.85-21.2-.53-5.44,3.5-10.11,8.86-10.27,10.74-.31,23.52,11.43,24.29,22.32Z"/>
  <path class="cls-1" d="M826.87,418.89c-.36-.69-.56-1.09-.61-1.19-2.73-5.46-5.47-10.93-8.05-16.09,2.89-4.01,5.42-1.74,7.62-.55,6.95,3.73,13.78,7.69,20.65,11.56,4.47,4.88,8.94,9.77,13.41,14.65,6.55,3.69,10.27,9.54,13.97,15.4-4.83,4.13-7.59,1.17-10.26-.18-6.48-3.25-12.76-6.9-19.12-10.38-1.64-1.79-3.29-3.59-4.93-5.39-3.33-4.06-7.28-7.12-12.68-7.83Z"/>
  <path class="cls-1" d="M1101.26,846.63c.11,7.02-4,9.78-8.25,8.19-11.61-4.33-23.31-20.86-23.63-33.36-.11-4.21,4.26-7.18,8.43-5.57,2.1.82,4.32,1.71,6.01,3.14,9.46,7.94,16.13,17.58,17.45,27.61Z"/>
  <path class="cls-1" d="M683.35,345.12c-14.8,1.6-25.24-6.71-35.73-14.12-5.72-4.05-12.95-7.82-12.18-17.76,14.73-1.66,25.08,6.89,35.61,14.18,5.75,3.98,12.82,7.85,12.31,17.7Z"/>
  <path class="cls-1" d="M672.97,527.68c-11.82-1.53-19.46-6.05-24.68-14.34-2.24-3.56-3.21-7.45-.75-11.31,2.49-3.92,6.59-4.36,10.66-4.01,9.83.85,17.17,5.93,22.42,14.08,2.24,3.48,4.06,7.77.73,11.07-2.56,2.54-6.6,3.6-8.38,4.51Z"/>
  <path class="cls-1" d="M1110.86,811.83c2.78.86,4.66.98,5.96,1.91,11.62,8.3,19.05,19.5,22.55,33.31.27,1.08.1,2.27.08,3.41-.05,2.95-3.24,5.16-6.05,4.21-1.08-.36-2.32-.51-3.2-1.15-12.05-8.75-20.22-20.13-22.52-35.04-.31-2,2.06-4.42,3.19-6.65Z"/>
  <path class="cls-1" d="M1058.65,850.86c.12,4.11-3.82,7.78-7.81,7.01-2.2-.42-4.56-.97-6.42-2.14-9.13-5.77-14.9-14.1-16.94-24.65-.46-2.4.52-6.05,2.22-7.62,1.63-1.51,5.41-2.07,7.64-1.3,11.02,3.81,20.98,17.65,21.3,28.71Z"/>
  <path class="cls-1" d="M1100.87,687.2c1.45,3.64,2.8,7.33,4.37,10.91,2,4.56,4.18,9.05,6.01,12.98-2.68,3.56-5.03,2.73-6.77,1.37-15.59-12.17-27.27-27.42-35.24-45.5-.39-.88.13-2.15.22-3.24,1.96-2.64,4.23-1.4,5.83.05,5.47,4.97,10.68,10.24,16.04,15.34,3.19,3.03,4.73,8.01,10.04,8.59.01.02-.51-.5-.51-.5Z"/>
  <path class="cls-1" d="M612.69,478.5c-10.42-.6-18.33-5.64-23.5-14.85-3.12-5.55.48-11.91,6.95-12.67,9.74-1.15,22.35,6.31,26.61,15.75,2.41,5.33-.55,10.6-6.42,11.4-1.14.16-2.28.24-3.64.37Z"/>
  <path class="cls-1" d="M583.7,404.75c-9.36-1.86-18.72-6.55-24.71-16.49-3.1-5.15-.15-10.44,5.99-10.74,11.74-.58,20.79,4.88,27.91,13.54,1.87,2.27,2.52,6.19,2.39,9.29-.13,3.06-5.23,4.98-11.58,4.4Z"/>
  <path class="cls-1" d="M1011.18,856.48c-.3,4.71-5.2,8.11-9.82,6.8-10.02-2.85-18.86-13.47-19.71-23.64-.39-4.75,3.92-9.33,8.29-8.81,10.57,1.27,21.91,14.96,21.24,25.65Z"/>
  <path class="cls-1" d="M1142.52,811.08c13.83,6.28,19.48,16.29,24.93,26.21,3.17,5.75,7.41,11.71,4.29,19.74-9.81-.5-13.91-7.94-18.25-14.23-5.99-8.7-12.87-17.42-10.98-31.72Z"/>
  <path class="cls-1" d="M901,778.59c11.36-.45,23.45,12.7,21.67,23.76-.6,3.72-3.01,6.13-6.91,6.42-10.72.8-22.56-10.04-23.08-20.99-.21-4.5,3.87-9.02,8.32-9.19Z"/>
  <path class="cls-1" d="M728.51,654.91c-7.81-1.32-14.42-5.26-17.36-13.83-2.54-7.4,2.69-14.28,10.49-13.67,7.26.57,13.09,3.97,17.48,9.79,2.95,3.91,4.29,8.19,2.11,12.88-1.65,3.55-6.86,5.54-12.72,4.83Z"/>
  <path class="cls-1" d="M672.61,576.89c7.36.5,13.1,3.97,17.44,9.78,3.23,4.32,3.6,9.49,1.05,12.82-3.14,4.1-7.49,5.13-12.29,4.22-6.43-1.22-11.84-4.26-15.64-9.78-2.38-3.46-3.76-7.13-2.11-11.3,1.48-3.75,6.34-6.1,11.56-5.74Z"/>
  <path class="cls-1" d="M778.06,708.84c-8.66.02-16.72-5.47-20.09-13.68-2.67-6.5,1.45-13.22,8.39-13.69,9.11-.62,18.53,5.82,21.11,14.43,2.09,6.96-2.24,12.91-9.4,12.93Z"/>
  <path class="cls-1" d="M524.94,308.2c11.98,1.94,21.63,6.49,29.02,14.96,1.56,1.79,2.52,5.67,1.63,7.58-.89,1.9-4.56,3.7-6.86,3.53-11.22-.84-20.71-5.8-28.46-13.93-2.44-2.56-4.36-6.04-1.95-9.14,1.44-1.85,4.78-2.23,6.63-3Z"/>
  <path class="cls-1" d="M654.32,302.24c11.31-2.64,17.83,2.64,24.55,6.35,16.82,9.28,21.92,14.14,27.64,25.56-10.28.75-17.86-4.5-25.44-9.05-9.6-5.76-19.2-11.76-26.74-22.86Z"/>
  <path class="cls-1" d="M539.94,288.64c1.92-1.1,3.86-3.23,5.6-3.06,14.8,1.37,27.03,7.98,36.55,19.38.89,1.07,1.31,3.83.61,4.63-1.29,1.46-3.64,2.97-5.43,2.85-14.35-1.01-25.83-7.87-35.22-18.44-1.03-1.16-1.24-3.06-2.1-5.35Z"/>
  <path class="cls-1" d="M1123.87,738.75c9.53,3.75,11.51,5.49,20.64,18.14,9.89,13.71,11.65,17.79,12.32,29.8-9.08-2.94-13.68-10.1-18.65-16.57-11.33-14.75-13.81-20.53-14.31-31.37Z"/>
  <path class="cls-1" d="M561.94,268.63c19.07-.02,37.03,10.09,45.06,24.95-7.1,3.62-13.17.22-19.2-2.49-14.48-6.5-20.37-11.52-25.86-22.46Z"/>
  <path class="cls-1" d="M1137.3,918.44c.3,6.58-3.97,9.67-7.99,7.96-9.89-4.2-19.66-19.53-19.39-30.47.1-4.24,4.96-6.91,8.85-4.65,11.22,6.53,16.99,16.6,18.54,27.15Z"/>
  <path class="cls-1" d="M1151.28,890.14c2.19,0,3.55-.42,4.39.06,12.27,7.1,18.25,18.51,21.04,31.83.38,1.81-.79,4.92-2.25,5.87-1.4.91-4.53.48-6.19-.53-7.13-4.3-11.41-11.14-14.93-18.43-2.74-5.68-5.42-11.47-2.05-18.82Z"/>
  <path class="cls-1" d="M770.83,371.36c-1.17-5.68-6.65-7.39-10.12-10.95-3.56-3.65-7.33-7.11-10.85-10.8-.66-.7-.61-2.08-1.14-4.16,6.29-1.6,10.36,2.89,15.04,5.11,4.6,2.18,9.12,4.53,13.68,6.81,2.06,1.65,4.13,3.31,6.19,4.96,2.53,1.87,5.06,3.74,7.58,5.61.64.83,1.35,1.61,2.12,2.32,2.49,3.99,4.97,7.98,8.16,13.1-7.04,1.13-10.78-2.67-15.11-4.64-5.45-2.47-9.29-8.2-16.07-7.91,0,0,.53.55.53.55Z"/>
  <path class="cls-1" d="M518.14,360.32c-9.64-.72-18.35-4.69-24.48-13.06-1.39-1.89-1.63-5.43-.92-7.76.45-1.5,3.55-3.01,5.54-3.11,11.84-.6,21.14,4.33,27.85,14.04,2.49,3.61.3,8.57-3.94,9.32-1.13.2-2.27.32-4.05.57Z"/>
  <path class="cls-1" d="M552.74,433.06c-11.3-.77-19.18-4.69-24.03-13.5-2.81-5.11.42-10.81,6.18-11.3,10.02-.86,17.86,3.28,23.83,11.01,2.09,2.71,3.86,6.44,1.21,9.43-2.03,2.29-5.43,3.36-7.19,4.37Z"/>
  <path class="cls-1" d="M629.59,554.71c-10.41-.73-16.52-4.54-20.41-11.58-3.47-6.28.32-13.25,7.37-13.95,8.1-.8,14.56,2.29,19.66,8.43,3.28,3.95,4.46,9.92,1.58,12.61-2.68,2.5-6.61,3.66-8.2,4.49Z"/>
  <path class="cls-1" d="M1072.02,893.72c3.07,1.12,5.45,1.5,7.25,2.72,7.95,5.38,12.79,13.03,14.27,22.42.36,2.26-1.3,5.48-3.06,7.21-1.2,1.18-4.44,1.27-6.32.6-10.15-3.64-18.43-16.69-16.94-27.05.31-2.14,3.12-3.92,4.8-5.9Z"/>
  <path class="cls-1" d="M859.89,427.26c-4.47-4.88-8.94-9.77-13.41-14.65-1.96-2.79-3.91-5.59-7.41-10.59,11.84,3.8,20.64,8.38,28.47,14.29,8.92,6.74,18.51,13.28,22.73,24.68-1.76.72-3.12,1.76-3.71,1.44-8.95-4.95-17.79-10.08-26.66-15.16Z"/>
  <path class="cls-1" d="M830.72,755.76c.1,3.74-3.35,7.81-7.16,8.46-9.74,1.65-19.85-5.18-21.94-14.81-1.17-5.4,2.32-10.64,7.63-11.45,9.65-1.47,21.22,8.12,21.47,17.8Z"/>
  <path class="cls-1" d="M1024.03,900.3c3.22.83,5.59,1.01,7.53,2.01,7.62,3.91,12.06,10.47,13.44,18.72.4,2.38-.83,6.06-2.62,7.49-1.81,1.44-5.64,1.81-7.91.91-9.31-3.68-14.43-11.08-14.96-20.94-.14-2.6,2.87-5.37,4.52-8.19Z"/>
  <path class="cls-1" d="M564.22,484.39c7.1.14,13.23,3.72,17.46,10.5,3.35,5.37.41,12.02-5.81,13.2-8.05,1.52-14.52-1.47-19.86-7.33-2.88-3.16-4.19-6.91-2.58-11.02,1.71-4.34,5.59-5.29,10.79-5.35Z"/>
  <path class="cls-1" d="M959.39,866.11c-1.65,1.23-3.97,4.39-6.66,4.74-10.34,1.36-20.94-10-19.9-20.58.34-3.41,3.27-6.24,6.76-6.51,10.3-.8,21.09,10.45,19.8,22.35Z"/>
  <path class="cls-1" d="M859.29,822.57c-7.4-.57-14.61-5.9-16.19-13.13-.66-2.98-.13-7.37,1.73-9.44,1.86-2.06,6.24-3.14,9.19-2.66,7.25,1.16,12.13,5.95,14.79,12.84,2.5,6.46-2.48,12.93-9.52,12.39Z"/>
  <path class="cls-1" d="M1200.91,863.54c-12.15-7.92-17.84-17.65-23.12-27.52-3.07-5.73-7.58-11.37-5.28-19.39,8.55,2.06,12.01,8.88,16.13,14.72,8.98,12.72,10.86,17.64,12.28,32.2Z"/>
  <path class="cls-1" d="M682.31,681c-8.76-.23-13.95-3.11-17.33-9.01-3.39-5.91.02-13.08,6.77-14.28,6.79-1.21,12.22,1.29,16.54,6.39,2.78,3.29,3.92,7.55,1.57,10.99-1.99,2.91-5.78,4.6-7.54,5.91Z"/>
  <path class="cls-1" d="M1186.51,891.61c9.78,3.45,13.99,10.93,18.02,18.3,3.73,6.81,7.79,13.77,5.91,23.42-3.21-1.14-5.57-1.39-7.14-2.64-6.89-5.45-11.29-12.85-14.8-20.71-2.27-5.09-5.32-10.26-1.99-18.37Z"/>
  <path class="cls-1" d="M581.08,254.28c19.89,3.75,34.42,12.96,49.35,26.78-13.06,1.14-18.66-.61-33.89-10.47-5.78-3.74-13.03-6.45-15.46-16.3Z"/>
  <path class="cls-1" d="M1165.74,1001.47c-12.99-5.02-17.84-14.64-19.01-26.63-.18-1.84,1.16-4.76,2.67-5.58,1.56-.85,4.69-.49,6.25.61,8.37,5.87,12.84,14.3,13.63,24.37.17,2.21-2.19,4.62-3.54,7.23Z"/>
  <path class="cls-1" d="M494.63,385.61c-1.89,1.32-4.33,4.45-6.99,4.65-9.76.74-17.6-3.34-22.89-11.76-1.82-2.89-.56-7.25,2.38-8.84,8.93-4.85,25.42,2.83,27.49,12.82.11.54.01,1.12.01,3.12Z"/>
  <path class="cls-1" d="M627.55,609.04c5.73-.13,10.89,2.28,14.01,7.37,1.57,2.57,2.22,6.46,1.62,9.41-.85,4.2-4.64,6.19-8.93,6.54-6.11.51-11.12-1.87-14.85-6.58-2.53-3.19-4.03-6.82-1.92-10.98,2.02-3.97,5.45-5.51,10.07-5.77Z"/>
  <path class="cls-1" d="M455.16,270.07c8.96.87,17.67,4.82,24.49,12.29,1.25,1.37,1.92,4.56,1.18,6.11-.73,1.52-3.57,2.77-5.52,2.82-10.95.28-19.92-4.45-27.27-12.2-1.28-1.34-1.97-4.56-1.24-6.12.7-1.5,3.58-2.02,5.54-2.86.48-.21,1.13-.03,2.82-.03Z"/>
  <path class="cls-1" d="M513.05,465.29c-8.49-1.1-14.39-4.08-17.75-10.93-2.15-4.39.28-9.66,5.04-10.91,9.1-2.4,18.99,2.36,22.8,10.97,1.32,2.99-.09,7.61-3.1,8.88-2.57,1.08-5.4,1.56-6.98,1.99Z"/>
  <path class="cls-1" d="M718.95,708.74c5.89.06,10.61,2.61,14.01,7.7,4.25,6.37.64,14.32-7.08,15.11-6.03.62-11.05-1.68-14.91-6.33-2.72-3.27-3.66-7.07-1.92-11.03,1.8-4.09,5.46-5.42,9.9-5.45Z"/>
  <path class="cls-1" d="M448.66,319.34c-10.8-.32-18.89-3.58-24.77-11.4-2.61-3.47-.59-8.42,3.73-9.02,9.76-1.37,17.79,2.44,24.41,9.14,1.65,1.67,2.83,5.36,2.12,7.37-.71,1.98-4.09,3.01-5.48,3.92Z"/>
  <path class="cls-1" d="M992.13,929.75c-.47,4-4.93,7.08-8.82,6.09-7.81-1.99-14.1-9.09-15.06-16.99-.56-4.64,3.94-9.35,8.35-8.73,9,1.25,16.56,10.81,15.53,19.64Z"/>
  <path class="cls-1" d="M1118.27,998.7c-.56-.09-1.16-.07-1.67-.27-8.5-3.3-15.09-13.77-14.68-23.28.2-4.49,4.66-7.19,8.55-5.13,8.89,4.7,13.14,12.44,14.16,22.14.38,3.59-3.22,7.07-6.36,6.54Z"/>
  <path class="cls-1" d="M1129.08,705.34c.84,3.24,1.68,6.48,2.51,9.69-2.13,2.65-4.2,1.03-5.6-.42-5.08-5.29-9.9-10.83-14.84-16.26-3.39-3.72-6.83-7.41-10.26-11.13-.01-.02.51.51.5.49-2.54-5.92-5.06-11.83-8.41-19.67,8.5,2.5,11.37,8.19,15.58,12.15,2.41,2.27,4.51,5.18,8.54,3.76-1.48,3.97,1.29,5.94,3.75,8.05.45.62.88,1.24,1.3,1.88,2.46,4.01,4.92,8.01,7.37,12.02l-.44-.55Z"/>
  <path class="cls-1" d="M1207.54,1004.53c-9.14-.31-12.34-7.37-15.88-13.65-3.62-6.41-6.19-13.17-2.88-21.08,9.19,1.06,12.39,7.41,15.68,13.26,3.64,6.48,6.85,13.29,3.09,21.47Z"/>
  <path class="cls-1" d="M486.03,230.49c5.33-5.9,9.7-2.94,13.64-1.6,10.62,3.62,20.88,8,27.84,17.18-2.64,5.03-6.34,3.99-9.23,3.15-11.97-3.49-23.49-7.95-32.25-18.73Z"/>
  <path class="cls-1" d="M506.64,266.94c-18.14,2.67-29.47-5.47-40.04-15.42,1.05-2.34,1.24-3.87,1.96-4.18,7.67-3.33,14.51.17,21.1,3.32,6.49,3.1,13.44,6.1,16.98,16.28Z"/>
  <path class="cls-1" d="M718.21,315.2c1.99,3.22,3.99,6.44,5.94,9.59-2.61,3.34-5.31,1.5-7.61.48-16.04-7.08-31.86-18.73-41.01-30.25,9.1-1.7,14.65,6.21,22.23,6.88,0,0-.43-.51-.43-.51,2.74,1.28,5.48,2.57,8.21,3.85.77.48,1.52.99,2.24,1.53,2.37,4.54,5.49,8.15,10.94,8.91l-.52-.48Z"/>
  <path class="cls-1" d="M572.81,563.96c10.81-.26,16.1,2.34,19.55,8.33,2.72,4.73.49,10.85-4.66,12.47-6.48,2.04-12.3.81-17.21-4.02-3.04-3-4.61-6.67-3.03-10.77,1.56-4.05,4.97-6,5.36-6Z"/>
  <path class="cls-1" d="M540.19,535.16c-1.27,1.55-2.59,4.33-4.77,5.61-6.85,4.02-16.78.33-20.15-7.04-1.97-4.33.17-9.68,4.54-11.34,8.09-3.06,16.95.69,19.66,8.38.37,1.05.38,2.23.72,4.38Z"/>
  <path class="cls-1" d="M774.86,776.48c-1.2,1.64-2.62,4.96-5.13,6.61-2.06,1.35-5.58,1.41-8.19.84-7.76-1.7-12.73-8.49-11.41-14.73.87-4.13,5.84-7.47,10.5-7.06,7.46.66,13.47,6.11,14.24,14.35Z"/>
  <path class="cls-1" d="M896.21,881.89c-7.85-.03-14.39-5.45-15.84-13.13-1.2-6.36,4.16-11.6,10.27-10.01,6.63,1.73,11.02,5.91,13.24,12.36,1.84,5.37-2.05,10.8-7.67,10.78Z"/>
  <path class="cls-1" d="M1225.36,975.32c1.36.29,3.41.1,4.43,1.03,8.7,7.98,13.61,18,14.77,29.73.12,1.17-1.5,2.78-2.69,3.69-.59.45-2.41.15-3.06-.46-9.27-8.83-16.1-18.83-14.8-32.48.04-.42.69-.79,1.35-1.51Z"/>
  <path class="cls-1" d="M1177.28,777.9c.93,3.78,1.85,7.57,2.77,11.33-3.97,2.48-5.6-.75-7.25-2.5-12.05-12.85-20.79-27.7-24.34-41.15,5.42.47,7.35,4.96,10.39,7.9,5.7,5.51,7.86,14.11,15.6,17.83l-.5-.48c-.07,3.22.57,6.08,3.85,7.6l-.53-.53Z"/>
  <path class="cls-1" d="M1239.5,940.19c-10.87-6.73-14.85-15.62-19.01-24.11-2.61-5.33-6.39-10.85-3.65-18.08,7.79,2.3,10.86,8.61,14.1,14.33,4.37,7.71,9.86,15.24,8.56,27.86Z"/>
  <path class="cls-1" d="M406.85,332.47c6.63-.04,12.44,2.22,16.51,7.39,1.48,1.88,2.02,5.25,1.52,7.64-.31,1.49-3.27,3.23-5.2,3.45-7.81.89-14.68-1.52-19.6-7.85-1.22-1.57-2.01-4.41-1.43-6.15.57-1.72,3.03-2.94,4.85-4.06.88-.53,2.21-.31,3.34-.43Z"/>
  <path class="cls-1" d="M1074.72,990.02c-.25,7.32-4.58,10.16-8.68,8.57-7.66-2.96-12.67-10.27-12.79-18.66-.08-5.33,4.73-8.5,9.38-6.19,7.95,3.95,12.01,10.32,12.09,16.27Z"/>
  <path class="cls-1" d="M545.45,235.34c-11.69.35-20.43-5.21-29.26-9.98-4.68-2.53-10.53-4.4-11.98-11.14,11.75.4,16.31,1.74,28.88,9.05,4.7,2.73,10.16,4.91,12.37,12.07Z"/>
  <path class="cls-1" d="M389.77,213.88c2.24-2.05,3.02-3.4,3.83-3.42,11.19-.31,20.9,3.59,29.12,11.06.97.88,1.48,3.25,1,4.44-.46,1.14-2.57,2.41-3.83,2.3-11.44-1.02-21.79-4.52-30.12-14.38Z"/>
  <path class="cls-1" d="M800.66,839.23c-1.12-.46-3.89-1.2-6.22-2.64-5.78-3.59-7.89-10.25-4.86-14.31,3.14-4.2,10.02-5.25,15.33-1.83,2.26,1.46,4.34,3.69,5.66,6.04,3.33,5.91-1.49,13.17-9.91,12.75Z"/>
  <path class="cls-1" d="M1225.72,868.7c-13.92-9.99-23.88-26.13-27.17-42.07,9.78,4.81,18.36,17.68,27.17,42.07Z"/>
  <path class="cls-1" d="M446.71,405.16c4.37.3,9.2,2.93,12.63,8.08,2.72,4.08.66,9.74-4.09,11.13-6.81,1.98-15.44-1.47-19.43-7.78-3.09-4.88-.08-10.91,5.71-11.41,1.14-.1,2.29-.01,5.18-.01Z"/>
  <path class="cls-1" d="M404.04,251.56c-13.75,3.3-23.5-.87-31.64-9.91-1.49-1.66-.4-5.07,1.6-5.62,6.39-1.75,12.34-.22,18.1,2.48,5.07,2.37,10.24,4.72,11.93,13.05Z"/>
  <path class="cls-1" d="M1197.23,1069.68c-.27,4.76-3.92,7.15-6.32,6.1-7.94-3.49-13.94-15.05-12.52-24.11.41-2.63,4.45-4.58,6.67-3.14,8.39,5.44,11.3,13.75,12.16,21.16Z"/>
  <path class="cls-1" d="M469.51,481.68c4.85.14,8.8,2.15,11.94,5.82,4.07,4.77,1.65,12.08-4.5,13.53-4.76,1.12-9.04.11-12.92-2.89-3.56-2.76-5.25-6.98-4.07-10.49,1.17-3.48,5.32-6.07,9.54-5.97Z"/>
  <path class="cls-1" d="M370.08,282.18c-5.59-.68-11.6-2.51-16.1-7.27-1.37-1.45-2.79-4.88-2.08-5.85,1.46-1.98,4.35-4.04,6.65-4.04,6.99,0,13.49,2.38,18.53,7.43,1.39,1.39,2.61,4.23,2.12,5.87-.48,1.63-3.12,2.79-5,3.78-.88.47-2.22.08-4.12.08Z"/>
  <path class="cls-1" d="M1021.19,993.1c.19,5.91-4.54,10.09-8.05,8.49-3.51-1.6-7.06-3.87-9.55-6.74-3.86-4.47-3.59-11.07-.37-14.19,3.06-2.96,9.48-1.53,13.36,3.63,2.31,3.08,3.64,6.9,4.61,8.81Z"/>
  <path class="cls-1" d="M581.31,664.06c-6.58-.23-11.4-4.73-11.13-10.38.23-4.77,5.46-8.92,10.85-8.61,6.08.36,11.66,5.55,11.37,10.58-.27,4.73-5.39,8.61-11.09,8.41Z"/>
  <path class="cls-1" d="M793.32,370.26c-.77-.71-1.48-1.49-2.12-2.32-2.53-1.87-5.06-3.74-7.58-5.6-2.06-1.65-4.13-3.31-6.19-4.96-2.17-2.56-4.35-5.11-6.98-8.21,8.36.49,13.89,2.51,24.32,9.9,6.21,4.4,13.68,7.92,16.39,17.53-7.68.62-11.67-6.24-17.84-6.33Z"/>
  <path class="cls-1" d="M1222.49,1052.67c1.08.12,2.44-.14,3.19.41,8.48,6.26,11.88,14.98,11.77,25.26-.02,2.06-3.45,3.93-5.19,2.99-7.72-4.17-14.14-17.98-12.12-26.44.21-.88,1.53-1.48,2.34-2.22Z"/>
  <path class="cls-1" d="M408.31,192.16c8.11-3.36,14.74.35,21.28,3.16,5.51,2.37,11.54,4.55,14.4,11.61-9.16,3.38-16.21-.94-23.22-3.94-4.91-2.11-10.86-3.73-12.46-10.83Z"/>
  <path class="cls-1" d="M545.52,612.63c-1.1,1.73-1.91,4.03-3.52,5.37-5.3,4.42-12.3,3.63-16.88-1.54-3.2-3.6-2.47-9.32,1.54-12.12,5.42-3.78,12.64-2.55,16.72,3.04.96,1.31,1.29,3.09,2.14,5.25Z"/>
  <path class="cls-1" d="M1272.92,1018.23c-12.47-8.72-15.62-21.25-18.71-34.21,7-2.25,8.43,2.27,10.44,5.24,7.47,11.05,9.3,17.61,8.27,28.96Z"/>
  <path class="cls-1" d="M845.24,889.29c-1.58,1.53-3.47,4.82-6.13,5.66-6.38,2.02-12.42-1.77-14.81-8.19-1.42-3.81.72-8.29,4.61-9.66,6.96-2.45,15.46,3.19,16.32,12.2Z"/>
  <path class="cls-1" d="M636.33,702.19c-.85,5.4-6.38,8.35-13.26,7.05-5.55-1.05-9.09-5.65-8.33-10.83.72-4.93,5.49-7.95,11.5-7.3,6.56.71,10.96,5.54,10.09,11.08Z"/>
  <path class="cls-1" d="M413.52,463.37c-4.05-.18-8.39-2.39-10.75-7.71-1.37-3.09-.27-5.82,2.18-7.56,4.75-3.38,9.82-2.71,14.48.26,2.95,1.88,5.26,4.52,4.61,8.5-.6,3.64-4.67,6.56-10.51,6.51Z"/>
  <path class="cls-1" d="M632.42,260.36c3.8,3.92,7.59,7.84,12.09,12.49-7.55,1.97-12.12-2.13-16.9-4.64-9.87-5.2-19.99-10.19-29.65-20.48,14.95.89,23.71,10.37,34.97,13.12l-.51-.48Z"/>
  <path class="cls-1" d="M935.29,938.5c-1.24,1.13-2.92,3.49-5.2,4.47-1.79.77-4.52.32-6.47-.47-7.3-2.96-11.04-10.29-8.37-16.08,1.69-3.65,5.07-4.23,8.57-3.54,7.21,1.42,12.16,7.69,11.48,15.63Z"/>
  <path class="cls-1" d="M394.54,382.12c-1.17,1.23-2.64,4.09-4.82,4.8-6.87,2.26-13.91-.7-17.42-7.13-.85-1.56-.62-4.73.46-6.14,3.27-4.29,8.1-3.64,12.54-2.25,4.51,1.41,8.21,4,9.24,10.72Z"/>
  <path class="cls-1" d="M704.91,789.22c6.33.24,11.26,5.06,10.8,10.56-.35,4.2-4.88,7.55-9.85,7.28-6.49-.35-11.62-5.25-10.91-10.44.57-4.15,5.17-7.58,9.95-7.4Z"/>
  <path class="cls-1" d="M1258.38,1056.97c11.08,10.03,16.61,19.3,14.33,32.68-7.12-.97-9.15-5.98-11.53-10.33-3.79-6.96-3.96-9.07-2.8-22.35Z"/>
  <path class="cls-1" d="M1086.9,1047.51c1.52.15,2.76-.04,3.7.41,6.77,3.17,9.78,8.81,10.06,16.06.1,2.59-2.98,5.47-5.43,5.29-7.92-.58-14.8-11.45-11.68-18.75.57-1.33,2.35-2.14,3.34-3Z"/>
  <path class="cls-1" d="M1150.2,1069.06c-1.71.56-4.46,2.52-6.25,1.86-7.44-2.76-11.64-10.67-11.1-19.28.22-3.52,4.48-5.82,7.64-4.12,7.15,3.86,11.11,11.89,9.71,21.54Z"/>
  <path class="cls-1" d="M667.87,739.27c1.36.5,3.62,1.03,5.58,2.11,3.45,1.9,4.91,6.98,3.34,10.54-1.78,4.04-6.45,6.1-11.62,5.13-5.03-.95-8.49-4.54-8.82-9.16-.28-3.92,2.82-7.5,7.19-8.24,1.12-.19,2.27-.2,4.31-.38Z"/>
  <path class="cls-1" d="M424.93,176.48c13.16,1.05,24.73,5.61,35.61,14.56-11.5,2.44-24.03-2.49-35.61-14.56Z"/>
  <path class="cls-1" d="M494.3,570.82c.41,4.55-3.35,8.62-8.36,9.05-6.17.54-12.11-4.2-11.92-9.51.15-4.21,4.56-8.07,9.39-8.23,5.59-.18,10.46,3.7,10.9,8.68Z"/>
  <path class="cls-1" d="M1244.4,907.04c9.86,11.83,17.14,23.29,19.82,40.07-10.27-7.19-13.54-16.25-17.74-24.54-2.92-5.76-2.73-5.86-2.07-15.53Z"/>
  <path class="cls-1" d="M347.22,315.97c-7.75-.31-12.81-2.33-16.57-7.23-2.19-2.86-.68-7.02,2.94-8.07,6.02-1.74,11.38.03,15.96,3.61,1.96,1.53,4.33,5.39,3.65,6.82-1.18,2.46-4.6,3.85-5.98,4.87Z"/>
  <path class="cls-1" d="M294.33,206.36c16.84-2.28,22.47.04,27.18,10.41-13.59,3.27-18.92,1.4-27.18-10.41Z"/>
  <path class="cls-1" d="M342.09,190.27c-12.86,3.74-19.19,1.86-31.45-8.69,2.1-1.2,3.91-3.14,5.57-3.02,9.3.71,17.99,3.24,25.89,11.7Z"/>
  <path class="cls-1" d="M740.42,841.98c5.88.38,10.2,4.48,10.07,9.55-.11,4.4-4.4,7.35-9.98,6.84-6.05-.55-9.9-4.84-9.01-10.07.63-3.68,4.75-6.6,8.92-6.33Z"/>
  <path class="cls-1" d="M432.16,541.31c-4.95-.11-9.4-3.71-9.81-7.93-.42-4.29,3.97-8.04,9.27-7.93,5.32.11,9.47,3.41,9.76,7.76.29,4.26-4.21,8.21-9.22,8.1Z"/>
  <path class="cls-1" d="M277.53,237.56c8.64-3.79,15.87-1.61,22.24,4.24.98.9,1.44,3.28.98,4.56-.46,1.28-2.26,2.71-3.65,2.92-7.3,1.11-13.6-1.28-18.56-6.67-.94-1.02-.67-3.16-1.01-5.06Z"/>
  <path class="cls-1" d="M355.11,429.46c-3.81-1.73-7.12-2.68-9.68-4.62-1.5-1.13-2.93-4.25-2.39-5.74.84-2.31,3.2-5.28,5.29-5.62,3.02-.49,6.8.44,9.47,2.06,1.99,1.21,4.22,4.91,3.69,6.71-.8,2.67-3.95,4.64-6.38,7.21Z"/>
  <path class="cls-1" d="M861.22,937.1c8.04-.19,12.73,3.97,12.86,9.95.08,3.41-2.95,6.56-6.35,6.59-6.46.06-11.68-4.17-11.04-10.05.28-2.58,3.32-4.86,4.53-6.49Z"/>
  <path class="cls-1" d="M958.37,1006.17c-2.34-.16-3.52-.04-4.58-.35-6.04-1.81-9.95-7.28-8.81-12.69.66-3.12,3.08-4.74,6.24-4.64,6.62.2,12.25,5.83,11.42,12.14-.29,2.2-3.07,4.07-4.27,5.55Z"/>
  <path class="cls-1" d="M358.47,170.28c-16.62.71-19.88-.38-31.69-9.6.18-3.49,3.05-3.28,4.99-2.85,8.84,1.96,17.93,3.56,26.71,12.44Z"/>
  <path class="cls-1" d="M1161.79,1125.13c1.93.56,3.2.61,4.05,1.23,6.4,4.64,9.26,11.74,6.81,17.6-.48,1.16-2.82,2.48-4.01,2.25-5.84-1.16-10.43-8.29-10.1-15.99.08-1.81,2.2-3.54,3.24-5.09Z"/>
  <path class="cls-1" d="M1033.09,1050.73c7.96-.62,14.96,8.6,11.95,15.21-.59,1.3-2.51,2.64-3.95,2.79-7.57.81-14.13-7.96-11.3-15.12.53-1.34,2.4-2.14,3.3-2.89Z"/>
  <path class="cls-1" d="M1217.26,1152.68c-5.68.27-8.14-3.89-9.72-8.07-1.35-3.57-1.49-7.67-1.73-11.56-.12-1.98,3.98-3.65,5.41-2.15,2.67,2.8,5.33,5.77,7.24,9.1,1.78,3.09,1.18,5.01-1.21,12.69Z"/>
  <path class="cls-1" d="M546.12,212.14c4.02,3.75,8.05,7.5,12.76,11.89-6.5,2.54-10.69-1.34-14.87-3.27-7.93-3.66-16.38-6.85-25.2-16.8,11.83,3.7,19.82,6.19,27.81,8.69l-.49-.51Z"/>
  <path class="cls-1" d="M1261.46,1157.38c-.55.96-.96,2.6-1.68,2.74-1.5.3-3.73.42-4.65-.45-5.22-4.95-7.83-11.25-7.69-18.45.03-1.33,1.42-3.32,2.62-3.74,1.26-.44,3.55.17,4.51,1.17,5.2,5.42,7.21,11.32,6.88,18.73Z"/>
  <path class="cls-1" d="M579.8,734.8c-.4,4.1-5.15,7.68-10.04,7.56-4.04-.1-7.96-4.07-7.62-7.73.4-4.29,5.11-7.88,9.94-7.57,4.09.26,8.06,4.24,7.72,7.74Z"/>
  <path class="cls-1" d="M278.21,282.87c-6.69,3.22-12.87,2.3-18.31-3.32-1.86-1.92-.97-6.47,1.38-7.38,4.74-1.85,9.03-.45,13.12,1.89,3.16,1.81,5.54,4.16,3.82,8.82Z"/>
  <path class="cls-1" d="M707.79,306.77c-.73-.54-1.47-1.05-2.24-1.53-2.74-1.28-5.48-2.57-8.21-3.85,0,0,.43.51.43.51-.09-1.97-.18-3.95-.33-7.27,12.09,5.31,22.79,10.96,32.03,19.05,1.39,1.21,1.58,3.78,2.33,5.73l.28-.38c-4.62-1.28-9.25-2.55-13.87-3.83,0,0,.52.48.52.48-3.65-2.97-7.29-5.94-10.94-8.91Z"/>
  <path class="cls-1" d="M254.44,160.82c-14.55,1.33-15.01,1.19-25.3-6.82,1.47-.95,2.82-2.59,4.02-2.48,7.2.63,14.64.99,21.28,9.3Z"/>
  <path class="cls-1" d="M775.21,912.06c-5.73-.62-8.92-2.63-10.36-6.76-1.11-3.18.72-5.43,3.15-7.03,3.82-2.52,7.84-1.82,10.76,1.19,1.69,1.74,3.34,5.46,2.56,7.18-1.16,2.54-4.49,4.09-6.12,5.43Z"/>
  <path class="cls-1" d="M486.38,644.49c4.03,0,7.82,3.94,7.3,7.59-.52,3.62-4.23,6.79-8.35,7.13-4.09.34-8.25-3.1-8.16-6.74.11-4.31,4.35-7.99,9.21-7.98Z"/>
  <path class="cls-1" d="M311.61,339.68c6.27-.12,10.32,1.35,13.32,5.37,2.17,2.9.86,7.26-2.55,8.25-4.7,1.36-9.26.88-12.79-2.37-1.78-1.63-3.48-5-2.97-7,.52-2.03,3.82-3.34,4.99-4.25Z"/>
  <path class="cls-1" d="M617.94,777.46c.42,6.85-6.09,10.63-12.32,8.11-1.76-.71-3.7-2.89-4.04-4.69-.35-1.82.64-4.53,2-5.9,3.01-3.04,6.98-3.87,10.8-1.47,1.73,1.09,2.85,3.13,3.56,3.94Z"/>
  <path class="cls-1" d="M1122.14,693.87c-.42-.64-.85-1.26-1.3-1.88-1.4-2.67-2.8-5.34-4.2-8.01,2,.98,4.41,1.54,5.95,3,9.4,8.93,16.96,19.25,24.77,32.58-10-2.74-11.39-11.96-18.27-14.22,0,0,.44.55.44.55-2.46-4.01-4.92-8.01-7.37-12.02Z"/>
  <path class="cls-1" d="M1241.33,876.26c-9.9-11.71-15.76-23.05-20.46-35.2,6.81,3.51,9.53,10.39,13.47,16.13,3.4,4.94,7.01,10.05,6.98,19.07Z"/>
  <path class="cls-1" d="M526.87,699.18c-1.33-1.35-4.56-3.19-5.43-5.82-1.4-4.23,3.17-8.38,8.31-8.51,4.46-.12,8.21,2.92,8.33,6.75.13,4.31-3.93,7.54-11.21,7.58Z"/>
  <path class="cls-1" d="M653.34,826.65c-.58,4.11-4.06,6.58-8.81,6.25-4.47-.31-8.1-4.33-7.09-7.87,1.03-3.59,5.13-5.81,9.77-5.29,3.7.41,6.58,3.67,6.12,6.91Z"/>
  <path class="cls-1" d="M377.51,505.23c-4.56.07-7.83-2.53-8.31-6.63-.46-3.95,2.99-7.25,7.48-7.16,4.49.1,7.89,2.76,8.46,6.63.52,3.53-3.26,7.08-7.63,7.15Z"/>
  <path class="cls-1" d="M373.3,156.1c-14.1-1.54-23.98-4.13-34.34-12.94,13.64-.12,23.18,3.37,34.34,12.94Z"/>
  <path class="cls-1" d="M1174.45,771.31c-.86-3.15-1.73-6.3-2.65-9.65,11.73,8.32,18.79,18.44,22.3,33.25-3.71-4.08-6.14-6.69-8.49-9.36-2.51-2.85-3.61-7.22-8.34-7.65,0,0,.53.53.53.53.23-3.3-.62-6.05-3.85-7.6l.5.48Z"/>
  <path class="cls-1" d="M900.1,1010.2c-1.54.71-3.82,2.6-6.16,2.68-4.96.17-8.84-3.91-8.88-8.31-.03-3.01,4.04-5.9,7.42-5.28,5.05.93,8.47,5.03,7.61,10.91Z"/>
  <path class="cls-1" d="M239.02,187.42c-10.46,3.13-17.27.88-24.45-5.66,2.29-1.51,3.87-3.44,5.49-3.47,6.8-.14,13.18,1.26,18.96,9.13Z"/>
  <path class="cls-1" d="M977.43,1055.55c1.05.32,2.22.43,3.13.98,4.74,2.85,7.02,7.31,5.01,10.89-.89,1.58-3.42,3.16-5.18,3.13-4.39-.06-7.91-3.9-8.85-8.53-.64-3.17,2.79-6.94,5.89-6.47Z"/>
  <path class="cls-1" d="M802,954c4.35.24,7.94,3.45,7.79,6.96-.13,3.12-3.61,6-6.94,5.74-4.09-.32-7.63-3.6-7.79-7.25-.14-3.16,3.05-5.67,6.94-5.46Z"/>
  <path class="cls-1" d="M446.74,611.86c.06,5.19-3.57,8.76-7.73,9.16-3.41.33-6.92-2.31-7.39-5.56-.67-4.58,3.39-9.16,8.3-8.21,2.75.53,5.06,3.35,6.83,4.61Z"/>
  <path class="cls-1" d="M1112.48,1123.56c6.65.57,11.62,9.37,8.47,15.2-.46.84-1.68,1.57-2.67,1.78-3.95.83-6.42-1.57-8.19-4.55-2.08-3.5-3.13-7.33-.44-11.05.54-.75,1.87-.93,2.83-1.37Z"/>
  <path class="cls-1" d="M441.56,168.21c11.17,1.72,21.33,5.64,31.27,12.81-11.74.25-18.1-2.21-31.27-12.81Z"/>
  <path class="cls-1" d="M686.3,873.53c-.26,5.07-4.18,7.85-8.54,7.5-3.57-.28-6.69-3.27-6.5-6.22.23-3.57,4.42-7.02,8.4-5.9,2.7.76,4.88,3.33,6.64,4.61Z"/>
  <path class="cls-1" d="M255.19,318.09c-.76,2.17-.82,3.52-1.53,4.17-2.8,2.56-6.28,3.1-9.42,1.17-2.2-1.35-3.87-3.69-5.44-5.84-.38-.52.24-2.32.93-3,2.78-2.77,6.28-2.69,9.46-1.14,2.34,1.14,4.23,3.23,6,4.64Z"/>
  <path class="cls-1" d="M220.66,218.34c-2.19,1.05-4.23,2.92-5.94,2.66-3.86-.59-7.66-2-11.24-3.62-1.01-.46-1.51-2.75-1.6-4.24-.04-.68,1.38-1.95,2.28-2.11,7.04-1.21,9.32-.19,16.51,7.31Z"/>
  <path class="cls-1" d="M285.78,384.21c6.43-.02,9.91,2.02,10.55,5.91.23,1.39-.51,3.47-1.54,4.45-3.51,3.3-7.51,2.49-10.86-.17-1.54-1.22-3.31-4.22-2.78-5.53.88-2.18,3.52-3.64,4.63-4.67Z"/>
  <path class="cls-1" d="M242.44,131.75c9.73-2.26,13.2-1.33,23.09,6.16-11.53,2.31-13.05,1.91-23.09-6.16Z"/>
  <path class="cls-1" d="M632.93,260.85c-3.79-3.7-7.58-7.4-11.38-11.09,10.95,2.38,20.26,7.13,27.67,15.8-5.61-1.74-11.22-3.47-16.82-5.2.02.01.52.49.52.49Z"/>
  <path class="cls-1" d="M328.89,466.71c-4.01,2.7-6.32,5.26-9.08,5.88-3.68.83-8.02-3.93-7.48-7.18.48-2.83,4.48-5.78,7.74-4.72,2.72.89,4.94,3.28,8.81,6.02Z"/>
  <path class="cls-1" d="M1230.44,1214.09c.55,0,1.17-.18,1.57.04.96.51,2.08,1.02,2.69,1.86,4.26,5.89,5.08,10.8,2.2,13.56-.64.61-2.22.96-2.98.6-4.7-2.2-7.35-8.55-5.85-14.08.22-.83,1.57-1.35,2.37-1.98Z"/>
  <path class="cls-1" d="M1066.29,1133.9c-1.65.95-3.78,3.24-5.75,3.11-4.66-.31-7.22-4.44-6.93-9.52.17-2.84,3.36-4.73,6.03-3.74,4.14,1.53,5.81,4.76,6.64,10.16Z"/>
  <path class="cls-1" d="M1271.53,1220.69c8.42,6.87,10.77,12.61,7.51,21.28-8.62-4.48-9.16-10.9-7.51-21.28Z"/>
  <path class="cls-1" d="M396.86,578.14c.09,3.41-2.5,6.06-6.37,6.52-3.81.45-7.01-2.1-6.91-5.5.1-3.47,2.76-6.3,6.3-6.72,3.4-.4,6.89,2.45,6.98,5.71Z"/>
  <path class="cls-1" d="M1182.57,1206.92c8.99,3.94,9.11,4.2,6.44,14.48q-8.93-3.87-6.44-14.48Z"/>
  <path class="cls-1" d="M440.95,694.82c-2.13,5.32-6.91,7.79-9.92,5.53-1.35-1.01-2.22-4.03-1.78-5.75.83-3.29,5.06-5.15,8.18-3.72,1.64.75,2.64,2.91,3.52,3.95Z"/>
  <path class="cls-1" d="M356.23,134.57c8.47.45,16.29,2.51,25.54,9.06-11.51-.45-18.75-4.23-25.54-9.06Z"/>
  <path class="cls-1" d="M344.96,544.55c-.29,4.69-3.53,7.31-7.13,7.14-2.81-.13-5.47-2.94-5.2-5.49.37-3.42,3.54-6.4,7.01-5.54,2.21.55,3.99,2.85,5.32,3.88Z"/>
  <path class="cls-1" d="M1131.17,1200.85c5.04.13,7.3,3.27,7.8,7.39.2,1.71-1.24,4.8-2.56,5.21-1.56.48-4.55-.73-5.6-2.17-2.4-3.3-2.96-7.12.36-10.44Z"/>
  <path class="cls-1" d="M252.17,114.91c11.34-.81,18.23,1.45,27.34,7.14-11.04,1.14-17.86-1.34-27.34-7.14Z"/>
  <path class="cls-1" d="M119.9,194.11c6.71-6.83,10.79-4.68,14.71-2.32.69.41,1.13,2.03.92,2.91-.21.89-1.48,2.28-2.1,2.19-3.73-.55-7.41-1.47-13.52-2.78Z"/>
  <path class="cls-1" d="M200.41,252.83c-.36.99-.45,2.48-1.15,2.87-1.4.78-3.16,1.37-4.74,1.3-5.72-.25-9.17-2.59-8.59-5.91.23-1.3,1.89-3.09,3.15-3.34,5.39-1.05,9.85,1.17,11.33,5.08Z"/>
  <path class="cls-1" d="M710.72,920.27c1,1.19,3.68,2.97,4,5.1.46,3.15-2.3,4.82-5.5,4.83-2.98.01-5.65-.8-6.45-4.14-.74-3.1,2.55-5.97,7.95-5.79Z"/>
  <path class="cls-1" d="M483.14,731.23c-3.35,2.92-5.36,5.4-7.97,6.61-1.11.52-4.29-1.18-5.07-2.65-1.76-3.3,1.83-7.69,6.22-7.51,1.82.08,3.58,1.79,6.82,3.55Z"/>
  <path class="cls-1" d="M922.13,1071.09c-1.09.74-2.67,2.66-4.44,2.85-3.58.4-6.82-2.85-6.18-6.26.31-1.62,2.62-3.84,4.24-4.04,3.65-.45,6.44,2.74,6.38,7.45Z"/>
  <path class="cls-1" d="M164.13,134.47q-11.62,1.29-19.61-3.85c7.42-3.04,12.71-1.09,19.61,3.85Z"/>
  <path class="cls-1" d="M546.61,212.65c-1.03-1.99-2.05-3.99-3.79-7.37,7.95,2.58,14.64,5.12,20.04,10.2,1.05.98,1,3.12,1.46,4.73l.19.38c-5.11-5.06-10.93-8.59-18.41-8.47.02.01.5.53.5.53Z"/>
  <path class="cls-1" d="M522.04,771.46c-4.33,2.77-6.76,4.93-9.59,5.81-.99.31-3.94-2.29-4.28-3.92-.7-3.39,2.58-6.14,6.69-5.7,1.85.2,3.55,1.82,7.17,3.8Z"/>
  <path class="cls-1" d="M228.75,365.84c-1.72.54-4.03,1.83-6.35,1.87-2.97.05-5.16-1.88-5.46-5.07-.23-2.4,3.11-4.9,5.84-4.62,3.61.37,6.64,3.53,5.97,7.82Z"/>
  <path class="cls-1" d="M252.1,436.42c4.47-1.54,6.93-3.15,9.19-2.9,1.56.17,3.52,2.72,4.05,4.57.69,2.4-3.16,5.41-5.85,4.4-2.17-.82-3.82-3.04-7.39-6.07Z"/>
  <path class="cls-1" d="M156.37,110.77c5.95-5.37,10.85-2.23,18.52-.13-3.45,2-4.72,3.38-5.72,3.2-4.31-.78-8.54-2.01-12.8-3.07Z"/>
  <path class="cls-1" d="M547.81,820.44c-1.99-2.77-3.99-4.35-4.2-6.14-.36-2.93,3.74-5.79,7.44-5,1.66.35,2.89,2.72,4.32,4.17-2.24,2.07-4.48,4.14-7.56,6.97Z"/>
  <path class="cls-1" d="M150.68,162.32c-7.25,2.89-12.36,2.2-17.44-3.87,7.4-3.09,12.46-2.2,17.44,3.87Z"/>
  <path class="cls-1" d="M1004.65,1134.74c-1.23.32-3.26,1.54-4.82,1.1-3.48-.96-5.64-3.78-4.56-7.44.45-1.54,3.01-3.58,4.48-3.49,3.88.26,6.25,4.74,4.9,9.82Z"/>
  <path class="cls-1" d="M825.37,1012.77c4.98-.48,9.23,2.24,8.62,5.11-.38,1.76-2.46,3.92-4.22,4.47-3.47,1.09-7.39-1.82-7.1-5.18.15-1.78,2.05-3.4,2.71-4.41Z"/>
  <path class="cls-1" d="M588.39,856.14c-.89,4.21-4.29,6-8.13,4.8-1.19-.37-2.66-2.13-2.73-3.34-.21-3.23,3.29-5.75,6.94-4.79,1.66.44,2.92,2.43,3.92,3.33Z"/>
  <path class="cls-1" d="M736.37,971.51c2.05,2.8,3.44,4.71,4.83,6.62-1.62,1.14-3.11,2.95-4.88,3.27-3.06.55-5.95-2.35-4.91-4.66.76-1.7,2.66-2.88,4.96-5.23Z"/>
  <path class="cls-1" d="M171.7,288.65c3,1.24,5.05,1.88,6.85,2.94.78.45,1.66,1.99,1.42,2.65-.47,1.33-1.5,3.15-2.63,3.43-3.34.83-6.92.49-8.03-3.44-.39-1.38,1.37-3.36,2.38-5.58Z"/>
  <path class="cls-1" d="M390.36,667.12c-1.72-2.94-3.52-4.63-3.52-6.32,0-3.36,2.7-4.86,5.81-4.81,2.58.03,4.74,1.93,3.85,4.33-.82,2.21-3.31,3.8-6.13,6.8Z"/>
  <path class="cls-1" d="M1075.37,1197.44c4.53-.18,6.33,2.46,6.69,6.01.13,1.25-1.1,3.37-2.21,3.8-1.12.44-3.26-.32-4.25-1.28-2.79-2.7-2.43-5.7-.22-8.54Z"/>
  <path class="cls-1" d="M109.43,231.53c3.16-6.23,6.72-4.27,10.08-2.2.62.38.94,1.98.69,2.8-.26.87-1.54,2.2-2.09,2.08-2.85-.64-5.61-1.69-8.68-2.68Z"/>
  <path class="cls-1" d="M941.95,1133.33c-2.14,1.43-3.78,3.2-4.52,2.88-1.75-.75-3.6-2.24-4.43-3.91-.89-1.8,2.19-4.5,4.03-3.53,1.69.89,2.93,2.65,4.93,4.57Z"/>
  <path class="cls-1" d="M346.03,633.68c-1.91-2.21-3.49-3.22-3.77-4.51-.67-3.12,1.63-5.76,4.74-5.37,1.31.17,3.61,2.35,3.44,2.78-.93,2.23-2.5,4.2-4.41,7.1Z"/>
  <path class="cls-1" d="M180,96.73c-3.63-1.02-7.25-2.04-13.82-3.88,7.8-2.57,11.85-2.16,13.82,3.88Z"/>
  <path class="cls-1" d="M292.13,515.89c-3.73,2.34-5.66,4.25-7.83,4.58-.99.15-3.58-3-3.39-4.37.21-1.5,2.67-3.49,4.37-3.74,1.54-.22,3.37,1.62,6.85,3.53Z"/>
  <path class="cls-1" d="M614.1,897.86c1.56,1.72,3.51,3.49,3.33,3.73-1.12,1.57-2.5,3.38-4.19,3.98-2.12.75-4.98-2.16-3.96-3.64,1.07-1.54,2.92-2.53,4.82-4.08Z"/>
  <path class="cls-1" d="M855.87,1075.36c-1.59,1.98-2.29,3.6-3.48,4.17-2.58,1.22-5.88-1.02-5.53-3.8.15-1.17,2-3.07,2.93-2.99,1.87.17,3.63,1.48,6.08,2.62Z"/>
  <path class="cls-1" d="M646.51,950.09c-2.89.76-4.78,1.7-6.56,1.53-.94-.09-1.71-2.1-2.55-3.24,1.79-.86,3.53-2.12,5.4-2.38.77-.11,1.84,1.94,3.71,4.08Z"/>
  <path class="cls-1" d="M159.25,341.03c-2,.79-3.37,1.76-4.73,1.76-2.49,0-4.26-2.91-2.78-4.35.95-.93,2.98-1.53,4.21-1.18,1.17.34,1.93,2.11,3.3,3.77Z"/>
  <path class="cls-1" d="M453.3,809.7c1.73.96,3.19,1.28,3.38,1.96.73,2.58-.86,3.93-3.23,4.13-.89.07-1.86-.79-2.8-1.23.88-1.62,1.76-3.23,2.64-4.86Z"/>
  <path class="cls-1" d="M202.29,413.16c-1.95,1.01-3.23,2.14-4.6,2.27-2.38.23-4.33-2.66-2.97-4.31.83-1,2.84-1.78,4.06-1.51,1.19.26,2.06,1.99,3.51,3.55Z"/>
  <path class="cls-1" d="M1016.93,1203.01c-.78-1.83-1.63-3.47-2.07-5.22-.07-.29,2.28-1.62,2.41-1.48,1.25,1.38,2.27,2.98,3.35,4.52-.9.53-1.79,1.06-3.69,2.18Z"/>
  <path class="cls-1" d="M384.5,743.29c-1.24.84-2.49,1.68-3.73,2.52-.74-1.18-1.48-2.36-2.23-3.54,1.41-.59,2.78-1.34,4.25-1.63.32-.07.97,1.47,1.71,2.66Z"/>
  <path class="cls-1" d="M761.07,1034.6c-1.84-1.4-3.03-2.3-4.22-3.21.93-1.18,1.76-3.18,2.82-3.32,1.15-.15,3.07,1.2,3.6,2.38.34.77-1.19,2.38-2.19,4.16Z"/>
  <path class="cls-1" d="M303.59,597.01c-2.32,1.8-3.73,3.14-5.4,4.01-.47.24-2.12-.73-2.46-1.48-1.11-2.45.15-4.23,2.55-4.54,1.26-.17,2.69.96,5.3,2.02Z"/>
  <path class="cls-1" d="M233.45,488.77c-1.27,1.52-1.99,3.04-3.17,3.64-2,1.01-5.05-1.09-4.4-2.95.45-1.29,2.01-2.82,3.27-3.03,1.12-.19,2.52,1.3,4.3,2.35Z"/>
  <path class="cls-1" d="M418.45,780.76c-1.49-1.37-2.71-1.95-2.81-2.68-.41-2.97,1.77-3.54,4.01-3.41.77.04,2.18,1.62,2.1,1.73-1,1.55-2.2,2.97-3.3,4.36Z"/>
  <path class="cls-1" d="M486.27,848.42c1.37.67,2.27,1.11,3.17,1.55-.84,1.15-1.51,2.54-2.61,3.34-.44.32-1.82-.66-2.77-1.05.74-1.28,1.48-2.57,2.21-3.84Z"/>
  <path class="cls-1" d="M340.89,708.38c1.62.48,2.57.76,3.52,1.05-.65,1.17-1.1,2.55-2.03,3.42-.37.34-1.79-.45-2.74-.73.42-1.25.84-2.5,1.25-3.74Z"/>
  <path class="cls-1" d="M103.36,274.69c-1.54.29-2.96.89-4.22.66-.65-.12-1.02-1.74-1.52-2.68,1.37-.42,2.73-1.07,4.12-1.12.4-.02.87,1.65,1.61,3.15Z"/>
  <path class="cls-1" d="M251.24,570.46c-.72.62-1.44,1.24-2.15,1.86-.69-1.05-1.39-2.11-2.08-3.16.96-.34,1.97-1.05,2.85-.9.57.1.93,1.43,1.39,2.21Z"/>
  <path class="cls-1" d="M279.5,108.47c-2.62-.26-5.23-.51-8.43-.83,3.97-3.8,6.24-2.3,8.07,1.23l.36-.4Z"/>
  <path class="cls-1" d="M1093.88,1276.59c-.83.41-1.66.81-2.49,1.22-.51-1.17-1.01-2.34-1.52-3.5.93-.18,2.16-.79,2.72-.41.71.48.88,1.76,1.28,2.7Z"/>
  <path class="cls-1" d="M302.48,680.26c-.74.7-1.48,1.39-2.22,2.08-.51-.72-1.09-1.42-1.47-2.2-.06-.13.81-1.03,1.12-.96.89.19,1.72.7,2.57,1.08Z"/>
  <path class="cls-1" d="M279.14,108.87h5.47c-.2.71-.41,1.42-.61,2.14-1.49-.85-2.98-1.71-4.49-2.55-.01.01-.38.41-.38.41Z"/>
  <path class="cls-1" d="M186.26,81.95c-.06.32-.04.85-.2.91-.4.16-.88.1-1.33.13.08-.47.17-.94.25-1.41.43.12.85.24,1.28.36Z"/>
  <path class="cls-1" d="M519.82,889.76c-.52.88-.86,2.18-1.63,2.52-.69.31-1.84-.44-2.79-.72.43-.88.7-2.32,1.34-2.51.88-.26,2.04.43,3.08.71Z"/>
  <path class="cls-1" d="M134.2,392.05c-.74-.57-1.47-1.14-2.2-1.71.7-.56,1.34-1.25,2.13-1.63.29-.14,1.37.63,1.34.7-.34.91-.82,1.77-1.27,2.64Z"/>
  <path class="cls-1" d="M780.06,1086.11c.31-.42.61-.83.92-1.25.67.56,1.39,1.07,1.97,1.71.08.09-.52.78-.8,1.2-.7-.55-1.4-1.11-2.09-1.66Z"/>
  <path class="cls-1" d="M871.38,1135.63c-.64.68-1.29,1.39-1.95,2.1-.58-.77-1.21-1.51-1.67-2.34-.07-.12.83-1.08,1.07-1,.94.29,1.79.85,2.55,1.25Z"/>
  <path class="cls-1" d="M457.19,168.47c-.14-.58-.27-1.16-.41-1.74-.22.29-.43.59-.65.88.32.23.64.46.96.68,0,0,.1.17.1.17Z"/>
  <path class="cls-1" d="M173.02,465.75c-.29.38-.71,1.12-.86,1.07-.78-.25-1.49-.71-2.23-1.1.75-.38,1.47-.82,2.26-1.07.15-.05.55.71.84,1.09Z"/>
  <path class="cls-1" d="M546.55,930.7c.33.37.68.77,1.04,1.17-.92.4-1.81.91-2.77,1.14-.27.06-.73-.7-1.1-1.09.91-.39,1.81-.78,2.84-1.22Z"/>
  <path class="cls-1" d="M668.52,996.71c-.53.65-1.11,1.8-1.5,1.74-.89-.14-1.69-.86-2.53-1.35.39-.36.79-1.05,1.16-1.03.92.03,1.83.39,2.87.65Z"/>
  <path class="cls-1" d="M198.72,544.84c-.14.31-.29.62-.43.93-.22-.45-.44-.89-.66-1.34.36.14.73.27,1.09.41Z"/>
  <path class="cls-1" d="M731.8,319.41c.98-.12,1.96-.24,2.94-.36-.24.72-.47,1.44-.71,2.16-.65-.73-1.3-1.46-1.95-2.18,0,0-.29.39-.29.39Z"/>
  <path class="cls-1" d="M84.37,319.49c.47.19.94.38,1.41.57-.61.55-1.23,1.11-1.84,1.66-.27-.42-.84-.92-.74-1.23.12-.41.76-.67,1.17-.99Z"/>
  <path class="cls-1" d="M564.32,220.21c.76-.12,1.52-.24,2.28-.35-.39-.16-.88-.54-1.15-.42-.4.18-.65.7-.95,1.12,0,.04-.18-.34-.18-.34Z"/>
  <path class="cls-1" d="M952.41,1196.49c.89.36,1.78.73,2.66,1.09-.36.36-.8,1.08-1.08,1.03-.92-.19-1.79-.66-2.68-1.03.36-.36.73-.73,1.09-1.09Z"/>
  <polygon class="cls-1" points="471.65 172.07 472.9 171.69 472.78 172.7 471.65 172.07"/>
  <path class="cls-1" d="M457.09,168.3c1.07-.1,2.14-.19,3.21-.29-1.03.15-2.06.3-3.1.46,0,0-.1-.17-.1-.17Z"/>
</svg>