<?xml version="1.0" encoding="UTF-8"?>
<svg id="Camada_1" data-name="Camada 1" xmlns="http://www.w3.org/2000/svg" viewBox="0 0 1364.31 1348.09">
  <defs>
    <style>
      .cls-1 {
        fill: #a4b8bf;
        stroke-width: 0px;
      }
    </style>
  </defs>
  <path class="cls-1" d="M719.96,792.94c-15.34-.18-25.25-11.41-23.24-26.36,2.61-19.48,21.71-35.69,41.22-34.99,14.33.51,22.59,9.37,22.24,23.84-.49,19.89-19.62,37.74-40.21,37.5Z"/>
  <path class="cls-1" d="M791.63,782.77c-13.38.09-22.01-8.34-22.21-21.68-.32-20.77,20.4-41.02,41.05-40.11,12.25.54,19.5,7.65,20.29,19.91,1.35,20.94-18.08,41.74-39.13,41.88Z"/>
  <path class="cls-1" d="M727.21,801.61c16.29-.13,24.75,9.52,22.51,25.7-2.73,19.76-25.73,36.35-45.59,32.89-11.89-2.07-19.11-12.37-17.18-24.49,2.9-18.13,21.58-33.96,40.25-34.11Z"/>
  <path class="cls-1" d="M743.15,660.8c14.1.04,22.89,8.72,23.37,22.69.72,20.97-20.47,38.16-39.35,36.95-12.74-.81-21.25-10.73-20.99-23.58.38-18.89,18.03-36.11,36.98-36.06Z"/>
  <path class="cls-1" d="M778.53,850.6c-12.35-.31-19.82-7.82-19.94-20.04-.19-20.26,21.88-41.15,42.07-39.82,12.67.84,20.08,9.62,19.11,22.66-1.42,19.15-21.97,37.68-41.24,37.19Z"/>
  <path class="cls-1" d="M648.42,799.78c-16.47.35-25.93-10.3-23.71-26.69,2.4-17.68,22.45-32.77,40.13-30.2,14.73,2.14,23.15,14.81,19.43,29.22-3.95,15.27-19.56,27.31-35.85,27.66Z"/>
  <path class="cls-1" d="M837.84,672.25c.29,18.27-15.22,35.9-33.41,37.95-12.46,1.41-22.98-7.11-24.36-19.72-2.04-18.67,15.49-39.15,34.43-40.23,14.24-.82,23.1,7.54,23.33,22.01Z"/>
  <path class="cls-1" d="M655.7,728.21c-15.71.1-26.08-12.45-22.99-27.85,2.87-14.32,15.11-26.15,29.57-28.56,19.11-3.19,32.83,12.38,27.27,30.93-4.37,14.57-18.72,25.37-33.85,25.47Z"/>
  <path class="cls-1" d="M675.68,833.45c.06,21.62-26.28,40.19-46.53,32.79-9.22-3.37-14.74-12.76-13.33-22.64,2.7-18.82,25-34.42,43.48-30.4,10.26,2.23,16.35,9.76,16.38,20.26Z"/>
  <path class="cls-1" d="M770.12,610.48c.24,19.02-16.92,35.31-35.72,33.91-10.22-.76-17.6-7.51-19.28-17.63-3.09-18.62,11.44-37.41,30.24-39.11,14.35-1.29,24.58,8.14,24.76,22.83Z"/>
  <path class="cls-1" d="M859.48,769.38c-10.5-.16-17.54-6.88-18.59-17.77-1.76-18.27,16.83-39.54,35.3-40.37,11.52-.52,19.36,6.13,20.2,17.74,1.36,18.8-17.37,41.05-36.91,40.39Z"/>
  <path class="cls-1" d="M662.32,653.07c-13.86.35-24.35-10.91-23.12-24.82,1.34-15.2,14.03-28.23,29.22-30.01,14.93-1.74,27.39,10.66,25.7,25.58-1.76,15.55-16.23,28.85-31.81,29.24Z"/>
  <path class="cls-1" d="M735.96,889.43c-.23,1.44-.36,4.29-1.17,6.93-4.63,15.22-22.71,27.73-38.77,27-12.51-.57-19.32-8.58-17.99-21.11.8-7.6,4.4-13.85,9.65-19.11,8.23-8.24,18.12-13.22,29.97-12.86,11.17.34,18.12,7.41,18.3,19.14Z"/>
  <path class="cls-1" d="M809.74,633.91c-10.88,0-18.91-7.17-20.28-18.14-2.03-16.27,8.54-32.78,24.12-37.67,14.11-4.42,26.18,2.7,28.73,16.96,3.25,18.2-14.04,38.83-32.57,38.84Z"/>
  <path class="cls-1" d="M904.77,661.01c-.2,15.56-11.29,30.44-26.25,35.23-14.62,4.68-27.12-4.83-26.77-20.37.32-14.21,11.63-29.84,25.11-34.69,15.95-5.74,28.13,2.91,27.91,19.83Z"/>
  <path class="cls-1" d="M574.01,805.57c-16.7-.06-26.56-14.02-21.12-29.89,4.49-13.11,18.41-22.9,32.25-22.7,17.41.26,27.33,15.43,20.62,31.57-5.11,12.28-18.39,21.07-31.74,21.02Z"/>
  <path class="cls-1" d="M847.23,837.88c-10.06.35-17.06-5.86-17.87-15.86-1.63-20.18,18.19-41.2,38.15-40.45,9.79.37,15.53,5.77,16.33,15.41,1.58,18.83-17.59,40.24-36.61,40.9Z"/>
  <path class="cls-1" d="M613.11,703.09c.71,18.84-21.33,35.71-39.45,30.19-10.21-3.11-16.44-12.33-15.53-22.97,1.44-16.81,18.58-30.71,35.2-28.55,11.48,1.49,19.35,9.98,19.78,21.33Z"/>
  <path class="cls-1" d="M803.88,877.98c-.52,19.07-22.23,37.67-41.38,35.46-9.65-1.11-15.75-8.78-14.9-18.71,1.55-17.93,21.09-35.32,39.14-34.85,11.24.3,17.45,6.85,17.14,18.1Z"/>
  <path class="cls-1" d="M643.82,880.52c15.81.44,24.03,13.15,18.01,27.85-5.82,14.22-22.37,23.94-37.78,22.19-10.91-1.24-17.35-8.49-16.25-19.28.44-4.29,1.91-8.76,4.03-12.53,6.1-10.85,20.18-18.57,31.99-18.24Z"/>
  <path class="cls-1" d="M578.14,822.84c17.29.12,26.51,14.2,19.59,29.92-5.72,12.99-21.7,21.9-35.71,19.92-12.79-1.81-20.23-13.26-16.81-25.86,3.69-13.62,18.05-24.07,32.93-23.97Z"/>
  <path class="cls-1" d="M910.62,589.47c-.9,11.77-7.09,22.51-19.5,29.09-6.76,3.58-14.1,4.38-20.88.22-7.43-4.56-10.07-11.99-9.19-20.31,1.38-13.07,7.62-23.42,19.5-29.58,15.58-8.08,30.12.98,30.08,20.58Z"/>
  <path class="cls-1" d="M741.49,566.07c-9.24-.27-16.94-6.26-19.69-15.31-5.05-16.65,8.24-36.35,25.61-37.96,12.06-1.12,20.6,4.89,23.47,16.53,4.26,17.3-11.7,37.26-29.39,36.75Z"/>
  <path class="cls-1" d="M844.15,524.56c-.27,14.04-9.52,26.15-22.81,29.88-11.85,3.33-22.88-3.47-25.17-15.52-2.45-12.9,3.43-26.31,14.64-33.31,7.71-4.82,15.86-5.95,23.86-1.3,7.57,4.4,9.65,11.93,9.48,20.25Z"/>
  <path class="cls-1" d="M593.66,607.99c16.46.13,26.41,15.78,20.41,32.07-4.32,11.73-17.91,20.24-30.43,19.05-11.5-1.09-19.23-9.46-19.45-21.07-.31-16.06,13.53-30.18,29.46-30.05Z"/>
  <path class="cls-1" d="M673.4,522.82c11.58,0,20.11,7.54,21.61,19.11,2.33,17.92-13.88,34.38-31.77,32.27-8.56-1.01-15.59-7.19-17.67-15.53-4.34-17.41,9.99-35.86,27.83-35.84Z"/>
  <path class="cls-1" d="M830.75,901.48c-8.9-.21-14.84-5.79-14.47-14.82.19-4.85,1.39-10.03,3.55-14.35,5.8-11.55,15.35-19.14,28.01-21.96,12.45-2.77,20.67,5.03,19.51,17.79-1.51,16.64-20.26,33.72-36.6,33.34Z"/>
  <path class="cls-1" d="M501.58,809.36c-19.13-.25-28.19-15.04-20.81-30.26,5.28-10.89,18.42-18.12,30.2-16.63,14.94,1.9,22.88,15.94,16.39,29.52-5.57,11.66-15.37,16.97-25.78,17.36Z"/>
  <path class="cls-1" d="M943.21,701.05c7.37.26,12.62,4.64,14.22,11.86,3.88,17.42-12.47,40.02-30.3,41.87-7.26.75-13.69-3.08-15.98-9.52-6.58-18.51,12.55-44.9,32.06-44.21Z"/>
  <path class="cls-1" d="M534,711.03c.48,19.09-22.91,33.73-39.75,24.88-8.77-4.61-12.77-14.27-10.08-24.37,3.93-14.75,21.41-24.28,35.98-19.6,8.19,2.63,13.63,10.12,13.86,19.08Z"/>
  <path class="cls-1" d="M557.04,936.74c-15.99-.09-24.36-13.13-17.73-27.65,5.65-12.4,21.37-20.84,34.59-18.59,12.53,2.14,18.82,12.97,14.49,24.98-4.39,12.19-17.88,21.34-31.35,21.26Z"/>
  <path class="cls-1" d="M921.11,663.62c.22-14.29,10.56-28.87,23.81-33.57,11.59-4.11,21.51,2.15,22.86,14.43,1.56,14.21-8.67,31.15-22,36.4-13.75,5.42-24.89-2.37-24.67-17.26Z"/>
  <path class="cls-1" d="M867.59,519.32c1.32-11.42,6.87-21.83,19.4-27.39,10.39-4.62,20.37-.29,24.49,10.33,5.98,15.4-4.66,35.94-20.76,40.09-12.65,3.26-23.55-6.78-23.13-23.03Z"/>
  <path class="cls-1" d="M617.19,553.31c.66,17.36-17.18,31.53-33.91,26.94-8.51-2.34-14.61-10.51-14.87-19.92-.41-14.8,12.44-27.88,27.3-27.79,12.23.08,21.02,8.58,21.48,20.77Z"/>
  <path class="cls-1" d="M684.68,983.11c-13.87.08-20.91-10-16.49-22.57,5.09-14.48,21.31-25.04,36.51-23.75,10.58.9,16.48,7.76,14.15,18.04-1.17,5.17-3.98,10.4-7.34,14.56-6.93,8.6-16.6,12.68-26.83,13.71Z"/>
  <path class="cls-1" d="M536.84,638.18c-.23,15.8-17.3,29.04-32.71,25.38-10.07-2.4-17.14-12.35-15.99-22.51,1.71-15.06,15.98-26.05,30.94-23.83,10.59,1.58,17.92,10.22,17.76,20.96Z"/>
  <path class="cls-1" d="M974.53,576.82c-1.08,11.03-6.58,21.6-18.58,27.83-12.48,6.48-24.24-.16-25.25-14.13-.98-13.46,4.45-24.07,15.42-31.66,5.74-3.97,12.12-5.87,19.01-2.48,6.25,3.08,9.57,9.48,9.41,20.44Z"/>
  <path class="cls-1" d="M500.96,831.86c9.04.1,16.3,2.35,20.4,10.33,4.09,7.94,2.07,15.42-2.93,22.01-7.81,10.28-18.48,14.22-31.15,12.05-9.06-1.55-14.58-8.59-14.62-17.8-.07-14.43,13.09-26.48,28.31-26.59Z"/>
  <path class="cls-1" d="M909.05,822.91c-6.36-.51-10.9-4.8-11.95-11.53-2.66-17.07,13.46-38.03,30.52-39.69,9.32-.91,15.55,3.68,16.64,12.24,2.16,16.91-14.73,37.73-31.62,38.96-1.1.08-2.22.01-3.6.01Z"/>
  <path class="cls-1" d="M725.03,459.29c.63-13.86,13.73-25.83,28.35-24.15,8.04.92,13.17,5.49,15.65,12.98,3.53,10.64-.12,23-8.67,30.21-7.33,6.19-17.34,7.79-24.79,3.77-8.34-4.5-10.94-12.02-10.54-22.81Z"/>
  <path class="cls-1" d="M752.33,973.41c-11.81-.19-17.54-6.53-16.99-16.23.36-6.46,3.2-11.8,7.38-16.42,7.75-8.57,16.92-14.47,29.05-14.01,10.38.39,16.19,7.97,13.69,18.18-2.37,9.65-8.36,16.81-16.59,22.18-5.7,3.72-11.86,6.04-16.53,6.3Z"/>
  <path class="cls-1" d="M694.14,466.97c-.22,13.26-11,25.08-23.66,25.95-9.55.66-17.6-4.58-20.72-13.47-4.8-13.69,4.85-30.79,19.05-33.74,13.94-2.9,25.57,6.86,25.33,21.27Z"/>
  <path class="cls-1" d="M843.55,446.67c.02,8.3-4.01,16.49-12.21,22.47-6.33,4.62-13.51,5.63-20.54,2.46-7.17-3.24-10.49-9.56-10.96-17.41-.57-9.51,2.73-17.48,9.6-23.92,6.84-6.42,15.67-8.08,23.06-4.63,6.71,3.14,10.81,10.28,11.05,21.03Z"/>
  <path class="cls-1" d="M648.97,963.37c-.49,1.83-.93,5.24-2.31,8.21-5.32,11.44-20.59,20.01-33.19,18.95-11.56-.97-17.92-10.3-14.58-21.38,4.57-15.14,23.44-25.81,38.88-21.98,7.11,1.76,11.23,7.19,11.19,16.2Z"/>
  <path class="cls-1" d="M492.53,565.16c.27-13.17,11.76-24.58,24.6-24.4,11.84.16,20.58,9.74,20,21.9-.63,13.05-12.65,24.17-25.45,23.54-11.14-.55-19.38-9.6-19.15-21.03Z"/>
  <path class="cls-1" d="M978.02,499.42c-.84,11.39-5.61,21.65-17.4,27.44-10.25,5.04-20.74-.35-22.84-11.79-2.19-11.9,1.16-22.25,10.1-30.5,5.78-5.33,12.76-7.61,20.18-4.41,7.61,3.29,9.66,10.36,9.96,19.25Z"/>
  <path class="cls-1" d="M912.88,430.24c.48,13.4-6.42,24.8-16.22,29.22-8.98,4.05-18.01.88-22.46-7.89-6.96-13.72,1.35-33.74,15.95-38.4,7.22-2.3,15.09.23,18.81,6.8,2.13,3.77,3.15,8.17,3.92,10.27Z"/>
  <path class="cls-1" d="M494.44,898.84c7.61.17,14.74,1.75,18.28,9.36,3.66,7.87,1.94,15.43-3.6,21.85-6.59,7.64-15.13,11.25-25.3,10.66-15.09-.89-22.24-14.54-14.55-27.74,4.98-8.55,14.72-14.01,25.17-14.12Z"/>
  <path class="cls-1" d="M615.51,475.5c-.12,13.92-10.89,24.68-24.36,24.33-11.15-.29-19.58-9.42-19.34-20.95.27-13.32,11.98-24.94,24.74-24.55,11.33.34,19.07,8.98,18.96,21.17Z"/>
  <path class="cls-1" d="M894.41,887.46c-7.4.07-12.75-4.92-13.07-12.31-.07-1.66-.04-3.4.39-4.99,3.93-14.51,12.81-24.76,27.1-29.55,11.72-3.93,20.12,3.54,18.47,15.74-2.07,15.36-18.58,30.97-32.89,31.11Z"/>
  <path class="cls-1" d="M549.44,996.71c-17.06.2-24.87-12.2-17.89-25.22,5.82-10.85,15.73-15.82,27.54-16.48,6.96-.39,13.4,2.21,16.78,9.05,3.02,6.12,1.53,12.07-1.94,17.53-6.2,9.77-15.76,13.77-24.49,15.11Z"/>
  <path class="cls-1" d="M450.38,785.46c.3,12.77-5.01,19.5-13.68,23.81-8.6,4.27-17.3,4.73-25.4-1.24-5.39-3.97-7.57-9.68-6.89-16.24,1.77-16.84,22.43-27.35,37.09-18.92,5.79,3.33,8.84,8.41,8.87,12.6Z"/>
  <path class="cls-1" d="M848.31,929.76c-.66,16.02-19.18,32.67-35.27,31.73-7.43-.44-12.37-5.93-11.91-13.25.96-15.33,18.25-31.63,33.78-31.84,8.62-.12,13.75,4.99,13.4,13.37Z"/>
  <path class="cls-1" d="M434.09,698.36c11.91.19,20.18,8.58,19.87,20.16-.35,12.8-12.44,23.37-26.13,22.84-11.17-.43-18.97-8.37-18.93-19.24.05-13.2,11.47-23.96,25.19-23.75Z"/>
  <path class="cls-1" d="M1027.56,634.46c-.33,13.07-10.05,27.01-21.86,31.37-8.35,3.08-15.85-.83-18.15-9.47-3.72-13.96,6.93-33.47,20.83-38.14,10.73-3.61,19.5,3.82,19.18,16.24Z"/>
  <path class="cls-1" d="M1016.18,707c-.93,12.28-7.45,22.82-19.5,29.41-12.29,6.72-22.88-.13-21.79-14,1.09-13.74,8.11-24.14,20.3-30.46,11.78-6.11,21.2.19,20.98,15.05Z"/>
  <path class="cls-1" d="M456.35,644.03c-.05,15.06-16.61,26.83-30.84,21.92-8.04-2.77-12.75-9.23-12.94-17.72-.32-14.77,13.79-26.51,28.18-23.46,9.28,1.97,15.63,9.81,15.6,19.26Z"/>
  <path class="cls-1" d="M421.75,879.83c-10.32.03-16.6-3.08-20.22-10.28-3.71-7.39-1.65-14.34,3.24-20.3,7.01-8.55,16.34-11.6,27.07-9.16,11.43,2.6,16.92,14.29,11.85,24.86-4.85,10.13-13.38,14.53-21.94,14.87Z"/>
  <path class="cls-1" d="M1034.89,562.54c-.94,9.66-5.25,19.02-14.66,25.34-11.16,7.5-23.08,1.92-24.04-11.44-.81-11.19,3.64-20.63,11.96-28.09,5.3-4.75,11.45-6.88,18.43-4.13,5.28,2.08,8.55,9.04,8.3,18.32Z"/>
  <path class="cls-1" d="M766.99,376.95c-.19,10.13-5.83,18.47-14.98,22.16-8.27,3.34-17.2.75-22.07-6.64-4.69-7.11-4.89-14.61-1.35-22.29,3.83-8.33,10.42-13.14,19.4-13.96,10.8-.99,19.23,8.52,19,20.73Z"/>
  <path class="cls-1" d="M1001.79,773.47c0,14.22-11.7,29.65-25.48,33.59-8.76,2.51-15.28-2.39-15.65-11.75-.55-14.03,10.98-30.04,24.61-34.18,9.65-2.93,16.52,2.2,16.52,12.34Z"/>
  <path class="cls-1" d="M518.05,462.68c10.41.39,18.44,8.98,18.46,19.74.03,12.29-11.89,23.65-23.86,22.74-10.19-.77-18.13-10.14-17.5-20.66.73-12.3,11.18-22.26,22.9-21.82Z"/>
  <path class="cls-1" d="M667.92,1038.95c-10.73-.27-15.9-7.81-12.52-18.22,4.14-12.74,21.28-23.25,34.45-21.13,8.93,1.44,13.14,8.47,10.28,17.15-4.18,12.7-18.47,22.55-32.22,22.2Z"/>
  <path class="cls-1" d="M840.21,365.68c.22,5.88-1.91,11.52-6.05,16.42-5.43,6.42-13.92,9.09-21.14,6.41-7.75-2.88-11.03-9.25-11.81-16.91-.71-6.99,1.69-13.27,6.26-18.59,5.79-6.76,14.09-9.27,21.04-6.57,7.34,2.85,11.61,9.66,11.7,19.26Z"/>
  <path class="cls-1" d="M941.06,430.79c-.25-11.65,2.9-19.71,10.25-25.75,10.09-8.29,22.8-4.17,25.92,8.45,2.26,9.18.16,17.65-5.53,25.15-5.46,7.2-13.68,10.25-20.37,7.42-7.65-3.24-10.11-9.74-10.27-15.27Z"/>
  <path class="cls-1" d="M456.65,566.78c.33,12.07-9.59,22.53-21.63,22.8-10.49.23-19.01-7.99-19.34-18.65-.37-12.18,9.43-22.48,21.63-22.72,10.75-.21,19.04,7.75,19.33,18.56Z"/>
  <path class="cls-1" d="M668.48,409.07c-10.72-.24-17.84-8.41-17.54-20.14.32-12.57,10.65-23.16,22.09-22.65,10.06.45,18.28,9.82,17.96,20.48-.37,12.35-10.69,22.58-22.51,22.31Z"/>
  <path class="cls-1" d="M1038.85,483.55c-.07,10.45-3.62,18.37-10.58,24.64-4.33,3.9-9.47,6.04-15.36,4.15-6.74-2.16-9.48-7.82-9.92-14.12-.83-11.83,3.22-21.93,13.27-28.85,9.11-6.27,19.28-2.17,21.86,8.59.51,2.14.59,4.39.74,5.59Z"/>
  <path class="cls-1" d="M420.91,906.08c8.52.23,14.6,4.05,17.09,10.94,2.6,7.19-.14,13.18-4.88,18.32-5.58,6.06-12.74,8.72-21.01,8.35-6.56-.29-12.13-2.69-15.12-8.7-3.23-6.51-2.27-13.06,2.06-18.87,5.42-7.26,12.98-10.14,21.85-10.03Z"/>
  <path class="cls-1" d="M477.19,1001c-7.28-.07-12.98-2.21-15.98-8.33-3.26-6.65-1.73-13.13,2.78-18.75,6.4-7.99,14.9-11.43,25.06-10.61,13.94,1.12,19.84,13.78,11.79,25.43-4.67,6.75-11.27,10.63-19.36,11.94-1.64.27-3.33.25-4.3.32Z"/>
  <path class="cls-1" d="M752.87,989.85c10.03.03,15.15,7.11,12.04,16.67-3.96,12.21-18.94,23.3-31.64,23.43-8.92.1-14.58-6.92-12.41-15.35,3.45-13.38,18.2-24.79,32.01-24.75Z"/>
  <path class="cls-1" d="M604.18,1047.04c-13.04.48-19.77-8.77-15.54-19.78,4.11-10.7,19.29-20.01,30.78-18.89,10.91,1.07,16.38,10.35,11.55,20.52-5.5,11.61-15.77,16.49-26.79,18.14Z"/>
  <path class="cls-1" d="M896.89,906.12c6.36.15,10.34,4.23,10.35,10.63.01,14.47-16.82,31.72-31.4,32.2-6.42.21-11.62-5.21-11.34-11.81.62-14.59,18.11-31.34,32.39-31.01Z"/>
  <path class="cls-1" d="M612.86,394.93c-.09,11.99-9.58,21.57-21.16,21.37-10.14-.18-17.36-7.76-17.59-18.46-.25-12.08,8.75-22.05,20.2-22.37,10.51-.29,18.64,8.24,18.56,19.46Z"/>
  <path class="cls-1" d="M944.04,862.08c-.3-13.08,11.85-29.1,24.7-32.56,9.93-2.67,16.77,3.28,15.29,13.3-1.92,12.96-14.48,27.06-26.44,29.69-7.68,1.69-13.37-2.68-13.55-10.43Z"/>
  <path class="cls-1" d="M349.16,813.54c-9.07.12-15.57-4.11-18.29-11.9-2.25-6.44.27-14.38,6.22-19.58,7.68-6.72,18.46-7.85,26.49-2.79,6.4,4.04,9.5,11.99,7.36,18.93-2.82,9.19-11.36,15.2-21.78,15.34Z"/>
  <path class="cls-1" d="M909.79,353.48c-.56,7.9-3.27,15.57-10.81,20.72-9.83,6.72-22.06,2.12-24.84-9.5-1.75-7.29-.92-14.39,3.29-20.85,4.87-7.46,12.4-10.92,19.87-9.13,6.93,1.67,12.12,9.13,12.49,18.75Z"/>
  <path class="cls-1" d="M351.4,742.56c-10.53-.21-18.45-7.97-18.12-17.74.38-11.17,10.7-20.27,22.6-19.93,10.5.3,18.16,7.93,18.01,17.93-.16,11.31-10.05,19.99-22.5,19.74Z"/>
  <path class="cls-1" d="M418.17,490.39c.01-11.05,9.35-20.72,19.99-20.69,9.63.02,17.8,8.45,17.88,18.46.09,10.74-9.54,20.61-20.12,20.63-9.82.02-17.77-8.22-17.75-18.4Z"/>
  <path class="cls-1" d="M353.6,668.34c-10.37-.31-17.96-8.18-17.48-18.14.51-10.76,9.92-19.42,21.05-19.37,10.21.05,18.2,7.69,18.35,17.54.17,11.32-9.72,20.34-21.91,19.97Z"/>
  <path class="cls-1" d="M344.59,881.21c-8.55-.29-14.8-4.6-17.03-11.67-2.3-7.31.61-13.26,5.78-18.01,6.71-6.18,14.88-7.45,23.42-4.69,9.68,3.12,13.71,14.32,8.56,23.2-4.68,8.07-12.29,10.83-20.72,11.18Z"/>
  <path class="cls-1" d="M535.55,1053c-5.82-.35-11.37-1.32-14.21-7.05-2.69-5.43-1.88-10.94,1.55-15.77,7.03-9.9,16.73-14.34,28.84-12.71,9.48,1.28,14.2,9.78,10.3,18.48-5.11,11.42-14.78,15.94-26.48,17.05Z"/>
  <path class="cls-1" d="M1071.66,692.5c-1.34,10.64-6.6,20.67-17.21,27.25-4.37,2.71-9.44,3.76-14.09.38-3.95-2.87-4.99-7.29-4.48-11.88,1.37-12.31,7.06-22.16,17.91-28.38,9.44-5.41,18.04.08,17.87,12.62Z"/>
  <path class="cls-1" d="M795.42,1018.69c-7.74.07-12.42-5.61-10.76-13.07,2.88-12.93,16.42-24.83,29.42-25.84,9.53-.74,14.61,5.4,12.15,14.68-3.28,12.4-18.18,24.11-30.81,24.23Z"/>
  <path class="cls-1" d="M533.7,402.14c-.26,11.19-9.62,20.26-20.35,19.74-9.66-.47-16.82-8.96-16.3-19.35.52-10.57,9.04-18.8,19.46-18.78,10.06.01,17.44,7.91,17.2,18.39Z"/>
  <path class="cls-1" d="M1082.97,621.51c-.6,10.5-5.72,20.47-17.01,26.6-8.01,4.34-15.98.04-16.88-9.16-1.25-12.74,4.02-22.8,13.99-30.34,4.04-3.05,8.75-5.09,13.94-2.06,4.17,2.43,5.94,6.25,5.95,14.97Z"/>
  <path class="cls-1" d="M1091.87,546.23c-.6,8.58-3.76,16.67-10.52,23.1-4.26,4.05-9.29,6.34-15.16,4.22-6.21-2.24-7.44-7.69-7.55-13.51-.21-10.69,3.83-19.54,12.21-26.11,9.23-7.24,18.97-3.2,20.71,8.36.17,1.09.18,2.21.3,3.95Z"/>
  <path class="cls-1" d="M1039.31,405.34c-.06,10.07-3.08,17.64-10.19,23.2-7.74,6.05-16.78,3.73-20.69-5.18-4.3-9.8-1.18-23.24,7.14-30.73,9-8.1,20.4-4.53,23.02,7.25.48,2.17.58,4.42.71,5.46Z"/>
  <path class="cls-1" d="M941.65,346.14c.35-8.47,2.99-15.09,8.82-20.15,8.23-7.14,19.6-4.28,22.99,6.13,3.16,9.74,1.56,18.96-5.9,26.43-8.88,8.89-21.21,5.54-24.84-6.64-.63-2.12-.81-4.38-1.06-5.78Z"/>
  <path class="cls-1" d="M408.52,1004.06c-9.1.12-15.31-3.42-17.8-9.26-2.38-5.59-.38-12.79,5.11-18.03,6.05-5.78,13.4-7.57,21.48-6.49,12.03,1.62,17.06,13.82,9.76,23.76-4.91,6.68-11.86,9.7-18.54,10.02Z"/>
  <path class="cls-1" d="M744.71,277.96c5.45-.14,9.98,2.01,13.06,6.35,3.34,4.71,4.81,10.02,3.39,15.92-2.48,10.3-11.52,17.44-20.54,16.06-8.89-1.35-15.27-10.07-14.44-19.75.85-9.91,9.13-18.22,18.53-18.59Z"/>
  <path class="cls-1" d="M356.69,590.92c-9.9.23-17.34-6.49-17.81-16.09-.54-11.1,8.78-20.79,19.73-20.51,9.36.24,16.9,7.87,17.07,17.28.19,10.55-8.18,19.07-18.99,19.32Z"/>
  <path class="cls-1" d="M467.5,1057.83c-6.43-.45-11.55-2.24-14.14-7.99-2.54-5.64-1.17-10.98,2.6-15.53,6.99-8.43,16.12-11.58,26.8-9.28,8.41,1.81,12.35,10.38,8.53,18.17-4.93,10.07-13.78,13.81-23.79,14.63Z"/>
  <path class="cls-1" d="M1020.85,778.61c1-11.94,7.53-21.93,19.05-28.35,8.58-4.78,16.32-.02,15.84,9.59-.71,14.11-7.9,24.27-20.53,30.31-7.83,3.74-14.43-1.14-14.36-11.55Z"/>
  <path class="cls-1" d="M934.26,934.38c-5.37.19-9.5-3.94-9.35-9.34.35-13.17,15.92-29.73,28.71-30.53,4.35-.27,8.72,3.55,9.07,7.95.04.55.08,1.11.07,1.66-.42,13.91-15.38,29.79-28.49,30.25Z"/>
  <path class="cls-1" d="M833.98,288.58c-.69,1.68-1.81,6.03-4.12,9.61-3.56,5.54-9.16,7.76-15.78,6.9-6.92-.89-10.55-5.47-12.65-11.61-1.7-4.97-1-9.8,1.13-14.5,3.92-8.65,11.96-13.12,19.93-11.09,7.31,1.86,11.79,8.85,11.48,20.68Z"/>
  <path class="cls-1" d="M1096.13,470.4c-.31,9.56-3.83,17.5-11.63,23.11-7.39,5.31-16.31,2.11-18.28-6.73-2.5-11.2.37-21.08,8.91-28.93,3.35-3.08,7.38-5.4,12.18-3.78,5.29,1.8,7.87,5.97,8.52,11.38.2,1.66.21,3.34.31,4.94Z"/>
  <path class="cls-1" d="M340.05,945.17c-7.73-.18-13.4-3.9-15.75-10.32-2.18-5.97.09-13.2,6.03-17.79,6.57-5.08,13.9-7,22.01-3.93,10,3.78,13.17,14.72,6.76,23.26-4.26,5.68-11.4,8.97-19.06,8.79Z"/>
  <path class="cls-1" d="M884.31,978.27c-.25,1.27-.28,4.18-1.37,6.61-5.03,11.27-13.56,18.72-25.6,21.68-6.71,1.65-12.07-3.46-11.38-10.34,1.29-12.85,16.7-27.26,29.42-27.5,4.5-.09,8.65,3.69,8.93,9.55Z"/>
  <path class="cls-1" d="M653.14,1092.24c-11.54-.2-16.16-7.37-11.86-15.95,5.77-11.48,15.59-17.23,28.19-17.65,9.38-.32,14.15,7.61,9.92,16-5.79,11.5-15.55,16.95-26.25,17.6Z"/>
  <path class="cls-1" d="M685.46,305.57c0,11.06-8.01,19.55-18.45,19.53-9.39-.02-16.2-7.33-16.21-17.42-.02-10.85,8.32-19.76,18.45-19.71,9.14.05,16.2,7.71,16.21,17.6Z"/>
  <path class="cls-1" d="M608.12,314.02c-.05,10.26-7.89,18.21-17.96,18.23-8.89.01-15.59-6.78-15.87-16.08-.32-10.38,7.11-18.63,17.13-19.01,9.76-.37,16.75,6.68,16.71,16.87Z"/>
  <path class="cls-1" d="M588.09,1099.89c-4.94-.24-9.32-1.07-11.84-5.39-2.5-4.29-1.51-8.59.99-12.54,6.11-9.68,14.84-14.64,26.39-14.08,9.2.44,13.98,8.18,9.74,16.32-5.32,10.21-14.42,14.83-25.28,15.7Z"/>
  <path class="cls-1" d="M903.93,274.61c-.9,2.77-1.56,6.06-2.99,8.97-3.59,7.3-11.22,11.35-17.47,9.68-6.49-1.73-12.11-8.7-11.63-16.37.29-4.73,1.97-9.79,4.4-13.88,3.3-5.58,8.88-8.18,15.64-6.74,6.14,1.3,9.18,5.81,10.96,11.31.67,2.06.69,4.34,1.09,7.03Z"/>
  <path class="cls-1" d="M714.67,1083.33c-7.97.31-12.66-5.82-10.14-13.23,3.79-11.12,16.42-20.56,28.05-20.96,7.77-.27,12.34,5.74,10.2,13.4-2.93,10.48-16.26,20.34-28.12,20.79Z"/>
  <path class="cls-1" d="M356.34,510.36c-9.49-.36-16.18-8.1-15.45-17.87.7-9.4,8.17-16.37,17.6-16.44,9.28-.07,16.77,7.72,16.45,17.13-.33,9.97-8.55,17.56-18.6,17.17Z"/>
  <path class="cls-1" d="M1028.68,816.89c4.25-.27,8.35,3.76,8.58,8.45.62,12.23-11.68,28.44-23.55,31.05-6.11,1.34-11.29-2.72-11.2-8.8.18-12.34,12.8-28.11,24.52-30.6.53-.11,1.1-.07,1.65-.1Z"/>
  <path class="cls-1" d="M274.83,781.66c9,.03,15.69,5.34,16.7,13.26,1.02,7.98-3.84,15.07-12.19,17.72-1.06.34-2.16.6-3.26.78-10.16,1.65-18.86-3.97-20.12-12.97-1.22-8.66,5.94-17.23,15.53-18.56,1.1-.15,2.23-.16,3.34-.23Z"/>
  <path class="cls-1" d="M523.46,1105.93c-5.44-.03-10.48-.81-12.79-6.24-2.14-5.05-.76-9.9,2.57-14.03,5.55-6.88,12.84-10.46,21.73-10.45,4.68,0,8.97,1.39,11.35,5.68,2.7,4.9,1.52,9.75-1.64,14.05-5.29,7.19-12.59,10.66-21.23,10.99Z"/>
  <path class="cls-1" d="M274.08,742.73c-9.44-.29-16.02-6.68-15.94-15.48.08-9.74,8.26-17.51,18.39-17.48,9.39.03,17.54,7.96,17.12,16.66-.45,9.32-9.21,16.62-19.57,16.3Z"/>
  <path class="cls-1" d="M453.44,407.32c0,10.26-8.08,18.29-18.09,18.01-8.79-.24-15.5-7.39-15.54-16.54-.04-10.23,8.02-18.18,18.19-17.94,8.99.21,15.45,7.1,15.45,16.47Z"/>
  <path class="cls-1" d="M276.99,668.83c-9.22.28-16.39-5.89-17.01-14.62-.68-9.63,7.37-18.25,17.34-18.56,9.23-.29,17.39,7.6,17.16,16.59-.23,8.99-7.94,16.31-17.5,16.6Z"/>
  <path class="cls-1" d="M335.87,1005.78c-8.21-.2-14.33-4.59-15.8-10.86-1.25-5.33,1.77-12.12,7.4-15.67,5.85-3.7,12.09-5.5,19.05-2.95,10.14,3.71,12.77,14.91,5.3,22.86-4.52,4.81-10.31,6.31-15.95,6.63Z"/>
  <path class="cls-1" d="M288.82,862.58c.2,10.1-5.28,16.28-14.24,18.26-7.78,1.72-15.91-1.37-18.87-7.41-2.37-4.83-2.3-9.79.46-14.45,5.51-9.32,19.7-11.77,27.79-4.4,2.66,2.42,3.92,6.38,4.87,8Z"/>
  <path class="cls-1" d="M1036.23,326.29c-.11,7.56-2.03,13.74-7.49,18.45-6.73,5.8-16.26,4.02-19.32-4.07-3.35-8.85-2.58-17.56,3.43-25.22,3.24-4.13,7.54-6.6,13.08-5.54,5.23,1,8.88,5.5,9.89,12.01.26,1.64.32,3.31.42,4.37Z"/>
  <path class="cls-1" d="M1096.86,390.39c-.36,10.29-2.97,17.33-9.89,22.26-5.62,4-12.14,2.48-15.54-3.6-5.69-10.18-1.11-26.54,9.02-32.23,5.17-2.91,11.72-1.1,14.06,4.42,1.48,3.49,1.93,7.41,2.35,9.15Z"/>
  <path class="cls-1" d="M513.77,304.68c8.58-.25,15.81,6.82,16.08,15.7.27,9.07-7.37,17.24-16.46,17.59-8.67.34-15.74-6.58-15.98-15.64-.24-9.18,7.37-17.4,16.35-17.66Z"/>
  <path class="cls-1" d="M396.74,1060.96c-1.68-.73-5.47-1.78-8.55-3.88-4.34-2.95-5.39-8.57-3.36-13.43,4.48-10.68,19.05-16.29,29.56-11.37,5.65,2.64,8.28,9.59,5.86,15.49-3.2,7.82-12.09,13.31-23.51,13.19Z"/>
  <path class="cls-1" d="M773.78,1072.72c-4.86-.06-8.52-3.96-7.94-8.71.27-2.19.64-4.52,1.64-6.43,5.27-10.06,13.67-16.17,24.79-18.21,6.92-1.27,12.09,4.64,10.31,11.29-3.1,11.58-16.96,22.19-28.81,22.05Z"/>
  <path class="cls-1" d="M1135.87,605.9c-.53,8.18-4.34,16.51-12,22.88-4.13,3.44-8.93,4.11-12.27,2.04-3.68-2.28-5-5.89-4.92-9.92.19-9.91,3.99-18.32,11.46-24.85,3.39-2.96,7.3-5.27,12.08-3.04,3.71,1.73,5.66,5.79,5.65,12.9Z"/>
  <path class="cls-1" d="M1116.75,543.52c.89-9.05,3.71-17.9,12.12-24.01,6.59-4.79,13.6-2.24,15.21,5.9,2.26,11.44-1.65,21.02-10.42,28.42-6.66,5.62-14.72,2.4-16.38-6.2-.21-1.1-.29-2.22-.52-4.1Z"/>
  <path class="cls-1" d="M1123.01,677.26c-.95,10.47-5.76,19.53-15.57,25.51-6.9,4.2-14.33.24-13.99-7.85.53-12.48,5.78-22.65,17.18-28.77,5.59-3,11.37.47,12.11,6.94.13,1.11.14,2.23.26,4.18Z"/>
  <path class="cls-1" d="M456.92,1111.38c-2.48-.83-5.79-1.49-8.65-3.01-4.01-2.13-5.54-7.23-4.11-11.63,3.5-10.79,18.37-17.74,28.73-13.42,6.07,2.53,8.51,9.38,5.36,15.31-4.36,8.2-11.97,11.12-21.33,12.75Z"/>
  <path class="cls-1" d="M278.84,559.69c8.96.11,15.94,7.24,15.61,15.95-.34,9.1-8.56,16.35-17.95,15.83-8.23-.45-14.6-7.03-14.68-15.17-.1-9.39,7.42-16.73,17.02-16.62Z"/>
  <path class="cls-1" d="M968.45,259.15c.22,7.22-1.65,12.82-6.56,17.16-6.5,5.74-15.9,4.16-19.49-3.74-3.39-7.46-3.18-15.11,1.64-22.12,3.53-5.13,9.36-7.56,14.35-6.02,5.22,1.61,8.21,5.4,9.45,10.6.38,1.6.49,3.27.61,4.12Z"/>
  <path class="cls-1" d="M909.44,992.96c-1.15-1.18-3.52-2.75-4.6-4.95-.86-1.76-.69-4.47-.03-6.44,3.97-11.78,11.95-19.68,23.87-23.34,4.76-1.46,9.29,1.75,9.53,6.37.64,12.51-15.22,28.92-28.76,28.37Z"/>
  <path class="cls-1" d="M1010.22,883.42c1.05,1.19,3.07,2.94,4.31,5.14.72,1.27.54,3.35.15,4.91-3.07,12.21-10.38,20.87-22.19,25.42-5.19,2-10.59-2.06-10.34-7.44.53-11.32,12.27-25.44,23.36-28,1.06-.24,2.22-.03,4.71-.03Z"/>
  <path class="cls-1" d="M831.16,1061.08c-4.01-.12-7.35-4.11-6.7-7.98,1.91-11.41,15.76-23.85,27.03-24.29,3.74-.15,7.86,3.88,7.61,7.42-.85,11.59-16.17,25.22-27.93,24.86Z"/>
  <path class="cls-1" d="M1149.94,452.52c-.34,10.97-3.31,18.41-10.44,23.79-5.11,3.86-10.98,2.32-13.71-3.46-4.97-10.51.41-26.29,10.77-31.56,3.49-1.77,8.31-.87,10.19,2.61,1.77,3.27,2.63,7.03,3.19,8.61Z"/>
  <path class="cls-1" d="M285.49,929.53c.33,7.8-5.37,14.01-14.51,15.81-7.68,1.52-15.6-2.22-18.3-8.65-.22-.51-.35-1.07-.48-1.61-1.32-5.5.63-9.98,4.61-13.58,5.99-5.42,13.06-6.29,20.39-3.55,5.11,1.91,7.98,5.96,8.29,11.58Z"/>
  <path class="cls-1" d="M811.23,221.93c-7.42.05-13.99-7.35-13.94-15.69.06-9.19,6.69-16.52,15.03-16.62,7.69-.09,13.89,6.81,13.9,15.47,0,8.9-7.01,16.78-14.99,16.84Z"/>
  <path class="cls-1" d="M1106.47,748c-1.19,9.83-6.65,18.92-17.14,24.64-5.76,3.14-11.61.04-12.16-6.22-.99-11.29,8.85-26.34,19.64-30.05,5.48-1.88,10.02,2.65,9.66,11.63Z"/>
  <path class="cls-1" d="M753.49,215.59c.04,9.19-6.38,16.63-14.72,17.04-8.08.39-15.46-7.7-15.02-16.48.45-8.91,7.59-16.13,15.87-16.05,8,.08,13.83,6.59,13.87,15.48Z"/>
  <path class="cls-1" d="M358.57,396.64c8.11.24,14.25,7.22,13.88,15.79-.35,8.18-7.1,15.01-15.03,15.2-7.8.19-14.8-6.89-14.89-15.09-.1-8.66,7.46-16.15,16.05-15.9Z"/>
  <path class="cls-1" d="M662.72,241.18c-7.97-.25-14.15-7.09-13.96-15.45.2-8.88,7.24-15.86,15.84-15.71,7.99.15,14.01,6.86,13.86,15.46-.16,9.08-7.07,15.96-15.74,15.69Z"/>
  <path class="cls-1" d="M436.42,311.58c8.07.3,14,7.41,13.37,16.02-.62,8.49-7.2,14.44-15.57,14.09-8.07-.34-14.44-7.73-13.64-15.85.8-8.07,8-14.56,15.83-14.27Z"/>
  <path class="cls-1" d="M279.44,480.75c7.98.42,14.29,7.72,13.75,15.9-.54,8.3-7.28,14.42-15.56,14.14-8.43-.29-14.15-6.88-13.57-15.65.55-8.34,7.46-14.81,15.37-14.39Z"/>
  <path class="cls-1" d="M329.52,1062.55c-1.71-.42-4.57-.71-7.08-1.8-5.99-2.57-8.09-9.83-4.79-15.59,4.84-8.46,16.13-11.87,24.83-7.5,6.48,3.25,8.36,11.06,4.11,17.09-3.91,5.54-9.59,7.39-17.06,7.79Z"/>
  <path class="cls-1" d="M1095.02,313.47c-1.53,3.7-2.98,8.5-5.41,12.74-2.37,4.13-6.53,6.08-11.44,5.09-4.28-.86-6.58-4.11-7.81-7.95-2.35-7.35-1.18-14.37,3.07-20.75,2.6-3.91,6.22-6.51,11.2-5.85,5.11.68,7.53,4.35,8.8,8.93.59,2.13.9,4.34,1.6,7.78Z"/>
  <path class="cls-1" d="M894.4,193.66c-.09,6.62-2.63,11.82-8.73,14.89-4.06,2.04-8.93,1.33-12.35-1.83-4.91-4.55-6.5-10.2-4.89-16.64,1.77-7.09,8.13-12.39,14.1-11.98,6.9.47,11.98,7.13,11.88,15.57Z"/>
  <path class="cls-1" d="M573.5,233.07c.48-8.55,7.28-15.12,15.15-14.64,7.97.49,13.58,7.74,12.8,16.56-.74,8.41-7.96,14.56-15.95,13.61-7.45-.89-12.45-7.36-12-15.53Z"/>
  <path class="cls-1" d="M198.32,714.04c7.96.11,14.28,5.75,14.65,13.1.39,7.66-6.52,14.33-15.11,14.6-8.68.27-15.55-5.99-15.37-14,.18-7.93,6.97-13.81,15.83-13.69Z"/>
  <path class="cls-1" d="M632.8,1142.25c-6.48-.08-10.16-5.31-8.04-11.42,3.71-10.64,17.3-18.04,28.43-15.47,4.36,1.01,6.61,5.98,4.87,10.72-3.33,9.05-14.66,16.3-25.27,16.17Z"/>
  <path class="cls-1" d="M692.8,1133.35c-4.93-.15-8.33-4.58-7.07-9.19,2.87-10.45,16.28-19.58,27.17-18.51,4.7.46,7.51,5.16,5.99,10-3.08,9.82-15.2,18.04-26.1,17.7Z"/>
  <path class="cls-1" d="M196.66,785.3c8.18-.28,14.46,4.77,15.13,12.18.73,8.08-5.29,14.57-14.06,15.14-8.76.57-15.95-5.15-16.23-12.91-.27-7.57,6.61-14.11,15.16-14.41Z"/>
  <path class="cls-1" d="M1030.68,247.73c-1.37,3.36-2.48,8.36-5.2,12.22-5.02,7.12-15.36,5.71-18.79-2.3-3.27-7.65-2.64-15.11,2.8-21.71,2.55-3.09,5.92-5.26,10.07-4.62,4.75.74,7.81,3.88,9.26,8.44.66,2.09,1.01,4.28,1.86,7.98Z"/>
  <path class="cls-1" d="M572.27,1149.56c-4.56-.17-8.98-.66-10.17-5.02-.78-2.86-.3-6.88,1.22-9.4,4.97-8.23,12.8-12.31,22.4-12.45,7.79-.11,12.09,7.26,8.21,14.1-4.83,8.49-12.56,12.34-21.65,12.77Z"/>
  <path class="cls-1" d="M511.52,1155.8c-7.18-.07-10.82-1.23-12.78-5.23-1.99-4.08-.3-7.67,2.12-10.87,5.09-6.72,12.19-9.91,20.39-9.49,2.9.15,6.44,2.29,8.31,4.63,2.65,3.32,1.59,7.55-.89,10.9-4.98,6.73-11.8,10.02-17.16,10.05Z"/>
  <path class="cls-1" d="M397.29,1088.34c6.21-.05,10.62,2.39,12.19,6.76,1.82,5.04-.03,11.29-5.45,14.32-4.2,2.34-9.14,3.96-13.9,4.5-4.43.51-8.73-1.52-11-6-2.12-4.17-.76-9.83,3.15-13.62,4.18-4.05,9.2-6.04,15.02-5.97Z"/>
  <path class="cls-1" d="M1127.27,382.82c.98-7.26,2.62-13.57,8-18.27,5.24-4.57,12.46-2.67,14.42,4.09,2.44,8.42,1.44,16.44-4.05,23.51-2.45,3.16-5.7,5.53-9.93,4.72-4.24-.81-6.33-4.17-7.37-8.11-.56-2.11-.79-4.31-1.07-5.95Z"/>
  <path class="cls-1" d="M1086.51,815.33c-1.59,9.67-7.26,18.67-18.2,23.7-5.4,2.49-10.35-1.04-9.94-6.9.84-12.07,7.2-20.69,17.61-26.28,5.93-3.18,11.19.7,10.53,9.48Z"/>
  <path class="cls-1" d="M266.49,979.99c9.08.9,13.75,4.66,14.74,10,.99,5.37-1.88,10.83-7.49,13.65-4.59,2.3-9.35,3.41-14.51,1.56-4.55-1.63-7.69-4.4-8.67-9.25-1-4.96,1.05-10.34,5.86-12.75,3.84-1.92,8.26-2.67,10.08-3.22Z"/>
  <path class="cls-1" d="M213.05,653.93c-.26,7.88-7.39,14.09-15.74,13.72-7.79-.35-13.52-6.37-13.34-14.01.2-8.2,6.86-14.06,15.52-13.66,7.64.36,13.8,6.69,13.57,13.95Z"/>
  <path class="cls-1" d="M212.69,576.36c.29,7.38-5.8,13.71-13.5,14.03-7.67.31-14.14-5.55-14.36-13.03-.22-7.32,5.94-13.7,13.54-14.02,7.77-.33,14.02,5.36,14.32,13.02Z"/>
  <path class="cls-1" d="M195.72,880.21c-8.41.14-14.71-5.25-14.78-12.65-.07-7.2,6.11-13.19,14.19-13.77,7.82-.56,15,4.99,15.6,12.05.67,7.92-5.91,14.21-15.01,14.36Z"/>
  <path class="cls-1" d="M959.86,179.58c-.49,7.2-2.29,13.19-8.67,15.75-2.67,1.07-6.91.76-9.38-.7-5.81-3.43-7.45-9.42-6.47-15.93.32-2.14,1.28-4.26,2.32-6.18,2.29-4.23,5.84-6.65,10.81-6.36,5.02.29,8.12,3.24,9.81,7.75.77,2.06,1.19,4.25,1.58,5.68Z"/>
  <path class="cls-1" d="M963.25,977.81c-1-1.45-3.7-3.56-3.65-5.62.24-10.82,12.63-24.14,23.16-25.36,2.96-.34,5.76.84,6.25,4.14,1.68,11.42-13.1,27.53-25.75,26.83Z"/>
  <path class="cls-1" d="M753.97,1123.52c-6.92.06-10.09-3.97-9.12-7.97,2.33-9.66,14.01-19.04,24.59-19.74,4.8-.32,8.15,4.13,6.93,8.95-1.46,5.78-5.14,10.03-9.91,12.97-4.62,2.84-9.88,4.62-12.49,5.8Z"/>
  <path class="cls-1" d="M1171.38,661.9c-1.21,9.13-4.91,17.47-13.63,22.85-4.89,3.02-10.56.04-10.62-5.76-.12-10.69,4.28-19.36,13.01-25.44,1.88-1.31,5.66-1.79,7.49-.76,1.92,1.08,2.59,4.43,3.72,6.83.21.45.03,1.09.03,2.28Z"/>
  <path class="cls-1" d="M1059.59,870.73c.91.8,2.5,1.64,3.21,2.96.74,1.36,1.11,3.28.81,4.79-2.26,11.05-8.47,19.16-18.74,23.95-3.99,1.86-8.66-.77-8.77-4.69-.29-10.47,11.14-25.01,21.34-27.11.53-.11,1.11.05,2.16.11Z"/>
  <path class="cls-1" d="M443.64,1160.92c-1.89-1.24-5.48-2.79-7.91-5.42-2.57-2.79-1.05-8.28,2.61-11.94,4.94-4.95,10.91-7.64,17.98-6.83,4,.46,8.06,2.19,8.69,6.47.42,2.9-.63,6.59-2.27,9.11-3.94,6.03-10.43,7.81-19.09,8.61Z"/>
  <path class="cls-1" d="M510.87,226.35c7.74.02,13.2,5.97,12.98,14.14-.21,7.88-6.09,13.78-13.69,13.73-7.66-.06-13.28-6.17-13.03-14.16.26-7.94,6.06-13.73,13.74-13.71Z"/>
  <path class="cls-1" d="M911.29,1024.36c-.12.86-.02,2.64-.62,4.14-3.74,9.35-10.44,15.85-19.98,18.93-2.29.74-6.05.28-7.66-1.22-1.53-1.42-2.22-5.33-1.42-7.43,4.02-10.48,11.33-17.78,22.56-20.48,3.47-.83,7.05,1.93,7.11,6.05Z"/>
  <path class="cls-1" d="M1184.62,587.91c-.38,9.56-3.45,17.54-11.01,23.37-5.21,4.02-11.25,1.57-12.33-4.96-1.58-9.56,4.58-22.17,13.06-26.75,3.61-1.95,8.25-.1,9.31,3.76.43,1.58.69,3.22.97,4.57Z"/>
  <path class="cls-1" d="M1194.09,514.76c-.17,8.22-2.84,15.37-9.26,20.75-5.06,4.25-11.63,1.72-12.54-4.9-1.29-9.44,1.21-17.84,8.49-24.2,1.87-1.63,5.11-2.75,7.52-2.45,3.69.47,5.05,3.93,5.51,7.45.15,1.11.19,2.23.28,3.34Z"/>
  <path class="cls-1" d="M356.76,317.58c7.29-.12,12.57,5.17,12.65,12.69.08,7.87-6.17,14.21-13.64,13.82-6.1-.32-11.51-5.74-11.99-12.01-.59-7.71,5.38-14.38,12.98-14.5Z"/>
  <path class="cls-1" d="M277.53,428.07c-6.6-.32-12.2-6.42-12.14-13.25.07-7.6,6.29-13.53,13.85-13.19,6.98.31,12.2,5.91,12.12,13.01-.09,7.43-6.61,13.77-13.82,13.42Z"/>
  <path class="cls-1" d="M1148.79,294.6c-.04,6.66-1.54,11.88-5.41,16.27-4.23,4.82-10.95,4.07-13.8-1.54-3.79-7.48-2.5-16.91,3.19-23.32,4.74-5.33,11.98-3.84,14.48,3.05.75,2.07,1.18,4.25,1.53,5.54Z"/>
  <path class="cls-1" d="M195.18,944.44c-8.34-.19-13.6-4.27-14.46-10.3-.95-6.64,4.01-12.65,11.57-13.71,2.16-.3,4.46-.2,6.61.19,5.89,1.07,10.19,6.13,10.14,11.57-.04,4.78-3.67,9.71-8.54,11.24-2.09.66-4.34.83-5.33,1.01Z"/>
  <path class="cls-1" d="M324.07,1115.84c-6.07-.02-10.59-2.88-11.71-7.44-1.17-4.74,1.22-9.62,6.15-12.55,6.66-3.96,13.43-3.93,18.83.09,3.84,2.86,4.72,7.76,2.26,11.91-3.52,5.94-9.03,7.9-15.53,7.99Z"/>
  <path class="cls-1" d="M1078.72,217.15c2.29,1.78,4.95,3.04,6.41,5.13,4.94,7.05,3.98,16.68-1.84,23.06-4.08,4.46-10.98,3.95-14.34-1.07-5.1-7.63-3.71-18.13,3.42-24.06,1.6-1.33,3.84-1.88,6.34-3.05Z"/>
  <path class="cls-1" d="M1179.2,447.9c.27-7.91,2.12-14.66,8.24-19.61,3.75-3.04,9.11-1.79,11,2.67,3.44,8.09.86,19.83-6.29,25.79-1.82,1.51-5.42,2.38-7.52,1.64-2.08-.74-3.56-3.75-4.81-6.04-.74-1.35-.49-3.24-.64-4.44Z"/>
  <path class="cls-1" d="M1154.05,732.22c-1.43,9.44-5.77,17.46-14.71,22.44-4.42,2.46-9.53-.56-9.35-5.58.38-10.74,5.31-19.09,14.25-24.89,1.63-1.05,4.95-1.71,6.09-.79,1.85,1.49,2.57,4.4,3.69,6.75.21.45.03,1.09.03,2.07Z"/>
  <path class="cls-1" d="M277.19,1050.4c-1.13,2.46-1.81,5.29-3.48,7.31-5.12,6.18-14.55,7.38-21.12,3.07-4.25-2.78-5.72-8.78-3.24-13.26,4.53-8.19,18.24-10.13,24.53-3.31,1.43,1.56,2.09,3.83,3.32,6.19Z"/>
  <path class="cls-1" d="M743.86,134.75c.35,7.31-4.71,13.61-11.44,14.25-6.63.63-12.68-5.14-13.07-12.47-.39-7.35,4.61-13.51,11.45-14.13,6.94-.63,12.69,4.82,13.06,12.35Z"/>
  <path class="cls-1" d="M804.11,112.02c6.5.21,11.99,6.87,11.52,13.96-.47,7.18-6.84,13.31-13.08,12.59-5.86-.68-10.3-6.36-10.37-13.27-.07-7.84,5.02-13.52,11.92-13.29Z"/>
  <path class="cls-1" d="M199.25,484.51c6.93.04,12.44,6.07,12.12,13.26-.33,7.33-5.88,12.31-13.29,11.94-6.6-.33-11.01-5.15-11.16-12.18-.15-7.34,5.26-13.05,12.34-13.02Z"/>
  <path class="cls-1" d="M119.47,810.45c-6.59-.3-11.92-5.24-12.1-11.22-.2-6.42,6.07-11.74,13.43-11.39,6.6.31,11.96,5.26,12.07,11.16.12,6.59-5.96,11.8-13.4,11.45Z"/>
  <path class="cls-1" d="M1010.41,153.17c1.61.58,3.39.81,4.67,1.74,8.42,6.12,7.59,20.44-1.4,25.55-3.32,1.89-6.54,1.32-9.28-1-7.5-6.34-6.81-19.21,1.3-24.65,1.32-.88,3.09-1.09,4.71-1.64Z"/>
  <path class="cls-1" d="M830.77,1091.39c-.18.98-.14,2.76-.83,4.18-4.06,8.38-10.59,14.07-19.65,16.24-2.3.55-5.54-.27-7.54-1.64-2.65-1.82-1.63-5-.38-7.5,4.45-8.86,11.44-14.65,21.18-16.89,3.47-.8,7.19,1.84,7.21,5.6Z"/>
  <path class="cls-1" d="M656.43,157.72c-6.65-.41-11.69-6.8-11.05-14.01.64-7.22,6.57-12.17,13.61-11.37,6.26.71,10.27,5.87,10.08,12.96-.2,7.33-5.81,12.83-12.64,12.41Z"/>
  <path class="cls-1" d="M194.64,982.97c2.16.63,4.38.98,6.34,1.88,7.21,3.32,8.02,12.92,1.5,17.61-4.28,3.07-9.02,3.82-14.1,2.3-4.6-1.38-7.64-4.88-8.04-9.37-.46-5.12,2.58-9.6,7.81-11.17,2.08-.63,4.29-.83,6.5-1.24Z"/>
  <path class="cls-1" d="M432.76,257.94c-6.93.07-12.55-5.92-12.15-12.97.36-6.35,5.45-11.49,11.74-11.87,7.02-.43,13.01,5.1,13.11,12.11.1,6.82-5.73,12.66-12.7,12.74Z"/>
  <path class="cls-1" d="M883.44,113.37c.16,6.77-4.25,12.41-10.14,12.96-6.49.61-12.1-5.29-12.13-12.74-.02-6.44,4.72-12.57,10.22-13.23,6.05-.72,11.87,5.56,12.04,13.01Z"/>
  <path class="cls-1" d="M612.85,1189.47c-1.63-1.05-4.43-2.05-5.85-4.04-.96-1.35-.65-4.45.25-6.14,4.3-8.03,11.41-12.25,20.36-12.67,2.24-.1,5.21,1.82,6.71,3.7,1.04,1.31.88,4.55-.02,6.25-4.28,8.11-11.59,11.73-21.45,12.9Z"/>
  <path class="cls-1" d="M381.47,1163.87c-1.28-.32-3.45-.69-5.48-1.43-3.64-1.33-5.61-5.77-4.4-9.48,2.86-8.75,14.92-13.42,23.22-9.01,3.85,2.05,5.24,7.62,2.86,11.49-3.5,5.7-8.97,7.79-16.2,8.42Z"/>
  <path class="cls-1" d="M593.79,153.42c-.36,6.11-6.03,11.66-11.89,11.65-6.54-.01-11.76-6.56-11-13.8.68-6.4,6.47-11.42,12.41-10.75,5.92.67,10.84,6.72,10.48,12.9Z"/>
  <path class="cls-1" d="M119.57,716.15c6.85-.16,13.26,6.14,12.84,12.61-.35,5.45-5.22,9.89-11.3,10.31-7.47.52-13.76-4.73-13.66-11.4.09-6,5.74-11.38,12.12-11.52Z"/>
  <path class="cls-1" d="M1037.12,940.51c-.57,1.54-1.04,5.17-3,7.62-3.78,4.72-8.13,9.1-12.82,12.91-1.7,1.38-5.94,1.81-7.43.64-1.56-1.23-2.23-5.21-1.53-7.43,2.82-8.9,8.68-15.48,17.24-19.46,3.22-1.5,7.68.88,7.53,5.72Z"/>
  <path class="cls-1" d="M858.25,1100.17c-.85-1.73-3.34-4.42-2.78-6.05,3.5-10.19,10.59-16.82,21.46-18.83,2.62-.49,5.72,2.69,5.21,5.12-1.94,9.41-13.47,19.47-23.89,19.77Z"/>
  <path class="cls-1" d="M938.05,1034.31c-1.01-1.52-3.62-3.63-3.47-5.53.7-9.36,10.99-19.76,20.53-21.55,3.58-.67,6.63,2.47,5.82,5.99-2.22,9.69-12.56,19.71-22.88,21.08Z"/>
  <path class="cls-1" d="M552.56,1196.32c-1.36-.92-4.52-1.93-5.42-3.95-.94-2.1-.53-5.7.75-7.71,4.54-7.11,11.51-10.21,19.91-9.97,5.59.16,8.66,6.07,5.61,10.88-4.54,7.15-11.24,10.5-20.86,10.75Z"/>
  <path class="cls-1" d="M694.16,1162.13c-.8,2.68-.96,4.46-1.8,5.83-4.68,7.68-11.6,12.04-20.58,12.49-1.87.09-4.6-1.2-5.54-2.72-.98-1.57-1.07-4.65-.15-6.28,4.72-8.34,11.82-13.46,21.74-13.01,2.21.1,4.32,2.45,6.34,3.68Z"/>
  <path class="cls-1" d="M1129.31,792.07c.96.79,2.87,1.57,3.26,2.82,2.87,9.22-6.62,24.42-16.76,27.21-2.6.71-5.67-1.53-5.89-4.31-.73-9.17,6.79-21.36,15.67-25.23.96-.42,2.15-.3,3.72-.49Z"/>
  <path class="cls-1" d="M132.91,866.9c.42,5.91-5.22,11.44-11.9,11.66-6.31.21-12.58-4.97-13.04-10.77-.46-5.84,5.24-11.3,11.97-11.45,6.84-.15,12.53,4.48,12.97,10.56Z"/>
  <path class="cls-1" d="M131.57,654.31c-.18,6.36-5.52,11-12.26,10.66-6.39-.32-11.76-5.86-11.41-11.77.35-5.93,6.37-11.22,12.44-10.93,6.2.29,11.41,5.88,11.23,12.04Z"/>
  <path class="cls-1" d="M506.36,1181.73c1.42.94,4.61,1.95,5.55,4,.93,2.02.42,5.65-.89,7.6-4.34,6.47-10.82,9.36-18.67,8.85-5.62-.37-8.5-6.18-5.55-11.04,4.2-6.92,10.65-9.39,19.55-9.41Z"/>
  <path class="cls-1" d="M261.11,1096.85c1.21.41,3.41.88,5.35,1.86,5.35,2.7,6.1,9.9,1.51,13.96-1.22,1.08-2.6,2.1-4.09,2.73-5.49,2.34-10.94,2.22-15.51-1.89-2.56-2.3-3.56-5.58-1.88-9.06,2.31-4.81,7.74-7.82,14.62-7.59Z"/>
  <path class="cls-1" d="M288.67,333.79c-.29,6.84-5.58,11.48-12.23,10.73-5.79-.65-9.84-5.65-9.53-11.75.33-6.52,6.16-11.67,12.35-10.91,5.67.69,9.67,5.77,9.41,11.94Z"/>
  <path class="cls-1" d="M1201.68,362.02c-1.6,3.57-3.22,8.82-6.14,13.2-3.09,4.63-10.08,3.12-11.68-2.14-2.37-7.81-1.72-15.36,3.8-21.65,1.56-1.77,4.89-3.25,7.05-2.87,2.08.37,4.12,3.09,5.38,5.24,1.03,1.77.89,4.23,1.58,8.22Z"/>
  <path class="cls-1" d="M1212.53,637.65c1.01,1.32,3.08,2.81,3.36,4.59,1.54,9.68-5.6,22.3-13.61,24.22-1.16.28-3.53-.87-4.03-1.96-3.59-7.89,1.44-20.46,10.17-25.86.89-.55,2.12-.53,4.11-.99Z"/>
  <path class="cls-1" d="M743.45,1148.71c1.47.72,3.76,1.1,4.21,2.22.74,1.83,1.05,4.53.2,6.18-4.08,7.95-10.9,12.51-19.66,13.96-1.39.23-3.74-.5-4.36-1.54-1.01-1.69-1.9-4.44-1.2-6.01,3.93-8.86,11.09-13.56,20.81-14.8Z"/>
  <path class="cls-1" d="M1088.65,885.45c-.58-1.25-2.36-3.23-2.09-4.86,1.65-9.87,6.83-17.42,15.95-21.99.49-.24,1.27-.59,1.58-.38,1.66,1.09,4.44,2.2,4.6,3.56,1.04,9.05-8.27,21.66-17.23,23.96-.49.13-1.07-.09-2.81-.29Z"/>
  <path class="cls-1" d="M948.07,100.49c-.87,2.79-1.38,5.52-2.56,7.92-1.74,3.55-6.09,5.24-9.83,4.3-4.7-1.18-7.69-5.48-7.87-11.31-.18-5.82,2.41-10.28,6.95-11.98,3.59-1.34,8-.01,10.09,3.49,1.37,2.3,2.13,4.96,3.22,7.57Z"/>
  <path class="cls-1" d="M1142.82,216.17c-.58,2.72-.88,4.93-1.54,7.03-1.55,4.93-5.84,8.39-9.64,7.68-4.45-.83-6.29-4.27-7.32-8.2-1.52-5.83.1-11.02,3.64-15.67,2.97-3.91,8.9-3.84,11.33.36,1.62,2.8,2.45,6.05,3.52,8.8Z"/>
  <path class="cls-1" d="M506.5,170.42c-5.72.21-10.55-4.13-11.06-9.93-.55-6.31,4.44-12.33,10.4-12.55,5.41-.2,10.36,4.42,10.94,10.2.66,6.62-3.88,12.04-10.28,12.27Z"/>
  <path class="cls-1" d="M198.92,405.06c5.8-.17,10.69,4.15,11.23,9.92.57,6.18-4.61,12.11-10.76,12.33-5.43.19-10.59-4.48-11.2-10.12-.67-6.24,4.37-11.93,10.74-12.12Z"/>
  <path class="cls-1" d="M1230.25,573.91c-.8,6.98-3.54,13.48-9.55,18.3-3.22,2.58-8.5.57-8.96-3.57-1-8.91,2.02-16.45,8.73-22.28,1.4-1.21,4.33-1.94,5.92-1.3,1.64.66,2.65,3.18,3.62,5.05.46.9.17,2.19.25,3.8Z"/>
  <path class="cls-1" d="M121.28,942.92c-6.49.14-12.17-5.1-11.98-11.05.17-5.6,4.95-9.65,11.36-9.64,6.88.02,12.47,5,12.15,10.82-.29,5.12-5.68,9.74-11.52,9.86Z"/>
  <path class="cls-1" d="M316.62,1165.81c-4.62-.18-7.99-2.38-8.85-5.99-1.02-4.28.82-7.62,4.16-9.94,3.67-2.55,7.82-4.11,12.42-2.92,3.26.85,6.19,2.34,7.21,5.95.99,3.54-.28,6.45-2.84,8.86-3.4,3.21-7.51,4.36-12.11,4.02Z"/>
  <path class="cls-1" d="M1069,165.67c-1.14-.44-2.9-.68-4.06-1.65-6.7-5.63-6.88-15.54-.54-21.74,2.43-2.38,6.45-2.61,8.97-.52,7.11,5.91,6.71,17.53-.85,22.77-.85.59-2.04.68-3.53,1.14Z"/>
  <path class="cls-1" d="M1199.87,280.58c-1.3,3.32-2.36,7.71-4.68,11.27-1.18,1.82-4.62,2.95-7.03,2.94-1.55,0-3.81-2.37-4.52-4.16-2.6-6.57-1.96-13.12,2.27-18.87,1.18-1.61,3.88-3.5,5.38-3.15,2.32.55,4.62,2.6,6.17,4.61,1.26,1.62,1.41,4.11,2.4,7.37Z"/>
  <path class="cls-1" d="M430.9,1206.44c-1.18-.82-3.92-1.9-5.39-3.9-2.37-3.23-.29-6.42,1.92-8.93,3.9-4.44,9.13-6.52,14.9-5.88,2.41.27,5.32,2.02,6.71,4.01,2.14,3.04.68,6.4-1.73,9.03-4.03,4.41-9.16,6.07-16.41,5.67Z"/>
  <path class="cls-1" d="M365.62,248.72c.32,6.14-3.62,11.02-9.48,11.73-5.82.71-10.83-3.45-11.48-9.54-.7-6.67,4-12.56,10.21-12.78,5.55-.2,10.43,4.62,10.74,10.59Z"/>
  <path class="cls-1" d="M1222.81,508.92c.22-6.2,1.52-12.26,6.39-16.56,1.74-1.54,4.97-2.29,7.28-1.93,1.43.23,3.19,3.14,3.46,5.03,1.08,7.61-1.3,14.38-6.84,19.7-1.37,1.32-4.19,2.25-5.9,1.77-1.65-.46-2.88-2.88-3.97-4.64-.53-.85-.3-2.17-.42-3.37Z"/>
  <path class="cls-1" d="M1230,430.47c.08-6.43,1.19-11.94,5.65-15.94,1.47-1.31,4.22-2.41,5.91-1.93,1.72.48,3.6,2.83,4.12,4.71,2.11,7.67-.28,14.45-5.71,19.94-1.21,1.23-4.14,1.34-6.11,1-1.2-.21-2.41-2.11-3.04-3.52-.66-1.48-.65-3.26-.82-4.27Z"/>
  <path class="cls-1" d="M121.95,1003.56c-6.17.25-11.56-4.27-11.41-9.59.13-4.72,4.83-8.89,10.21-9.06,5.99-.19,11.67,4.57,11.53,9.64-.13,4.62-4.91,8.79-10.33,9.01Z"/>
  <path class="cls-1" d="M800.62,1142.08c-.16,1.66.03,2.89-.42,3.8-3.93,7.96-10.23,12.92-19.05,14.45-2.63.46-5.51-2.74-4.82-5.26,2.35-8.53,12.93-16.53,21.05-15.61,1.26.14,2.34,1.85,3.25,2.62Z"/>
  <path class="cls-1" d="M1198.53,713.57c-1.15,9.56-4.42,16.91-11.83,21.84-1.22.81-3.72,1.41-4.52.75-1.47-1.21-2.98-3.44-2.95-5.22.18-8.81,4.15-15.87,11.36-20.91,1.16-.81,3.49-1.28,4.5-.65,1.61,1.01,2.58,3.06,3.44,4.19Z"/>
  <path class="cls-1" d="M119.37,566.29c6.13-.17,10.69,3.83,11.13,9.76.5,6.75-4.2,11.65-11,11.46-6-.17-10.29-4.55-10.34-10.57-.05-6.02,4.24-10.49,10.21-10.65Z"/>
  <path class="cls-1" d="M204.12,1053.41c-.89,1.5-1.76,4.33-3.66,5.93-4.67,3.92-10.12,3.96-15.55,1.41-4.02-1.89-5.72-7.28-3.76-11.4,2.19-4.6,6.41-6.11,10.91-6.27,4.58-.16,8.73,1.51,11.05,5.94.49.94.51,2.12,1.02,4.38Z"/>
  <path class="cls-1" d="M986.04,1018.65c-.43-1.49-1.52-3.16-1.19-4.49,2.28-9.22,8.31-15.33,16.91-18.87,1.18-.49,3.13.27,4.45.97.73.39,1.54,2.15,1.23,2.76-2.18,4.36-4.19,8.92-7.11,12.76-3.5,4.6-5.1,4.9-14.29,6.87Z"/>
  <path class="cls-1" d="M930.2,1066.83c-2.09,10.65-9.33,16.65-19.27,19.84-.97.31-4.24-2.44-4.15-3.59.79-9.98,11.32-18.36,21.67-17.67.44.03.85.67,1.75,1.43Z"/>
  <path class="cls-1" d="M1082.39,924.04c-2.91,10.72-7.95,18.21-17.43,22.19-1.95.82-5.07-1.37-4.74-3.34,1.69-10.1,7.32-17.26,16.72-21.14,1.2-.5,3.37,1.36,5.45,2.29Z"/>
  <path class="cls-1" d="M371.49,1209.86c-1-.31-3.3-.58-5.05-1.7-2.44-1.55-3.79-4.08-2.43-7.05,3.05-6.68,10.83-9.81,18.02-7.41,3.54,1.18,5.34,6.43,3.24,9.61-2.97,4.51-7.34,6.4-13.78,6.54Z"/>
  <path class="cls-1" d="M439.28,165.15c-.26,5.09-4.58,9.5-9.45,9.66-5.49.18-10.22-5-9.89-10.84.29-5.04,4.64-9.51,9.44-9.7,5.35-.22,10.19,5.11,9.89,10.88Z"/>
  <path class="cls-1" d="M129.81,497.6c-.04,5.15-4.17,9.36-9.41,9.59-5.94.26-10.55-4.37-10.31-10.35.21-5.26,4.28-9.53,9.34-9.79,5.5-.28,10.43,4.73,10.38,10.55Z"/>
  <path class="cls-1" d="M1132.37,137.5c-.01,5.66-3.86,11.16-7.83,11.19-3.93.03-7.81-5.49-7.83-11.17-.03-5.67,3.77-11.05,7.84-11.1,4.02-.06,7.83,5.35,7.82,11.08Z"/>
  <path class="cls-1" d="M591.46,1232.53c-3.34-.09-5.58-4.35-3.89-7.37.27-.48.39-1.05.72-1.48,5.28-7.01,13.94-10.53,19.99-7.81,1.13.51,2.39,2.68,2.21,3.87-1.09,6.92-10.43,13.03-19.03,12.79Z"/>
  <path class="cls-1" d="M1192.75,201.09c-.24,5.76-3.66,11.08-7.43,11.56-4.23.54-8.12-6.19-7.33-12.69.61-5.02,3.94-9.49,7.31-9.83,3.94-.4,7.7,5.13,7.45,10.97Z"/>
  <path class="cls-1" d="M534.29,1239.57c-1.06-.9-3.02-1.94-3.99-3.58-.66-1.11-.44-3.35.28-4.56,4.03-6.77,10.13-9.56,17.95-8.55,3.52.45,5.19,4.38,3.26,7.46-3.82,6.11-9.51,8.69-17.5,9.22Z"/>
  <path class="cls-1" d="M1159.82,803.29c-.61-.93-2.29-2.31-2.16-3.5,1-9.18,4.63-16.86,13.49-21.07,1.74-.82,4.88.98,5.06,2.81.81,8.23-6.71,19.97-14.25,22.18-.45.13-1.03-.19-2.15-.42Z"/>
  <path class="cls-1" d="M665.65,1209.02c0,1.68.36,2.93-.06,3.81-3.66,7.76-13.28,12.91-20.33,10.66-1.1-.35-2.5-2.7-2.26-3.81,1.47-7,10.94-13.36,19.16-12.9,1.32.07,2.56,1.62,3.49,2.25Z"/>
  <path class="cls-1" d="M488.39,1229.31c.91.58,3.52,1.34,4.22,2.94.73,1.66.31,4.64-.81,6.15-3.55,4.77-8.78,6.93-14.64,6.4-1.79-.16-3.84-2.12-4.93-3.79-.64-.98-.09-3.36.73-4.55,3.67-5.33,7.28-6.99,15.43-7.14Z"/>
  <path class="cls-1" d="M1247.9,342.89c-.23,6.05-1.07,11.56-6.66,14.6-1.16.63-3.71.42-4.61-.44-4.62-4.46-3.49-10.12-2.25-15.51.47-2.05,1.68-4.24,3.21-5.64,1.43-1.31,4-2.59,5.6-2.16,1.67.45,3.1,2.8,4.04,4.63.71,1.38.5,3.23.66,4.53Z"/>
  <path class="cls-1" d="M827.16,1146.35c2.52-9.91,8.97-15.53,19.01-17.37,1.97-.36,4.43,2.49,3.7,4.29-3.56,8.8-9.78,14.28-19.48,15.1-.84.07-1.77-1.07-3.23-2.02Z"/>
  <path class="cls-1" d="M265.45,1157.87c-1.42,2.24-2.18,4.63-3.81,5.75-2.19,1.5-4.98,2.52-7.63,2.87-5.47.71-9.62-2.29-9.94-6.57-.32-4.29,2.85-8.44,8.06-9.06,3.08-.37,6.57.43,9.47,1.66,1.64.69,2.47,3.31,3.86,5.36Z"/>
  <path class="cls-1" d="M199.17,325.24c4.93.03,8.87,4.6,8.59,9.94-.28,5.45-4.56,9.34-9.65,8.79-4.4-.47-7.65-4.23-7.81-9.02-.17-5.23,3.96-9.75,8.87-9.72Z"/>
  <path class="cls-1" d="M120.24,425c-4.42.05-8.53-3.81-8.88-8.34-.39-5.01,4.5-9.89,9.45-9.43,4.3.4,8.19,4.86,8.03,9.2-.17,4.49-4.21,8.52-8.6,8.57Z"/>
  <path class="cls-1" d="M200.74,1108.33c-.6,1.14-1.15,3.6-2.67,4.71-2.09,1.53-4.86,2.59-7.45,2.9-5.3.62-9.33-2.24-10.02-6.41-.71-4.25,2.41-8.28,7.3-9.45,5.45-1.3,10.67,1.07,12.31,5.61.19.51.22,1.08.53,2.64Z"/>
  <path class="cls-1" d="M1149.67,845.05c3.56,4.49.7,8.54-1.42,12.12-3.02,5.08-6.31,10.39-13.22,10.79-3.58-4.93-1.07-8.84,1.12-12.63,3.73-6.46,4.96-7.28,13.52-10.28Z"/>
  <path class="cls-1" d="M308.28,1212.21c-1.35-1.24-4.51-2.92-5.49-5.45-.65-1.69,1.77-4.59,2.91-6.91.21-.43.83-.7,1.3-.97,5.17-2.95,10.64-2.94,13.52.64,1.15,1.43,1.67,4.21,1.14,5.97-1.34,4.53-6.13,6.97-13.38,6.72Z"/>
  <path class="cls-1" d="M718.55,1200.46c0,1.1.15,1.69-.02,2.17-2.43,6.78-10.26,12.21-18,12.53-2.08.09-4.36-2.81-3.53-4.6,3.56-7.73,9.68-11.94,18.1-12.5,1.17-.08,2.46,1.66,3.46,2.4Z"/>
  <path class="cls-1" d="M361.2,168.51c-.02,4.52-3.98,8.36-8.67,8.4-4.85.05-8.42-3.67-8.29-8.63.12-4.86,3.91-8.62,8.54-8.5,4.51.12,8.44,4.19,8.42,8.72Z"/>
  <path class="cls-1" d="M285.49,251.48c.23,5.49-3.66,9.61-8.93,9.45-4.65-.14-8.17-3.64-8.38-8.34-.24-5.38,3.71-9.57,8.97-9.5,4.53.06,8.15,3.7,8.34,8.39Z"/>
  <path class="cls-1" d="M417.75,1249.36c-.86-.81-3.19-2.01-3.67-3.72-.48-1.72.35-4.36,1.53-5.88,2.87-3.7,7.16-5.31,11.73-5.01,1.87.12,4.39,1.6,5.21,3.19.8,1.55.52,4.55-.54,6-3.14,4.28-7.78,5.97-14.27,5.42Z"/>
  <path class="cls-1" d="M1244.69,647.79c-3.19-10.13-.52-16.85,5.41-22.52.97-.93,3.21-1.39,4.44-.93,1.13.42,2.42,2.37,2.4,3.64-.09,8.09-2.9,14.77-12.25,19.82Z"/>
  <path class="cls-1" d="M121.68,1044.84c5.53-.02,10.26,4.13,9.93,8.7-.29,4.05-4.56,7.48-9.37,7.53-5.51.06-10.14-4.05-9.86-8.75.25-4.15,4.37-7.47,9.3-7.49Z"/>
  <path class="cls-1" d="M1225.48,718.24c-2.88-10.54,1.23-16.77,7.01-22.23.87-.82,3.09-.61,4.54-.26.68.16,1.49,1.8,1.44,2.72-.45,8.14-3.71,14.6-13,19.78Z"/>
  <path class="cls-1" d="M1121.07,909.09c.12,10.41-.63,11.58-12.58,19.69-3.62-1.3-2.86-4.29-1.93-6.59,3.11-7.64,5.96-10.01,14.5-13.1Z"/>
  <path class="cls-1" d="M1033.92,1003.92c-1.27-1.96-1.83-2.43-1.81-2.86.52-9.36,6.7-14.42,14.22-18.34.68-.35,2.19.18,2.89.79.71.63,1.44,2.04,1.2,2.8-2.64,8.22-7.74,14.19-16.49,17.61Z"/>
  <path class="cls-1" d="M954.55,1072.95c1.51-11.52,7.82-16.43,15.5-20.15.76-.36,2.61,0,2.92.58.71,1.32,1.51,3.32.99,4.47-3.36,7.44-8.6,12.84-19.41,15.11Z"/>
  <path class="cls-1" d="M896.36,1120.61c-3.45,8.48-8.55,14.62-19.71,14.85.06-8.22,5.33-11.56,10.15-15.03,2.77-2,5.95-3.32,9.57.18Z"/>
  <path class="cls-1" d="M1245.88,264.47c-.89,7.39-5.03,12.22-8.7,10.75-3.24-1.3-4.8-5.65-4.03-11.69.21-1.63.65-3.28,1.26-4.81,1.09-2.73,2.91-4.86,6.17-4.43,3.29.44,4.21,3.27,4.9,5.95.41,1.58.32,3.28.4,4.23Z"/>
  <path class="cls-1" d="M751.53,1205.53c-.96-1.63-2.54-3.06-2.34-4.16,1.33-7.1,10.11-13.28,17.09-12.02.89.16,2.31,2.87,1.93,3.72-3.12,7.1-9.17,10.43-16.69,12.46Z"/>
  <path class="cls-1" d="M1215.95,763.12c.63,10.43-3.66,16.53-10.22,21.42-4.06-.63-5-3.14-3.71-5.9,2.04-4.37,4.5-8.59,7.3-12.51.97-1.36,3.46-1.64,6.63-3Z"/>
  <path class="cls-1" d="M1182.28,123.32c-.46.93-1.25,2.99-2.42,4.8-1.33,2.08-5.98,1.96-7.18-.22-1.03-1.88-2.01-3.98-2.24-6.06-.54-4.81,1.77-8.63,5.07-9.21,3.69-.65,7.11,4.08,6.77,10.69Z"/>
  <path class="cls-1" d="M1007.38,87.47c-1.58,8.48-3.46,11.22-7.53,11.3-4.19.08-6.14-2.56-7.87-11.12,5.11-2.83,10.19-2.6,15.4-.18Z"/>
  <path class="cls-1" d="M197.22,1159.44c-.5,1.49-.59,2.72-1.22,3.5-3.12,3.83-9.03,4.43-13.34,1.5-2.6-1.77-2.88-6.39-.53-8.73,3.74-3.73,9.53-3.94,13.27-.2,1.04,1.04,1.34,2.83,1.83,3.94Z"/>
  <path class="cls-1" d="M205.8,252.74c.38,4.05-2.86,7.74-6.87,7.82-3.33.07-6.6-2.5-7.29-5.71-.84-3.93,1.93-7.9,6-8.6,3.97-.69,7.76,2.34,8.15,6.49Z"/>
  <path class="cls-1" d="M122.6,1114.83c-4.45-.15-7.92-2.94-8.23-6.62-.29-3.49,3.4-6.55,7.97-6.6,4.58-.06,8.01,2.69,8.1,6.48.09,3.8-3.5,6.89-7.83,6.75Z"/>
  <path class="cls-1" d="M361.03,1252.94c-1.29-1.08-3.94-2.33-4.95-4.38-1.37-2.79.76-5.27,3.14-6.8,4.38-2.8,9.35-2.91,12.18-.09.93.92,1.37,3.1,1.01,4.41-1.4,5-5.53,6.31-11.38,6.86Z"/>
  <path class="cls-1" d="M247.22,1213.51c-1.8-1.56-4.31-2.88-5.48-4.96-1.46-2.6,1.02-6.34,4.66-7.43,2.01-.6,4.34-.87,6.38-.48,2.86.54,5.2,2.56,4.73,5.7-.28,1.9-1.7,4.08-3.28,5.2-1.65,1.17-4.1,1.23-7.01,1.98Z"/>
  <path class="cls-1" d="M1233.64,175.17c1.1.66,2.91,1.12,3.63,2.26,3.36,5.38,2.72,10.87-1.77,14.55-.87.72-3.48.64-4.31-.13-4.23-3.89-4.35-9.23-.59-14.67.55-.8,1.72-1.16,3.04-2.01Z"/>
  <path class="cls-1" d="M816.34,1180.24q-8.27,11.88-18.23,12.37c3.91-10.8,5.81-12.2,18.23-12.37Z"/>
  <path class="cls-1" d="M276.87,177.79c-5.45-.12-8.67-3.76-8.03-7.58.6-3.58,2.82-5.76,6.46-6.06,3.71-.3,7.3,3.61,6.19,7.55-.72,2.55-3.4,4.56-4.62,6.09Z"/>
  <path class="cls-1" d="M302.24,1255.67c-1.85-1.73-4.37-3.16-5.22-5.26-.48-1.19,1.39-4,2.9-5.14,1.57-1.19,3.97-1.55,6.05-1.72,2.99-.24,5.61,1.26,5.77,4.3.09,1.72-1.41,4-2.87,5.21-1.54,1.28-3.88,1.59-6.64,2.61Z"/>
  <path class="cls-1" d="M118.67,328.09c5.11-.04,7.82,2.53,8.06,6.13.24,3.55-2.18,6.58-5.57,7.01-4.09.51-8.14-2.95-7.09-6.91.7-2.62,3.41-4.69,4.6-6.23Z"/>
  <path class="cls-1" d="M1188.94,829.71c1.17,10.05-3.26,15.28-11.4,19.9-1.58-10.16,3.34-15.12,11.4-19.9Z"/>
  <path class="cls-1" d="M921.64,1121.22c3.73-8.09,8.44-12.29,15.03-14.88,2.06,8.69-2.07,13-15.03,14.88Z"/>
  <path class="cls-1" d="M1075.19,988.85c1.56-11.5,5.65-16.43,14.74-19.38-.62,9.49-5.73,13.62-14.74,19.38Z"/>
  <path class="cls-1" d="M670.42,1255.49c4.51-10.97,6.64-12.21,17.13-10.26-3.59,7.11-8.48,11.09-17.13,10.26Z"/>
  <path class="cls-1" d="M998.97,1058.51c3.02-10.41,7.32-15.48,15.57-17.66q-1.23,9.94-15.57,17.66Z"/>
  <path class="cls-1" d="M620.44,1261.29c1.8-7.26,7.11-9.14,13.26-9.74.86-.08,2.16.77,2.65,1.57.46.76.53,2.26.08,3-3.62,5.89-8.66,7.9-15.98,5.17Z"/>
  <path class="cls-1" d="M734.37,1234.44c-3.98,8.38-3.91,8.49-13.08,11.26-2.44-1.78-1.68-3.9-.13-5.54,3.06-3.26,6.57-5.93,13.22-5.72Z"/>
  <path class="cls-1" d="M193.48,1205.87c-.5,2.26-.41,3.54-1.01,4.27-2.43,3.03-7.07,3.59-10.15,1.02-.99-.83-1.68-2.88-1.44-4.18.58-3.2,3.35-4.39,6.15-3.93,2.33.37,4.47,1.91,6.44,2.82Z"/>
  <path class="cls-1" d="M844.45,1180.22q5.99-10.21,14.76-10.09-6.38,10.37-14.76,10.09Z"/>
  <path class="cls-1" d="M242.71,1255.97c-1-1.11-3.76-2.78-3.91-4.67-.24-2.88,2.57-4.46,5.53-4.57,2.75-.1,5.56.18,6.15,3.63.51,2.95-2.52,5.46-7.77,5.62Z"/>
  <path class="cls-1" d="M1228.4,105.54c-.4.91-.84,2.5-1.75,3.76-.5.7-1.82,1.23-2.69,1.13-.91-.11-2.09-.87-2.5-1.68-.71-1.39-1.32-3.05-1.26-4.57.1-2.6.08-5.66,3.55-6.39,2.59-.54,4.82,2.97,4.64,7.74Z"/>
  <path class="cls-1" d="M1243.12,764.53c.83-10.4.94-10.34,8.92-14.79-.49,6.86-2.29,11.66-8.92,14.79Z"/>
  <path class="cls-1" d="M965.68,1105.94c2.55-5.14,5.61-9.21,11.85-10.5-2.63,9.89-3.55,10.7-11.85,10.5Z"/>
  <path class="cls-1" d="M1159.36,895.06c.42,8.06-4,12.06-9.84,16.01-1.16-8.99-1-9.24,9.84-16.01Z"/>
  <path class="cls-1" d="M353.87,86.59c1.89,4.89-.62,7.08-4.22,7.25-3.93.18-5.99-2.33-4.87-7.25h9.09Z"/>
  <path class="cls-1" d="M780.57,1224.19c-4.29,7.83-7.89,11-15.05,11.47,1.61-7.41,6.12-9.38,15.05-11.47Z"/>
  <path class="cls-1" d="M123.19,1153.7c2.48,2.13,5.04,3.36,5.99,5.36,1.34,2.82-1.93,5.85-5.72,5.87-3.64.01-7.15-2.96-6.03-5.72.82-2.01,3.36-3.32,5.76-5.51Z"/>
  <path class="cls-1" d="M121.76,246.68c1.66,3.54,3.4,5.73,3.41,7.92,0,1.14-2.95,2.93-4.78,3.27-2.58.48-4.98-3.11-3.82-5.77.74-1.68,2.65-2.85,5.2-5.42Z"/>
  <path class="cls-1" d="M1042.7,1038.89c1.3-5.15,4.51-8.41,9.42-10.43.71,8.15-1.4,10.42-9.42,10.43Z"/>
  <path class="cls-1" d="M272.74,96.48c-1.58-3.05-3.42-4.99-3.09-6.42.34-1.46,2.82-2.42,4.36-3.6,1.17,1.53,3.26,3.08,3.23,4.59-.02,1.45-2.24,2.86-4.5,5.43Z"/>
  <path class="cls-1" d="M131.29,1206.5c-3.05,2.75-4.29,4.63-6,5.25-2.7.98-6.5-1.66-6.02-3.98.28-1.38,1.89-3.52,2.9-3.52,2.37,0,4.74,1.07,9.12,2.25Z"/>
  <path class="cls-1" d="M887.45,1168.71c3.09-6.59,6.04-9.91,11.64-10.35q-2.1,6.48-11.64,10.35Z"/>
  <path class="cls-1" d="M1223.42,816.15c2.09,6.94-1.8,9.35-4.75,13.12q-1.68-6.03,4.75-13.12Z"/>
  <path class="cls-1" d="M204.95,172.78c-3.3,1.9-5.16,3.83-6.72,3.61-1.56-.21-3.87-2.53-3.93-4-.06-1.54,2.56-4.68,3.31-4.49,2.16.57,3.96,2.48,7.34,4.87Z"/>
  <path class="cls-1" d="M1126.06,960.06c-2.33,2.87-4.66,5.75-7.5,9.26q-.84-6.62,7.5-9.26Z"/>
  <path class="cls-1" d="M419.13,86.8c3.83-.29,6.34-.64,8.84-.58.67.02,1.86,1.29,1.83,1.94-.04.96-.74,2.35-1.55,2.73-3.56,1.67-6.2.5-9.12-4.09Z"/>
  <path class="cls-1" d="M1005.3,1088.98c2.26-2.18,4.52-4.36,7.97-7.68q.32,6.91-5.59,10.32c-.79-.88-1.59-1.76-2.38-2.64Z"/>
  <path class="cls-1" d="M185.37,1257.54c-2.22-2.47-3.84-3.71-4.52-5.34-.23-.56,1.95-3.06,2.91-2.99,1.8.13,3.51,1.49,5.25,2.33-.96,1.59-1.93,3.18-3.64,6Z"/>
  <path class="cls-1" d="M1187.02,891c-.97-4.77,1.16-7.21,5.27-8.95,1.84,4.74-.7,6.98-5.27,8.95Z"/>
  <path class="cls-1" d="M939.28,1148.34c-3.12,2.88-5.3,4.9-8.83,8.15q2.25-7.36,8.83-8.15Z"/>
  <path class="cls-1" d="M1081.8,1021.29c1.72-1.82,3.43-3.64,5.33-5.64,2.96,5.36-2.28,5.31-5.33,5.64Z"/>
  <path class="cls-1" d="M809.92,1226.35c2.12-8.41,4.42-10.43,10.52-8.84-3.17,2.66-5.37,4.51-10.52,8.84Z"/>
  <path class="cls-1" d="M1155.83,949.68c-.9-1.03-1.58-1.63-1.51-1.75.81-1.25,1.73-2.42,2.63-3.62.55.55,1.67,1.42,1.57,1.6-.75,1.32-1.74,2.5-2.69,3.77Z"/>
  <path class="cls-1" d="M196.99,94.02c-.56-.77-1.13-1.54-1.69-2.31,1.13-.56,2.26-1.12,3.39-1.68.3.9,1.08,2.02.79,2.65-.32.69-1.62.92-2.49,1.35Z"/>
  <path class="cls-1" d="M124.49,1255.01c-.8-1.25-1.59-2.48-2.39-3.72.96-.46,2.24-1.55,2.81-1.26,1.11.57,1.81,1.91,2.69,2.93-.88.58-1.76,1.16-3.11,2.05Z"/>
  <path class="cls-1" d="M970.31,1139.54c-.41-.04-.81-.07-1.22-.11.32-.85.59-1.72,1.01-2.51.07-.13.84.12,1.29.19-.36.81-.72,1.62-1.08,2.42Z"/>
  <path class="cls-1" d="M580.18,1260.17c.36.61.73,1.23,1.09,1.84-.47.16-1.01.56-1.39.44-.84-.26-1.6-.78-2.39-1.19.9-.36,1.79-.73,2.69-1.09Z"/>
  <path class="cls-1" d="M856.51,1206.2c.63.48,1.25.97,1.88,1.45-.82.51-1.61,1.12-2.49,1.47-.27.11-.83-.5-1.25-.77.62-.72,1.24-1.43,1.87-2.15Z"/>
  <path class="cls-1" d="M123.25,173.19c-.78.53-1.56,1.06-2.35,1.58-.53-1.23-1.07-2.47-1.6-3.7.99-.24,2.21-.95,2.89-.6.65.33.73,1.77,1.06,2.72Z"/>
  <polygon class="cls-1" points="1222.31 869.2 1222.62 870.61 1221.55 870.4 1222.31 869.2"/>
  <path class="cls-1" d="M1255.64,802.12c.21.39.59.8.57,1.18-.03.36-.48.69-.74,1.04-.21-.38-.61-.77-.57-1.12.04-.38.48-.73.75-1.09Z"/>
</svg>