<?xml version="1.0" encoding="UTF-8"?>
<svg id="Camada_1" data-name="Camada 1" xmlns="http://www.w3.org/2000/svg" viewBox="0 0 1364.31 1348.09">
  <defs>
    <style>
      .cls-1 {
        fill: #229fbc;
        stroke-width: 0px;
      }
    </style>
  </defs>
  <path class="cls-1" d="M1152.43,1263.68c8.56-12.77,20.88-19.78,35.72-22.07,5.87-.9,12.11-.23,18.06.59,4.41.61,8.21,3.15,10.61,7.32,2.78,4.83,2.5,9.5-.32,14.15h-64.08Z"/>
  <path class="cls-1" d="M1031.02,1263.68c12.27-8.33,25.75-10.07,40.01-7.23,4.49.89,8.62,2.53,10.57,7.23h-50.59Z"/>
  <path class="cls-1" d="M90.13,869.11c2.4,1.12,2.12,2.25,0,3.37v-3.37Z"/>
  <path class="cls-1" d="M1135.25,886.75c-9.04-.23-16.68-.27-20.61-8.04-3.98-7.87.44-14.27,5.25-19.75,11.97-13.62,27.42-21,45.32-22.99,7.49-.83,14.94.24,19.03,7.68,4.14,7.53.56,14.29-4.02,20.12-11.81,15.03-27.86,21.84-44.97,22.98Z"/>
  <path class="cls-1" d="M1144.76,809.1c-2.88-.29-5.13-.35-7.31-.77-9.86-1.92-13.93-9.6-9.75-18.71,1.38-3.01,3.11-6.03,5.3-8.48,11.97-13.33,26.67-21.96,44.6-24.32,3.77-.5,7.84-.21,11.56.65,7.13,1.66,11,8.44,8.74,15.46-1.34,4.18-3.26,8.47-5.97,11.86-12.2,15.25-28.52,22.74-47.18,24.3Z"/>
  <path class="cls-1" d="M1117.82,966.91c-2.71-.57-6.67-.94-10.29-2.26-8.72-3.19-11.95-10.74-7.47-18.93,2.62-4.79,6.47-9.21,10.64-12.77,10.52-8.98,23.12-13.73,36.77-15.22,4.32-.47,8.99.22,13.2,1.41,7.38,2.09,10.62,8.15,9.2,15.63-1.2,6.37-4.87,11.31-9.51,15.5-11.71,10.6-25.73,15.54-42.55,16.63Z"/>
  <path class="cls-1" d="M1193.76,679.42c1.97.26,4.22.37,6.39.88,5.62,1.32,9.98,7.1,8.29,12.66-1.76,5.76-4.26,11.72-7.96,16.39-10.5,13.27-24.82,20.81-41.27,24.01-4.25.83-8.98.35-13.27-.57-6.01-1.29-9.17-6.77-7.8-12.88.72-3.21,1.85-6.6,3.72-9.25,11.15-15.71,26.36-25.63,44.95-30.39,2.15-.55,4.44-.56,6.95-.85Z"/>
  <path class="cls-1" d="M1132.01,1000.2c2.75.41,6.73.51,10.39,1.64,9.12,2.81,12.77,11.31,8.51,19.94-1.69,3.42-4.08,6.75-6.88,9.34-12.87,11.96-28.2,17.52-45.81,16.51-.56-.03-1.12-.07-1.66-.17-6.78-1.24-13.29-3.11-15.68-10.58-2.12-6.64.98-12.13,5.33-16.67,12.13-12.65,27.2-19,45.8-20.01Z"/>
  <path class="cls-1" d="M1160.68,662.22c-1.04-.12-2.73-.17-4.37-.5-7.73-1.57-11.41-7.65-8.56-14.98,1.6-4.11,3.77-8.19,6.49-11.64,9.91-12.57,22.55-21.7,37.46-27.44,4.09-1.58,8.68-2.37,13.08-2.53,8.69-.31,13.18,5.48,11.65,14.28-.29,1.64-.72,3.28-1.3,4.85-6.89,18.4-34.41,37.79-54.45,37.97Z"/>
  <path class="cls-1" d="M1273.63,991.39c1.22,7.31-2.07,13.46-7.92,18.57-10.96,9.58-23.46,15.17-38.27,14.35-3.29-.18-6.72-.8-9.77-2.01-6.86-2.74-10.21-9.02-8.24-16.34,1.13-4.19,3.1-8.56,5.9-11.81,10.31-11.97,23.69-18.57,39.41-19.92,3.78-.33,7.82.44,11.51,1.51,4.68,1.35,7.52,4.68,7.38,9.94-.04,1.68,0,3.36,0,5.73Z"/>
  <path class="cls-1" d="M1213.16,1111.36c-2.65-.57-6.58-1-10.22-2.26-9.91-3.43-13.48-11.9-8.88-21.41,1.67-3.44,4.18-6.68,6.94-9.35,10.02-9.72,22.31-14.89,36.11-15.88,8.64-.62,17.32.91,21.5,9.77,4.26,9.02-.75,16.35-6.62,22.63-10.08,10.8-23.26,14.98-38.83,16.51Z"/>
  <path class="cls-1" d="M1080.39,1129.98c-2.14-.47-7.23-.97-11.85-2.73-6.97-2.65-9.87-9.56-7.08-16.55,1.41-3.52,3.59-7.11,6.36-9.65,13.95-12.78,30.47-18.33,49.38-16.28,1.66.18,3.33.54,4.9,1.08,9.1,3.15,13.12,11.86,8.23,20.08-3.05,5.12-7.49,9.84-12.29,13.4-10.18,7.56-22.15,10.44-37.64,10.64Z"/>
  <path class="cls-1" d="M1167.04,592.83c-9.31.1-13.62-5.2-11.16-14.05.74-2.67,1.85-5.36,3.36-7.67,11.07-16.98,25.94-29.36,45.06-36.36,5.41-1.98,11.12-3.31,15.73,1.56,4.55,4.8,3.05,10.36,1,15.79-7.54,20.03-34.68,40.51-54,40.73Z"/>
  <path class="cls-1" d="M1062.09,1214.63c-5.83-1.65-12-2.58-17.39-5.14-6.89-3.26-8.69-10.43-4.92-17.12,1.89-3.34,4.37-6.66,7.35-9.03,13.25-10.58,28.42-15.44,45.42-13.77,2.73.27,5.5,1.14,8.01,2.26,8.14,3.64,11.25,11.93,6.51,19.44-2.9,4.6-7.05,8.79-11.49,11.97-9.8,7.02-21.02,10.37-33.49,11.39Z"/>
  <path class="cls-1" d="M1226.32,477.73c-.73,2.02-1.75,6.48-3.85,10.36-9.45,17.44-23.52,29.9-42,37.13-3.57,1.4-7.61,2.07-11.45,2.17-5.37.14-9.81-5.19-8.41-10.26,1.33-4.8,3.2-9.67,5.88-13.85,9.25-14.43,21.57-25.86,36.42-34.36,3.81-2.18,8.23-3.71,12.56-4.52,7.17-1.34,11.67,3.44,10.86,13.33Z"/>
  <path class="cls-1" d="M1198.63,1198.27c-4.91-.58-7.14-.75-9.33-1.12-16.5-2.82-21.64-15.32-10.66-27.6,12.78-14.29,29.31-20.12,48.33-17.01,12.45,2.04,16.94,13.05,10.51,24.09-4.08,6.99-10.01,12.25-17.36,15.16-7.68,3.04-15.86,4.83-21.47,6.48Z"/>
  <path class="cls-1" d="M1173.89,464.59c-5.83.15-9.59-3.5-8.99-8.37.4-3.29.98-6.78,2.47-9.67,9.93-19.35,24.16-34.82,42.97-45.84,4.29-2.51,9.24-5.29,14.11-1.76,5.6,4.06,4.16,10.02,2.35,15.34-7.44,21.79-22.58,36.83-42.56,47.41-1.95,1.03-4.11,1.74-6.25,2.33-1.59.44-3.31.46-4.1.55Z"/>
  <path class="cls-1" d="M1272.27,113.31c5.43,28.52-.91,53.36-16.88,75.82-3.5,4.92-8.16,9.2-12.92,12.98-4.7,3.73-9.92.85-10.68-5.39-.27-2.21-.44-4.51-.11-6.69,3.89-25.33,12.84-48.72,27.37-69.86,2.78-4.05,6.03-8.23,13.23-6.86Z"/>
  <path class="cls-1" d="M1226.69,345.48c-.37,1.66-.72,5.06-1.87,8.15-7.48,20.02-20.26,35.88-38.4,47.18-5.08,3.16-11.4,7.46-16.97,3-6.73-5.38-2.11-12.5.68-18.21,8.41-17.3,20.26-32.04,35.11-44.3,2.56-2.11,5.47-3.89,8.43-5.41,7.95-4.06,13.43-.66,13.03,9.59Z"/>
  <path class="cls-1" d="M1223.43,284.65c-.78,2.9-1.68,7.89-3.46,12.55-6.74,17.7-17.81,32.36-32.27,44.48-2.56,2.14-5.5,3.89-8.44,5.5-3.49,1.91-7.39,3.69-10.9.49-3.37-3.08-2.66-7.43-1.24-11.04,2.65-6.77,5.2-13.78,9.16-19.79,7.4-11.21,15.45-22.03,23.9-32.46,3.43-4.23,8.39-7.4,13.08-10.36,4.4-2.77,9.27.07,9.84,5.15.12,1.11.14,2.24.33,5.48Z"/>
  <path class="cls-1" d="M1273.13,886.5v40.75c-7.27,7.54-16.56,9.62-25.83,11.58-2.68.57-5.6.51-8.35.2-14.39-1.58-20.51-12.77-13.02-25.29,10.17-16.99,25.89-25.29,47.2-27.25Z"/>
  <path class="cls-1" d="M1205.89,160.39c.93,2.51,3.04,5.52,2.89,8.41-.33,6.1-1.24,12.31-2.99,18.16-5.51,18.49-14.56,35.21-27.2,49.8-3.23,3.73-7.44,6.72-11.52,9.59-3.09,2.17-7.23-.07-7.31-3.72-.07-2.77-.21-5.71.57-8.31,7.23-24.39,18.06-47.05,33.5-67.36,2.69-3.53,5.69-7.11,12.07-6.58Z"/>
  <path class="cls-1" d="M1215,216.08c3.56,7.22,2.32,13.96.41,20.31-6.23,20.78-17.39,38.64-33.52,53.21-7.25,6.56-13.37,8.27-16.09,4.98-4.41-5.33-1.08-10.95.76-15.85,7.71-20.56,18.62-39.37,33.3-55.8,3.61-4.04,7.33-8.74,15.13-6.86Z"/>
  <path class="cls-1" d="M1009.37,913.03c-3.33-.27-6.17-.22-8.89-.76-10.91-2.16-14.57-11.55-6.91-19.92,14.47-15.79,32.78-23.02,54.24-20.24,9.33,1.21,12.52,9.48,7.24,17.61-2.39,3.68-5.49,7.14-8.94,9.84-10.89,8.51-23.59,12.41-36.75,13.46Z"/>
  <path class="cls-1" d="M987.83,988.06c-1.73-.31-5.72-.55-9.39-1.76-7.49-2.45-10.01-9.63-5.64-16.12,2.16-3.2,4.89-6.21,7.93-8.57,10.94-8.47,23.61-12.75,37.31-13.69,3.8-.26,7.85.53,11.53,1.66,8.2,2.53,10.92,10.19,5.86,17.26-2.87,4.01-6.6,7.7-10.65,10.53-10.35,7.26-22.07,10.77-36.96,10.68Z"/>
  <path class="cls-1" d="M1077.24,726.12c2.56.46,4.8.68,6.93,1.29,4.43,1.26,7.51,6.33,5.64,10.49-2.02,4.49-4.48,9.13-7.89,12.57-11.83,11.98-26.77,17.76-43.24,19.92-1.1.14-2.24.12-3.34.02-5.13-.47-10.19-1.38-12.49-6.77-2.06-4.83.66-8.9,3.56-12.16,13.6-15.27,30.81-23.46,50.84-25.36Z"/>
  <path class="cls-1" d="M1194.68,108.6c4.02,6.27,3.11,12.48,2.25,18.48-3.57,24.91-13.93,46.93-29.23,66.71-3.69,4.77-3.94,4.58-12.33,6.95-3.85-2.88-2.98-7.09-2.15-10.66,6.07-26.3,15.9-51.13,30.17-74.09,2.24-3.61,4.58-7.88,11.29-7.4Z"/>
  <path class="cls-1" d="M1058.03,797.37c6.71.18,12.75.08,15.61,6.07,2.8,5.86-.21,11.08-4.05,15.22-14.15,15.26-31.76,22.32-52.54,20.27-9.6-.95-12.82-8.93-7.36-17.08,1.53-2.29,3.4-4.47,5.47-6.28,12.6-10.96,27.17-17.26,42.87-18.21Z"/>
  <path class="cls-1" d="M973.88,1106.04c2.79.73,7.23,1.43,11.3,3.07,6.31,2.53,8.33,9.3,5.1,15.33-8.51,15.92-42.5,25.56-58.23,16.52-5.27-3.02-7.12-9.24-3.7-14.35,2.13-3.18,4.85-6.19,7.9-8.48,10.6-7.95,22.94-11.05,37.62-12.09Z"/>
  <path class="cls-1" d="M1049.2,704.12c-2.25-.26-3.94-.35-5.58-.66-5.51-1.04-8.51-6.21-6.13-11.43,1.59-3.49,3.75-6.96,6.42-9.67,12.1-12.28,26.72-20.18,43.58-23.87,1.09-.24,2.2-.47,3.31-.54,4.63-.28,9.05.17,11.93,4.47,3.06,4.57.91,8.91-1.62,12.48-3.2,4.52-6.88,8.94-11.17,12.4-12.01,9.68-25.61,15.93-40.74,16.83Z"/>
  <path class="cls-1" d="M966.79,1065.36c-1.42-.3-5.92-.74-10.03-2.25-6.45-2.37-8.84-9.21-5.42-15.09,1.65-2.84,3.86-5.58,6.4-7.62,12.72-10.22,27.36-14.92,43.64-13.53,3.7.32,7.56,1.87,10.81,3.79,4.21,2.48,5.69,7.68,3.05,11.69-2.99,4.56-6.51,9.17-10.84,12.37-10.14,7.49-21.9,10.86-37.61,10.65Z"/>
  <path class="cls-1" d="M1062.31,641.12c-3.33-.4-5-.52-6.64-.81-5.05-.89-7.78-5.32-5.75-9.83,1.35-3.02,2.91-6.13,5.09-8.56,12.19-13.63,27.17-22.99,44.77-27.97,4.88-1.38,10.35-2.31,13.97,2.27,3.72,4.7,1.41,9.73-1.58,13.9-12.69,17.68-30.1,27.61-49.86,31Z"/>
  <path class="cls-1" d="M1072.38,581.54c-9.99.28-14.17-5.43-10.68-11.19,12.44-20.52,30.6-33.76,54.02-39.07,7.58-1.72,11.5,4.02,8.77,11.4-.19.52-.31,1.09-.59,1.57-12.24,21.37-31.67,32.17-51.52,37.29Z"/>
  <path class="cls-1" d="M945.63,1188.41c2.37.3,6.33.39,10.06,1.37,8.97,2.36,12.02,10.72,6.7,18.09-1.61,2.23-3.56,4.36-5.77,5.96-13.34,9.7-28.28,12.8-44.3,9.37-11.02-2.36-13.94-11.93-6.09-19.93,10.3-10.5,23.51-14.3,39.4-14.86Z"/>
  <path class="cls-1" d="M1078.33,524.92c-7.11.04-9.84-4.06-7.86-9.08.21-.52.34-1.09.63-1.55,12.51-20.19,29.88-34.53,52.3-42.36,6.45-2.25,10.96,2.9,8.88,9.56-.99,3.16-2.34,6.36-4.22,9.05-10.92,15.59-25.65,26.33-43.33,33.07-2.55.97-5.42,1.13-6.39,1.32Z"/>
  <path class="cls-1" d="M1272.83,803.09c1.41,15.62,1.46,30.45,0,45.42-8.32,5.08-16.74,7.53-25.93,5.85-11.12-2.04-15.96-10.64-12.13-21.21,2.95-8.14,8.63-14.35,15.3-19.56,6.5-5.07,13.14-10.16,22.76-10.5Z"/>
  <path class="cls-1" d="M1273.02,188.34c.24,4.81.63,9.63.68,14.44.11,9.51.14,19.01,0,28.52-.21,13.49-9.99,27.18-22.73,32.11-4.48,1.74-9.2-.97-9.82-5.91-.34-2.74-.55-5.66,0-8.33,4.7-22.75,14.23-43.23,31.87-60.83Z"/>
  <path class="cls-1" d="M1076.82,471.58c1.63-5.94,1.79-10.09,3.74-13.07,11.47-17.53,26.49-31.38,44.93-41.42,1.45-.79,3.08-1.61,4.67-1.72,2.08-.14,5.17-.32,6.09.86,1.48,1.91,1.87,4.89,2.09,7.48.13,1.51-.78,3.23-1.54,4.69-10.43,20.15-26.71,33.88-47.47,42.4-2.8,1.15-6.35.47-12.51.79Z"/>
  <path class="cls-1" d="M1162.81,85.18c4.99-.24,8.3-.57,11.59-.49,2.14.05,4.27.72,7.47,1.31-.98,16.81-6.97,31.65-13.59,46.18-4.8,10.52-9.74,21.21-20.89,29.16-1.51-3.25-3.13-5.41-3.43-7.73-.34-2.68.36-5.53.83-8.27,3.52-20.38,9.65-39.96,18.01-60.16Z"/>
  <path class="cls-1" d="M1232.03,85.99c7.91-2.06,16.01-2.28,24.7.38.83,12.66-4.57,23.18-9.23,33.8-4.06,9.25-8.69,18.31-16.98,24.64-1.6,1.22-4.83,2.34-6.04,1.56-2.03-1.31-3.74-4.03-4.29-6.45-.73-3.2-.39-6.69-.2-10.03.72-12.36,5.67-30.3,12.04-43.9Z"/>
  <path class="cls-1" d="M1141.9,368.63c-.11.46-.27,2.78-1.2,4.74-10.15,21.53-26.09,37.4-47.42,47.86-1.46.72-3.19.96-4.83,1.22-2.63.41-5.74-2.83-4.94-5.35,1.01-3.17,2.01-6.47,3.76-9.24,10.28-16.25,23.3-30.02,38.85-41.33,2.67-1.94,5.82-3.31,8.91-4.55,3.43-1.38,7.06,1.33,6.87,6.65Z"/>
  <path class="cls-1" d="M902.19,902.66c2.23,0,2.79,0,3.35,0,8.64.17,12.95,2.22,13.95,6.76,1.28,5.85-2.2,9.7-6.17,12.9-11.83,9.52-25.59,13.68-40.65,13.49-2.72-.03-5.52-.93-8.12-1.89-5.49-2.03-7.39-7.66-3.99-12.2,1.98-2.65,4.38-5.19,7.09-7.05,10.88-7.44,22.95-11.62,34.55-12.01Z"/>
  <path class="cls-1" d="M852.18,1007.59c-1.91-.47-6.92-1.16-11.47-2.99-4.66-1.87-5.62-7.08-2.7-11.31,1.26-1.83,2.63-3.71,4.33-5.09,11.85-9.56,25.69-13.37,40.67-13.33,2.71,0,5.51,1.01,8.1,2,5.14,1.96,7.29,8.03,3.97,12.44-2.63,3.5-5.93,6.81-9.6,9.17-9.12,5.87-19.28,8.9-33.3,9.1Z"/>
  <path class="cls-1" d="M1088.01,375.71c.47-3.91.02-7.42,1.34-10.04,8.89-17.59,21.4-32.5,35.64-45.95,4.33-4.09,8.63-8.93,16.42-8.12.47,1.89,1.76,4.11,1.33,5.92-1.15,4.81-2.41,9.79-4.75,14.09-8.36,15.37-19.78,28.22-33.89,38.59-3.99,2.93-8,6.14-16.08,5.5Z"/>
  <path class="cls-1" d="M897.08,867.89c-7.44-.73-13.36-.41-16.74-6.02-2.17-3.58.44-8.88,6.93-13.83,11.88-9.06,25.57-13.46,40.31-14.85,1.65-.15,3.38-.04,5,.29,3.9.8,8.34,1.92,8.89,6.34.36,2.88-1.05,6.59-2.88,9.02-5.2,6.88-12.59,11.05-20.66,13.63-7.4,2.36-15.05,3.95-20.85,5.43Z"/>
  <path class="cls-1" d="M914.21,802.51c-4.93-.42-10.34.6-13.57-4.51-2.27-3.6.05-8.78,6.6-13.84,11.71-9.04,25-14.48,39.74-16.03,3.25-.34,6.67.12,9.9.76,3.9.77,6.28,5.8,4.24,9.17-1.98,3.28-4.22,6.68-7.13,9.06-11.54,9.42-24.88,14.55-39.78,15.38Z"/>
  <path class="cls-1" d="M855.9,1049.99c1.9.47,6.87,1.26,11.48,3,3.85,1.45,5.2,6.57,2.96,10.02-1.8,2.76-3.84,5.66-6.46,7.55-11.8,8.51-25.1,12.18-39.59,10.36-3.17-.4-6.29-2.13-9.14-3.76-2.76-1.58-3.93-6.5-1.96-8.95,2.75-3.42,5.77-6.93,9.39-9.31,9.08-5.97,19.38-8.52,33.33-8.89Z"/>
  <path class="cls-1" d="M931.17,741.72c-3.14-.34-5.37-.44-7.55-.84-4.99-.9-6.87-5.82-3.96-10.26.91-1.39,1.83-2.85,3.03-3.95,13.61-12.45,29.77-19.31,47.98-21.48,1.58-.19,3.3.34,4.9.74,4.08.99,6.33,5.44,4.41,9.14-1.26,2.43-2.77,4.91-4.73,6.78-12.57,12.01-27.81,18.08-44.08,19.87Z"/>
  <path class="cls-1" d="M946.6,683.91c-3.13-.2-4.25-.23-5.37-.35-5.16-.58-7.24-5.5-4.13-10,1.27-1.83,2.66-3.66,4.31-5.14,11.55-10.27,24.99-17.11,39.85-21.08,3.19-.85,6.69-.82,10.03-.72,5.14.16,7.69,5.12,5.16,9.73-.8,1.47-1.66,2.99-2.81,4.18-13.42,13.9-29.9,21.41-47.05,23.38Z"/>
  <path class="cls-1" d="M802.7,1157.34c-2.48-.63-7.48-1.41-12.1-3.18-4.56-1.75-5.79-7.31-3-11.26,1.28-1.81,2.66-3.7,4.41-5.01,11.71-8.74,24.99-12.4,39.48-11.07,3.2.29,6.4,1.98,9.31,3.56,2.76,1.49,4.11,6.42,2.21,8.97-2.61,3.51-5.55,7.06-9.09,9.53-8.53,5.94-18.5,7.71-31.22,8.46Z"/>
  <path class="cls-1" d="M1140.46,264.2c.53,2.06,1.64,4.11,1.41,5.99-.4,3.27-1.28,6.58-2.56,9.62-8.19,19.41-20.81,35.55-36.89,49.01-3.95,3.31-4.18,3.15-11.82,2.8,1.56-13.28,7.64-24.53,25.56-47.36,11.07-14.1,13.25-15.94,24.3-20.07Z"/>
  <path class="cls-1" d="M959.79,630.07c-2.66-.57-4.79-.41-5.76-1.39-1.33-1.35-2.8-3.83-2.4-5.35.66-2.53,2.39-5.05,4.31-6.93,13-12.74,28.48-21.24,46.01-25.9,2.54-.67,5.7-.57,8.11.37,1.49.58,2.61,3.31,2.95,5.24.25,1.37-.76,3.27-1.74,4.52-13.37,17.12-31.4,25.89-51.49,29.45Z"/>
  <path class="cls-1" d="M1090.68,296.6c.97-15.29,2.85-20.38,17.5-43.73,7.6-12.11,14.03-25.41,26.67-32.97,4.56,1.58,3.9,4.71,3.62,7.28-.3,2.75-1.15,5.49-2.1,8.1-7.63,20.91-19.74,38.94-35.58,54.47-2.26,2.22-5.3,3.64-10.11,6.86Z"/>
  <path class="cls-1" d="M1027.69,539.4c-4.7,16.3-16.99,23.3-28.96,30.11-9.92,5.65-20.07,12.17-33.48,8.01,2.68-13.59,13.56-19.1,22.81-25.56,18.23-12.73,26.11-15.06,39.63-12.56Z"/>
  <path class="cls-1" d="M774.95,1235.26c-2.74-.67-7.19-1.33-11.33-2.86-5.33-1.98-6.95-8.16-3.24-12.36,2.54-2.87,5.6-5.51,8.91-7.43,9.99-5.78,20.93-7.62,32.37-6.48,2.19.22,4.41.8,6.46,1.62,6.11,2.44,7.86,8.81,3.45,13.54-2.62,2.81-5.78,5.31-9.12,7.23-7.93,4.55-16.78,5.96-27.5,6.75Z"/>
  <path class="cls-1" d="M1273,767.58c-7.03,4.65-13.21,4.33-19.28,3.33-8.09-1.33-12.81-7.68-11.25-15.79.93-4.82,2.88-9.7,5.47-13.87,5.39-8.71,13.11-15.09,21.86-19.81,1.48,1.04,3.09,1.64,3.09,2.26.14,14.5.11,28.99.11,43.88Z"/>
  <path class="cls-1" d="M1130.8,180.61c2.15,12.8-.8,23.05-12.92,44.92-11.62,20.98-18.33,28.77-29.1,33.2,0-2.43-.55-4.71.08-6.6,6.74-20.17,16.47-38.96,27.4-57.11,3.1-5.14,7.46-9.54,11.41-14.13.49-.57,2.05-.21,3.12-.28Z"/>
  <path class="cls-1" d="M1037.27,489.37c1.89,4.25-.35,7.52-2.75,10.62-9.48,12.23-21.99,20.63-35.71,27.24-5.88,2.83-11.95,6.53-19.99,3.08.36-1.87.12-4.31,1.2-5.71,12.96-16.78,29.71-28.53,49.34-36.27,1.48-.58,3.31-.49,4.95-.34,1.01.09,1.96.89,2.96,1.38Z"/>
  <path class="cls-1" d="M1273.69,267.21c0,14.34.19,28.68-.07,43.02-.17,9.35-9.29,17.56-18.71,16.72-2.19-.2-5.35-2.71-5.93-4.77-1-3.55-1.01-7.72-.23-11.37,3.54-16.53,11.57-30.91,21.27-44.39,1.22.26,2.44.53,3.67.79Z"/>
  <path class="cls-1" d="M1047.91,441.43c-3.03,13.39-8.59,20.78-25.63,32.73-9.3,6.52-18.34,14.5-31.99,13.24,1.83-12,10.79-17.53,17.96-24.01,18.08-16.31,26.13-20.59,39.66-21.96Z"/>
  <path class="cls-1" d="M737.19,956.54c-10.72,0-15.69-2.07-15.96-6.21-.4-6.11,4.35-8.68,8.63-11.19,9.32-5.48,19.55-8.21,30.3-8.67,3.26-.14,6.66.57,9.83,1.47,4.13,1.18,5.73,6.3,2.98,9.43-2.18,2.47-4.63,4.92-7.43,6.59-9.29,5.52-19.48,8.24-28.36,8.59Z"/>
  <path class="cls-1" d="M758.03,892.47c-2.17-.33-4.97-.52-7.65-1.21-5-1.29-6.53-6.96-2.51-10.37,13.44-11.41,29.07-16.32,46.63-14.31,5.22.6,7.13,6.22,3.67,10.05-1.85,2.05-3.89,4.08-6.21,5.53-10.17,6.35-21.38,9.49-33.93,10.31Z"/>
  <path class="cls-1" d="M767.63,827.74c2.45-3.6,3.7-6.95,6.11-8.7,12.46-9.1,26.5-14,42.03-14.07,2.14,0,4.73.34,6.3,1.56,1.41,1.1,2.76,3.97,2.27,5.44-.81,2.46-2.72,4.96-4.84,6.52-12.5,9.18-26.52,14.09-42.14,13.21-2.94-.17-5.77-2.28-9.73-3.96Z"/>
  <path class="cls-1" d="M1055.33,398.6c-2.31,11.62-6.27,17.32-21.06,30.3-15.24,13.38-21.7,16.87-32.52,17.58,1.88-10.43,8.73-18.77,29.57-36.01,13.61-11.26,14.9-11.9,24.02-11.87Z"/>
  <path class="cls-1" d="M848.68,749.58c-1.94,10.85-9.43,14.11-16.21,17.34-12.51,5.97-25.41,11.14-40.58,6.32.36-2.42-.03-5.02,1.09-6.43,6.91-8.66,16.98-12.2,26.97-15.63,8.9-3.06,17.95-5.61,28.73-1.6Z"/>
  <path class="cls-1" d="M812.15,717.95c6.29-9.98,16.11-14.16,25.86-18.15,9.74-3.99,19.63-8.19,31.57-5.01-.32,2.54.19,5.28-.94,6.48-13.84,14.62-31.21,21.03-51.11,21.05-.99,0-2.02-.87-2.96-1.45-.45-.28-.72-.83-2.41-2.91Z"/>
  <path class="cls-1" d="M709.99,1024.44c-4.97-.3-11.01.39-14.05-5.69-1.85-3.72,2.69-9.16,10.62-13.21,8.59-4.4,17.81-6.33,27.38-6.25,3.23.03,6.54,1.1,9.66,2.17,3.31,1.14,4.77,5.71,2.53,8.28-2.51,2.87-5.31,5.69-8.5,7.72-7.43,4.72-17.63,7.08-27.63,6.98Z"/>
  <path class="cls-1" d="M890.4,644.76c.12,7.66-5.58,10.94-10.64,13.95-13.92,8.31-28.22,15.86-46.54,14.2.62-2.92.36-5.59,1.56-6.7,14.31-13.38,31.19-21.39,50.81-23.19,1.43-.13,2.98,1.05,4.81,1.74Z"/>
  <path class="cls-1" d="M681.4,1095.42c-1.42-.36-5.77-1.12-9.86-2.6-3.36-1.22-4.3-5.67-2.01-8.4,1.76-2.1,3.68-4.27,5.97-5.69,10.85-6.71,22.72-8.87,35.3-7.1,3.49.49,6.51,2.06,7.36,5.75.85,3.71-1.35,6.41-4.08,8.53-8.72,6.78-18.79,9.43-32.68,9.51Z"/>
  <path class="cls-1" d="M1273.72,643.51c0,12.51.06,23.04-.03,33.56-.03,3.28-.47,6.55-.69,9.32-4.46,4.97-9.6,4.1-14.43,3.19-7.16-1.35-11.25-7.54-10.33-14.75,1.43-11.2,10.91-23.53,25.48-31.31Z"/>
  <path class="cls-1" d="M1005.94,411.95c10.54-18.36,22.86-30.4,35.3-42.26,5.51-5.25,10.78-11.23,19.96-13.31,0,2.89.67,5.22-.1,6.87-6.52,14.02-17.44,24.48-28.81,34.44-6.55,5.73-12.93,12.11-26.35,14.26Z"/>
  <path class="cls-1" d="M670.44,1145.3c2.06,0,2.62-.01,3.18,0,8.87.2,13.41,2.44,13.59,6.85.25,6.19-4.42,8.68-8.9,10.95-8.11,4.11-16.78,6.29-25.93,5.58-2.72-.21-5.48-1.04-8.03-2.07-4.67-1.87-5.43-7.25-1.77-10.95,5.35-5.41,12.22-7.75,19.35-9.38,3.25-.74,6.65-.79,8.51-.99Z"/>
  <path class="cls-1" d="M851.72,624.93c7.68-11.61,18.91-16.62,29.77-21.83,8.33-4,16.73-8.93,27.72-6.41-.62,2.46-.49,5-1.7,6.26-14.02,14.55-31.32,22.49-51.35,24.56-.85.09-1.82-1.01-4.45-2.59Z"/>
  <path class="cls-1" d="M870.72,584.13c5.65-9.92,9.73-13.32,27.52-22.94,14.97-8.1,17.07-8.71,29-7.98-1.36,2.69-2.04,5.44-3.75,7.17-11.31,11.38-25.4,18.18-40.23,23.6-4.05,1.48-8.32,3.25-12.55.15Z"/>
  <path class="cls-1" d="M1014.43,378.99c7.04-15.64,24.88-38.88,40.56-53.32,2.62-2.41,5.96-4.04,10.68-7.16.11,10.63-5.19,16.52-9.53,22.64-13.02,18.32-26.93,31.11-41.7,37.85Z"/>
  <path class="cls-1" d="M1272.35,389.48c-1.27.89-2.5,2.25-4.02,2.75-11.91,3.94-17.48-.52-15.43-12.79,2.26-13.57,8.83-25.14,17.67-35.94,3.9,8.91,4.48,25.72,1.78,45.98Z"/>
  <path class="cls-1" d="M624.65,1244.09c-2.66-.32-5.62-.12-8.09-1.12-2.35-.96-5.34-2.84-5.94-4.93-.58-2.03.78-5.72,2.54-7.15,11.13-9.03,23.93-10.97,37.56-7.18,4.58,1.27,5.37,7.31,1.72,10.83-4.97,4.8-11.17,7.12-17.76,8.45-3.24.65-6.6.74-10.02,1.1Z"/>
  <path class="cls-1" d="M885.93,547.53c8.88-12.52,17.3-19.32,36.17-29.5,6.16-3.32,12.13-7.8,21.2-6.58-1.11,2.8-1.43,5.01-2.65,6.43-8.52,9.89-19.51,16.53-30.9,22.46-6.74,3.51-13.49,7.55-23.82,7.18Z"/>
  <path class="cls-1" d="M1271.6,568.8c2.17,14.27,2.64,27.54,1.53,40.65-6.37,3.77-11.54,3.09-16.36-.61-4.03-3.09-4.32-7.69-3.66-12.21,1.77-12.1,8.72-20.85,18.49-27.83Z"/>
  <path class="cls-1" d="M1066.58,286.83c2.06,6.39-1.87,10.92-4.59,15.43-10.63,17.62-22.56,34.2-39.02,47.05-3.3-3.46-1.37-5.83-.08-8.08,13.72-23.89,32.07-46.8,43.69-54.4Z"/>
  <path class="cls-1" d="M706.28,789.36c-4.25,7.79-12.58,9.97-20.39,12.69-8.94,3.12-18.06,5.25-27.09,2.32-1.61-4.33.51-6.36,2.86-7.81,11.66-7.2,24.3-11.45,38.1-11.67,2.78-.05,5.69.22,6.51,4.47Z"/>
  <path class="cls-1" d="M1273.58,421c0,11.65.01,23.29,0,34.94,0,3.78-1.84,6.33-5.49,7.34-4.86,1.34-9.79-.17-11.65-4.03-1.15-2.39-2.12-5.39-1.75-7.91,1.83-12.24,7.05-22.82,15.54-31.57,1.12.41,2.23.82,3.35,1.23Z"/>
  <path class="cls-1" d="M680.02,840.46c-6.85,11.45-16.73,13.51-26.24,15.95-7.41,1.91-15.02,4.26-22.11-1.2,1.16-7.37,6.96-9.07,11.92-11.07,10.89-4.4,22.03-8.1,36.43-3.68Z"/>
  <path class="cls-1" d="M1273.39,534.77c-4.34.5-6.56,1.19-8.65.93-6.64-.84-10.53-4.78-10.06-10.8.99-12.57,7.37-22.32,17.66-33.75.79,5.36,1.32,7.32,1.32,9.28-.01,11.02-.16,22.03-.27,34.34Z"/>
  <path class="cls-1" d="M589.61,976.36c-4.43-1.06-7.14-1.56-9.77-2.36-3.64-1.12-4.51-5.47-1.46-7.85,11.64-9.06,24.87-11.65,39.22-9.12,2.54.45,3.99,4.9,2.2,6.75-1.89,1.96-3.85,4.38-6.25,5.22-8.31,2.91-16.83,5.22-23.94,7.36Z"/>
  <path class="cls-1" d="M603.08,911.02c4.61-8.14,10.94-10.25,17.23-12.41,8.54-2.93,17.23-4.49,26.24-2.56,2.77.59,4.04,4.51,2.22,6.66-.71.85-1.35,1.84-2.24,2.44-11.03,7.45-23.32,10.19-36.44,9.24-2-.14-3.88-1.82-7.01-3.38Z"/>
  <path class="cls-1" d="M903.81,512c4.24-9.21,5.36-10.53,21.69-22.05,9.26-6.53,18.3-13.69,32.92-17.31-3,5.18-3.92,7.71-5.61,9.51-10.03,10.64-22.18,18.47-34.85,25.5-4.22,2.34-8.54,5.05-14.15,4.35Z"/>
  <path class="cls-1" d="M681.7,754.94c11.55-13.25,25.29-15.74,38.63-18.96,4.98-1.2,5.04-.95,12.66,2.9-5.49,8.75-14.58,11.63-23.3,14.38-8.09,2.55-16.47,6.2-27.99,1.69Z"/>
  <path class="cls-1" d="M579.11,1020.95c6.73.07,11,2.08,10.87,5.29-.19,4.59-3.65,6.67-7.18,8.41-7.6,3.76-15.66,5.87-24.19,5.63-3.94-.11-7.93-.69-9.93-4.79-1.2-2.46,1.73-6.4,6.25-8.83,6.96-3.74,15.68-5.8,24.17-5.72Z"/>
  <path class="cls-1" d="M757.17,690.97c-1.13,7.94-7.41,10.02-12.69,12.29-11.47,4.95-23.02,10.44-37.66,7.84,3.7-8.11,10.19-10.4,16.06-12.8,10.71-4.38,21.3-10.08,34.28-7.33Z"/>
  <path class="cls-1" d="M731.66,668.93c14.19-12.56,30.41-19.82,49.12-21.89,1.44,7.1-3.48,8.85-7.02,10.73-13.02,6.95-26.01,14.4-42.1,11.16Z"/>
  <path class="cls-1" d="M519.08,1104.21c.53-7.82,6.39-9.73,11.54-11.19,8.99-2.56,18.35-5.63,28.27,1.31-1.55,2.54-2.37,5.43-4.29,6.78-9.12,6.42-19.39,8.56-30.35,6.41-1.94-.38-3.6-2.26-5.17-3.3Z"/>
  <path class="cls-1" d="M501.67,1179.36c-9.13.16-13.73-1.9-13.48-5.59.37-5.43,4.85-6.95,8.88-8.63,7.86-3.28,15.98-4.19,24.28-1.86,3.23.91,4.3,5.75,1.84,8.08-6.42,6.08-14.43,7.68-21.53,8Z"/>
  <path class="cls-1" d="M969.82,440c-13.02,19.32-36.22,36.8-51.52,39.75,8.66-13.76,34.61-34.3,51.52-39.75Z"/>
  <path class="cls-1" d="M754.38,632.72c6.12-7.97,7.69-9.09,22.22-15.73,14.86-6.8,16.35-7.16,27.39-6.46-3.79,8.08-11.62,10.46-18.33,13.9-15.59,7.97-19.73,8.85-31.28,8.3Z"/>
  <path class="cls-1" d="M776.57,598.36c13.8-12.12,29.74-20.19,47.55-25.32.26,1.99.88,3.49.46,3.88-11.93,11.19-31.26,20.34-48.01,21.44Z"/>
  <path class="cls-1" d="M490.72,1241.03c-2.29,2.89-3.52,5.62-5.63,6.9-7.87,4.8-16.48,6.76-25.54,4.05-1.69-.51-3.3-2.77-3.96-4.59-.37-1.02.89-3.26,2.04-4.13,8.52-6.46,18.15-7.96,28.41-5.49,1.5.36,2.72,1.85,4.67,3.25Z"/>
  <path class="cls-1" d="M978.45,410.92c-7.92,14.59-27.85,32.61-45.89,41.51q2.49-6.96,8.35-12.62c22.48-21.67,27.81-25.76,37.54-28.89Z"/>
  <path class="cls-1" d="M516.41,830.47c12-9.6,21.41-12.24,38.82-10.85-.23,1.48.07,3.64-.75,4.24-10.23,7.42-22.04,9.59-34.36,9.47-1.22-.01-2.42-1.82-3.71-2.86Z"/>
  <path class="cls-1" d="M494.25,924.5c-10,9.77-21.24,11.35-33.05,10.84-1.27-.05-3.14-1.63-3.51-2.86-.34-1.14.61-3.59,1.62-4.04,5.01-2.22,10.15-4.28,15.42-5.78,3.68-1.05,7.66-1.59,11.47-1.45,2.4.09,4.73,1.86,8.04,3.29Z"/>
  <path class="cls-1" d="M587.77,774.37c-14.69,11.84-24.79,14.67-40.76,12.75-.39-5.39,4.24-6.17,7.54-7.49,9.64-3.85,19.43-7.56,33.22-5.26Z"/>
  <path class="cls-1" d="M485.19,880.06c12.98-10.74,24.88-13.44,38.5-10.5-.18,6.21-4.53,7.25-7.94,8.4-8.88,3-17.85,6.59-30.56,2.1Z"/>
  <path class="cls-1" d="M844.25,543.5c-11.41,12.28-29.68,22.42-46.85,25.89.96-1.71,1.34-3.45,2.38-4.05,13.1-7.55,26.26-14.99,39.53-22.25,1.14-.62,3.08.22,4.95.41Z"/>
  <path class="cls-1" d="M426.2,989.66c9.08-10.1,18.54-12.25,33.45-7.42-2.66,6.91-8.83,7.91-14.61,9.21-6.36,1.43-12.99,4.01-18.85-1.79Z"/>
  <path class="cls-1" d="M615.34,732.65c-9.93,10.74-25.67,15.76-41.47,13.18,5.4-7.23,13.41-8.63,20.56-10.77,6.47-1.93,13.19-5.55,20.91-2.41Z"/>
  <path class="cls-1" d="M646.55,694.95c-15.36,10.4-28.49,15.08-44.1,15.77,7.6-9.74,24.14-15.92,44.1-15.77Z"/>
  <path class="cls-1" d="M393.29,1050.95c10.63-9.2,20.35-11.81,31.69-7.72.48,6.08-3.51,7.21-7.05,8.45-7.31,2.57-14.69,4.69-24.64-.73Z"/>
  <path class="cls-1" d="M629.62,676.21c11.97-9.44,25.14-14.46,40.8-15.28-2.56,6.11-8.34,6.95-12.9,9-14.1,6.34-17.03,6.83-27.9,6.28Z"/>
  <path class="cls-1" d="M391.14,1109.9c-.59,2.04-.54,4.13-1.53,4.92-6.43,5.12-13.96,6.35-21.9,5.11-1.36-.21-3.61-2.04-3.49-2.82.28-1.85,1.31-4.27,2.8-5.12,7.5-4.28,15.42-5.21,24.12-2.09Z"/>
  <path class="cls-1" d="M946.52,425.21c9.41-14.88,27.74-33.15,38.52-39.5-5.04,11.85-19.49,27.11-38.52,39.5Z"/>
  <path class="cls-1" d="M859.95,517.04c-11.06,10.75-23.69,19.12-39.53,25.31,7.65-10.38,23.5-20.74,39.53-25.31Z"/>
  <path class="cls-1" d="M656.8,647.61c10.86-9.91,24.24-13.9,38.01-16.95-10.39,11-24.4,13.51-38.01,16.95Z"/>
  <path class="cls-1" d="M356.14,1180.16c-10.04,10.03-11.11,10.28-26.08,6.95,1.21-2,1.82-4.37,3.31-5.25,6.55-3.9,13.55-4.51,22.76-1.69Z"/>
  <path class="cls-1" d="M432.35,779.93c13.54-8.66,18-9.88,31.31-9.4-8.76,7.25-12.08,8.32-31.31,9.4Z"/>
  <path class="cls-1" d="M402.84,816.26c7.91-7.31,17.28-8.71,27.3-8.93-.12,1.92.16,3.46-.28,3.71-8.35,4.65-17.28,6.92-27.01,5.23Z"/>
  <path class="cls-1" d="M398.67,850.18c-9.09,8.36-18.27,9.36-30.64,8.03,9.97-7.62,18.77-10.04,30.64-8.03Z"/>
  <path class="cls-1" d="M463.82,747.55c11.35-8.66,16.06-10.17,33.19-10.87-10.43,7.54-20.69,9.15-33.19,10.87Z"/>
  <path class="cls-1" d="M317.99,1255.59c-5.23,6.16-11.98,6.53-19.21,4.79-.77-.19-1.65-1.41-1.8-2.27-.16-.91.18-2.42.85-2.89,5.62-3.96,11.64-6.13,18.34-2.73.79.4,1.08,1.78,1.83,3.1Z"/>
  <path class="cls-1" d="M499.25,715.82c8.26-6.06,17.46-8.71,27.46-8.69-8.34,5.5-17.33,8.95-27.46,8.69Z"/>
  <path class="cls-1" d="M362.18,897.41c-7.28,7.3-15.09,8.14-24.53,6.5,8.24-8.11,9.53-8.45,24.53-6.5Z"/>
  <path class="cls-1" d="M292.29,1002.45c-6.47,6.87-13.07,8.26-22.01,5.84,1.41-2.02,1.97-3.68,3.1-4.27,5.55-2.94,11.37-4.23,18.91-1.57Z"/>
  <path class="cls-1" d="M304.35,951.19c7.28-4.54,14.28-6.29,23.47-3.36-6.21,7.09-13.41,6.83-20.38,6.8-.95,0-1.9-2.05-3.1-3.44Z"/>
  <path class="cls-1" d="M687.49,620.05c1.28-1.58,2.26-3.7,3.91-4.63,4.3-2.44,8.86-4.45,13.39-6.46,4.47-1.99,9.04-3.77,14.59-6.07-5.75,7.13-5.64,7.39-15.07,11.36-5.49,2.32-11.38,3.67-17.09,5.45,0,0,.28.35.28.35Z"/>
  <path class="cls-1" d="M412.33,724.71q-9.31,7.91-21,10.7c-1.97-3.07.89-3.67,2.53-4.73,4.78-3.1,10.3-3.15,18.47-5.97Z"/>
  <path class="cls-1" d="M872.11,494.43c-4.85,9.52-13.81,13.59-23.01,17.34l.3.35c1.74-8.41,10.62-10.23,15.17-16.15,1.16-1.51,5.16-.84,7.86-1.18l-.33-.36Z"/>
  <path class="cls-1" d="M1218.54,89.21c-2.65,1.53-5.19,3.34-8.02,4.39-.8.3-3.43-1.59-3.48-2.56-.09-1.86.75-5.15,1.78-5.4,2.83-.66,5.96-.05,8.97.05.24,1.17.49,2.34.73,3.51Z"/>
  <path class="cls-1" d="M237.05,1066.5c4.29-6.64,10.24-5.43,16.65-4.96q-4.4,6.91-16.65,4.96Z"/>
  <path class="cls-1" d="M252.76,842.05c4.59-1.18,9.19-2.37,17.11-4.41q-8.78,5.76-17.11,4.41Z"/>
  <path class="cls-1" d="M219.37,1126.47c-6.27,6.2-10.98,6.62-16.73,4.18,3.4-6.38,8.51-5.55,16.73-4.18Z"/>
  <path class="cls-1" d="M286.66,810.32c4.91-5.05,9.51-5.75,16.97-4.04-6.44,2.43-10.64,4.81-16.97,4.04Z"/>
  <path class="cls-1" d="M182.39,925.1c2.2-3.19,5.21-3.4,8.57-2.36q-2.69,2.94-8.57,2.36Z"/>
  <path class="cls-1" d="M323.84,778.33c3.58-1.29,7.16-2.58,11.18-4.03.34,5.09-3.25,3.54-4.93,4.46-1.66.91-3.75,1.02-5.66,1.49-.2-.64-.4-1.28-.6-1.91Z"/>
  <path class="cls-1" d="M547.67,682.43c-2.82,6.61-8.48,6.89-14.83,5.34,5.05-1.66,10.09-3.31,15.14-4.97l-.31-.37Z"/>
  <path class="cls-1" d="M178.38,1196.81c-1.27,2.56-5.37,3.58-8.47,1.94-.37-.19-.87-.96-.81-1.02,1.03-1.17,1.99-2.97,3.25-3.21,1.9-.36,4.01.35,6.02.7.09.01.01.96.01,1.59Z"/>
  <path class="cls-1" d="M229.31,880.12c-3.28,3.53-6.7,3.71-10.59,1.28,3.16-3.27,6.51-3.96,10.59-1.28Z"/>
  <path class="cls-1" d="M849.11,511.77c-1.85,1.8-3.71,3.61-6.46,6.29.22-6.26,3.12-6.65,6.76-5.95,0,0-.3-.34-.3-.34Z"/>
  <path class="cls-1" d="M154.52,972.02c-1.93.58-3.39,1.29-4.88,1.37-.9.05-1.86-.86-3.32-1.6,1.89-.6,3.36-1.33,4.87-1.45.87-.07,1.81.87,3.32,1.68Z"/>
  <path class="cls-1" d="M872.44,494.79c1.45-1.46,2.9-2.93,5.59-5.65-1.04,5.22-3.09,5.9-5.92,5.3,0,0,.32.35.32.35Z"/>
  <path class="cls-1" d="M365.55,750.31c-.75.82-1.44,1.7-2.28,2.42-.37.32-1.04.3-1.57.43.32-.56.52-1.4,1-1.63.99-.47,2.14-.61,3.23-.89,0,0-.38-.34-.38-.34Z"/>
  <path class="cls-1" d="M365.93,750.65c1.6-.71,3.2-1.43,4.8-2.14.15.62.31,1.23.46,1.85-1.86,0-3.72,0-5.61-.02-.03-.02.36.32.36.32Z"/>
  <path class="cls-1" d="M547.98,682.8c1.5-.6,2.99-1.25,4.52-1.75.4-.13.96.25,1.44.4-.53.68-1.07,1.94-1.58,1.93-1.55-.03-3.09-.55-4.67-.92-.03-.03.28.34.28.34Z"/>
  <path class="cls-1" d="M687.22,619.7c-.57.72-1.03,1.69-1.78,2.07-.34.17-1.26-.83-1.92-1.3.39-.29.79-.81,1.18-.81.93,0,1.85.23,2.79.38,0,0-.27-.34-.27-.34Z"/>
  <path class="cls-1" d="M711.49,594.32c-.27.28-.54.56-.81.83.5.03,1,.06,1.49.09-.21-.32-.43-.63-.62-.96.02-.01-.06.04-.06.04Z"/>
  <path class="cls-1" d="M718.67,591.02c-.95,4.19-3.99,3.86-7.16,3.29-.02,0,.06-.04.04-.03,2.46-1.03,4.94-2.07,7.43-3.11,0,0-.31-.15-.31-.15Z"/>
  <path class="cls-1" d="M718.98,591.18c2.14-1.27,4.29-2.54,6.52-3.74.08.06-.17-.15-.17-.15-.66,3.84-2.81,5.17-6.59,3.79-.07-.04.24.11.24.11Z"/>
  <path class="cls-1" d="M537.05,676c-.39.14-.77.28-1.16.42.13.32.26.65.4.97.34-.61.67-1.23,1.01-1.84l-.24.45Z"/>
  <path class="cls-1" d="M537.3,675.55c.62.43,1.24.85,1.86,1.28-.7-.26-1.41-.51-2.11-.8,0-.03.25-.48.25-.48Z"/>
  <path class="cls-1" d="M563.52,665.61c-.36.14-.83.19-1.03.45-.12.16.19.64.31.98.32-.51.65-1.02.97-1.53l-.25.09Z"/>
  <polygon class="cls-1" points="110.68 1025.52 111.7 1025.3 111.43 1026.13 110.68 1025.52"/>
  <path class="cls-1" d="M563.77,665.52c1.05.12,2.1.23,3.15.34-1.1-.08-2.2-.16-3.35-.24-.05,0,.2-.1.2-.1Z"/>
  <path class="cls-1" d="M580.86,659.07c-.33.63-.66,1.26-.98,1.89.4-.78.8-1.56,1.21-2.34l-.22.45Z"/>
  <path class="cls-1" d="M581.08,658.62c.66.42,1.33.83,1.99,1.25-.74-.25-1.48-.49-2.22-.77,0-.03.22-.48.22-.48Z"/>
  <path class="cls-1" d="M742.46,583.5c.32-.23.63-.45.95-.68-.45.13-.91.26-1.36.39l.42.29Z"/>
  <path class="cls-1" d="M742.05,583.2c-2.44.96-4.88,1.92-7.32,2.89,0,0,.37.37.37.37,1.41-3.46,4.23-3.51,7.32-3,.04.03-.37-.26-.37-.26Z"/>
  <path class="cls-1" d="M734.73,586.09c-2.68,3.32-5.9,2.82-9.33,1.25-.07-.06.18.16.1.1,3.13-.38,6.35-.69,9.58-.98.02.02-.35-.36-.35-.36Z"/>
</svg>