<?xml version="1.0" encoding="UTF-8"?>
<svg id="Camada_1" data-name="Camada 1" xmlns="http://www.w3.org/2000/svg" viewBox="0 0 1364.31 1348.09">
  <defs>
    <style>
      .cls-1 {
        fill: #000;
        stroke-width: 0px;
      }
    </style>
  </defs>
  <path class="cls-1" d="M859.12,1076.78c-3.88-.91-11.15-2.34-18.24-4.39-3.34-.97-6.12-3.47-6.42-7.35-.31-3.99,2.36-6.45,5.62-7.82,15.65-6.56,31.28-6.3,46.74.75,1.02.47,1.89,1.3,2.78,2.02,3.45,2.82,3.47,8.23-.6,10.08-5.65,2.57-11.71,4.32-17.72,5.98-2.7.74-5.71.39-12.14.72Z"/>
  <path class="cls-1" d="M784.16,1065.82c6.16-.16,15.24.94,23.52,5.59,3.01,1.69,6.35,4.02,5.31,7.9-.64,2.38-2.99,5.19-5.26,6.12-15.72,6.4-31.4,5.68-46.74-1.54-1.5-.7-2.74-2.05-3.93-3.27-2.39-2.46-1.84-6.95.97-9.15,6.82-5.34,14.88-5.49,26.13-5.64Z"/>
  <path class="cls-1" d="M904.78,1028.64c-8.04-.07-15.93-.75-22.9-5.39-5.77-3.84-5.89-10.1-.24-13.83,11.7-7.71,36.08-7.42,47.32.56,5.45,3.87,4.93,10.19-1.11,13.78-7.15,4.24-15.04,4.86-23.07,4.89Z"/>
  <path class="cls-1" d="M740.29,1108.05c9.77.55,19.42,1.65,28,6.99,4.77,2.97,4.77,8.65-.3,10.76-4.7,1.95-9.72,3.54-14.74,4.23-13.33,1.82-26.34.43-38.26-6.35-4.71-2.68-4.49-8.63.22-11.05,7.88-4.04,16.38-4.91,25.1-4.59Z"/>
  <path class="cls-1" d="M596.2,1145.2c-13.3-.34-22.84-1.94-31.81-5.9-3.02-1.33-5.73-3.57-8.24-5.78-2.08-1.83-1.47-6.13.93-7.47,2.45-1.37,5.03-2.95,7.72-3.38,15.04-2.42,29.53-.35,43.32,6.2,1.51.72,2.82,1.9,4.12,3,3.5,2.95,3.02,8.26-1.26,9.65-5.89,1.9-12.03,3.03-14.78,3.7Z"/>
  <path class="cls-1" d="M872.5,992.88c-11.34-1.04-19.87-2.09-26.98-7.69-5.17-4.07-4.63-10.77,1.08-14.25,11.76-7.17,33.82-5.94,44.11,2.47,5.04,4.12,4.78,11.59-1.16,14.17-6.19,2.69-12.94,4.07-17.05,5.31Z"/>
  <path class="cls-1" d="M712.63,1100.03c-12.29-.73-21.91-2.05-30.52-7.19-3.01-1.79-6.06-4.44-5.12-8.11.59-2.34,3.21-5.19,5.52-5.91,16.51-5.13,32.75-4.65,47.85,4.64,1.97,1.21,3.78,4.81,3.47,6.99-.32,2.22-3,5.1-5.26,5.84-5.91,1.95-12.15,2.9-15.93,3.74Z"/>
  <path class="cls-1" d="M622.95,1082.09c6.43,1.58,14.78,3.29,22.89,5.8,3.08.95,5.8,3.51,8.32,5.75,2.49,2.21,1.85,7.41-.78,9.11-.95.61-1.95,1.22-3.02,1.57-16.8,5.49-32.7,3.14-47.55-6.05-2.05-1.27-3.89-4.56-3.96-6.98-.12-3.8,3.39-6.03,6.72-6.8,4.96-1.16,10.13-1.45,17.38-2.4Z"/>
  <path class="cls-1" d="M493.48,1124.36c13.85.08,23.88,2.05,33.31,6.53,2.54,1.21,4.93,2.86,7.14,4.62,3.72,2.97,3.16,8.01-1.18,9.55-3.73,1.33-7.65,2.63-11.55,2.84-12.75.68-25-1.75-36.55-7.3-1.53-.74-3.32-1.53-4.22-2.83-1.51-2.18-3.7-5.12-3.19-7.12.54-2.11,3.68-4.35,6.1-5,4.35-1.16,9.01-1.17,10.14-1.3Z"/>
  <path class="cls-1" d="M742.76,1029.77c11.98,1.14,21.08,2.13,28.73,8.04,5.56,4.3,5.16,10.92-1.2,13.63-15.27,6.51-30.25,4.98-44.39-3.22-2.51-1.45-4.6-5.24-5.04-8.22-.55-3.7,2.88-6.36,6.21-7.23,6.02-1.58,12.26-2.36,15.7-2.99Z"/>
  <path class="cls-1" d="M943.21,1037.37c7.66.36,15.77.15,23.09,4.42,5.32,3.1,6,9.58.74,12.43-15.55,8.42-31.79,9.16-48.26,2.96-3.19-1.2-6.48-3.75-5.7-7.62.49-2.46,2.67-5.14,4.85-6.6,7.49-5.02,16.25-5.24,25.29-5.59Z"/>
  <path class="cls-1" d="M836.35,951.68c-11.03-.35-18.78-2.15-25.48-7.05-6.8-4.97-6.32-12.75.87-16.6,11.37-6.1,31.29-3.89,40.59,4.5,5.42,4.89,4.57,12.55-2.25,15.36-5.19,2.14-10.89,3.04-13.73,3.79Z"/>
  <path class="cls-1" d="M458.48,1087.58c12.09.69,23.2,2.88,33.28,8.72,2.39,1.39,4.49,3.45,6.37,5.52,2.29,2.52,1.28,7.37-1.7,8.82-2.03.99-4.18,2.05-6.37,2.35-15.26,2.04-29.54-.97-42.24-9.71-2.39-1.65-4.46-5.51-4.51-8.39-.07-3.74,3.98-5.16,7.34-6.01,2.74-.69,5.58-.94,7.84-1.3Z"/>
  <path class="cls-1" d="M783.13,979.61c13.48.38,22.35,2.33,29.74,8.49,4.6,3.84,4.09,9.87-.87,13.07-11.59,7.47-35.12,5.38-45.36-4.04-4.92-4.52-4.15-11.21,2.31-13.79,5.72-2.28,11.98-3.18,14.18-3.73Z"/>
  <path class="cls-1" d="M831.23,1043.42c-11.75-.74-20.38-1.23-27.87-6.4-6.29-4.34-5.9-11.8,1.25-14.84,15.26-6.49,30.39-5.41,44.77,2.65,6.9,3.87,6.36,11.5-1.17,14.39-6.32,2.43-13.23,3.31-16.98,4.2Z"/>
  <path class="cls-1" d="M702.45,990.11c13.43.06,22.73,2.18,30.74,8.33,2.77,2.13,5.44,5.21,3.93,8.66-1.21,2.76-4,5.69-6.77,6.75-13.07,5.01-25.72,2.66-37.76-3.76-1.94-1.03-3.6-2.77-5.06-4.46-3.14-3.64-2.31-9.77,2.12-11.66,5.1-2.17,10.67-3.24,12.8-3.86Z"/>
  <path class="cls-1" d="M970.06,1089.29c-5.62-1.47-12.3-2.81-18.67-5.04-3.97-1.39-4.4-7.41-1.19-9.99,1.33-1.07,2.72-2.16,4.27-2.83,14.67-6.38,29.84-6.93,45.31-3.65.55.12,1.06.41,1.58.65,3.14,1.43,6.9,2.93,6.17,6.99-.43,2.38-2.68,4.94-4.82,6.38-2.77,1.88-6.13,3.25-9.43,3.9-7.26,1.45-14.64,2.31-23.22,3.6Z"/>
  <path class="cls-1" d="M824.56,1096.77c4.65,1.02,12.02,2.15,19.02,4.42,2.79.9,6.26,4.02,6.78,6.65.95,4.77-3.88,6.21-7.48,7.86-1.04.48-2.11.97-3.21,1.2-12.49,2.7-25.03,2.9-37.53.23-2.74-.58-5.52-1.79-7.81-3.39-1.69-1.18-3.85-3.7-3.57-5.21.44-2.43,2.24-5.48,4.34-6.56,4-2.05,8.53-3.32,12.99-4.12,4.48-.81,9.13-.65,16.48-1.08Z"/>
  <path class="cls-1" d="M640.81,1024.38c-10.06-.23-18.82-2.38-26.62-7.53-3.84-2.53-7.78-5.72-6.52-10.96,1.21-5.04,6.04-6.4,10.46-7.64,1.62-.46,3.36-.59,5.06-.68,9.9-.5,19.22,1.69,27.88,6.46,5.84,3.22,9.11,8.05,7.88,11.95-1.81,5.76-6.97,7-12.1,7.91-2.23.39-4.52.38-6.03.5Z"/>
  <path class="cls-1" d="M408.98,1112.95c-13.02-.77-24.25-2.65-34.26-8.78-2.85-1.75-5.38-4.17-7.68-6.63-2.45-2.63-1.35-7.09,1.89-8.68,1.51-.74,3.1-1.57,4.72-1.76,15.97-1.95,30.6,1.69,43.77,10.93,1.36.96,2.41,2.41,3.49,3.72,2.43,2.95,1.61,7.36-1.84,8.55-3.73,1.29-7.65,2.03-10.1,2.66Z"/>
  <path class="cls-1" d="M557.62,1112.28c-10.1-.76-19.6-2.62-28.34-7.3-2.91-1.56-5.61-3.94-7.69-6.53-1.95-2.43-1.42-5.54,1.18-7.54,1.76-1.36,3.86-2.73,5.99-3.1,15.18-2.67,29.6-.35,43.04,7.31,1.46.83,2.66,2.15,3.87,3.36,3.19,3.21,2.59,8.4-1.64,9.84-5.3,1.8-10.92,2.68-16.41,3.96Z"/>
  <path class="cls-1" d="M683.1,973.14c-12.37-.06-21.69-2.26-29.25-9.25-6.17-5.7-4.6-13.19,3.51-15.93,14.2-4.79,27.13-1.41,38.5,7.65,6.54,5.22,4.67,13.37-3.32,15.87-3.76,1.17-7.81,1.39-9.43,1.66Z"/>
  <path class="cls-1" d="M423.86,1047.9c13.41.38,22.76,2.99,31.15,8.38,2.8,1.8,5.16,4.47,7.28,7.1,2.22,2.77.87,7.38-2.43,8.69-2.64,1.05-5.45,2.08-8.24,2.27-13,.9-25.11-2.06-35.94-9.46-1.84-1.26-3.35-3.13-4.7-4.95-2.47-3.33-1.05-9.01,2.78-10.11,4.35-1.24,8.92-1.72,10.1-1.94Z"/>
  <path class="cls-1" d="M244.16,1119.42c3.07-1.89,5.22-4.23,7.61-4.51,17.79-2.11,33.68,3.25,48.14,13.36,1.33.93,2.22,2.54,3.18,3.92,1.64,2.38.4,5.88-2.53,6.9-2.12.74-4.35,1.74-6.52,1.72-16.29-.15-31.59-3.8-44.73-13.95-2.04-1.57-3.1-4.41-5.14-7.44Z"/>
  <path class="cls-1" d="M676.93,1064.1c-13.68-.93-23.84-2.34-31.99-9.68-4.51-4.06-3.61-9.67,1.9-12.54,12.27-6.38,36.81-3.07,46.98,6.34,4.23,3.92,3.54,10.9-1.81,12.64-5.87,1.91-12.13,2.64-15.08,3.24Z"/>
  <path class="cls-1" d="M731.23,1157.87c-12.51,11.12-27.05,8.85-40.79,7.59-8.45-.77-18.56-.79-23.23-11.64,10.83-9.71,23.69-8.45,35.93-7.4,9.78.84,20.75.65,28.08,11.45Z"/>
  <path class="cls-1" d="M809.82,1147.26c-11.2,10.54-24.67,9.11-37.57,8.94-9.51-.13-19.49-.16-26.74-9.67,9.06-11.18,21.61-10.22,33.11-10.03,10.91.18,23.05-.71,31.2,10.76Z"/>
  <path class="cls-1" d="M413.92,1123.88c14.29.33,24.87,2.56,34.74,7.56,2.52,1.28,4.93,2.93,7.09,4.75,3.47,2.92,2.7,8.15-1.35,9.8-2.1.85-4.3,1.81-6.51,2-15.25,1.32-29.6-1.82-42.85-9.49-1.88-1.09-3.35-3.02-4.76-4.77-1.66-2.06-.62-6.65,1.87-7.33,4.89-1.33,9.92-2.14,11.77-2.52Z"/>
  <path class="cls-1" d="M901.41,1083.41c8.61-.33,17.16,0,24.88,4.51,3.7,2.17,3.87,7.47.36,10.04-.92.67-1.79,1.48-2.81,1.91-15.32,6.43-31.03,6.54-46.93,2.63-1.08-.27-2.37-.74-3-1.55-1.63-2.07-3.74-4.26-4.1-6.64-.24-1.58,1.86-4.58,3.54-5.18,6.36-2.29,12.94-4.09,19.54-5.61,2.71-.63,5.68-.1,8.53-.1Z"/>
  <path class="cls-1" d="M256.73,1103.37c-13.76-1.3-26.34-4.73-37.18-12.94-2.22-1.68-3.99-4.05-5.67-6.33-1.57-2.12-.26-6.35,2.26-7.26,2.65-.96,5.49-2.18,8.2-2.08,14.05.54,26.99,4.65,38.38,13.1,1.36,1.01,2.54,2.31,3.64,3.61,3.49,4.11,1.86,9.44-3.3,10.72-2.2.55-4.47.84-6.34,1.18Z"/>
  <path class="cls-1" d="M603.67,1069.97c-13.56.32-22.51-1.36-30.68-5.83-2.9-1.58-5.4-4.12-7.62-6.63-2.25-2.55-1.3-7.18,1.63-9.03,1.89-1.2,3.97-2.49,6.11-2.83,12.72-2.04,25.1-.9,36.59,5.32,2.9,1.57,5.42,4.09,7.67,6.58,2.44,2.69,1.71,7.46-1.62,8.78-5.17,2.06-10.68,3.25-12.08,3.66Z"/>
  <path class="cls-1" d="M799.43,906.68c-9.67-.54-16.81-2.22-23.06-6.53-3.85-2.66-7.28-6.03-6.19-11.19,1.05-4.94,5.17-7.49,9.71-8.55,9.07-2.12,18.09-1.68,26.6,2.49,2.52,1.23,4.97,2.79,7.06,4.65,6.03,5.39,4.64,13.13-3.08,16.19-4.15,1.64-8.67,2.34-11.04,2.95Z"/>
  <path class="cls-1" d="M521.94,1073.63c-12.41-.51-22.86-3.18-31.58-10.63-2.7-2.31-5.07-5.52-3.26-9.01,1.16-2.23,4.02-4.45,6.49-4.98,14.73-3.14,28.57-.5,41.25,7.69,1.42.92,2.62,2.25,3.76,3.54,3.33,3.76,2.02,9.66-2.56,11.44-1.6.62-3.29,1.16-4.98,1.34-3.42.37-6.88.48-9.11.62Z"/>
  <path class="cls-1" d="M347.13,1045.13c11.4.14,21.57,3.55,30.93,9.47,1.9,1.2,3.63,2.79,5.17,4.45,4.8,5.15,2.95,11.82-3.81,12.91-4.45.72-9.15.98-13.6.38-10.31-1.38-19.99-4.74-28.13-11.59-3.26-2.75-5.5-6.21-3.89-10.48,1.33-3.53,4.88-4.53,8.43-4.86,1.7-.16,3.42-.2,4.9-.28Z"/>
  <path class="cls-1" d="M407.72,1031.34c-8.32-.63-19.65-4.05-28.28-13.39-1.71-1.85-2.82-5.2-2.57-7.69.38-3.7,3.7-5.58,7.29-6.09,14.38-2.05,27.16,1.79,38.35,10.92,3.25,2.65,5.48,6.16,4.03,10.51-1.48,4.44-5.6,5.28-9.67,5.71-1.69.18-3.42.03-9.14.03Z"/>
  <path class="cls-1" d="M606.41,980.05c-12.81-.29-22.52-2.95-30.27-10.59-5.5-5.42-4.19-11.96,2.83-14.99,11.77-5.08,32.75.09,40.85,10.06,4.1,5.05,2.41,11.65-3.91,13.72-3.72,1.22-7.75,1.48-9.5,1.8Z"/>
  <path class="cls-1" d="M665.71,1139.79c-7.73-1.72-15.52-3.24-23.16-5.29-2.63-.71-5.06-2.56-7.3-4.26-3.31-2.52-2.49-7.89,1.39-9.94,1.49-.79,3.04-1.67,4.66-2,14.25-2.87,28.3-2.25,42.04,2.78,1.07.39,2.15.79,3.14,1.34,3.02,1.67,6.31,3.49,6.27,7.39-.06,5.04-4.57,6.07-8.21,7.35-2.64.93-5.56,1.24-8.38,1.44-3.4.24-6.83.06-10.24.06-.07.38-.14.76-.21,1.13Z"/>
  <path class="cls-1" d="M653.51,1166.4c-5.19,2.57-8.01,4.79-11.12,5.36-15.57,2.86-30.96,2.05-45.83-3.83-2.06-.82-3.86-2.43-5.6-3.89-2.12-1.8-1.48-5.95,1.07-7.37,1.5-.84,3.01-1.88,4.64-2.22,17.38-3.57,34.33-2.49,50.48,5.34,1.86.9,3.08,3.12,6.36,6.61Z"/>
  <path class="cls-1" d="M300.92,1082.14c13.33.19,24.3,3.22,34.43,9.09,2.45,1.42,5.06,3.08,6.67,5.31,1.5,2.08,2.55,5.13,2.28,7.59-.16,1.49-3.12,2.8-4.98,3.94-.93.57-2.19.73-3.32.8-15.44.88-29.59-2.87-42.03-12.2-1.75-1.31-2.98-3.42-4.16-5.34-1.4-2.3.08-6.34,2.7-7.15,3.25-1.01,6.62-1.6,8.42-2.02Z"/>
  <path class="cls-1" d="M296.11,1068.42c-11.47-1.11-22.88-4.3-32.56-12-2.16-1.72-3.91-4.1-5.42-6.45-1.9-2.95-.4-7.24,2.86-8.61,2.07-.87,4.31-1.9,6.46-1.87,14.1.21,26.86,4.41,37.73,13.61,3.73,3.16,5.71,8.42,3.6,10.37-2.33,2.16-5.65,3.29-8.64,4.66-.96.44-2.24.19-4.03.29Z"/>
  <path class="cls-1" d="M722.98,917.54c-11.29-.13-19.36-2.6-26.06-8.61-6.72-6.02-4.95-14.74,3.83-17.24,13.01-3.71,25.04-1.02,35.22,7.89,6.1,5.34,4.17,13.63-3.58,16.23-3.73,1.25-7.81,1.46-9.41,1.74Z"/>
  <path class="cls-1" d="M862.75,1123.83c3.99.73,11.82,1.97,19.55,3.66,2.83.62,5.43,2.82,4.77,6.03-.39,1.87-2.36,4.11-4.17,4.89-12.85,5.54-26.33,7.24-40.17,5.25-4.48-.64-8.97-1.78-13.18-3.4-1.74-.67-3.73-3.14-3.84-4.9-.11-1.77,1.6-4.79,3.18-5.34,6.4-2.2,13.02-3.88,19.65-5.31,3.3-.71,6.82-.47,14.21-.88Z"/>
  <path class="cls-1" d="M494.43,1173.79c-2.58,4.27-7.41,4.76-11.8,5.12-14.61,1.18-28.65-1.52-42.07-7.4-1.56-.68-3.35-1.52-4.28-2.82-1.22-1.71-2.23-3.95-2.28-5.99-.03-1.18,1.89-2.56,3.16-3.57.86-.68,2.07-1.1,3.18-1.26,18.28-2.76,35.48.39,51.44,9.74,1.32.77,2.02,2.69,2.86,4.16.22.39-.1,1.08-.21,2.01Z"/>
  <path class="cls-1" d="M184.95,1014.44c-11.57-1.83-23.58-6.63-31.96-18.05-3.58-4.88-1.16-10.61,4.76-11.79,1.12-.22,2.29-.5,3.41-.42,14.33,1.02,26.83,6.11,36.42,17.1,2.23,2.55,4.25,6.16,1.67,9.33-1.58,1.94-4.63,2.86-7.2,3.74-1.54.53-3.41.1-7.09.1Z"/>
  <path class="cls-1" d="M491.54,1031.59c-12.96.33-22.23-2.37-30.54-7.88-2.75-1.83-5.02-4.6-7.01-7.31-2.14-2.91-.97-6.95,2.08-8.99,11.9-7.99,41.29.11,47.29,13.03,1.41,3.03.07,7.53-3.15,8.75-3.67,1.39-7.59,2.12-8.67,2.4Z"/>
  <path class="cls-1" d="M119.5,1020.58c14.14,1.73,26.49,6.97,36.31,17.32,2.3,2.42,4.67,5.85,2.44,9.12-1.38,2.02-4.64,3.91-7.04,3.9-16.08-.04-29.96-5.75-41.11-17.54-.76-.8-1.2-1.92-1.73-2.92-1.97-3.73.28-8.48,4.44-9.19,2.23-.38,4.51-.47,6.7-.69Z"/>
  <path class="cls-1" d="M315.1,999.88c12.2.98,23.84,4.85,32.9,14.52,2.44,2.61,3.96,6.13,1.82,9.27-1.4,2.05-4.34,3.92-6.8,4.22-15,1.85-28.19-2.58-38.82-13.33-2.05-2.07-3.29-6.24-2.86-9.13.53-3.49,4.34-4.91,7.97-5.2,1.7-.14,3.4-.21,5.78-.34Z"/>
  <path class="cls-1" d="M759.26,963.7c-11.53-.59-20.51-1.97-27.74-8.61-5.51-5.06-4.53-12.25,2.1-15.42,11.12-5.32,31.56-2.37,40.6,5.86,5.62,5.12,4.81,12.39-2.19,15.14-4.7,1.84-9.9,2.39-12.77,3.04Z"/>
  <path class="cls-1" d="M453.62,986.03c-10.41-.81-19.63-3.56-27.46-9.84-2.17-1.74-3.97-4.11-5.43-6.5-2.12-3.49-.43-8.62,3.19-10.27,2.06-.94,4.28-2,6.47-2.08,13.07-.46,24.95,2.82,34.31,12.46,5.99,6.17,3.66,13.33-4.79,15.32-2.21.52-4.5.67-6.29.92Z"/>
  <path class="cls-1" d="M927.32,1129.98c-6.64-1.66-13.84-3.2-20.85-5.35-2.67-.81-2.93-5.55-.72-7.33,1.77-1.42,3.62-2.99,5.7-3.74,14.33-5.17,29.03-7.1,44.11-4.01,2.76.57,5.41,1.84,7.98,3.07,2.64,1.27,3.15,5.71.7,7.24-3.36,2.1-6.86,4.42-10.62,5.32-8.34,1.98-16.89,3.14-26.29,4.79Z"/>
  <path class="cls-1" d="M140.63,1122.27c-15.05-.86-27.67-5.71-39.19-13.58-1.86-1.27-3.77-2.79-4.92-4.65-1.1-1.77-2.13-4.43-1.55-6.15.56-1.67,3.02-3.17,4.96-3.8,2.08-.68,4.54-.5,6.78-.26,14.48,1.51,27.63,6.58,39.36,15.23,1.36,1,2.92,2.2,3.5,3.67.78,1.95,1.21,4.36.77,6.35-.25,1.12-2.43,2.19-3.93,2.58-2.17.57-4.5.5-5.77.62Z"/>
  <path class="cls-1" d="M335.37,1120.65c14.94.34,26.5,3.44,37.21,9.42,2.45,1.37,4.61,3.38,6.65,5.36,2.65,2.59,1.63,7.2-1.75,8.49-1.58.61-3.23,1.24-4.9,1.41-15.35,1.57-29.69-1.79-43.03-9.38-2.41-1.37-4.47-3.54-6.34-5.65-2.25-2.55-.53-7.58,2.89-8.32,3.9-.83,7.9-1.15,9.27-1.34Z"/>
  <path class="cls-1" d="M1046.84,1096.11c-3.54,3.54-5.1,6.09-7.36,7.2-15.31,7.51-31.56,9.2-48.28,6.85-2.14-.3-4.2-1.62-6.16-2.71-2.38-1.33-2.68-5.6-.44-7.37,2.21-1.74,4.51-3.59,7.08-4.59,14.68-5.72,29.92-6.77,45.37-4.3,2.62.42,4.99,2.44,9.79,4.92Z"/>
  <path class="cls-1" d="M169.41,1109.39c10.45-9.08,21.7-3.19,31.93.06,10.29,3.27,22.31,5.94,26.07,19.4-1.95,1.3-3.2,2.8-4.64,3-18.02,2.55-33.92-3-48.46-13.22-1.79-1.26-3.06-3.35-4.28-5.24-.55-.85-.37-2.16-.62-4Z"/>
  <path class="cls-1" d="M117.68,1004.31c-15.71-1.87-28.57-7.11-37.74-19.28-4.25-5.64-1.35-11.97,5.57-12.12,15.21-.33,27.64,6.02,37.41,17.32,1.89,2.19,3.04,6.7,2.08,9.18-.93,2.37-5.06,3.5-7.32,4.89Z"/>
  <path class="cls-1" d="M149.32,1064.99c14.69,1.06,26.78,5.72,37.36,14.08,2.15,1.7,3.76,4.2,5.27,6.55,1.44,2.25-.18,6.49-2.48,7.29-13.59,4.75-42.6-5.91-50.51-18.56-1.94-3.11-.42-7.36,3.12-8.2,2.75-.65,5.59-.92,7.24-1.17Z"/>
  <path class="cls-1" d="M529.79,984.09c-11.62-.2-21.98-2.9-30.21-11.1-6.02-6-4.14-13.87,4.09-15.77,13.82-3.19,26.04.92,36.81,9.71,3.32,2.71,5.03,6.44,3.66,10.72-1.44,4.46-5.54,5.4-9.58,6.05-1.69.27-3.42.28-4.77.38Z"/>
  <path class="cls-1" d="M545.29,1002.57c10.6.23,19.62,1.74,27.57,6.83,2.81,1.8,5.29,4.33,7.4,6.95,2.63,3.26,1.06,8.3-2.75,10.19-12.07,5.98-35.92,1.31-44.84-8.78-4.39-4.96-2.6-11.68,3.81-13.54,3.27-.95,6.71-1.27,8.82-1.65Z"/>
  <path class="cls-1" d="M377.85,984.36c-12.21-1.06-22.18-4.67-30.09-12.88-2.93-3.05-4.74-6.68-2.92-10.81,1.48-3.36,4.75-4.75,8.35-5.05,13.25-1.11,24.61,3.25,34.35,12.07,1.24,1.12,2.17,2.63,3.05,4.08,2.97,4.89.48,10.43-5.37,11.68-2.76.59-5.62.71-7.36.91Z"/>
  <path class="cls-1" d="M493.38,934.99c-10.92-.43-21-3.92-28.4-13.06-4.78-5.9-2.21-13.08,5.24-14.4,13.37-2.36,25.2,1.18,34.61,11,2.07,2.16,3.38,6.24,3.05,9.22-.49,4.43-4.6,6.22-8.85,6.84-1.7.25-3.44.25-5.66.4Z"/>
  <path class="cls-1" d="M509.79,1162.11c3.87-2,6.61-4.34,9.66-4.83,16.75-2.71,32.95-.5,48.4,6.65,1.01.47,1.82,1.36,2.71,2.07,2.99,2.38,2.63,6.87-.68,8.46-1.02.49-2.01,1.22-3.09,1.4-17.24,2.84-34.11,2.05-50.15-5.65-1.5-.72-2.83-1.9-4.02-3.09-.77-.77-1.13-1.94-2.82-5Z"/>
  <path class="cls-1" d="M194.96,1031.34c12.97,1.64,24.57,5.8,34.2,14.49,1.63,1.47,2.88,3.49,3.96,5.45,1.69,3.06-.08,7.19-3.43,8.32-1.61.54-3.29,1.29-4.92,1.26-15.35-.28-29.02-4.85-39.92-16.15-.78-.81-1.36-1.82-1.94-2.79-2.15-3.58-.21-8.57,3.87-9.5,2.74-.62,5.59-.75,8.17-1.08Z"/>
  <path class="cls-1" d="M630.7,898.39c9.95.63,18.86,2.35,26.19,8.62,3.12,2.68,5.52,5.88,4.83,10.37-.72,4.69-4.2,6.56-8.25,7.57-12.55,3.12-23.78.14-33.64-7.93-3.16-2.59-5.45-6.12-4.16-10.51,1.26-4.29,4.81-6.18,8.94-7.05,2.23-.47,4.49-.79,6.09-1.07Z"/>
  <path class="cls-1" d="M262.46,1164.46c-19.59,4.45-45.91-1.41-57.72-12.52-1.37-1.29-1.93-4.03-1.84-6.05.05-1.13,2.13-2.99,3.44-3.12,20.18-2.02,38.45,2.89,54.3,15.78,1.03.84.98,3.02,1.82,5.91Z"/>
  <path class="cls-1" d="M570.82,931.77c-11.89-.07-21.48-3.01-28.91-11.09-5.67-6.17-3.54-13.38,4.5-15.82,11.09-3.37,28.43,1.95,35.91,11,4.73,5.73,2.74,12.87-4.26,14.78-2.72.74-5.61.89-7.24,1.13Z"/>
  <path class="cls-1" d="M239.63,993.41c12.14,1.45,23.69,5.8,32.62,15.63,2.42,2.66,3.92,6.3,1.89,9.42-1.35,2.07-4.51,4-6.97,4.16-15.06.93-28.1-3.93-38.48-15.09-2.44-2.63-3.85-6.26-1.77-9.38,1.37-2.06,4.36-3.23,6.85-4.3,1.48-.64,3.38-.29,5.87-.43Z"/>
  <path class="cls-1" d="M278.69,1153.27c2.79-1.12,5.77-3.28,8.84-3.41,16.44-.67,31.87,3.32,46.15,11.49,1.91,1.09,3.63,2.92,4.78,4.8,1.32,2.17.51,4.4-1.75,5.74-.96.57-2.09,1.04-3.19,1.16-18.35,2.03-35.39-1.85-51.02-11.66-1.37-.86-2.42-2.42-3.25-3.87-.51-.9-.33-2.19-.57-4.26Z"/>
  <path class="cls-1" d="M187.23,1154.05c-4.17,1.66-7.13,3.89-10.01,3.79-16.9-.54-32.61-5.25-46.58-15.04-1.35-.95-2.37-2.42-3.41-3.77-1.76-2.29-.35-6.26,2.44-6.86,1.66-.36,3.37-.8,5.05-.77,17.05.26,32.56,5.47,46.52,15.13,2.14,1.48,3.41,4.2,5.98,7.52Z"/>
  <path class="cls-1" d="M230.45,973.7c-12.04-.22-22.78-4.92-31.35-14.17-1.83-1.97-3.5-4.92-3.57-7.47-.06-2.32,1.68-5.2,3.5-6.9,1.46-1.36,4.27-1.94,6.41-1.8,13.08.85,24.57,5.52,32.97,15.87,1.89,2.33,2.99,6.46,2.43,9.38-.92,4.8-5.77,4.69-10.39,5.1Z"/>
  <path class="cls-1" d="M303.07,980.35c-12.38-.73-23.8-5.29-32.04-16.09-4.22-5.53-1.65-11.88,5.27-12.74,14.74-1.84,27.2,3.18,36.95,14.17,1.93,2.18,2.71,6.39,2.27,9.41-.56,3.88-4.66,4.53-8.15,4.99-1.14.15-2.29.15-4.3.27Z"/>
  <path class="cls-1" d="M417.75,935.31c-11.29-.8-20.63-4.62-27.66-12.97-5.56-6.6-2.85-14.21,5.39-15.2,13.42-1.62,24.97,2.56,33.87,12.71,1.96,2.24,2.97,6.41,2.51,9.4-.53,3.44-4.12,5.22-7.8,5.59-2.27.23-4.56.34-6.3.47Z"/>
  <path class="cls-1" d="M762,857.67c-10.23-1.19-19.19-2.92-25.35-10.92-3.81-4.95-2-11.77,3.7-14.4,10.31-4.76,27.38-1.39,35.14,6.94,5.09,5.47,3.93,12.63-2.83,15.43-3.65,1.51-7.66,2.14-10.66,2.94Z"/>
  <path class="cls-1" d="M133.05,933.65c12.59,1,24.56,6.63,32.9,18.65,3.79,5.45.53,11.68-6.06,12.44-11.83,1.37-30.52-8.12-36.41-18.47-3.71-6.51-.03-12.46,9.57-12.62Z"/>
  <path class="cls-1" d="M369.62,1155.01c15.43.32,27.7,2.87,39.14,8.62,2.46,1.24,4.59,3.29,6.56,5.28,1.94,1.96.57,6.67-2.16,6.88-7.92.61-15.93,1.45-23.8.87-10.92-.8-21.44-3.82-30.44-10.48-1.6-1.18-3.19-3.86-2.96-5.61.22-1.65,2.62-3.78,4.46-4.28,3.81-1.04,7.88-1.13,9.21-1.3Z"/>
  <path class="cls-1" d="M325.54,903.71c11.32,1.16,22.23,5.24,29.7,15.85,3.9,5.55,1.49,11.59-5.01,13.22-11.31,2.84-29.52-4.79-35.94-15.05-3.92-6.26-.71-12.79,6.75-13.7,1.13-.14,2.27-.17,4.49-.32Z"/>
  <path class="cls-1" d="M196.14,920.85c-11.24-1.54-22.44-6.51-29.53-18.31-3.45-5.75-.11-12.11,6.65-12.27,13.56-.34,24.54,5.36,32.61,16.05,1.82,2.41,2.78,6.62,2.07,9.5-1.11,4.51-5.72,5-11.8,5.04Z"/>
  <path class="cls-1" d="M596.08,847.54c10.01.36,17.89,3.13,24.3,9.4,3,2.94,4.66,6.5,3.48,10.77-1.23,4.45-4.98,6.19-8.94,6.88-11.37,1.99-21.36-1.29-29.79-9.05-3.04-2.8-4.81-6.46-3.58-10.72,1.24-4.34,4.72-6.18,8.92-6.78,2.24-.32,4.52-.41,5.62-.5Z"/>
  <path class="cls-1" d="M235.52,1178.3c6.78-6.73,14.82-4.19,22.38-3.01,22.8,3.57,32.49,8.12,39.2,18.14-8.58,6-17.62,3.23-26.48,1.55-20.52-3.89-26.66-6.83-35.1-16.68Z"/>
  <path class="cls-1" d="M443.41,853.36c9.01,1.04,17.6,3.78,24.4,10.62,3.43,3.45,5.68,7.52,3.68,12.33-2.03,4.87-6.75,5.93-11.46,5.89-9.53-.08-17.88-3.49-24.9-9.92-4.72-4.32-6.27-10-4.08-13.77,1.81-3.12,6.9-5.29,12.37-5.15Z"/>
  <path class="cls-1" d="M685.67,867.77c-8.7-.69-16.95-2.46-23.53-8.71-3.05-2.9-4.83-6.38-3.9-10.68.97-4.47,4.33-6.49,8.46-7.29,10.59-2.04,20.38-.18,29,6.51,3.77,2.93,6.46,6.66,5.31,11.72-1.21,5.28-5.81,6.56-10.32,7.65-1.65.4-3.36.54-5.02.8Z"/>
  <path class="cls-1" d="M268.84,928.18c-10.04-.59-20.24-5.29-27.52-15.03-1.8-2.41-2.79-6.54-2.12-9.41,1.01-4.37,5.54-5.83,9.66-5.58,11.9.72,22.28,5.09,30.15,14.37,2.72,3.2,4.05,6.95,2.27,11.13-1.29,3.04-5,4.59-12.43,4.51Z"/>
  <path class="cls-1" d="M1002.67,1135.02c-10.22,9.92-21.92,10.37-33.07,12.02-10.18,1.51-20.42,2.2-30.95-3.72,1.39-2.34,2.02-5.05,3.57-5.77,17.61-8.17,35.95-11.17,55.09-6.57,1.44.35,2.59,1.9,5.36,4.04Z"/>
  <path class="cls-1" d="M123.69,910.63c-11.14-1.19-22.32-7.06-29.41-19.44-3.44-6.01.07-11.85,7.14-11.67,14.12.37,25.16,6.77,32.75,18.63,4.19,6.55.4,12.39-10.48,12.48Z"/>
  <path class="cls-1" d="M860.34,1157.75c3.15-6.8,9.44-7.87,15.53-9.12,15.82-3.24,31.59-5.18,48.43,2.17-1.93,2.76-2.73,5.26-4.35,6.01-17.92,8.31-36.59,8.83-55.57,4.58-1.39-.31-2.44-2.15-4.04-3.63Z"/>
  <path class="cls-1" d="M388.48,1190.14c3.5-1.99,5.25-3.69,7.23-4.02,18.8-3.12,36.58.43,53.45,8.91,1.27.64,2.49,2.69,2.52,4.1.03,1.29-1.33,3.38-2.54,3.8-15.74,5.49-44.54-.16-60.66-12.81Z"/>
  <path class="cls-1" d="M521.66,851.86c7.48.32,16.41,3.61,23.28,11.39,2.83,3.21,4.47,7.39,1.9,10.99-1.76,2.46-5.34,4.5-8.39,4.99-10.8,1.73-20.45-1.41-28.53-8.84-3.55-3.27-5.94-7.33-3.96-12.24,1.96-4.88,6.44-6.12,11.29-6.28.57-.02,1.15,0,4.41,0Z"/>
  <path class="cls-1" d="M725.99,804.29c-9.26.04-16.82-1.89-22.96-7.73-7.15-6.8-5.21-15.73,4.18-18.3,11.43-3.13,21.44.15,29.61,8.36,6.44,6.47,3.77,14.6-5.12,16.76-2.2.53-4.48.72-5.72.91Z"/>
  <path class="cls-1" d="M367.47,852.01c11.5,1.93,21.51,5.57,28.06,15.38,3.72,5.57,1.34,11.69-5.02,13.43-11.98,3.29-29.54-5.12-34.57-16.55-1.7-3.86-.17-8.49,3.72-10.12,2.57-1.08,5.41-1.5,7.81-2.14Z"/>
  <path class="cls-1" d="M546.44,1188.97c10.82-7.23,22.53-5.54,33.77-4.44,10,.98,20.55,1.75,29.65,10.26-2.1,2.03-3.35,4.35-5.05,4.73-18.37,4.13-36.49,3.34-54.1-3.74-1.46-.59-2.54-2.22-3.69-3.47-.31-.33-.21-1.04-.59-3.35Z"/>
  <path class="cls-1" d="M687.94,1189.18c-10.65,7.09-15.75,8.42-32.91,7.61-10.65-.5-21.56-.79-31.04-9.48,1.75-1.91,2.88-4.33,4.55-4.78,19.16-5.18,38.14-5.11,56.61,3.03.9.4,1.38,1.74,2.79,3.62Z"/>
  <path class="cls-1" d="M844.68,1168.51c-7.66,8.32-18.24,8.31-28.27,8.56-11.62.29-23.92,2.64-33.87-5.38-.33-4.56,2.24-6.25,4.87-7.15,14.39-4.89,29.21-6,44.13-3.5,4.72.79,10.69.53,13.13,7.47Z"/>
  <path class="cls-1" d="M293.39,848.68c10.79.97,21.38,5.56,28.21,16.62,3.4,5.5.26,11.73-6.09,12.91-11.32,2.11-28.03-6.5-32.87-16.94-2.94-6.34,1.3-12.26,10.75-12.59Z"/>
  <path class="cls-1" d="M648.59,813.79c-8.78-.11-16.11-2.97-22.08-8.95-2.94-2.95-4.9-6.52-3.61-10.86,1.28-4.3,4.66-6.54,8.85-7.22,10.97-1.79,20.55,1.31,28.28,9.26,2.82,2.9,4.82,6.64,2.87,10.96-1.81,4.01-5.24,5.94-9.5,6.46-1.71.21-3.43.26-4.81.36Z"/>
  <path class="cls-1" d="M1080.64,1113.05c-2.15,2.66-3.13,4.93-4.83,5.81-16.68,8.64-34.45,11.27-52.96,8.62-1.63-.23-3.45-2.6-4.16-4.38-.39-.99,1.15-2.96,2.14-4.23.65-.84,1.83-1.35,2.87-1.8,14.91-6.4,30.52-8.92,46.64-7.78,3.08.22,6.04,2.14,10.29,3.75Z"/>
  <path class="cls-1" d="M74.52,1070.47v-16.01c5.13-2.93,9.35-.64,13.57.61,8.91,2.64,17.2,6.68,24.02,13.01,2.75,2.55,4.36,6.32,6.48,9.51-11.82,8.06-22.77,6.23-44.07-7.12Z"/>
  <path class="cls-1" d="M241.04,872.67c-13.53-.79-23.55-5.68-30.08-16.14-1.56-2.5-2.06-7.1-.77-9.51,1.29-2.39,5.51-4.62,8.34-4.49,12.08.53,21.99,5.83,28.87,16.01,1.93,2.86,3.64,6.53.99,9.49-2.07,2.32-5.43,3.48-7.36,4.64Z"/>
  <path class="cls-1" d="M312.9,1186.33c3.01-5.67,7.82-5.55,12.26-5.41,15.56.5,30.65,3.3,44.55,10.71,2.46,1.31,4.82,3.16,3.87,6.66-12.02,4.78-23.39,4.74-41.16-.63-7.39-2.23-15.66-3.4-19.53-11.34Z"/>
  <path class="cls-1" d="M490.06,1185.13c9.93,2.02,20.54,4,31.04,6.44,2.63.61,5.01,2.56,7.33,4.16,2.34,1.61,1.38,5.76-1.45,6.85-1.06.41-2.09,1.01-3.18,1.15-16.67,2.18-33.04,1.2-48.8-5.11-2.02-.81-3.72-2.51-5.42-3.97-1.29-1.1-.48-5.56,1.14-5.9,6.07-1.27,12.19-2.3,19.34-3.61Z"/>
  <path class="cls-1" d="M561.51,792.74c8.27.12,16.57,3.32,22.94,10.66,5.85,6.75,2.94,15.22-5.74,16.68-9.57,1.61-18.1-1.18-25.56-7.14-4.21-3.36-6.98-7.6-5.47-13.37,1.16-4.41,5.62-6.77,13.83-6.83Z"/>
  <path class="cls-1" d="M486.9,796.28c6.58.04,14.28,3.26,20.55,9.61,3.26,3.3,6.07,7.27,4.21,12.17-1.86,4.89-6.41,6-11.19,6.17-9,.31-16.71-2.82-23.26-8.87-4.66-4.3-6.43-9.75-4.38-13.62,2.47-4.68,6.95-5.4,14.07-5.45Z"/>
  <path class="cls-1" d="M768.21,1181.81c-7.21,2.39-11.34,4.31-15.68,5.09-11.86,2.12-23.84,2.15-35.71.1-3.81-.66-7.5-2.37-11.07-3.99-2.53-1.15-2.13-5.52.43-7,.98-.56,1.91-1.34,2.96-1.63,17.45-4.82,34.87-4.9,52.14.74,1.77.58,3.01,2.81,6.93,6.69Z"/>
  <path class="cls-1" d="M280.34,820.61c-12.47-1.85-21.79-6.64-27.52-16.96-3.49-6.27.47-13.32,7.75-13.18,11.58.23,20.86,5.41,27.32,15.03,2.25,3.34,3.64,7.78.35,11.09-2.17,2.19-5.74,2.98-7.89,4.02Z"/>
  <path class="cls-1" d="M145.36,833.5c13.46,1.29,22.93,6.89,29.53,17.11,1.87,2.89,3.6,6.64.82,9.43-2.17,2.18-5.85,4.29-8.71,4.09-12.03-.82-21.87-6.35-28.15-16.82-1.51-2.53-1.99-7.03-.73-9.47,1.23-2.37,5.3-3.28,7.23-4.34Z"/>
  <path class="cls-1" d="M158.1,1167.9c3.48-1.27,6.03-2.98,8.6-3.01,13.34-.15,26.09,3.01,38.31,8.19,5.67,2.4,11.87,4.29,15.37,11.58-1.98,1.18-3.68,3.04-5.48,3.15-18.84,1.07-36.22-3.82-52.13-13.82-1.73-1.09-2.68-3.42-4.67-6.08Z"/>
  <path class="cls-1" d="M689.87,748.13c-11.26-.13-19.52-3.21-24.93-11.8-3.02-4.79-1.33-10.46,3.68-13.08,10.5-5.49,27.21.4,32.38,11.42,1.76,3.75.67,8.5-3.01,10.5-2.91,1.58-6.28,2.32-8.12,2.96Z"/>
  <path class="cls-1" d="M335.52,795.22c11,.71,20.9,5.36,26.82,16.55,2.7,5.1-.16,10.84-5.82,11.74-12.6,2.01-22.39-3.12-29.66-13-1.79-2.43-2.7-6.54-2.07-9.47.95-4.4,5.35-5.43,10.73-5.83Z"/>
  <path class="cls-1" d="M208.11,813.88c-12.39-2.15-21.5-7.19-26.94-17.56-3.48-6.63.39-13.47,7.62-12.97,12.08.83,21.57,6.41,27.46,17.25,1.67,3.07,2.6,6.91-.28,9.48-2.3,2.06-5.74,2.83-7.86,3.8Z"/>
  <path class="cls-1" d="M427.96,825.66c-12.33-.62-21.19-4.14-27.49-12.54-2.42-3.23-4.27-6.95-1.83-11.15,2.29-3.95,6.07-5.21,10.27-5.08,10.32.31,18.89,4.44,25.45,12.47,2.73,3.34,4.37,7.68,1.76,11.1-2.15,2.83-6.33,4.11-8.15,5.2Z"/>
  <path class="cls-1" d="M134.59,803.82c-10.12-1.1-19.17-7.21-24.53-18.35-3.13-6.49,1.99-13.08,9.27-11.88,11.3,1.85,20.21,7.55,25.64,17.89,3.59,6.83-.29,12.6-10.39,12.34Z"/>
  <path class="cls-1" d="M536.07,762.07c-6.78-.01-14.85-3.72-20.52-11.92-4.58-6.62-.99-14.39,7.14-15.24,9.85-1.03,18.02,2.72,24.64,9.89,2.86,3.1,4.44,6.78,3.16,11.08-1.13,3.79-5.48,6.06-14.42,6.19Z"/>
  <path class="cls-1" d="M464.16,765.22c-9-.63-17.61-4.33-22.92-13.52-3.68-6.38-.18-13.11,6.96-13.86,10.52-1.1,18.9,3.05,25.38,11.08,2.58,3.2,3.77,7.07,1.84,11.15-2,4.22-5.89,4.95-11.26,5.15Z"/>
  <path class="cls-1" d="M613.02,756.6c-8.17-.62-15.18-2.8-20.6-8.64-3.34-3.6-5.1-7.79-3.08-12.59,1.79-4.28,5.85-5.37,9.98-5.56,9.74-.43,18.18,2.52,24.28,10.51,5.07,6.64,2.26,13.91-5.93,15.6-1.68.35-3.4.5-4.64.68Z"/>
  <path class="cls-1" d="M393.87,765.59c-12.24-.68-20.99-5.01-26.26-14.99-3.42-6.48.45-12.68,7.91-12.99,10.54-.44,18.6,4.22,24.69,12.48,2.46,3.34,3.83,7.57,1.03,11.02-1.9,2.34-5.43,3.36-7.37,4.48Z"/>
  <path class="cls-1" d="M320.57,763.09c-11.84-.9-19.85-5.69-24.97-14.9-1.72-3.1-2.16-6.53,0-9.76,2.16-3.25,5.53-4.08,9.03-3.77,9.68.85,17.35,5.4,22.87,13.41,2.44,3.53,3.65,7.82.8,11.14-1.96,2.28-5.78,2.97-7.74,3.88Z"/>
  <path class="cls-1" d="M652.02,689.02c-9.49-1.17-16.68-4.21-21.5-11.52-3.54-5.37-1.49-11.93,4.4-14.18,10.26-3.92,24.9,2.86,28.52,13.25,1.3,3.74.09,7.1-2.98,9.08-2.76,1.78-6.2,2.52-8.44,3.37Z"/>
  <path class="cls-1" d="M230.96,729.51c10.37-.29,21.99,7.13,25.88,16.52,2.86,6.93-1.32,12.79-8.94,12.19-11.13-.87-19.25-6.58-24.18-16.48-2.92-5.87.97-12.05,7.25-12.23Z"/>
  <path class="cls-1" d="M409.67,1222.88c-17.56,4.25-31.54,1.46-45.33-2.05-5.25-1.34-11.47-1.85-14.67-8.5,7.38-6.69,16.19-4.28,24.09-2.99,11.77,1.91,24.7,1.66,35.92,13.55Z"/>
  <path class="cls-1" d="M186.94,745.25c-1.7,1.42-3.85,4.7-6.55,5.22-11.2,2.19-25.97-8.86-27.89-20.19-.67-3.93,2.35-8.16,6.27-8.79,11.55-1.85,27.85,11.06,28.17,23.75Z"/>
  <path class="cls-1" d="M90.66,710.78c10.22-.16,22.97,9.75,25.5,19.82,1.45,5.79-2.35,10.57-8.12,10.2-11.06-.71-22.45-10.15-24.88-20.62-1.07-4.6,2.7-9.32,7.5-9.4Z"/>
  <path class="cls-1" d="M577.25,696.08c-8.67-.51-15.62-3.95-20.54-10.89-4.58-6.45-1.19-14.38,6.44-15.54,9.04-1.38,20.13,4.14,24.58,12.25,3.05,5.55.37,12.08-5.61,13.51-1.65.39-3.37.47-4.87.67Z"/>
  <path class="cls-1" d="M955.99,1167.13c-2.56,6.86-9.08,7.14-14.06,8.02-14.3,2.51-28.79,7.08-44.71.47,1.82-2.31,2.7-4.62,4.25-5.22,16.17-6.26,32.9-8.66,50.15-6.14,1.45.21,2.72,1.75,4.37,2.87Z"/>
  <path class="cls-1" d="M721.47,1208.93c-14.99,8.19-29.43,5.68-43.56,5.41-5.58-.11-11.03-1.21-15.5-5.52,8.79-6.94,9.45-7.16,22.01-7.68,20.69-.86,25.51.05,37.05,7.8Z"/>
  <path class="cls-1" d="M503.9,700.57c-8.93-.3-16.83-3.88-21.64-12.7-3.52-6.46-.02-13.06,7.22-13.54,9.79-.66,17.88,2.96,23.18,11.23,1.62,2.52,2.22,6.55,1.55,9.49-1.01,4.46-5.41,5.23-10.31,5.52Z"/>
  <path class="cls-1" d="M255.11,1210.45c-14.64,4.56-20.83,4.36-39.29-1.32-7.25-2.23-15.6-3.05-20.04-10.61,1.13-1.46,1.7-2.94,2.44-3.03,3.91-.45,8.04-1.39,11.77-.6,11.1,2.35,22.13,5.16,33.01,8.37,3.57,1.05,6.63,3.85,12.11,7.18Z"/>
  <path class="cls-1" d="M582.93,1213.63c8.58-8.06,18.11-5.76,26.9-5.92,11.21-.21,22.54.12,32.46,6.18-.98,5.59-4.82,5.97-7.8,6.4-14.24,2.06-28.5,2.09-42.48-1.83-2.99-.84-5.61-2.95-9.08-4.84Z"/>
  <path class="cls-1" d="M74.81,843.22c-1.49-6.42-1.69-13.12.39-20.56,13.66.75,22.69,7.71,28.84,18.79,3.26,5.88-.8,11.98-7.54,11.69-8.32-.35-15.67-3.17-21.7-9.92Z"/>
  <path class="cls-1" d="M974.94,1157.54c16.4-11.53,40.82-15.2,57.88-9.57-.22,1.03-.1,2.65-.7,3-16.01,9.14-33.49,10.75-51.43,9.6-1.5-.1-2.92-1.49-5.75-3.03Z"/>
  <path class="cls-1" d="M800.12,1198.09c-9.97,7.32-20.49,6.73-30.56,7.06-9.5.31-19.35,1.35-29.66-4.4,2.36-2.43,3.51-4.69,5.19-5.18,15.69-4.6,31.62-5.96,47.73-2.27,1.64.38,3.19,1.21,4.73,1.94.45.21.73.78,2.57,2.85Z"/>
  <path class="cls-1" d="M431.23,703.26c-10.3-1.89-17.06-5.71-21.44-13.09-4.21-7.09-.16-14.36,7.97-14.32,8.6.04,15.35,3.98,20.68,10.46,3.24,3.95,4.26,10.01,1.37,12.59-2.7,2.41-6.64,3.43-8.58,4.36Z"/>
  <path class="cls-1" d="M1112.12,1127.49c-14.47,10.64-31.21,11.56-47.58,13.61-3.76.47-3.8.16-10.99-4.6,13.23-10.29,28.78-11.36,44.06-13.03,4.82-.53,10.24-1.82,14.51,4.02Z"/>
  <path class="cls-1" d="M331.49,1217.44c-19.34,6.1-44.49,1.14-58.9-10.5,4.37-5.55,10.35-3.82,15.62-3.33,14.62,1.35,29.35,2.67,43.28,13.83Z"/>
  <path class="cls-1" d="M614.21,625.99c-6.96-.85-13.54-3.85-18.02-10.56-4.41-6.6-.8-14.48,7.11-15.2,8.03-.73,14.6,2.56,19.85,8.37,2.75,3.04,4.61,6.66,3.08,11.03-1.33,3.81-6.23,6.57-12.03,6.36Z"/>
  <path class="cls-1" d="M817.28,1189.48c8.02-7.75,15.53-8.32,22.8-9.22,18.07-2.22,25.64-1.54,37.45,3.15-1.91,5.01-6.29,6.08-10.61,6.91-15.72,3.02-31.47,6.21-49.64-.84Z"/>
  <path class="cls-1" d="M564.38,1221.25c-13.16,6.77-26.39,4.19-39.18,2.66-6.74-.81-15.06-.36-20.09-9,13.26-6.64,26.46-3.97,39.22-2.53,6.79.77,15.04.49,20.05,8.86Z"/>
  <path class="cls-1" d="M277.48,671.9c8.65,1.67,16.2,6.94,19.87,16.92,1.6,4.34-1.71,9.4-6.35,10.15-10.35,1.67-23.28-7.25-25.79-17.8-1.37-5.75,3.69-10.21,12.27-9.27Z"/>
  <path class="cls-1" d="M532.84,606.57c7.24.42,14.48,4.12,18.9,12.45,3.08,5.8.27,11.77-6.08,13.1-9.53,2-21.39-5.05-24.35-14.48-1.73-5.52,2.97-10.93,11.53-11.07Z"/>
  <path class="cls-1" d="M426.72,1215.79c2.74-1.69,4.42-3.49,6.32-3.76,13.21-1.87,26.25-.48,39.13,2.71,4.88,1.21,9.92,2.13,13.14,6.85-9.06,5.59-9.33,5.87-22.31,4.67-12.25-1.14-24.99-1-36.28-10.46Z"/>
  <path class="cls-1" d="M346.03,675c9.95,1.35,16.62,5.42,21.03,12.77,2.16,3.61,3.2,8.11-.04,11.21-2.17,2.07-6.18,3.48-9.16,3.18-8.39-.84-15.19-5.11-19.58-12.5-2.15-3.61-3.19-8.07-.09-11.24,2.11-2.16,5.94-2.65,7.85-3.42Z"/>
  <path class="cls-1" d="M216.55,693.1c-9.67-1.12-18.74-8.63-21.05-17.43-1.46-5.6,2.33-10.42,8.06-10.25,9.09.28,19.03,7.41,22.33,16.01,2.7,7.05-1.7,12.55-9.35,11.67Z"/>
  <path class="cls-1" d="M396.2,637.37c-7.28-1.06-13.17-5.19-17.28-11.87-2.26-3.68-2.48-9.32.24-11.15,2.62-1.76,6.31-3.32,9.25-2.93,7.65,1.01,14.2,4.85,17.67,12.03,1.33,2.75,1.74,6.71.84,9.58-1.42,4.55-6.01,4.53-10.72,4.34Z"/>
  <path class="cls-1" d="M157.13,677.29c.34,4.08-2.99,7.78-7.11,7.89-10.64.28-22.68-10.08-23.75-20.45-.36-3.49,2.14-6.95,5.42-7.51,10.83-1.85,24.51,8.94,25.44,20.08Z"/>
  <path class="cls-1" d="M479.9,627.87c.26,3.85-3.09,7.76-7.19,8.38-9.71,1.47-21.36-6.23-23.92-15.82-.99-3.72,1.68-8.4,5.48-9.58,10.52-3.28,24.92,6.27,25.64,17.02Z"/>
  <path class="cls-1" d="M315.87,609.73c8.94.48,17.67,7.08,20.46,15.47,1.97,5.93-2.57,11.87-8.78,11.12-9.08-1.1-15.83-5.8-19.89-14.07-3.29-6.7.83-12.92,8.2-12.52Z"/>
  <path class="cls-1" d="M175.31,598.91c9.74-.43,19.97,7.8,22.17,17.82,1,4.56-2.97,9.45-7.56,9.31-9.56-.28-19.71-9.31-21.46-19.08-.71-3.99,2.59-7.87,6.85-8.06Z"/>
  <path class="cls-1" d="M266.51,627.44c-1.84,1.27-4.29,4.32-7.07,4.64-9.56,1.11-20.54-8.01-22.3-17.64-.77-4.22,2.11-8.18,6.28-8.64,10.4-1.13,22.07,8.1,23.33,18.47.07.55-.08,1.13-.24,3.17Z"/>
  <path class="cls-1" d="M129.32,609.66c.16,3.58-2.68,6.71-6.21,6.87-10.64.48-21.33-9.46-21.68-20.15-.11-3.57,2.76-6.89,6.09-7.05,10.1-.5,21.34,9.99,21.8,20.34Z"/>
  <path class="cls-1" d="M437.13,568.57c-8.94-.24-16.6-6.02-19.13-14.44-1.38-4.58,1.91-9.32,6.79-9.81,8.48-.85,16.63,4.28,20.24,12.74,2.63,6.15-1.17,11.69-7.9,11.51Z"/>
  <path class="cls-1" d="M589.74,553.87c-1.8,1.6-3.88,4.86-6.67,5.64-8.66,2.45-19.18-4.17-21.63-12.82-1.17-4.15.94-8.72,4.58-9.91,9.37-3.05,20.84,2.98,23.33,12.33.29,1.09.2,2.28.38,4.76Z"/>
  <path class="cls-1" d="M305.42,560.26c-.02,3.88-4.22,7.43-8.3,7.02-8.44-.85-16.49-7.82-18.45-15.96-.96-3.99,1.88-8.74,5.61-9.36,9.42-1.57,21.2,8.64,21.14,18.31Z"/>
  <path class="cls-1" d="M286.08,1232.98c-17.71,3.15-38.79-.98-53.61-10.11,1.32-1.12,2.54-3.07,3.73-3.06,16.1.19,31.8,2.69,46.66,9.23.89.39,1.39,1.65,3.22,3.94Z"/>
  <path class="cls-1" d="M508.74,565.48c-9.12-.56-14.95-4.07-18.13-10.64-1.29-2.67-1.19-6.74-.17-9.63,1.22-3.47,5.08-4.32,8.67-3.98,7.32.69,13.19,4.28,16.48,10.72,1.35,2.64,1.54,7.13.15,9.58-1.33,2.35-5.4,3.14-6.99,3.96Z"/>
  <path class="cls-1" d="M697.88,1223.44c15.48-6.93,29.26-5.19,42.77-5.36,4.97-.06,4.97.19,11.92,4.02-13.62,7.58-36.83,8.75-54.69,1.34Z"/>
  <path class="cls-1" d="M622.28,1230.59c15.13-6.89,35.85-6.98,53.53.01-5.94,6.76-13.83,4.79-20.79,5.09-21.69.95-24.24.35-32.74-5.11Z"/>
  <path class="cls-1" d="M374.93,563.69c-1.66,1.29-3.93,4.48-6.59,4.85-9.26,1.3-18.37-5.65-20.48-14.68-.97-4.12,1.76-8.65,5.59-9.29,10.08-1.69,21.52,7.63,21.48,19.13Z"/>
  <path class="cls-1" d="M169.33,550.22c-1.47,1.19-3.36,3.97-5.62,4.32-9.82,1.51-20.57-8.81-20.03-18.84.17-3.21,2.33-5.37,5.42-5.74,9.76-1.17,20.49,9.07,20.24,20.26Z"/>
  <path class="cls-1" d="M236.59,557.17c-1.26,1.14-2.95,4-5.13,4.44-9.59,1.93-20.31-7.16-21.13-17.35-.25-3.09,2.87-6.66,6.1-6.97,9.87-.95,20.22,8.58,20.15,19.88Z"/>
  <path class="cls-1" d="M536.25,468.54c7.13-.12,14.03,4.62,17.15,11.76,2.5,5.72-1.94,11.86-8.29,11.27-7.31-.67-12.67-4.34-16-10.95-2.85-5.66.87-11.98,7.15-12.09Z"/>
  <path class="cls-1" d="M834.56,1210.79c-15,5.66-26.82,7.09-38.86,7-5.49-.04-11.38,1.29-17.22-3.31,3.35-4.45,7.84-5.04,11.99-5.82,14.41-2.71,29.36-2.25,44.09,2.13Z"/>
  <path class="cls-1" d="M544.56,1234.63c14.7-5.46,29.45-3.77,44.13-2.02,3.03.36,5.86,2.45,9.93,4.24-9.76,5.8-19.05,4.94-28.09,4.5-8.89-.43-18.02-.58-25.97-6.72Z"/>
  <path class="cls-1" d="M517.4,1239.96c-19.92,5.4-38.75,3.56-51.26-3.79,4.31-5.68,10.45-3.73,15.74-3.74,12.26-.03,24.51.5,35.52,7.53Z"/>
  <path class="cls-1" d="M441.69,1242.52c-19.43,1.13-36.71,1.22-54.17-6.51,1.59-1.86,2.46-3.83,3.5-3.93,16.03-1.54,31.8-.15,47.09,5.17.81.28,1.22,1.71,3.59,5.26Z"/>
  <path class="cls-1" d="M1053.73,1165.32c-6.76,1.02-13.51,2.08-20.27,3.05-6.53.94-13.09,2.51-20.14.04,9.63-9.52,28.35-13.87,49.97-11.96.36,7.13-8.15,4.78-10,9.33-.03.02.44-.46.44-.46Z"/>
  <path class="cls-1" d="M908.98,1196.2c-16.08,7.61-33.12,9.58-50.98,7.39.36-1.93.23-3.66.79-3.92,14.15-6.57,35.16-8.58,50.19-3.48Z"/>
  <path class="cls-1" d="M1130.75,1143.01c5.05-1.07,10.19-1.8,15.12-3.26,12.8-3.79,25.71-5.85,39.06-3.78-12.78,7.85-21.66,10.29-36.09,10.44-3.38.04-6.73,1.13-10.12,1.6-2.82.39-5.67.61-8.52.8-.45.03-.94-.5-1.86-1.02.97-1.73,1.95-3.47,2.92-5.21,0,0-.51.44-.51.44Z"/>
  <path class="cls-1" d="M1131.26,1142.58c-8.98,1.46-17.94,3.03-26.94,4.33-4.33.63-8.73.74-16.55,1.35,3.98-3.75,5.21-5.74,6.93-6.4,14.91-5.73,30.06-10.44,46.8-9.62-.77,7.2-8.86,5.76-10.72,10.75-.03.02.48-.42.48-.42Z"/>
  <path class="cls-1" d="M364.68,1236.73c-17.36,5.37-37.23,2.77-54.37-5.86,1.08-1.19,1.98-3.09,3.01-3.17,16.67-1.28,32.79.88,51.35,9.03Z"/>
  <path class="cls-1" d="M102.5,539.59c-.16,3.44-3.54,6.16-7.05,5.67-8.98-1.25-16.65-9.21-17.54-18.19-.42-4.26,3.07-7.8,7.28-7.36,9.54.99,17.76,10.43,17.31,19.88Z"/>
  <path class="cls-1" d="M464.91,473.39c8-.18,15.49,5.48,17.45,13.19,1.25,4.9-1.92,9.29-6.78,9.4-8.42.19-15.46-5.04-17.5-13.01-1.18-4.61,2.29-9.47,6.82-9.58Z"/>
  <path class="cls-1" d="M394.95,475.46c8.29-.19,16.68,6.93,17.76,15.06.53,4.01-2.76,7.88-6.81,8.01-8.47.27-16.71-6.71-17.7-14.99-.48-4.05,2.81-8,6.75-8.09Z"/>
  <path class="cls-1" d="M933.71,1185.37c18.8-8.95,37.9-11.5,53.35-7.38-5.5,6.87-13.52,6.42-20.26,7.97-14.9,3.43-22.31,2.99-33.09-.59Z"/>
  <path class="cls-1" d="M142.73,475.59c.16,3.38-3.24,6.53-6.72,6.22-8.16-.72-15.66-8.93-15.96-17.46-.12-3.4,3.31-6.62,6.7-6.29,8.16.8,15.56,8.92,15.98,17.53Z"/>
  <path class="cls-1" d="M189.32,466.03c7.5-.14,11.92,3.06,15.52,7.68,4.03,5.17,4.81,10.89,1.96,13.8-3.36,3.43-10.41,2.78-15.01-2.36-2.86-3.19-5.25-7.4-6.14-11.52-.5-2.31,2.5-5.38,3.67-7.6Z"/>
  <path class="cls-1" d="M275.14,489.09c-.07,3.49-3.22,6.39-6.67,6.16-8.44-.58-15.94-7.95-16.71-16.42-.29-3.14,2.9-6.76,6.08-6.92,8.78-.43,17.48,8.21,17.3,17.18Z"/>
  <path class="cls-1" d="M343.36,493.7c-1.8,1.19-4.33,4.28-6.95,4.35-8.67.24-16.58-7.75-16.78-16.08-.07-3.05,1.26-5.65,4.49-6.45,9-2.23,19.92,7.22,19.25,18.18Z"/>
  <path class="cls-1" d="M93.15,950.12c-5.27,3.55-10.78,2.95-17.16.63-3.51-7.16-2.59-14.84-1.17-22.77,14.84,4.48,19.1,9.73,18.34,22.14Z"/>
  <path class="cls-1" d="M449.91,419.55c-1.83,1.32-4.22,4.45-6.89,4.72-7.42.75-14.28-5.45-15.71-12.99-.78-4.13,2.53-8.29,6.59-8.26,8.03.06,15.69,7.26,16.01,16.52Z"/>
  <path class="cls-1" d="M365.31,404.48c7.88-.15,15.37,6.79,15.95,14.8.29,3.9-3.9,7.52-7.99,6.79-7.5-1.35-12.06-5.98-14.17-13.14-1.16-3.91,2.18-8.37,6.21-8.45Z"/>
  <path class="cls-1" d="M519.4,415.01c-1.26,1.19-2.91,4.03-5.15,4.63-8.06,2.14-16.17-3.64-17.82-12.04-.8-4.07,2.46-8.18,6.61-8.34,8.35-.31,16.03,6.46,16.37,15.75Z"/>
  <path class="cls-1" d="M313.25,418.16c.25,4.24-3.87,7.77-7.86,6.74-7.06-1.82-12.23-7.37-13.22-14.17-.6-4.15,3.2-8.23,7.11-7.62,7.76,1.2,13.52,7.41,13.96,15.05Z"/>
  <path class="cls-1" d="M181.65,405.47c.15,8.04-4.1,11.04-8.11,9.51-6.31-2.4-10.53-6.89-11.7-13.44-.41-2.3.91-5.54,2.55-7.36,1.05-1.16,4.41-1.25,6.23-.53,6.91,2.71,10.67,8.02,11.02,11.82Z"/>
  <path class="cls-1" d="M347.73,1246.33c17.36-1.39,32.3.83,48.73,5.41-2.35,2.12-3.48,3.92-4.38,3.82-13.56-1.58-27.1-3.38-40.62-5.28-.82-.12-1.47-1.49-3.74-3.95Z"/>
  <path class="cls-1" d="M230.43,399.4c9.41-.31,17.57,8.7,16.41,16.96-.44,3.14-2.82,5.08-5.94,4.92-7.88-.4-14.93-8.13-14.25-16.06.19-2.25,2.73-4.29,3.78-5.82Z"/>
  <path class="cls-1" d="M113.8,406.31c-9.66-.17-16.78-9.49-14.93-17.88.54-2.43,4.04-4.33,6.74-3.65,7.05,1.79,12.84,8.82,12.32,16.19-.15,2.08-3.02,3.98-4.13,5.34Z"/>
  <path class="cls-1" d="M629.88,1246.9c-1.73,1.93-2.77,4.13-3.86,4.15-13.14.3-26.29.36-39.43.22-1.18-.01-2.33-1.9-4.71-3.97,16.7-2.95,31.85-2.54,48-.4Z"/>
  <path class="cls-1" d="M485.36,342.99c-1.47,1.02-3.51,3.57-5.75,3.76-6.83.59-12.96-5.21-13.89-12.2-.43-3.25,2.71-6.97,5.94-7.05,7.38-.19,14.3,6.95,13.69,15.5Z"/>
  <path class="cls-1" d="M550.08,1253.83c-15.06,3.38-30.04,2.53-47.01-.85,12.4-5.69,32.6-5.47,47.01.85Z"/>
  <path class="cls-1" d="M316.1,1248.77c-15.41,1.33-30.38.86-44.4-5.53.74-4.42,3.55-3.76,5.4-3.55,13.33,1.53,26.88,2.15,39,9.08Z"/>
  <path class="cls-1" d="M1088.35,1170.81c-3.25-2.47-6.51-3.85-10.94-2.78-8.22,1.98-16.6,3.29-24.93,4.82-.5.09-1.08-.28-2.43-.67,1.27-2.37,2.46-4.6,3.67-6.84.02-.02-.44.46-.42.44,4.44-.55,8.89-.88,13.26-1.66,7.24-1.29,14.39-3.04,21.64-4.27,3.36-.57,6.84-.33,9,3.12l.5-.37-2.99,2.66c.99.45,1.99.89,2.98,1.34l-.48-.4c-3.09,1.42-6.18,2.84-9.26,4.26l.39.35Z"/>
  <path class="cls-1" d="M863.81,1220.86c-15.21,1.01-30.16,5.95-45.97,3.46.92-1.46,1.31-2.95,2.1-3.2,13.17-4.18,26.75-5.55,40.48-5.02,1.03.04,1.93,3.35,2.89,5.14l.5-.38Z"/>
  <path class="cls-1" d="M704.48,1245.2c-14.04.11-28.12,1.69-43.63-.56,10.1-6.46,23.22-7.5,46.66-4.43-1.29,1.97-2.4,3.68-3.51,5.39l.49-.4Z"/>
  <path class="cls-1" d="M427.72,1251.06c15.51-3.76,31.99-2.44,45.27,3.62-15.67,3.75-33.52,2.33-45.27-3.62Z"/>
  <path class="cls-1" d="M1004.18,1190.22c-10.03,1.04-20.06,2.08-32.64,3.39,2.82-2.93,3.82-4.9,5.27-5.32,12.98-3.72,26.15-6.48,39.43-7.34,1.71,3.35-.9,4.57-1.81,6.41l.4-.42c-3.67,1.31-8.35-.33-11.05,3.8l.4-.52Z"/>
  <path class="cls-1" d="M350.61,347.06c-1.49.98-3.59,3.51-5.77,3.59-6.98.24-12.58-5.76-13.16-13.09-.25-3.16,3.65-6.76,6.75-6.23,7.04,1.2,12.33,7.42,12.18,15.73Z"/>
  <path class="cls-1" d="M1216.16,1023.29c1.09-7.37,6.45-10.92,11.21-14.71,3.86-3.07,7.93-6.37,14.41-4.99,1.69,5.98-2.73,9.23-6.37,12.11-5.44,4.31-10.48,10.63-19.25,7.58Z"/>
  <path class="cls-1" d="M932.19,1207.35c-6.85.79-13.71,1.5-20.55,2.38-5.52.71-11.02,1.89-18.54-.22,3.38-2.1,5.08-3.89,7.04-4.25,12.36-2.28,24.59-5.99,39.5-4.05-3.46,2.89-5.67,4.74-7.88,6.6,0,0,.45-.45.45-.45Z"/>
  <path class="cls-1" d="M1265.22,952.17c-3.83,12.26-10.76,18.51-22.8,21.68-.02-2.92-.75-5.2.06-6.6,5.81-10.06,10.14-13.01,22.75-15.08Z"/>
  <path class="cls-1" d="M784.38,1234.79c-14.59.82-29.18,2.45-48.02,1.44,5.04-2.91,6.42-4.17,8.01-4.54,13.36-3.13,26.89-3.39,41.45-2.6-.78,2.41-1.37,4.23-1.96,6.05l.51-.35Z"/>
  <path class="cls-1" d="M1148.11,1080.02c-3.49,10.22-12.45,15.86-27.2,17.12,4.52-10.59,12.92-15.88,27.2-17.12Z"/>
  <path class="cls-1" d="M284.88,343.92c-.04,3.4-3.91,6.49-6.99,5.48-6.52-2.13-10.4-6.48-11.17-13.42-.39-3.57,2.76-6.74,6.23-6.22,6.95,1.05,12.01,7.06,11.92,14.16Z"/>
  <path class="cls-1" d="M1219.8,1046.86c-6.58,14.28-16.62,18.78-27.51,21.8-3.1-2.85-1.76-4.98-.27-6.54,6.72-7.05,14.27-12.82,27.79-15.25Z"/>
  <path class="cls-1" d="M75.46,649.82c8.22,3.78,12.4,9.07,13.02,17.07.32,4.17-2.91,7.44-7.27,7.58-3.72.12-6.76-2.1-7.09-5.74-.36-3.92-.4-7.89-.25-11.83.08-2.02.88-4.01,1.6-7.09Z"/>
  <path class="cls-1" d="M1105.63,1067.7c-7.03,12.51-12.77,16.14-27.2,16.99.54-7.54,6.63-10.24,11.57-13.33,4.54-2.85,9.29-7.1,15.63-3.65Z"/>
  <path class="cls-1" d="M1173.3,1006.97c5.71-11.5,12.29-18.31,22.95-20.21,3.42,3.95,1.46,6.92-.84,9.35-5.29,5.59-10.41,11.81-22.1,10.85Z"/>
  <path class="cls-1" d="M1147.46,1055.72c5.41-12.45,14.2-17.63,25.46-19.9,3.29,5.73-.62,8.35-3.4,10.65-5.91,4.89-11.75,10.53-22.06,9.25Z"/>
  <path class="cls-1" d="M1264.5,1053.14c-9.53,14.21-18.67,19.58-30.68,19.18,8.38-11.13,13.38-14.4,30.68-19.18Z"/>
  <path class="cls-1" d="M219.81,341.75c-1.6.79-3.77,2.09-6.12,2.9-.86.3-2.26-.38-3.19-.96-6.41-3.98-9.72-10.73-7.11-15.6.8-1.5,3.84-2.91,5.55-2.62,7.29,1.23,11.63,7.5,10.87,16.29Z"/>
  <path class="cls-1" d="M143.69,318.36c8.43-.18,15.36,9.3,12.63,16.79-.48,1.31-2.4,2.86-3.76,2.96-7.52.59-14.53-9.19-12.03-16.77.44-1.33,2.29-2.2,3.16-2.99Z"/>
  <path class="cls-1" d="M417.25,344.06c.2,3.5-3.09,6.65-6.48,6.19-7.35-1.01-12.44-6.9-12.08-14.01.17-3.49,3.91-6.26,7.23-5.35,6.88,1.88,10.95,6.61,11.34,13.18Z"/>
  <path class="cls-1" d="M1038.8,1067.94c-1.09-8.28,3.82-10.86,7.64-13.62,4.37-3.15,8.95-6.95,16.16-4.29-3.8,11.29-12.26,15.2-23.8,17.9Z"/>
  <path class="cls-1" d="M82.3,308.97c8.84.67,14.91,10.49,11.67,17.57-.55,1.21-2.68,2.51-3.99,2.42-6.75-.45-12.73-8.81-11.27-15.97.35-1.71,2.65-3.02,3.59-4.01Z"/>
  <path class="cls-1" d="M1068.66,1016.4c-3.75-5.4-.34-8.36,2.28-10.92,4.67-4.57,9.31-9.86,18.31-7.63-3.27,11.31-10.57,16.32-20.59,18.56Z"/>
  <path class="cls-1" d="M1222.64,888.88c2.35-12.03,8.26-18.07,16.6-22.09,4.37,3.89,2.95,7.1,1.04,10.05-3.68,5.68-7.43,11.43-17.64,12.04Z"/>
  <path class="cls-1" d="M1282.18,1014.26c-.97,4.91-.57,8.8-2.33,10.69-5.24,5.63-11.33,10.5-21.52,10.06,4.7-11.24,12.49-16.27,23.84-20.75Z"/>
  <path class="cls-1" d="M1156.62,966.16c-4.4,11.43-10.71,17.62-20.58,19.67-4.29-3.95-1.55-6.95.44-9.31,4.61-5.46,9.08-11.61,20.14-10.36Z"/>
  <path class="cls-1" d="M1131.34,1018.27c-.85,9.69-6.36,13.01-11.29,16.65-3.69,2.72-4.06,2.65-13.37,2.33,4.21-10.72,12-15.94,24.66-18.98Z"/>
  <path class="cls-1" d="M1280.05,893.58c3.45,5.5,2.82,9.65.11,12.59-3.34,3.62-7.65,6.35-11.7,9.25-.49.35-2.2-.4-2.89-1.09-.68-.69-1.34-2.13-1.07-2.94,2.57-7.72,7.39-13.53,15.55-17.81Z"/>
  <path class="cls-1" d="M1178.59,906.41c-.2,1.61-.11,2.81-.53,3.8-2.51,6.01-6.58,10.7-12.59,13.35-1.23.54-3.18.01-4.55-.6-.64-.29-1.15-2.08-.89-2.95,2.27-7.56,7.11-12.92,14.59-15.49,1.02-.35,2.71,1.26,3.96,1.89Z"/>
  <path class="cls-1" d="M1021.05,1026.52c-3.02,11.33-11.16,15.1-22.3,17.95.18-3.13-.4-5.52.52-6.96,3.82-5.98,9.42-9.96,16.21-11.96,1.37-.41,3.14.51,5.57.98Z"/>
  <path class="cls-1" d="M1192.48,1087.55c-7.06,9.33-15.57,16.11-30.31,15.89,9.05-10.39,18.29-15.54,30.31-15.89Z"/>
  <path class="cls-1" d="M440.7,254.18c7.33.27,13.03,6.13,12.38,12.33-.17,1.63-2.55,4-4.25,4.33-6.98,1.36-13.06-5.26-11.51-12.49.38-1.77,2.51-3.16,3.38-4.17Z"/>
  <path class="cls-1" d="M1026.3,986.73c4.27-10.76,9.4-16.99,20.03-17.24-1.6,11.96-5.25,15.35-20.03,17.24Z"/>
  <path class="cls-1" d="M1222.32,932.1c-4.75,10.81-9.87,18.29-21.83,19.97-1.57-6.45,1.91-10.21,5.32-13.71,3.82-3.92,7.57-8.57,16.5-6.27Z"/>
  <path class="cls-1" d="M502.97,1266.97c-9.62-.71-19.24-1.33-28.84-2.22-2.11-.2-4.12-1.39-6.02-3.07,12-1.54,23.82-1.85,35.33,1.94-.15,1.12-.31,2.23-.46,3.35Z"/>
  <path class="cls-1" d="M1205.41,1105.46c9.69-10.28,19.54-16.09,33.41-17.83-10.89,11.51-16.7,14.62-33.41,17.83Z"/>
  <path class="cls-1" d="M1096.57,957.88c-.86-1.3-2.07-2.28-1.96-3.09,1.2-8.91,7.05-13.67,15.12-16.16.82-.25,2.28.45,2.94,1.18.63.69,1.1,2.2.77,2.98-3.29,7.67-8.58,13.12-16.87,15.1Z"/>
  <path class="cls-1" d="M783.87,1235.13c10.2-.17,20.41-.34,30.66-.51-10.34,6.11-13.8,6.73-37.14,6.31,2.98-2.63,4.96-4.38,6.97-6.14.03-.01-.49.33-.49.33Z"/>
  <path class="cls-1" d="M195.24,262.23c-.63,1.02-1.19,2.98-2.46,3.69-1.26.71-3.23.23-4.88.11-.5-.03-1.01-.53-1.44-.89-5.05-4.17-6.87-8.71-4.85-13.44.51-1.2,2.73-2.53,4.01-2.38,5.87.66,9.47,5.55,9.61,12.9Z"/>
  <path class="cls-1" d="M375.12,256.93c7.06.81,11.46,5.56,11.91,11.68.19,2.51-2.99,5.58-5.56,5.36-6.68-.58-11.45-6.56-9.97-13.17.38-1.69,2.72-2.95,3.62-3.86Z"/>
  <path class="cls-1" d="M658.74,1254.92c-11.28,3.76-22.99,4.92-37.69,3.1,13.8-5.96,25.7-4.11,37.69-3.1Z"/>
  <path class="cls-1" d="M130.92,259.29c-1.63-.19-3.16.09-3.72-.52-2.58-2.81-5.59-5.58-7.05-8.96-.84-1.94.2-5.8,1.79-7.42,2.23-2.27,5.24-.5,7.4,1.45,3.55,3.2,5.59,7.12,4.28,11.97-.37,1.39-1.89,2.46-2.71,3.47Z"/>
  <path class="cls-1" d="M321.78,271.03c-1.11.73-2.81,2.77-4.61,2.86-6.24.3-11.52-5.93-10.63-12.66.21-1.6,2.84-4.01,4.44-4.08,6.2-.26,11.46,6.2,10.81,13.89Z"/>
  <path class="cls-1" d="M863.31,1221.23c9.37-.33,18.74-.66,32.06-1.13-14.35,6.84-25.77,8.36-39.61,8.66,3.61-3.55,5.81-5.71,8.04-7.89.03-.02-.48.36-.48.36Z"/>
  <path class="cls-1" d="M1135.76,873.37c.43,1.32,1.63,3.01,1.25,4.19-2.01,6.24-5.88,11.1-12.03,13.75-.84.36-2.36.13-3.05-.44-.74-.62-1.38-2.06-1.2-2.98,1.25-6.65,5.38-11.2,11.19-14.29.89-.47,2.19-.16,3.85-.24Z"/>
  <path class="cls-1" d="M931.74,1207.8c12.39-1.89,24.78-3.79,37.78-5.77-10.24,6.76-15.46,8.35-37.12,11.32-.08-2.08-.15-4.04-.22-6,0,0-.44.45-.44.45Z"/>
  <path class="cls-1" d="M1184.34,857.05c-.07-10.84,4.43-16.44,11.91-20.09.7-.34,2.25.27,2.94.92.69.66,1.35,2.09,1.1,2.9-2.19,7.21-5.91,13.12-15.95,16.27Z"/>
  <path class="cls-1" d="M257.63,264.73c-.26,5.02-3.59,6.98-6.39,6.19-4.28-1.21-7.07-4.09-7.64-8.23-.34-2.47.3-6.36,1.94-7.45,1.57-1.04,5.87-.13,7.41,1.44,2.54,2.61,3.81,6.44,4.69,8.04Z"/>
  <path class="cls-1" d="M959.63,1011.72c2.7-7.89,7.86-13.08,16.37-14.44,1.02-.16,3.31,1.56,3.37,2.51.33,5.24-3.79,7.87-7.34,10.45-3.48,2.53-7.22,5.9-12.4,1.47Z"/>
  <path class="cls-1" d="M1247.32,816.89c.14-12.06,2.75-15.72,13.28-18.68-.25,12.17-2.55,15.41-13.28,18.68Z"/>
  <path class="cls-1" d="M921.41,978.72c3.38-9.15,8.08-13.64,15.13-15.62.86-.24,2.31.42,2.99,1.13.66.68,1.25,2.27.9,2.95-3.5,6.75-7.92,12.29-19.02,11.54Z"/>
  <path class="cls-1" d="M1056.28,921.53c-.04-.57-.25-1.19-.11-1.71,1.75-6.55,5.86-11.06,12.25-13.18,1.04-.34,3.76,1.04,3.91,1.92.99,5.85-7.22,14.74-13.67,14.97-.77.03-1.59-1.3-2.38-2Z"/>
  <path class="cls-1" d="M1253.38,1099.58c6.75-8.08,15.95-11.74,24.89-15.61,3.06,2.72.95,4.41-.75,5.48-7.47,4.69-15.21,8.83-24.14,10.13Z"/>
  <path class="cls-1" d="M990.14,953.2c.94-10.77,6.89-14.78,14.32-17.44,3.38,2.66,3.04,5.26,1.28,7.83-3.27,4.78-7.02,8.97-15.6,9.61Z"/>
  <path class="cls-1" d="M422.69,188.77c.44,3.44-3.69,6.56-6.93,5.25-4.58-1.85-7.27-5.77-7.27-10.59,0-2.76,3.56-5.52,5.99-4.6,4.63,1.75,7.56,4.91,8.21,9.94Z"/>
  <path class="cls-1" d="M423.85,1266.24c-10.12-1.13-20.25-2.22-30.36-3.45-.97-.12-1.83-1.14-4.02-2.58,12.86-.42,24.44-1.78,34.38,6.03Z"/>
  <path class="cls-1" d="M1181.08,1129.69c13.62-10.75,16.51-11.96,29.11-13.12-9.13,7.36-18.86,11.02-29.11,13.12Z"/>
  <path class="cls-1" d="M1096.45,834.81c1.15,10.1-3.58,14.45-9.54,17.98-.66.39-2.26,0-2.91-.61-.71-.65-1.29-2.06-1.1-2.96,1.4-6.53,5.44-10.79,13.55-14.41Z"/>
  <path class="cls-1" d="M315.43,1258.37c11.58-2.79,22.81-3.22,34.33,3.01-2.19.85-3.26,1.7-4.2,1.56-10.06-1.44-20.09-3.02-30.13-4.57Z"/>
  <path class="cls-1" d="M233.05,187.38c.12,2.84-3.1,5.33-5.67,4.22-1.48-.64-3.08-1.4-4.15-2.55-3.35-3.62-4.06-7.85-1.85-10.47.64-.77,1.9-1.43,2.88-1.43,4.6,0,6.86,3.09,8.31,6.94.38,1.01.34,2.19.48,3.29Z"/>
  <path class="cls-1" d="M296.09,192.27c-2.7,1.18-5.1,3.11-6.23,2.54-2.79-1.41-5.77-3.56-7.16-6.2-.95-1.82-.19-5.77,1.31-7.34,2.17-2.29,5.57-.87,7.29,1.41,1.9,2.51,2.9,5.69,4.79,9.6Z"/>
  <path class="cls-1" d="M1146.3,818.24c-1.37-8.63,2.93-13.26,8.7-17.03.67-.44,2.26-.19,2.96.35.74.57,1.43,1.99,1.25,2.83-1.49,6.68-4.44,12.13-12.9,13.85Z"/>
  <path class="cls-1" d="M164.17,171.42c6.08.49,10.44,8.64,7.16,13.57-.53.8-1.77,1.61-2.68,1.6-5.92-.05-10.19-8.22-7.14-13.67.43-.76,1.75-1.02,2.66-1.5Z"/>
  <path class="cls-1" d="M1020.45,884.89c-2.61-2.45-2.04-5.15-.23-7.59,2.95-3.97,5.25-9.23,11.88-7.61q-1.06,9.97-11.65,15.2Z"/>
  <path class="cls-1" d="M357.98,191.51c-.63,1.01-1.19,2.93-2.43,3.6-1.28.69-3.26.38-4.85.07-1.02-.2-2.02-1.04-2.81-1.82-2.55-2.52-4.3-5.54-3.05-9.15.44-1.27,2.24-2.72,3.59-2.91,4.73-.67,7.26,2.38,8.9,6.3.42,1.01.38,2.22.63,3.9Z"/>
  <path class="cls-1" d="M1220.48,764.8c-.54,7.39-6.87,15.68-11.47,14.97-.48-.07-1.09-.49-1.31-.92-2.28-4.47,2.55-13.44,8.94-16.56.42-.21,1.25-.05,1.64.26.82.64,1.48,1.49,2.2,2.26Z"/>
  <path class="cls-1" d="M903.62,925.38c-3.55,8.07-7.1,13.15-14.78,13.34-3.3-4.01-.84-6.62,1.35-9.05,3.36-3.73,3.56-3.69,13.42-4.29Z"/>
  <path class="cls-1" d="M703.99,1245.6c10.19.26,20.37.52,30.56.78-10.24,5.3-21.34,2.91-31.52,5.49-1.92-3.33.51-4.76,1.43-6.66.02-.01-.47.39-.47.39Z"/>
  <path class="cls-1" d="M544.75,1260.92c12.12-1.63,24.53-1.96,38.2-.58-7.48,4-13.38,4.16-38.2.58Z"/>
  <path class="cls-1" d="M969.16,897.16c-2.06,10.4-5.96,15.32-14.69,16.29q1.15-10.4,14.69-16.29Z"/>
  <path class="cls-1" d="M1280.14,719.79c-1.02,10.25-3.7,16.42-11.75,19.59-1.08-11.78-.38-13.08,11.75-19.59Z"/>
  <path class="cls-1" d="M1110.43,775.78c-1.32-2.7-1.81-3.23-1.76-3.68.76-5.88,2.81-10.84,9.37-12.29.37-.08,1.2.44,1.28.81,1.81,7.57-3.19,10.88-8.9,15.16Z"/>
  <path class="cls-1" d="M985.06,840.43c-.91-8.28,1.56-12.84,7.66-13.58.73-.09,2.73,2.52,2.47,3.35-1.57,5.03-4.28,9.24-10.13,10.22Z"/>
  <path class="cls-1" d="M74.77,1020.58c3.74,3.26,6.8,4.93,8.24,7.5,1.13,2.01,1.18,5.78-.03,7.6-1.07,1.61-4.56,1.62-8.21,2.71v-17.81Z"/>
  <path class="cls-1" d="M269.48,113.19c-1.46.31-3.36.78-5.29,1.07-.42.06-1.01-.49-1.4-.88-2.46-2.55-4.48-5.46-2.73-9.05.51-1.06,3.01-2.09,4.14-1.73,3.95,1.27,6.19,5.55,5.27,10.59Z"/>
  <path class="cls-1" d="M105.76,163.74c5.8.89,9.29,8.06,6.21,13.03-.46.74-1.95,1.38-2.84,1.25-5.95-.91-9.41-8.06-6.27-12.94.49-.75,1.9-.91,2.89-1.34Z"/>
  <path class="cls-1" d="M1048.5,809.02c-.56-.62-1.85-1.4-1.82-2.14.18-5.52,3.19-9.42,7.81-12.08.66-.38,2.27.06,2.92.68.69.65,1.35,2.37.99,2.91-2.49,3.62-5.22,7.07-7.97,10.5-.23.29-1.08.09-1.92.13Z"/>
  <path class="cls-1" d="M152.14,100.15c-.84,1.74-1.11,3.32-1.82,3.55-1.39.46-3.78.8-4.41.05-1.7-2.02-3.07-4.53-3.8-7.07-.32-1.1.95-3.38,2.09-3.95,1.07-.54,3.53-.04,4.29.89,1.66,2.03,2.64,4.62,3.66,6.53Z"/>
  <path class="cls-1" d="M1169.94,737.83c-1.2-8.83,1.8-13.65,9.41-17.19,1.86,8.74-1.62,13.3-9.41,17.19Z"/>
  <path class="cls-1" d="M1236.74,679.29q2.24,10.41-7.43,16.2c-1.68-7.58,2.09-11.79,7.43-16.2Z"/>
  <path class="cls-1" d="M386.3,102.01c1.45.99,3.61,1.88,4.86,3.47,1.77,2.26,2.7,5.12.54,7.78-.59.73-1.94,1.39-2.81,1.26-4.9-.78-7.95-5.87-6.05-10.05.39-.85,1.72-1.27,3.46-2.46Z"/>
  <path class="cls-1" d="M331.43,111.64c-1.79,1.7-3.28,3.79-3.87,3.56-2.37-.92-5.04-2.14-6.46-4.09-.96-1.31-.43-4.19.29-6.03.32-.83,3.51-1.62,4.07-1.07,2.19,2.13,3.86,4.81,5.97,7.62Z"/>
  <path class="cls-1" d="M207.9,110.45c-5.28.61-7.06-2.94-7.84-7.05-.24-1.27.84-3.54,1.96-4.12,1.2-.62,3.71-.36,4.66.55,3.14,3.01,4.5,6.63,1.23,10.61Z"/>
  <path class="cls-1" d="M93.09,95.71c-5.42.15-6.99-3.32-7.47-7.35-.15-1.23,1.1-3.34,2.21-3.79,1.15-.47,3.38.13,4.34,1.08,3.07,3.02,3.61,6.51.92,10.06Z"/>
  <path class="cls-1" d="M1014.43,1187.37c4.38-.34,8.76-.68,13.16-.99.03.03-.3-.3-.3-.3-.86,1.31-1.45,3.37-2.63,3.79-6.29,2.27-12.73,4.13-19.2,6.16-.56-2.56-.91-4.19-1.27-5.82,0,0-.4.52-.4.52,3.68-1.27,7.36-2.53,11.05-3.8l-.4.42Z"/>
  <path class="cls-1" d="M865.65,880.28c-.89,8.62-4.95,11.52-11.13,12.9-.4-8.9-.33-8.86,11.13-12.9Z"/>
  <path class="cls-1" d="M930.99,854.98c-.73,8.74-4.69,11.89-10.77,13.72q-.44-8.85,10.77-13.72Z"/>
  <path class="cls-1" d="M1191.97,648.81c-1.61-7.11.81-11.08,7.32-14.87,1.29,7.42-.74,11.57-7.32,14.87Z"/>
  <path class="cls-1" d="M885.63,818.58c-.49-6.35,2.08-9.05,5.66-10.93.72-.38,2.28,0,2.94.59.6.54.91,2.01.62,2.81-1.34,3.81-3.67,6.63-9.22,7.52Z"/>
  <path class="cls-1" d="M1255.11,590.12c2.53,6.97-.48,10.89-6.16,16.09-1.68-8.15.37-12.45,6.16-16.09Z"/>
  <path class="cls-1" d="M1134.53,687.66c-1.43-5.7.08-9.71,6.36-11.86,1.87,6.49-1.67,9.51-6.36,11.86Z"/>
  <path class="cls-1" d="M1074.04,726.55c-1.15-7.31.88-10.89,7.33-12.99,1.43,6.32-1.37,9.56-7.33,12.99Z"/>
  <path class="cls-1" d="M1013.11,759.89c-2.88-5.04.27-8.03,3.7-10.77.62-.5,2.22-.49,2.87-.02.69.49,1.24,1.91,1.06,2.76-.83,4.02-3.02,6.97-7.63,8.04Z"/>
  <path class="cls-1" d="M957.96,778.76c.94,7.38-2.13,10.07-6.67,11.75-3.63-2.95-2.61-4.97,6.67-11.75Z"/>
  <path class="cls-1" d="M831.07,834.04c-1.48,2.22-2.72,4.68-4.56,6.54-.9.91-2.92.71-4.44,1.01-.23-1.51-1.2-3.65-.55-4.41,1.94-2.25,4.5-3.95,6.83-5.87.9.91,1.81,1.81,2.71,2.72Z"/>
  <path class="cls-1" d="M986.42,699.31c-1.45,1.88-2.94,4.03-4.73,5.89-.34.36-2.47-.14-2.75-.73-1.43-3.01,2.29-8.56,5.37-8.07.66.11,1.12,1.48,2.11,2.91Z"/>
  <path class="cls-1" d="M924.36,730.54c-1.18,1.48-2.43,3.33-4.01,4.84-.48.45-1.88-.06-2.86-.14.36-2.06.29-4.36,1.24-6.1.62-1.15,2.72-1.49,4.16-2.19.41.99.82,1.99,1.47,3.59Z"/>
  <path class="cls-1" d="M1267.93,505.92c-3.29-6.35-1.05-9.34,2.96-12.64,3.01,5.92-.45,8.46-2.96,12.64Z"/>
  <path class="cls-1" d="M1103.79,623.21c1.58,6.6.46,10.04-4.77,12.17-2.15-5.08.66-7.83,4.77-12.17Z"/>
  <path class="cls-1" d="M861.43,757.67c-1.12,1.28-2.41,3.05-4.03,4.44-.61.53-2.25.57-2.93.11-.62-.43-1.09-2.17-.72-2.73,1.2-1.8,2.69-3.47,4.35-4.85.46-.38,1.96.34,2.87.77.29.14.22,1,.46,2.26Z"/>
  <path class="cls-1" d="M1217.19,540.43c1.9,5.29.26,8.47-4.33,11.12-2-5.25-.42-8.45,4.33-11.12Z"/>
  <path class="cls-1" d="M1157.79,594.63c-3.29-5.02-.34-7.52,2.98-11.27,3,5.82.39,8.43-2.98,11.27Z"/>
  <path class="cls-1" d="M1044.96,663.05c-.1,1.87.26,3.96-.47,5.54-.49,1.07-2.51,1.45-3.85,2.13-.16-1.5-.71-3.09-.39-4.49.36-1.6,1.49-3.02,2.29-4.51.81.44,1.61.88,2.42,1.33Z"/>
  <path class="cls-1" d="M1177.99,492.67c0-1.71-.12-3.19.11-4.62.04-.24,1.55-.25,2.38-.37.04,1,.39,2.15.02,2.97-.34.77-1.44,1.2-2.52,2.01Z"/>
  <path class="cls-1" d="M1122.47,537.65c.32-3.36.25-4.97.73-6.39.15-.44,1.81-.4,2.79-.44.11,0,.52,1.08.34,1.39-.83,1.37-1.83,2.63-3.86,5.44Z"/>
  <path class="cls-1" d="M1281.57,1071.82c-1.15.96-2.21,1.84-3.26,2.72-.41-.77-1.27-1.64-1.13-2.29.18-.84,1.04-1.91,1.82-2.12.56-.15,1.46.92,2.57,1.7Z"/>
  <path class="cls-1" d="M1235.39,441.55c-.96,1.17-1.88,2.29-2.8,3.41-.44-.77-1.35-1.62-1.23-2.28.18-.97,1.09-1.81,1.69-2.7.64.43,1.27.86,2.34,1.57Z"/>
  <path class="cls-1" d="M74.74,468.46v-7.66c.57-.07,1.13-.15,1.7-.22.44,2.48.89,4.97,1.33,7.45-1.01.14-2.02.29-3.03.43Z"/>
  <path class="cls-1" d="M952.22,641.52c-.81,1.36-1.4,2.77-2.39,3.77-.33.33-1.7-.38-2.6-.61.7-1.35,1.29-2.77,2.18-3.97.17-.23,1.52.42,2.81.81Z"/>
  <path class="cls-1" d="M1039.83,1182.15c-2.64,6.1-7.55,5.08-12.52,3.96-.02-.02.3.3.27.27,4.1-1.45,8.22-2.87,12.34-4.3l-.1.07Z"/>
  <path class="cls-1" d="M890.47,671.72c-.37.93-.56,2.04-1.2,2.7-.25.25-1.54-.52-2.36-.82.37-.96.73-1.91,1.1-2.87.82.33,1.64.66,2.46.99Z"/>
  <path class="cls-1" d="M1117.56,1161.39c-.48.22-1.14.74-1.39.58-.48-.3-.73-.98-1.08-1.5.53-.02,1.11-.17,1.58-.02.36.11.59.61.88.94Z"/>
  <path class="cls-1" d="M1097.2,1162.97c2.1.47,4.21.94,8.62,1.92-4.39.67-6.5.99-8.61,1.31,0,0,.48.4.48.4,0-1.33,0-2.66,0-3.99l-.5.37Z"/>
  <path class="cls-1" d="M1039.93,1182.08h5.58c-.03.27-.06.55-.09.82-1.85-.25-3.71-.51-5.58-.75-.02,0,.08-.06.08-.06Z"/>
  <path class="cls-1" d="M1234.64,1119.44c.43-2.47,1.26-4.61,4.17-5.04.02.01-.37-.38-.37-.38-1.3,1.87-2.6,3.74-3.9,5.61l.1-.19Z"/>
  <path class="cls-1" d="M1009.49,611.66c-.47-.67-1.29-1.35-1.28-2.01.01-.58.96-1.14,1.5-1.71.3.37.91.81.85,1.09-.22.91-.69,1.76-1.07,2.63Z"/>
  <path class="cls-1" d="M1234.53,1119.63c-.95-.12-1.89-.24-2.84-.36.98.06,1.96.12,2.94.18,0,0-.1.19-.1.19Z"/>
  <path class="cls-1" d="M1087.95,1170.46c-1.9,1.41-3.79,2.83-5.69,4.24l.13-.25c-.18-4.64,2.74-4.35,5.92-3.68.03.03-.36-.32-.36-.32Z"/>
  <path class="cls-1" d="M1082.26,1174.71c-.48-.27-.96-.55-1.44-.82.52.19,1.04.38,1.57.57,0,0-.13.25-.13.25Z"/>
  <path class="cls-1" d="M978.38,545.97c.14.38.44.78.39,1.13-.06.34-.48.61-.74.91-.14-.38-.44-.79-.38-1.14.05-.33.48-.6.74-.9Z"/>
  <path class="cls-1" d="M1067.99,574.04c-.4-.38-1.2-.85-1.13-1.12.24-1,.77-1.93,1.19-2.89.39.39,1.16.87,1.1,1.15-.23.99-.74,1.91-1.15,2.86Z"/>
  <path class="cls-1" d="M1248.03,1112.54c.19-1.06.39-2.13.58-3.19l-.93,2.96.35.23Z"/>
  <path class="cls-1" d="M1247.68,1112.31c-3.07.58-6.15,1.15-9.24,1.72-.01,0,.37.38.36.37,2.43-3.44,5.73-2.89,9.17-1.91.06.05-.29-.19-.29-.19Z"/>
</svg>