<?xml version="1.0" encoding="UTF-8"?>
<svg id="Camada_1" data-name="Camada 1" xmlns="http://www.w3.org/2000/svg" viewBox="0 0 1920 584.57">
  <defs>
    <style>
      .cls-1 {
        fill: #fff;
        stroke-width: 0px;
      }
    </style>
  </defs>
  <g>
    <path class="cls-1" d="M144.2,174.81h39.2c20.32-75.97,64.36-131.14,122.43-131.14,20.32,0,35.81,3.87,46.45,10.65,8.23-1.94,16.94-6.29,22.74-10.65h10.16c-1.45,5.81-6.29,20.32-11.61,39.2-19.84,67.75-53.23,198.89-70.65,262.28-2.9,11.61-3.39,19.36,1.94,19.36,9.19,0,25.16-14.03,45-43.55l9.19,9.68c-21.29,36.78-52.26,64.84-80.81,64.84-11.13,0-15.48-8.23-15.48-21.29,0-15,11.13-54.68,18.39-79.84,23.71-86.13,50.81-191.63,54.2-210.01-6.29-17.42-21.78-26.13-37.26-26.13-38.71,0-61.94,49.36-77.42,116.62h47.42l-4.84,16.45h-46.45c-11.61,44.52-34.36,141.3-45.97,191.63-17.42,72.1-64.84,126.3-110.81,126.3-19.84,0-32.42-12.1-32.42-24.19,0-13.07,12.58-25.65,23.71-25.65,4.84,0,9.68,2.9,20.81,13.55,6.77,6.77,11.61,9.68,15.97,9.68,9.19,0,23.71-3.87,41.13-77.91,10.65-46.94,38.71-167.91,50.33-213.4h-40.16l4.84-16.45Z"/>
    <path class="cls-1" d="M384.2,223.69c24.68-34.84,56.13-54.68,79.84-54.68,7.26,0,11.61,5.81,11.61,15.48,0,5.32-1.45,13.07-8.23,33.39-8.71,30-24.68,79.84-33.39,111.3-7.26,26.13-4.84,38.71,7.26,38.71,31.94,0,79.84-73.07,103.55-136.46,6.77-18.39,11.13-32.9,17.9-56.62,12.1,0,25.65-.97,36.78-1.94-19.36,64.84-41.13,143.23-49.36,177.59-1.45,6.77-2.42,13.55,3.39,13.55,7.74,0,24.68-13.55,43.07-43.55l10.16,9.19c-27.58,50.33-60.49,65.81-78.39,65.81-12.58,0-16.45-7.74-16.45-20.32,0-13.55,5.81-37.26,18.39-80.33-36.29,67.75-76.46,100.65-113.23,100.65-17.42,0-24.19-13.55-24.19-29.52,0-10.65,3.39-27.58,6.77-40.65,11.13-38.23,26.61-85.17,34.84-114.2,1.45-4.84,1.94-9.19-1.94-9.19-6.77,0-19.84,8.71-39.68,31.94l-8.71-10.16Z"/>
    <path class="cls-1" d="M651.78,238.21c18.39-38.23,46.94-69.2,68.71-69.2,7.74,0,12.1,6.77,17.9,27.58,2.9,11.61,8.23,34.36,13.55,56.62,30.49-41.13,63.39-84.2,90.97-84.2,10.65,0,17.42,7.26,17.42,20.32,0,18.39-14.03,36.29-21.29,36.29-3.39,0-4.84-1.94-6.77-6.77-2.9-6.77-5.81-15.97-11.61-15.97-7.74,0-30,20.81-64.36,67.26,5.81,23.71,11.13,43.07,18.87,63.87,7.26,19.84,13.07,26.61,19.84,26.61,9.68,0,22.26-13.07,41.62-45.97l10.65,8.23c-27.1,55.65-57.58,72.59-70.65,72.59-16.45,0-27.58-24.19-46.45-96.78-15,19.84-35.81,48.39-55.65,72.59-16.45,18.39-25.65,26.13-33.39,26.13-10.16,0-17.9-12.58-17.9-28.55,0-17.42,11.13-42.1,22.26-42.1,3.39,0,4.84,3.39,5.32,8.23,1.45,14.03,3.87,21.29,8.71,21.29,3.39,0,8.23-3.39,15.97-11.61,9.68-11.61,26.13-32.91,49.84-63.88-4.84-21.78-13.07-49.36-16.94-62.91-2.9-10.65-4.84-15-8.71-15-7.26,0-19.36,12.1-36.78,43.55l-11.13-8.23Z"/>
  </g>
  <g>
    <path class="cls-1" d="M1071.88,397.41c-32.6,0-60.78-7.19-84.53-21.59-23.76-14.39-42.13-34.77-55.14-61.12-13.01-26.35-19.51-57.74-19.51-94.16s6.85-67.8,20.55-94.16c13.7-26.35,32.86-46.73,57.48-61.12,24.62-14.39,52.88-21.59,84.8-21.59,33.98,0,61.64,6.42,82.97,19.25,21.33,12.83,38.57,32.6,51.76,59.3l-37.97,20.81c-7.63-19.77-19.69-34.76-36.15-45-16.48-10.23-36.67-15.35-60.6-15.35s-43.79,5.46-61.65,16.39c-17.86,10.92-31.91,26.71-42.13,47.34-10.23,20.64-15.35,45.35-15.35,74.13s4.42,53.5,13.27,74.13c8.84,20.64,22.02,36.41,39.53,47.34,17.51,10.92,38.93,16.39,64.24,16.39,14.22,0,27.48-1.82,39.8-5.46,12.31-3.64,23.06-9.1,32.25-16.39,9.18-7.28,16.39-16.47,21.59-27.57,5.2-11.1,7.8-24.1,7.8-39.02v-11.97h-109.24v-39.01h147.21v173.22h-32.77l-2.08-63.98,8.84,1.56c-9.02,21.51-23.24,38.15-42.66,49.94-19.43,11.79-43.52,17.69-72.31,17.69Z"/>
    <path class="cls-1" d="M1312.07,48.88v343.33h-41.62V48.88h41.62ZM1517.54,198.69v39.02h-225.25v-39.02h225.25ZM1539.91,48.88v343.33h-41.62V48.88h41.62Z"/>
    <path class="cls-1" d="M1751.45,397.41c-32.6,0-60.78-7.19-84.53-21.59-23.76-14.39-42.14-34.77-55.14-61.12-13.01-26.35-19.5-57.74-19.5-94.16s6.84-67.8,20.55-94.16c13.7-26.35,32.85-46.73,57.48-61.12,24.62-14.39,52.88-21.59,84.79-21.59,33.98,0,61.64,6.42,82.97,19.25,21.33,12.83,38.57,32.6,51.76,59.3l-37.98,20.81c-7.63-19.77-19.68-34.76-36.15-45-16.48-10.23-36.67-15.35-60.6-15.35s-43.79,5.46-61.64,16.39c-17.86,10.92-31.91,26.71-42.14,47.34-10.23,20.64-15.34,45.35-15.34,74.13s4.42,53.5,13.26,74.13c8.84,20.64,22.02,36.41,39.53,47.34,17.51,10.92,38.93,16.39,64.25,16.39,14.22,0,27.48-1.82,39.8-5.46,12.3-3.64,23.06-9.1,32.25-16.39,9.18-7.28,16.39-16.47,21.59-27.57,5.2-11.1,7.8-24.1,7.8-39.02v-11.97h-109.24v-39.01h147.21v173.22h-32.77l-2.08-63.98,8.84,1.56c-9.02,21.51-23.24,38.15-42.66,49.94-19.42,11.79-43.52,17.69-72.31,17.69Z"/>
  </g>
  <g>
    <path class="cls-1" d="M266.14,485.73v54.34h-6.26v-34.17l.74-14.33h-.08l-17.86,48.5h-5.6l-17.86-48.5h-.08l.74,14.33v34.17h-6.26v-54.34h10.13l11.94,33.02,4.12,13.58h.16l4.2-13.5,11.86-33.1h10.13Z"/>
    <path class="cls-1" d="M299.07,498.08c3.9,0,7.34.85,10.33,2.55s5.34,4.16,7.04,7.37c1.7,3.21,2.55,7.04,2.55,11.49s-.85,8.28-2.55,11.49c-1.7,3.21-4.05,5.67-7.04,7.37-2.99,1.7-6.44,2.55-10.33,2.55s-7.27-.85-10.29-2.55c-3.02-1.7-5.38-4.16-7.08-7.37-1.7-3.21-2.55-7.04-2.55-11.49s.85-8.27,2.55-11.49c1.7-3.21,4.06-5.67,7.08-7.37s6.45-2.55,10.29-2.55ZM299.07,503.76c-2.8,0-5.19.63-7.16,1.9s-3.5,3.06-4.57,5.39-1.6,5.15-1.6,8.44.53,6.04,1.6,8.4c1.07,2.36,2.59,4.17,4.57,5.43,1.98,1.26,4.36,1.89,7.16,1.89s5.19-.63,7.16-1.89c1.98-1.26,3.5-3.07,4.57-5.43,1.07-2.36,1.6-5.16,1.6-8.4s-.53-6.11-1.6-8.44-2.59-4.13-4.57-5.39c-1.98-1.26-4.36-1.9-7.16-1.9Z"/>
    <path class="cls-1" d="M331.43,540.07v-41.17h5.76l.57,9.22-1.07-.9c.88-2.2,2.06-3.97,3.54-5.31,1.48-1.34,3.2-2.32,5.15-2.92,1.95-.6,3.97-.9,6.05-.9,2.97,0,5.65.56,8.07,1.69s4.35,2.84,5.81,5.15,2.18,5.24,2.18,8.81v26.35h-6.59v-24.04c0-4.55-.97-7.73-2.92-9.51-1.95-1.78-4.35-2.68-7.21-2.68-1.98,0-3.95.47-5.93,1.4-1.97.93-3.61,2.44-4.9,4.53-1.29,2.09-1.93,4.89-1.93,8.4v21.9h-6.59Z"/>
    <path class="cls-1" d="M385.69,491c-1.48,0-2.68-.45-3.58-1.36-.91-.9-1.36-2.1-1.36-3.58s.45-2.68,1.36-3.58c.9-.91,2.1-1.36,3.58-1.36s2.67.45,3.58,1.36c.9.9,1.36,2.1,1.36,3.58s-.45,2.68-1.36,3.58c-.91.91-2.1,1.36-3.58,1.36ZM388.98,498.91v41.17h-6.59v-41.17h6.59Z"/>
    <path class="cls-1" d="M428.99,498.91v5.68h-29.81v-5.68h29.81ZM414.01,487.21v41.5c0,2.03.58,3.54,1.73,4.53,1.15.99,2.63,1.48,4.44,1.48,1.59,0,2.96-.28,4.12-.83,1.15-.55,2.19-1.29,3.13-2.22l2.31,5.52c-1.26,1.15-2.76,2.06-4.49,2.72-1.73.66-3.72.99-5.97.99-2.08,0-4.03-.37-5.84-1.11-1.81-.74-3.25-1.92-4.32-3.54-1.07-1.62-1.63-3.75-1.69-6.38v-40.84l6.58-1.81Z"/>
    <path class="cls-1" d="M455.83,498.08c3.9,0,7.35.85,10.33,2.55,3,1.7,5.34,4.16,7.04,7.37s2.55,7.04,2.55,11.49-.85,8.28-2.55,11.49-4.05,5.67-7.04,7.37c-2.99,1.7-6.43,2.55-10.33,2.55s-7.27-.85-10.29-2.55c-3.02-1.7-5.38-4.16-7.08-7.37-1.7-3.21-2.55-7.04-2.55-11.49s.85-8.27,2.55-11.49c1.7-3.21,4.06-5.67,7.08-7.37s6.45-2.55,10.29-2.55ZM455.83,503.76c-2.8,0-5.19.63-7.16,1.9s-3.5,3.06-4.57,5.39c-1.07,2.33-1.6,5.15-1.6,8.44s.54,6.04,1.6,8.4c1.07,2.36,2.59,4.17,4.57,5.43,1.98,1.26,4.36,1.89,7.16,1.89s5.19-.63,7.17-1.89c1.97-1.26,3.5-3.07,4.57-5.43,1.07-2.36,1.61-5.16,1.61-8.4s-.54-6.11-1.61-8.44c-1.07-2.33-2.59-4.13-4.57-5.39-1.98-1.26-4.36-1.9-7.17-1.9Z"/>
    <path class="cls-1" d="M488.2,540.07v-41.17h5.35l.9,6.75c1.15-2.52,2.84-4.42,5.06-5.68,2.22-1.26,4.92-1.89,8.11-1.89.71,0,1.5.06,2.35.16.85.11,1.58.33,2.18.66l-1.16,6.01c-.6-.22-1.26-.38-1.97-.49-.71-.11-1.73-.17-3.05-.17-1.7,0-3.42.49-5.15,1.48s-3.17,2.48-4.32,4.49-1.73,4.54-1.73,7.62v22.23h-6.58Z"/>
    <path class="cls-1" d="M544.68,513.48c0-3.07-.82-5.45-2.47-7.12-1.65-1.67-3.98-2.51-7-2.51-2.86,0-5.27.62-7.25,1.85-1.98,1.24-3.43,3.23-4.36,5.97l-5.35-3.29c1.09-3.07,3.13-5.56,6.09-7.45,2.97-1.89,6.65-2.84,11.03-2.84,2.97,0,5.66.51,8.07,1.52,2.41,1.02,4.32,2.55,5.72,4.61s2.1,4.71,2.1,7.95v19.93c0,1.98,1.04,2.96,3.13,2.96,1.04,0,2.06-.14,3.05-.41l-.33,5.19c-1.1.55-2.52.82-4.28.82-1.59,0-3.02-.3-4.28-.9-1.26-.6-2.25-1.52-2.97-2.76-.71-1.24-1.07-2.79-1.07-4.65v-.82l1.65.25c-.66,2.14-1.79,3.88-3.38,5.23-1.59,1.35-3.38,2.33-5.35,2.96s-3.92.95-5.85.95c-2.41,0-4.66-.41-6.75-1.24-2.08-.82-3.74-2.07-4.98-3.74-1.23-1.67-1.85-3.75-1.85-6.22,0-3.07,1.03-5.61,3.09-7.62,2.06-2,4.93-3.36,8.6-4.08l16.3-3.21v5.43l-13.25,2.72c-2.69.55-4.7,1.32-6.01,2.3-1.32.99-1.97,2.36-1.97,4.12s.67,3.09,2.02,4.16c1.34,1.07,3.25,1.6,5.72,1.6,1.6,0,3.12-.21,4.57-.62,1.46-.41,2.76-1.04,3.92-1.89,1.15-.85,2.06-1.92,2.71-3.21.66-1.29.99-2.81.99-4.57v-11.36Z"/>
    <path class="cls-1" d="M567.24,540.07v-41.17h5.76l.41,6.42c1.48-2.52,3.42-4.36,5.81-5.52,2.39-1.15,4.84-1.73,7.37-1.73,2.9,0,5.65.66,8.23,1.98s4.56,3.35,5.93,6.09c.88-1.87,2.11-3.39,3.71-4.57s3.33-2.06,5.23-2.63c1.89-.58,3.69-.86,5.39-.86,2.63,0,5.14.55,7.53,1.65,2.39,1.1,4.35,2.8,5.89,5.11,1.54,2.3,2.31,5.27,2.31,8.89v26.35h-6.59v-25.69c0-3.73-.94-6.42-2.8-8.07-1.86-1.65-4.17-2.47-6.92-2.47-2.14,0-4.14.52-6.01,1.56-1.86,1.04-3.36,2.58-4.49,4.61-1.13,2.03-1.69,4.53-1.69,7.49v22.56h-6.58v-25.69c0-3.73-.94-6.42-2.8-8.07-1.87-1.65-4.17-2.47-6.92-2.47-1.81,0-3.66.48-5.56,1.44-1.89.96-3.47,2.48-4.73,4.57-1.27,2.09-1.9,4.83-1.9,8.23v21.98h-6.58Z"/>
    <path class="cls-1" d="M662.91,540.9c-3.9,0-7.37-.85-10.42-2.55-3.05-1.7-5.42-4.16-7.12-7.37-1.7-3.21-2.55-7.04-2.55-11.49s.85-8.27,2.55-11.49c1.7-3.21,4.04-5.67,7-7.37,2.96-1.7,6.34-2.55,10.12-2.55s7.12.82,9.84,2.47c2.72,1.65,4.79,3.88,6.22,6.71,1.43,2.83,2.14,6,2.14,9.51,0,.93-.03,1.78-.08,2.55-.06.77-.14,1.45-.25,2.06h-33.26v-5.85h30.38l-3.37.66c0-3.95-1.08-7-3.25-9.14-2.17-2.14-5.01-3.21-8.52-3.21-2.69,0-5.01.62-6.96,1.85-1.95,1.24-3.46,3.02-4.53,5.35-1.07,2.33-1.6,5.15-1.6,8.44s.55,6.04,1.65,8.4c1.09,2.36,2.65,4.16,4.65,5.39,2,1.23,4.41,1.85,7.2,1.85,3.02,0,5.47-.58,7.37-1.73,1.89-1.15,3.42-2.72,4.57-4.69l5.19,3.05c-1.05,1.87-2.38,3.49-4,4.86s-3.51,2.43-5.68,3.17c-2.17.74-4.6,1.11-7.28,1.11Z"/>
    <path class="cls-1" d="M693.21,540.07v-41.17h5.76l.57,9.22-1.07-.9c.88-2.2,2.06-3.97,3.54-5.31,1.48-1.34,3.2-2.32,5.15-2.92,1.95-.6,3.97-.9,6.05-.9,2.97,0,5.65.56,8.07,1.69s4.35,2.84,5.81,5.15,2.18,5.24,2.18,8.81v26.35h-6.59v-24.04c0-4.55-.97-7.73-2.92-9.51-1.95-1.78-4.35-2.68-7.21-2.68-1.98,0-3.95.47-5.93,1.4-1.97.93-3.61,2.44-4.9,4.53-1.29,2.09-1.93,4.89-1.93,8.4v21.9h-6.59Z"/>
    <path class="cls-1" d="M768.3,498.91v5.68h-29.81v-5.68h29.81ZM753.31,487.21v41.5c0,2.03.58,3.54,1.73,4.53,1.15.99,2.63,1.48,4.44,1.48,1.59,0,2.96-.28,4.12-.83,1.15-.55,2.19-1.29,3.13-2.22l2.31,5.52c-1.26,1.15-2.76,2.06-4.49,2.72-1.73.66-3.72.99-5.97.99-2.08,0-4.03-.37-5.84-1.11-1.81-.74-3.25-1.92-4.32-3.54-1.07-1.62-1.63-3.75-1.69-6.38v-40.84l6.58-1.81Z"/>
    <path class="cls-1" d="M795.14,498.08c3.9,0,7.34.85,10.33,2.55s5.34,4.16,7.04,7.37c1.7,3.21,2.55,7.04,2.55,11.49s-.85,8.28-2.55,11.49c-1.7,3.21-4.05,5.67-7.04,7.37-2.99,1.7-6.44,2.55-10.33,2.55s-7.27-.85-10.29-2.55c-3.02-1.7-5.38-4.16-7.08-7.37-1.7-3.21-2.55-7.04-2.55-11.49s.85-8.27,2.55-11.49c1.7-3.21,4.06-5.67,7.08-7.37s6.45-2.55,10.29-2.55ZM795.14,503.76c-2.8,0-5.19.63-7.16,1.9s-3.5,3.06-4.57,5.39-1.6,5.15-1.6,8.44.53,6.04,1.6,8.4c1.07,2.36,2.59,4.17,4.57,5.43,1.98,1.26,4.36,1.89,7.16,1.89s5.19-.63,7.16-1.89c1.98-1.26,3.5-3.07,4.57-5.43,1.07-2.36,1.6-5.16,1.6-8.4s-.53-6.11-1.6-8.44-2.59-4.13-4.57-5.39-4.36-1.9-7.16-1.9Z"/>
    <path class="cls-1" d="M871.63,540.9c-3.4,0-6.53-.85-9.39-2.55-2.85-1.7-5.13-4.16-6.83-7.37-1.7-3.21-2.55-7.04-2.55-11.49s.9-8.42,2.71-11.61c1.81-3.18,4.2-5.61,7.16-7.29s6.15-2.51,9.55-2.51,6.36.88,8.85,2.63c2.5,1.76,4.16,4.09,4.98,7l-.83.58v-28.32h6.59v60.11h-5.76l-.57-9.96.9-.49c-.39,2.42-1.31,4.46-2.76,6.13-1.45,1.67-3.24,2.95-5.35,3.83-2.11.88-4.35,1.32-6.71,1.32ZM872.29,535.13c2.64,0,4.93-.66,6.88-1.98,1.95-1.32,3.46-3.2,4.53-5.64s1.6-5.31,1.6-8.61-.53-5.82-1.6-8.07-2.55-3.98-4.45-5.19-4.1-1.81-6.63-1.81c-4.17,0-7.41,1.43-9.71,4.28-2.31,2.86-3.46,6.64-3.46,11.36s1.13,8.51,3.38,11.36c2.25,2.86,5.41,4.28,9.47,4.28Z"/>
    <path class="cls-1" d="M924.41,540.9c-3.9,0-7.37-.85-10.41-2.55-3.05-1.7-5.42-4.16-7.12-7.37s-2.55-7.04-2.55-11.49.85-8.27,2.55-11.49,4.03-5.67,7-7.37c2.96-1.7,6.34-2.55,10.12-2.55s7.12.82,9.84,2.47c2.72,1.65,4.79,3.88,6.22,6.71,1.43,2.83,2.14,6,2.14,9.51,0,.93-.03,1.78-.08,2.55-.06.77-.14,1.45-.25,2.06h-33.26v-5.85h30.38l-3.38.66c0-3.95-1.08-7-3.25-9.14-2.17-2.14-5.01-3.21-8.52-3.21-2.69,0-5.01.62-6.96,1.85-1.95,1.24-3.46,3.02-4.53,5.35s-1.6,5.15-1.6,8.44.55,6.04,1.65,8.4c1.1,2.36,2.65,4.16,4.65,5.39,2.01,1.23,4.41,1.85,7.21,1.85,3.02,0,5.47-.58,7.37-1.73,1.89-1.15,3.41-2.72,4.57-4.69l5.19,3.05c-1.04,1.87-2.37,3.49-3.99,4.86-1.62,1.37-3.51,2.43-5.68,3.17-2.17.74-4.6,1.11-7.29,1.11Z"/>
    <path class="cls-1" d="M1005.92,540.9c-5.16,0-9.62-1.14-13.38-3.42-3.76-2.28-6.67-5.5-8.73-9.68-2.06-4.17-3.09-9.14-3.09-14.9s1.08-10.73,3.25-14.9c2.17-4.17,5.2-7.4,9.09-9.68,3.9-2.28,8.37-3.42,13.42-3.42,5.38,0,9.76,1.02,13.13,3.05,3.38,2.03,6.11,5.16,8.19,9.39l-6.01,3.29c-1.21-3.13-3.11-5.5-5.72-7.12-2.61-1.62-5.81-2.43-9.59-2.43s-6.93.86-9.76,2.59c-2.83,1.73-5.05,4.23-6.67,7.49-1.62,3.27-2.43,7.18-2.43,11.73s.7,8.47,2.1,11.73,3.48,5.76,6.26,7.49c2.77,1.73,6.16,2.59,10.17,2.59,2.25,0,4.35-.29,6.3-.86s3.65-1.44,5.11-2.59c1.45-1.15,2.59-2.61,3.41-4.36.83-1.76,1.24-3.82,1.24-6.18v-1.89h-17.29v-6.18h23.3v27.42h-5.19l-.33-10.13,1.4.25c-1.43,3.4-3.68,6.04-6.75,7.9-3.08,1.87-6.89,2.8-11.45,2.8Z"/>
    <path class="cls-1" d="M1066.44,513.48c0-3.07-.83-5.45-2.47-7.12s-3.98-2.51-7-2.51c-2.85,0-5.27.62-7.25,1.85-1.97,1.24-3.43,3.23-4.36,5.97l-5.35-3.29c1.1-3.07,3.13-5.56,6.09-7.45s6.64-2.84,11.03-2.84c2.97,0,5.65.51,8.07,1.52,2.42,1.02,4.32,2.55,5.73,4.61,1.4,2.06,2.1,4.71,2.1,7.95v19.93c0,1.98,1.04,2.96,3.13,2.96,1.04,0,2.06-.14,3.05-.41l-.33,5.19c-1.1.55-2.52.82-4.28.82-1.59,0-3.02-.3-4.28-.9-1.27-.6-2.25-1.52-2.97-2.76-.71-1.24-1.07-2.79-1.07-4.65v-.82l1.65.25c-.66,2.14-1.78,3.88-3.38,5.23s-3.38,2.33-5.35,2.96c-1.97.63-3.93.95-5.84.95-2.42,0-4.67-.41-6.75-1.24-2.09-.82-3.75-2.07-4.98-3.74-1.24-1.67-1.86-3.75-1.86-6.22,0-3.07,1.03-5.61,3.09-7.62,2.06-2,4.93-3.36,8.61-4.08l16.3-3.21v5.43l-13.26,2.72c-2.69.55-4.69,1.32-6.01,2.3-1.32.99-1.98,2.36-1.98,4.12s.67,3.09,2.01,4.16c1.35,1.07,3.25,1.6,5.73,1.6,1.59,0,3.11-.21,4.57-.62,1.45-.41,2.76-1.04,3.91-1.89,1.16-.85,2.06-1.92,2.72-3.21.66-1.29.99-2.81.99-4.57v-11.36Z"/>
    <path class="cls-1" d="M1103.82,540.9c-4.01,0-7.7-.85-11.08-2.55-3.38-1.7-5.97-4.12-7.78-7.24l5.6-4.04c1.21,2.53,2.98,4.5,5.31,5.93,2.33,1.43,5.14,2.14,8.44,2.14,2.9,0,5.19-.56,6.83-1.69,1.65-1.12,2.47-2.59,2.47-4.4,0-1.15-.37-2.21-1.11-3.17-.74-.96-2.15-1.66-4.24-2.1l-9.88-2.06c-4.01-.82-6.87-2.2-8.6-4.12-1.73-1.92-2.6-4.31-2.6-7.16,0-2.25.65-4.31,1.94-6.18,1.29-1.86,3.13-3.36,5.51-4.49s5.2-1.69,8.44-1.69c4.06,0,7.49.8,10.3,2.39,2.8,1.59,4.88,3.84,6.26,6.75l-5.52,3.62c-.93-2.42-2.44-4.19-4.52-5.31-2.09-1.13-4.26-1.69-6.51-1.69-1.98,0-3.66.28-5.06.82-1.4.55-2.47,1.3-3.21,2.26-.74.96-1.11,2.05-1.11,3.25s.41,2.32,1.23,3.33c.83,1.02,2.36,1.74,4.61,2.18l10.29,2.14c3.84.77,6.53,2.03,8.07,3.79,1.54,1.76,2.31,3.9,2.31,6.42s-.69,4.85-2.06,6.79c-1.38,1.95-3.29,3.44-5.76,4.49s-5.33,1.56-8.56,1.56Z"/>
    <path class="cls-1" d="M1149.6,540.9c-3.9,0-7.37-.85-10.41-2.55-3.05-1.7-5.42-4.16-7.12-7.37-1.7-3.21-2.55-7.04-2.55-11.49s.85-8.27,2.55-11.49c1.7-3.21,4.03-5.67,7-7.37s6.34-2.55,10.13-2.55,7.12.82,9.84,2.47c2.72,1.65,4.79,3.88,6.22,6.71,1.42,2.83,2.14,6,2.14,9.51,0,.93-.03,1.78-.08,2.55-.05.77-.14,1.45-.24,2.06h-33.27v-5.85h30.38l-3.38.66c0-3.95-1.09-7-3.25-9.14-2.17-2.14-5.01-3.21-8.52-3.21-2.69,0-5.01.62-6.96,1.85-1.95,1.24-3.46,3.02-4.53,5.35-1.07,2.33-1.6,5.15-1.6,8.44s.55,6.04,1.64,8.4c1.1,2.36,2.65,4.16,4.65,5.39,2,1.23,4.41,1.85,7.2,1.85,3.02,0,5.48-.58,7.37-1.73,1.89-1.15,3.41-2.72,4.57-4.69l5.19,3.05c-1.04,1.87-2.38,3.49-3.99,4.86-1.62,1.37-3.51,2.43-5.68,3.17-2.17.74-4.6,1.11-7.29,1.11Z"/>
    <path class="cls-1" d="M1194.72,540.9c-4.01,0-7.69-.85-11.07-2.55-3.38-1.7-5.97-4.12-7.78-7.24l5.6-4.04c1.21,2.53,2.97,4.5,5.31,5.93,2.33,1.43,5.15,2.14,8.44,2.14,2.91,0,5.19-.56,6.84-1.69,1.65-1.12,2.47-2.59,2.47-4.4,0-1.15-.37-2.21-1.11-3.17-.74-.96-2.16-1.66-4.24-2.1l-9.88-2.06c-4.01-.82-6.88-2.2-8.6-4.12-1.73-1.92-2.59-4.31-2.59-7.16,0-2.25.64-4.31,1.93-6.18,1.29-1.86,3.13-3.36,5.52-4.49s5.2-1.69,8.44-1.69c4.06,0,7.49.8,10.29,2.39,2.8,1.59,4.89,3.84,6.26,6.75l-5.51,3.62c-.94-2.42-2.44-4.19-4.53-5.31-2.08-1.13-4.25-1.69-6.5-1.69-1.98,0-3.66.28-5.06.82-1.4.55-2.47,1.3-3.21,2.26-.74.96-1.11,2.05-1.11,3.25s.41,2.32,1.24,3.33c.82,1.02,2.36,1.74,4.61,2.18l10.3,2.14c3.84.77,6.53,2.03,8.07,3.79s2.3,3.9,2.3,6.42-.68,4.85-2.06,6.79c-1.37,1.95-3.29,3.44-5.76,4.49-2.47,1.04-5.32,1.56-8.56,1.56Z"/>
    <path class="cls-1" d="M1267.42,540.9c-3.4,0-6.53-.85-9.39-2.55-2.85-1.7-5.13-4.16-6.83-7.37-1.7-3.21-2.55-7.04-2.55-11.49s.9-8.42,2.71-11.61c1.81-3.18,4.2-5.61,7.16-7.29,2.97-1.67,6.15-2.51,9.55-2.51s6.36.88,8.85,2.63c2.5,1.76,4.16,4.09,4.98,7l-.83.58v-28.32h6.59v60.11h-5.76l-.57-9.96.9-.49c-.39,2.42-1.31,4.46-2.76,6.13-1.45,1.67-3.24,2.95-5.35,3.83-2.11.88-4.35,1.32-6.71,1.32ZM1268.08,535.13c2.64,0,4.93-.66,6.88-1.98,1.95-1.32,3.46-3.2,4.53-5.64s1.6-5.31,1.6-8.61-.53-5.82-1.6-8.07-2.55-3.98-4.45-5.19-4.1-1.81-6.63-1.81c-4.17,0-7.41,1.43-9.71,4.28-2.31,2.86-3.46,6.64-3.46,11.36s1.13,8.51,3.38,11.36c2.25,2.86,5.41,4.28,9.47,4.28Z"/>
    <path class="cls-1" d="M1320.03,498.08c3.9,0,7.34.85,10.33,2.55s5.34,4.16,7.04,7.37c1.7,3.21,2.55,7.04,2.55,11.49s-.85,8.28-2.55,11.49c-1.7,3.21-4.05,5.67-7.04,7.37-2.99,1.7-6.44,2.55-10.33,2.55s-7.27-.85-10.29-2.55c-3.02-1.7-5.38-4.16-7.08-7.37-1.7-3.21-2.55-7.04-2.55-11.49s.85-8.27,2.55-11.49c1.7-3.21,4.06-5.67,7.08-7.37s6.45-2.55,10.29-2.55ZM1320.03,503.76c-2.8,0-5.19.63-7.16,1.9s-3.5,3.06-4.57,5.39-1.6,5.15-1.6,8.44.53,6.04,1.6,8.4c1.07,2.36,2.59,4.17,4.57,5.43,1.98,1.26,4.36,1.89,7.16,1.89s5.19-.63,7.16-1.89c1.98-1.26,3.5-3.07,4.57-5.43,1.07-2.36,1.6-5.16,1.6-8.4s-.53-6.11-1.6-8.44-2.59-4.13-4.57-5.39c-1.98-1.26-4.36-1.9-7.16-1.9Z"/>
    <path class="cls-1" d="M1381.7,540.07v-54.34h38.12v6.17h-31.54v17.54h24.54v6.18h-24.54v18.28h32.77v6.18h-39.36Z"/>
    <path class="cls-1" d="M1455.23,498.91v5.68h-28.57v-5.68h28.57ZM1448.39,479.56c1.43,0,2.78.17,4.04.49s2.25.8,2.97,1.4l-1.73,5.35c-.65-.44-1.37-.75-2.14-.95-.77-.19-1.62-.29-2.55-.29-2.36,0-4.2.56-5.52,1.69-1.32,1.13-1.97,2.92-1.97,5.39v47.43h-6.59v-48.08c0-1.81.28-3.49.83-5.02.55-1.54,1.38-2.85,2.51-3.95,1.13-1.1,2.54-1.95,4.24-2.55s3.68-.91,5.93-.91Z"/>
    <path class="cls-1" d="M1480.09,540.9c-3.9,0-7.37-.85-10.41-2.55-3.05-1.7-5.42-4.16-7.12-7.37-1.7-3.21-2.55-7.04-2.55-11.49s.85-8.27,2.55-11.49c1.7-3.21,4.03-5.67,7-7.37s6.34-2.55,10.13-2.55,7.12.82,9.84,2.47c2.72,1.65,4.79,3.88,6.22,6.71,1.42,2.83,2.14,6,2.14,9.51,0,.93-.03,1.78-.08,2.55-.05.77-.14,1.45-.24,2.06h-33.27v-5.85h30.38l-3.38.66c0-3.95-1.09-7-3.25-9.14-2.17-2.14-5.01-3.21-8.52-3.21-2.69,0-5.01.62-6.96,1.85-1.95,1.24-3.46,3.02-4.53,5.35-1.07,2.33-1.6,5.15-1.6,8.44s.55,6.04,1.64,8.4c1.1,2.36,2.65,4.16,4.65,5.39,2,1.23,4.41,1.85,7.2,1.85,3.02,0,5.48-.58,7.37-1.73,1.89-1.15,3.41-2.72,4.57-4.69l5.19,3.05c-1.04,1.87-2.38,3.49-3.99,4.86-1.62,1.37-3.51,2.43-5.68,3.17-2.17.74-4.6,1.11-7.29,1.11Z"/>
    <path class="cls-1" d="M1513.68,491c-1.48,0-2.68-.45-3.58-1.36-.9-.9-1.36-2.1-1.36-3.58s.45-2.68,1.36-3.58c.9-.91,2.1-1.36,3.58-1.36s2.68.45,3.58,1.36c.9.9,1.36,2.1,1.36,3.58s-.46,2.68-1.36,3.58c-.9.91-2.1,1.36-3.58,1.36ZM1516.98,498.91v41.17h-6.58v-41.17h6.58Z"/>
    <path class="cls-1" d="M1556.99,498.91v5.68h-29.81v-5.68h29.81ZM1542.01,487.21v41.5c0,2.03.58,3.54,1.73,4.53s2.63,1.48,4.44,1.48c1.59,0,2.97-.28,4.12-.83,1.15-.55,2.19-1.29,3.13-2.22l2.3,5.52c-1.26,1.15-2.76,2.06-4.49,2.72-1.73.66-3.72.99-5.97.99-2.08,0-4.03-.37-5.85-1.11-1.81-.74-3.25-1.92-4.32-3.54-1.07-1.62-1.63-3.75-1.69-6.38v-40.84l6.58-1.81Z"/>
    <path class="cls-1" d="M1583.83,498.08c3.89,0,7.34.85,10.33,2.55,2.99,1.7,5.34,4.16,7.04,7.37s2.55,7.04,2.55,11.49-.85,8.28-2.55,11.49-4.05,5.67-7.04,7.37c-3,1.7-6.44,2.55-10.33,2.55s-7.28-.85-10.3-2.55c-3.02-1.7-5.38-4.16-7.08-7.37s-2.55-7.04-2.55-11.49.85-8.27,2.55-11.49,4.06-5.67,7.08-7.37,6.45-2.55,10.3-2.55ZM1583.83,503.76c-2.8,0-5.19.63-7.16,1.9-1.98,1.26-3.5,3.06-4.57,5.39-1.07,2.33-1.61,5.15-1.61,8.44s.54,6.04,1.61,8.4c1.07,2.36,2.59,4.17,4.57,5.43,1.97,1.26,4.36,1.89,7.16,1.89s5.19-.63,7.16-1.89c1.98-1.26,3.5-3.07,4.57-5.43,1.07-2.36,1.6-5.16,1.6-8.4s-.53-6.11-1.6-8.44-2.59-4.13-4.57-5.39c-1.98-1.26-4.36-1.9-7.16-1.9Z"/>
    <path class="cls-1" d="M1645.5,540.07v-54.34h38.12v6.17h-31.54v17.54h24.54v6.18h-24.54v18.28h32.77v6.18h-39.36Z"/>
    <path class="cls-1" d="M1711.62,540.9c-4.01,0-7.7-.85-11.07-2.55-3.38-1.7-5.97-4.12-7.78-7.24l5.6-4.04c1.21,2.53,2.98,4.5,5.31,5.93,2.33,1.43,5.14,2.14,8.44,2.14,2.91,0,5.19-.56,6.83-1.69,1.65-1.12,2.47-2.59,2.47-4.4,0-1.15-.37-2.21-1.11-3.17-.74-.96-2.16-1.66-4.24-2.1l-9.88-2.06c-4.01-.82-6.88-2.2-8.61-4.12-1.73-1.92-2.59-4.31-2.59-7.16,0-2.25.65-4.31,1.94-6.18,1.29-1.86,3.13-3.36,5.52-4.49s5.2-1.69,8.44-1.69c4.06,0,7.49.8,10.29,2.39,2.8,1.59,4.89,3.84,6.26,6.75l-5.52,3.62c-.94-2.42-2.44-4.19-4.53-5.31s-4.25-1.69-6.5-1.69c-1.98,0-3.66.28-5.06.82-1.4.55-2.47,1.3-3.21,2.26-.75.96-1.11,2.05-1.11,3.25s.41,2.32,1.24,3.33c.82,1.02,2.36,1.74,4.61,2.18l10.3,2.14c3.84.77,6.53,2.03,8.07,3.79s2.3,3.9,2.3,6.42-.68,4.85-2.06,6.79-3.29,3.44-5.76,4.49c-2.47,1.04-5.33,1.56-8.56,1.56Z"/>
    <path class="cls-1" d="M1764.89,498.91v5.68h-29.8v-5.68h29.8ZM1749.9,487.21v41.5c0,2.03.57,3.54,1.73,4.53,1.15.99,2.63,1.48,4.45,1.48,1.59,0,2.96-.28,4.11-.83,1.16-.55,2.2-1.29,3.13-2.22l2.31,5.52c-1.26,1.15-2.76,2.06-4.49,2.72-1.73.66-3.72.99-5.97.99-2.09,0-4.03-.37-5.84-1.11-1.81-.74-3.25-1.92-4.33-3.54-1.07-1.62-1.63-3.75-1.69-6.38v-40.84l6.59-1.81Z"/>
    <path class="cls-1" d="M1789.59,540.9c-2.64,0-5.12-.49-7.45-1.48-2.33-.99-4.23-2.59-5.68-4.82-1.46-2.22-2.18-5.12-2.18-8.69v-27.01h6.58v25.28c0,4.17.9,7.04,2.71,8.61,1.81,1.56,4.36,2.35,7.66,2.35,1.54,0,3.05-.26,4.53-.78s2.81-1.35,3.99-2.47c1.18-1.12,2.11-2.56,2.8-4.32.69-1.76,1.03-3.84,1.03-6.26v-22.39h6.59v41.17h-5.76l-.41-6.26c-1.43,2.47-3.36,4.27-5.81,5.39-2.44,1.13-5.31,1.69-8.6,1.69Z"/>
    <path class="cls-1" d="M1849.04,498.91v5.68h-28.57v-5.68h28.57ZM1842.2,479.56c1.43,0,2.77.17,4.03.49s2.25.8,2.97,1.4l-1.73,5.35c-.66-.44-1.37-.75-2.14-.95-.77-.19-1.62-.29-2.55-.29-2.36,0-4.2.56-5.52,1.69-1.32,1.13-1.97,2.92-1.97,5.39v47.43h-6.59v-48.08c0-1.81.27-3.49.83-5.02.55-1.54,1.38-2.85,2.51-3.95,1.12-1.1,2.54-1.95,4.24-2.55,1.7-.6,3.68-.91,5.93-.91Z"/>
    <path class="cls-1" d="M1879.42,513.48c0-3.07-.83-5.45-2.47-7.12s-3.98-2.51-7-2.51c-2.85,0-5.27.62-7.25,1.85-1.97,1.24-3.43,3.23-4.36,5.97l-5.35-3.29c1.1-3.07,3.13-5.56,6.09-7.45s6.64-2.84,11.03-2.84c2.97,0,5.65.51,8.07,1.52,2.42,1.02,4.32,2.55,5.73,4.61,1.4,2.06,2.1,4.71,2.1,7.95v19.93c0,1.98,1.04,2.96,3.13,2.96,1.04,0,2.06-.14,3.05-.41l-.33,5.19c-1.1.55-2.52.82-4.28.82-1.59,0-3.02-.3-4.28-.9-1.27-.6-2.25-1.52-2.97-2.76-.71-1.24-1.07-2.79-1.07-4.65v-.82l1.65.25c-.66,2.14-1.78,3.88-3.38,5.23s-3.38,2.33-5.35,2.96c-1.97.63-3.93.95-5.84.95-2.42,0-4.67-.41-6.75-1.24-2.09-.82-3.75-2.07-4.98-3.74-1.24-1.67-1.86-3.75-1.86-6.22,0-3.07,1.03-5.61,3.09-7.62,2.06-2,4.93-3.36,8.61-4.08l16.3-3.21v5.43l-13.26,2.72c-2.69.55-4.69,1.32-6.01,2.3-1.32.99-1.98,2.36-1.98,4.12s.67,3.09,2.01,4.16c1.35,1.07,3.25,1.6,5.73,1.6,1.59,0,3.11-.21,4.57-.62,1.45-.41,2.76-1.04,3.91-1.89,1.16-.85,2.06-1.92,2.72-3.21.66-1.29.99-2.81.99-4.57v-11.36Z"/>
  </g>
</svg>