<?xml version="1.0" encoding="UTF-8"?>
<svg id="Camada_1" data-name="Camada 1" xmlns="http://www.w3.org/2000/svg" viewBox="0 0 1920 584.57">
  <defs>
    <style>
      .cls-1 {
        fill: #fff;
        stroke-width: 0px;
      }
    </style>
  </defs>
  <g>
    <path class="cls-1" d="M145.35,190.81h39.14c20.3-75.86,64.27-130.95,122.26-130.95,20.29,0,35.76,3.86,46.39,10.63,8.21-1.93,16.91-6.28,22.71-10.63h10.15c-1.45,5.8-6.28,20.29-11.6,39.14-19.81,67.65-53.15,198.6-70.55,261.9-2.9,11.6-3.38,19.33,1.93,19.33,9.18,0,25.13-14.01,44.94-43.49l9.18,9.66c-21.26,36.72-52.19,64.75-80.7,64.75-11.11,0-15.46-8.22-15.46-21.26,0-14.98,11.11-54.6,18.36-79.73,23.68-86.01,50.74-191.35,54.12-209.72-6.28-17.4-21.74-26.09-37.21-26.09-38.66,0-61.85,49.29-77.31,116.45h47.36l-4.83,16.43h-46.39c-11.6,44.46-34.31,141.1-45.9,191.35-17.4,72-64.75,126.12-110.66,126.12-19.81,0-32.38-12.08-32.38-24.16,0-13.05,12.56-25.61,23.68-25.61,4.83,0,9.66,2.9,20.78,13.53,6.77,6.77,11.6,9.66,15.95,9.66,9.18,0,23.68-3.86,41.07-77.8,10.63-46.87,38.66-167.68,50.26-213.1h-40.11l4.83-16.43Z"/>
    <path class="cls-1" d="M385.01,239.62c24.64-34.79,56.05-54.6,79.73-54.6,7.25,0,11.6,5.8,11.6,15.46,0,5.32-1.45,13.05-8.22,33.34-8.7,29.96-24.64,79.73-33.34,111.14-7.25,26.09-4.83,38.66,7.25,38.66,31.89,0,79.73-72.97,103.41-136.27,6.77-18.36,11.11-32.86,17.88-56.54,12.08,0,25.61-.97,36.72-1.93-19.33,64.75-41.07,143.03-49.29,177.34-1.45,6.77-2.42,13.53,3.38,13.53,7.73,0,24.64-13.53,43.01-43.49l10.15,9.18c-27.54,50.26-60.4,65.72-78.28,65.72-12.56,0-16.43-7.73-16.43-20.3,0-13.53,5.8-37.21,18.36-80.21-36.24,67.65-76.35,100.51-113.07,100.51-17.4,0-24.16-13.53-24.16-29.48,0-10.63,3.38-27.54,6.77-40.59,11.11-38.17,26.58-85.05,34.79-114.04,1.45-4.83,1.93-9.18-1.93-9.18-6.76,0-19.81,8.7-39.62,31.89l-8.7-10.15Z"/>
    <path class="cls-1" d="M652.21,254.11c18.36-38.17,46.87-69.1,68.62-69.1,7.73,0,12.08,6.76,17.88,27.54,2.9,11.6,8.22,34.31,13.53,56.53,30.44-41.07,63.3-84.08,90.84-84.08,10.63,0,17.4,7.25,17.4,20.29,0,18.36-14.01,36.24-21.26,36.24-3.38,0-4.83-1.93-6.77-6.77-2.9-6.76-5.8-15.95-11.6-15.95-7.73,0-29.96,20.78-64.27,67.17,5.8,23.68,11.11,43.01,18.85,63.78,7.25,19.81,13.05,26.58,19.81,26.58,9.66,0,22.23-13.05,41.56-45.9l10.63,8.21c-27.06,55.57-57.5,72.48-70.55,72.48-16.43,0-27.54-24.16-46.39-96.64-14.98,19.81-35.76,48.32-55.57,72.48-16.43,18.36-25.61,26.09-33.34,26.09-10.15,0-17.88-12.56-17.88-28.51,0-17.4,11.11-42.04,22.23-42.04,3.38,0,4.83,3.38,5.32,8.21,1.45,14.01,3.87,21.26,8.7,21.26,3.38,0,8.22-3.38,15.95-11.6,9.66-11.6,26.09-32.86,49.77-63.79-4.83-21.74-13.05-49.29-16.91-62.82-2.9-10.63-4.83-14.98-8.7-14.98-7.25,0-19.33,12.08-36.72,43.49l-11.11-8.22Z"/>
  </g>
  <g>
    <path class="cls-1" d="M1071.72,413.09c-32.56,0-60.7-7.18-84.41-21.56-23.72-14.37-42.07-34.72-55.06-61.04-12.99-26.31-19.48-57.66-19.48-94.02s6.84-67.7,20.52-94.02c13.68-26.31,32.81-46.66,57.4-61.04,24.59-14.37,52.81-21.56,84.68-21.56,33.93,0,61.55,6.41,82.85,19.22,21.3,12.82,38.52,32.56,51.69,59.22l-37.92,20.78c-7.62-19.74-19.66-34.71-36.1-44.93-16.45-10.21-36.62-15.33-60.51-15.33s-43.73,5.45-61.56,16.36c-17.84,10.91-31.86,26.67-42.07,47.27-10.22,20.61-15.33,45.28-15.33,74.02s4.42,53.42,13.25,74.02c8.83,20.61,21.99,36.36,39.48,47.27,17.48,10.91,38.87,16.36,64.15,16.36,14.2,0,27.44-1.82,39.74-5.45,12.29-3.64,23.03-9.09,32.21-16.36,9.17-7.27,16.36-16.44,21.56-27.53,5.2-11.08,7.79-24.07,7.79-38.96v-11.95h-109.09v-38.96h147.01v172.98h-32.72l-2.08-63.89,8.83,1.56c-9.01,21.48-23.21,38.1-42.6,49.87-19.4,11.78-43.46,17.66-72.2,17.66Z"/>
    <path class="cls-1" d="M1311.57,65.05v342.84h-41.56V65.05h41.56ZM1516.75,214.66v38.96h-224.93v-38.96h224.93ZM1539.09,65.05v342.84h-41.56V65.05h41.56Z"/>
    <path class="cls-1" d="M1750.33,413.09c-32.56,0-60.69-7.18-84.41-21.56-23.72-14.37-42.08-34.72-55.07-61.04-12.99-26.31-19.48-57.66-19.48-94.02s6.83-67.7,20.52-94.02c13.68-26.31,32.81-46.66,57.4-61.04,24.59-14.37,52.8-21.56,84.67-21.56,33.94,0,61.55,6.41,82.85,19.22,21.3,12.82,38.52,32.56,51.69,59.22l-37.92,20.78c-7.62-19.74-19.66-34.71-36.1-44.93-16.45-10.21-36.62-15.33-60.52-15.33s-43.72,5.45-61.55,16.36c-17.84,10.91-31.87,26.67-42.08,47.27-10.22,20.61-15.32,45.28-15.32,74.02s4.42,53.42,13.24,74.02c8.83,20.61,21.99,36.36,39.48,47.27,17.48,10.91,38.87,16.36,64.15,16.36,14.19,0,27.44-1.82,39.74-5.45,12.28-3.64,23.02-9.09,32.21-16.36,9.17-7.27,16.36-16.44,21.56-27.53,5.19-11.08,7.79-24.07,7.79-38.96v-11.95h-109.09v-38.96h147.01v172.98h-32.72l-2.08-63.89,8.83,1.56c-9.01,21.48-23.21,38.1-42.6,49.87-19.39,11.78-43.46,17.66-72.2,17.66Z"/>
  </g>
</svg>