<?xml version="1.0" encoding="UTF-8"?>
<svg id="Camada_1" data-name="Camada 1" xmlns="http://www.w3.org/2000/svg" viewBox="0 0 797.26 588.98">
  <defs>
    <style>
      .cls-1 {
        fill: #000;
        stroke-width: 0px;
      }
    </style>
  </defs>
  <g>
    <path class="cls-1" d="M101.38,110.98h27.08c14.04-52.48,44.46-90.59,84.58-90.59,14.04,0,24.74,2.67,32.09,7.35,5.68-1.34,11.7-4.35,15.71-7.35h7.02c-1,4.01-4.35,14.04-8.02,27.08-13.71,46.8-36.77,137.39-48.81,181.19-2.01,8.02-2.34,13.37,1.34,13.37,6.35,0,17.38-9.7,31.09-30.09l6.35,6.69c-14.71,25.41-36.1,44.8-55.83,44.8-7.69,0-10.7-5.68-10.7-14.71,0-10.36,7.69-37.78,12.7-55.16,16.38-59.5,35.1-132.38,37.44-145.08-4.35-12.03-15.04-18.05-25.74-18.05-26.74,0-42.79,34.1-53.49,80.56h32.76l-3.34,11.37h-32.09c-8.02,30.76-23.73,97.61-31.76,132.38-12.03,49.81-44.8,87.25-76.55,87.25-13.71,0-22.4-8.36-22.4-16.71,0-9.03,8.69-17.72,16.38-17.72,3.34,0,6.69,2.01,14.37,9.36,4.68,4.68,8.02,6.69,11.03,6.69,6.35,0,16.38-2.67,28.41-53.82,7.36-32.43,26.74-116,34.77-147.42h-27.75l3.34-11.37Z"/>
    <path class="cls-1" d="M267.18,144.74c17.05-24.07,38.78-37.77,55.16-37.77,5.02,0,8.02,4.01,8.02,10.7,0,3.68-1,9.03-5.68,23.07-6.02,20.73-17.05,55.16-23.07,76.89-5.01,18.05-3.34,26.74,5.02,26.74,22.06,0,55.16-50.48,71.54-94.27,4.68-12.7,7.69-22.73,12.37-39.11,8.36,0,17.72-.67,25.41-1.34-13.37,44.79-28.42,98.95-34.1,122.68-1,4.68-1.67,9.36,2.34,9.36,5.35,0,17.05-9.36,29.75-30.09l7.02,6.35c-19.05,34.77-41.79,45.46-54.16,45.46-8.69,0-11.37-5.35-11.37-14.04,0-9.36,4.01-25.74,12.7-55.49-25.07,46.8-52.82,69.53-78.22,69.53-12.03,0-16.71-9.36-16.71-20.39,0-7.35,2.34-19.05,4.68-28.08,7.69-26.41,18.39-58.84,24.07-78.89,1-3.34,1.34-6.35-1.34-6.35-4.68,0-13.71,6.02-27.41,22.06l-6.02-7.02Z"/>
    <path class="cls-1" d="M452.03,154.77c12.7-26.41,32.43-47.8,47.47-47.8,5.35,0,8.36,4.68,12.37,19.05,2.01,8.02,5.68,23.73,9.36,39.11,21.06-28.41,43.79-58.17,62.85-58.17,7.36,0,12.04,5.01,12.04,14.04,0,12.7-9.7,25.07-14.71,25.07-2.34,0-3.34-1.34-4.68-4.68-2.01-4.68-4.01-11.03-8.02-11.03-5.35,0-20.73,14.37-44.46,46.47,4.01,16.38,7.69,29.75,13.04,44.13,5.01,13.71,9.03,18.39,13.71,18.39,6.69,0,15.38-9.03,28.75-31.76l7.35,5.68c-18.72,38.44-39.78,50.14-48.81,50.14-11.37,0-19.05-16.71-32.09-66.86-10.36,13.71-24.74,33.43-38.44,50.14-11.37,12.7-17.72,18.05-23.07,18.05-7.02,0-12.37-8.69-12.37-19.72,0-12.03,7.69-29.08,15.38-29.08,2.34,0,3.34,2.34,3.68,5.68,1,9.7,2.67,14.71,6.02,14.71,2.34,0,5.68-2.34,11.03-8.02,6.69-8.02,18.05-22.73,34.43-44.13-3.34-15.04-9.03-34.1-11.7-43.46-2.01-7.35-3.34-10.36-6.02-10.36-5.02,0-13.37,8.36-25.41,30.09l-7.69-5.68Z"/>
  </g>
  <g>
    <path class="cls-1" d="M209.59,568.6c-22.52,0-41.99-4.97-58.4-14.91-16.41-9.94-29.11-24.02-38.09-42.23-8.98-18.2-13.48-39.89-13.48-65.04s4.73-46.84,14.19-65.04c9.46-18.2,22.7-32.28,39.71-42.23,17.01-9.94,36.53-14.91,58.58-14.91,23.47,0,42.58,4.44,57.32,13.3,14.73,8.87,26.65,22.52,35.76,40.97l-26.23,14.37c-5.27-13.66-13.6-24.02-24.98-31.08-11.38-7.06-25.34-10.6-41.86-10.6s-30.25,3.77-42.59,11.32c-12.34,7.55-22.04,18.45-29.11,32.7-7.07,14.26-10.6,31.33-10.6,51.21s3.05,36.96,9.16,51.21c6.11,14.26,15.21,25.16,27.31,32.7,12.09,7.55,26.89,11.32,44.38,11.32,9.82,0,18.99-1.26,27.49-3.77,8.5-2.52,15.93-6.29,22.28-11.32,6.34-5.03,11.32-11.38,14.91-19.05,3.59-7.67,5.39-16.65,5.39-26.95v-8.27h-75.47v-26.95h101.7v119.67h-22.64l-1.44-44.2,6.11,1.08c-6.23,14.86-16.05,26.36-29.47,34.5-13.42,8.15-30.07,12.22-49.95,12.22Z"/>
    <path class="cls-1" d="M375.51,327.82v237.18h-28.75v-237.18h28.75ZM517.46,431.32v26.95h-155.6v-26.95h155.6ZM532.92,327.82v237.18h-28.75v-237.18h28.75Z"/>
    <path class="cls-1" d="M679.05,568.6c-22.52,0-41.99-4.97-58.4-14.91-16.41-9.94-29.11-24.02-38.09-42.23-8.98-18.2-13.47-39.89-13.47-65.04s4.73-46.84,14.19-65.04c9.46-18.2,22.7-32.28,39.71-42.23,17.01-9.94,36.53-14.91,58.58-14.91,23.48,0,42.58,4.44,57.32,13.3,14.73,8.87,26.65,22.52,35.76,40.97l-26.24,14.37c-5.27-13.66-13.6-24.02-24.97-31.08-11.38-7.06-25.34-10.6-41.87-10.6s-30.25,3.77-42.58,11.32c-12.34,7.55-22.05,18.45-29.11,32.7-7.07,14.26-10.6,31.33-10.6,51.21s3.05,36.96,9.16,51.21c6.11,14.26,15.21,25.16,27.31,32.7,12.1,7.55,26.89,11.32,44.38,11.32,9.82,0,18.99-1.26,27.49-3.77,8.5-2.52,15.93-6.29,22.28-11.32,6.34-5.03,11.32-11.38,14.91-19.05,3.59-7.67,5.39-16.65,5.39-26.95v-8.27h-75.47v-26.95h101.7v119.67h-22.64l-1.44-44.2,6.11,1.08c-6.23,14.86-16.05,26.36-29.47,34.5-13.42,8.15-30.07,12.22-49.95,12.22Z"/>
  </g>
</svg>